G04 #@! TF.GenerationSoftware,KiCad,Pcbnew,(5.1.5-0)*
G04 #@! TF.CreationDate,2020-11-01T19:49:13+01:00*
G04 #@! TF.ProjectId,Phono preamp,50686f6e-6f20-4707-9265-616d702e6b69,rev?*
G04 #@! TF.SameCoordinates,Original*
G04 #@! TF.FileFunction,Copper,L2,Bot*
G04 #@! TF.FilePolarity,Positive*
%FSLAX46Y46*%
G04 Gerber Fmt 4.6, Leading zero omitted, Abs format (unit mm)*
G04 Created by KiCad (PCBNEW (5.1.5-0)) date 2020-11-01 19:49:13*
%MOMM*%
%LPD*%
G04 APERTURE LIST*
%ADD10O,1.700000X1.700000*%
%ADD11R,1.700000X1.700000*%
%ADD12C,2.600000*%
%ADD13C,2.000000*%
%ADD14R,4.000000X2.000000*%
%ADD15O,1.600000X1.600000*%
%ADD16C,1.600000*%
%ADD17R,1.600000X1.600000*%
%ADD18C,0.800000*%
%ADD19C,1.000000*%
%ADD20C,0.250000*%
G04 APERTURE END LIST*
D10*
X200900000Y-107970000D03*
X200900000Y-110510000D03*
D11*
X200900000Y-113050000D03*
D12*
X187400000Y-77150000D03*
D13*
X67250000Y-150000000D03*
X66000000Y-142000000D03*
X62750000Y-146000000D03*
D14*
X63000000Y-138750000D03*
X63000000Y-153250000D03*
D13*
X67250000Y-85000000D03*
X66000000Y-77000000D03*
X62750000Y-81000000D03*
D14*
X63000000Y-73750000D03*
X63000000Y-88250000D03*
D13*
X166200000Y-147500000D03*
X166200000Y-140000000D03*
D15*
X155250000Y-91000000D03*
D16*
X155250000Y-111000000D03*
D15*
X145750000Y-111000000D03*
D16*
X145750000Y-91000000D03*
D15*
X136000000Y-91000000D03*
D16*
X136000000Y-111000000D03*
X124000000Y-102750000D03*
D17*
X126500000Y-102750000D03*
D16*
X91000000Y-71700000D03*
D17*
X96000000Y-71700000D03*
D16*
X83600000Y-68900000D03*
X83600000Y-73900000D03*
D13*
X82600000Y-147500000D03*
X82600000Y-140000000D03*
D15*
X91750000Y-132750000D03*
D16*
X91750000Y-112750000D03*
D15*
X81000000Y-112750000D03*
D16*
X81000000Y-132750000D03*
D15*
X70700000Y-112750000D03*
D16*
X70700000Y-132750000D03*
X91000000Y-105000000D03*
D17*
X93500000Y-105000000D03*
D16*
X91000000Y-85000000D03*
D17*
X96000000Y-85000000D03*
D16*
X83600000Y-82400000D03*
X83600000Y-87400000D03*
D18*
X200250000Y-101350000D03*
X197000000Y-101350000D03*
X133000000Y-139400000D03*
X150800000Y-140700000D03*
X173500000Y-100400000D03*
X181250000Y-90000000D03*
X111000000Y-68250000D03*
X107500000Y-73250000D03*
X115250000Y-84500000D03*
X118750000Y-127000000D03*
X124200000Y-118600000D03*
X72000000Y-87000000D03*
X67000000Y-98500000D03*
X76000000Y-103500000D03*
X76400000Y-70000000D03*
X122000000Y-129000000D03*
X65000000Y-97250000D03*
X176250000Y-100750000D03*
X107100000Y-76500000D03*
X182300000Y-121700000D03*
X182300000Y-115900000D03*
X181250000Y-92750000D03*
X115250000Y-81500000D03*
X75500000Y-100750000D03*
X127250000Y-118500000D03*
D19*
X129250000Y-129000000D02*
X122000000Y-129000000D01*
X70250000Y-129000000D02*
X65000000Y-123750000D01*
X122000000Y-129000000D02*
X70250000Y-129000000D01*
X65000000Y-123750000D02*
X65000000Y-97250000D01*
X65000000Y-97250000D02*
X65000000Y-97250000D01*
X176250000Y-100750000D02*
X176250000Y-100750000D01*
X180500000Y-100750000D02*
X181500000Y-101750000D01*
X176250000Y-100750000D02*
X180500000Y-100750000D01*
X176250000Y-100750000D02*
X176250000Y-101950000D01*
X176250000Y-101950000D02*
X175000000Y-103200000D01*
X175000000Y-103200000D02*
X136700000Y-103200000D01*
X136700000Y-103200000D02*
X133200000Y-99700000D01*
X133200000Y-99700000D02*
X133200000Y-94900000D01*
X133200000Y-94900000D02*
X131700000Y-93400000D01*
X131700000Y-93400000D02*
X118600000Y-93400000D01*
X118600000Y-93400000D02*
X117600000Y-92400000D01*
X117600000Y-92400000D02*
X117600000Y-88800000D01*
X117600000Y-88800000D02*
X114900000Y-86100000D01*
X114900000Y-86100000D02*
X107700000Y-86100000D01*
X107700000Y-86100000D02*
X107100000Y-85500000D01*
X107100000Y-85500000D02*
X107100000Y-76500000D01*
X107100000Y-76500000D02*
X107100000Y-76500000D01*
X200900000Y-107970000D02*
X183970000Y-107970000D01*
X181500000Y-105500000D02*
X181500000Y-101750000D01*
X183970000Y-107970000D02*
X181500000Y-105500000D01*
X169000000Y-129000000D02*
X168500000Y-129000000D01*
X129250000Y-129000000D02*
X168500000Y-129000000D01*
X169000000Y-129000000D02*
X175000000Y-129000000D01*
X175000000Y-129000000D02*
X182300000Y-121700000D01*
X182300000Y-121700000D02*
X182300000Y-121700000D01*
X182300000Y-109640000D02*
X183970000Y-107970000D01*
X182300000Y-115900000D02*
X182300000Y-109640000D01*
X169750000Y-89750000D02*
X169499999Y-89499999D01*
X181250000Y-92750000D02*
X181250000Y-92750000D01*
X169750000Y-89750000D02*
X168750000Y-88750000D01*
X168750000Y-88750000D02*
X147750000Y-88750000D01*
X147750000Y-88750000D02*
X121500000Y-88750000D01*
X121500000Y-88750000D02*
X120500000Y-87750000D01*
X120500000Y-87750000D02*
X119000000Y-86250000D01*
X119000000Y-86250000D02*
X119000000Y-83500000D01*
X119000000Y-83500000D02*
X117000000Y-81500000D01*
X117000000Y-81500000D02*
X115250000Y-81500000D01*
X115250000Y-81500000D02*
X115250000Y-81500000D01*
X179000000Y-90500000D02*
X181250000Y-92750000D01*
X178250000Y-89750000D02*
X179000000Y-90500000D01*
X169750000Y-89750000D02*
X178250000Y-89750000D01*
X75500000Y-101375000D02*
X73800000Y-103075000D01*
X121400000Y-117200000D02*
X126500000Y-117200000D01*
X96200000Y-119800000D02*
X118800000Y-119800000D01*
X93700000Y-117300000D02*
X96200000Y-119800000D01*
X78400000Y-117300000D02*
X93700000Y-117300000D01*
X126500000Y-117200000D02*
X126500000Y-117300000D01*
X118800000Y-119800000D02*
X121400000Y-117200000D01*
X73800000Y-112700000D02*
X78400000Y-117300000D01*
X73800000Y-103075000D02*
X73800000Y-112700000D01*
X127250000Y-118050000D02*
X127250000Y-118500000D01*
X126500000Y-117300000D02*
X127250000Y-118050000D01*
X75500000Y-100750000D02*
X75500000Y-101375000D01*
X197900000Y-114900000D02*
X197900000Y-112307919D01*
X199697919Y-110510000D02*
X200900000Y-110510000D01*
X197900000Y-112307919D02*
X199697919Y-110510000D01*
X194300000Y-118500000D02*
X197900000Y-114900000D01*
X127250000Y-118500000D02*
X194300000Y-118500000D01*
D20*
G36*
X209317001Y-163317000D02*
G01*
X60683000Y-163317000D01*
X60683000Y-159780069D01*
X61767000Y-159780069D01*
X61767000Y-160219931D01*
X61852812Y-160651342D01*
X62021141Y-161057722D01*
X62265515Y-161423455D01*
X62576545Y-161734485D01*
X62942278Y-161978859D01*
X63348658Y-162147188D01*
X63780069Y-162233000D01*
X64219931Y-162233000D01*
X64651342Y-162147188D01*
X65057722Y-161978859D01*
X65423455Y-161734485D01*
X65734485Y-161423455D01*
X65978859Y-161057722D01*
X66147188Y-160651342D01*
X66233000Y-160219931D01*
X66233000Y-159780069D01*
X203267000Y-159780069D01*
X203267000Y-160219931D01*
X203352812Y-160651342D01*
X203521141Y-161057722D01*
X203765515Y-161423455D01*
X204076545Y-161734485D01*
X204442278Y-161978859D01*
X204848658Y-162147188D01*
X205280069Y-162233000D01*
X205719931Y-162233000D01*
X206151342Y-162147188D01*
X206557722Y-161978859D01*
X206923455Y-161734485D01*
X207234485Y-161423455D01*
X207478859Y-161057722D01*
X207647188Y-160651342D01*
X207733000Y-160219931D01*
X207733000Y-159780069D01*
X207647188Y-159348658D01*
X207478859Y-158942278D01*
X207234485Y-158576545D01*
X206923455Y-158265515D01*
X206557722Y-158021141D01*
X206151342Y-157852812D01*
X205719931Y-157767000D01*
X205280069Y-157767000D01*
X204848658Y-157852812D01*
X204442278Y-158021141D01*
X204076545Y-158265515D01*
X203765515Y-158576545D01*
X203521141Y-158942278D01*
X203352812Y-159348658D01*
X203267000Y-159780069D01*
X66233000Y-159780069D01*
X66147188Y-159348658D01*
X65978859Y-158942278D01*
X65734485Y-158576545D01*
X65423455Y-158265515D01*
X65057722Y-158021141D01*
X64651342Y-157852812D01*
X64219931Y-157767000D01*
X63780069Y-157767000D01*
X63348658Y-157852812D01*
X62942278Y-158021141D01*
X62576545Y-158265515D01*
X62265515Y-158576545D01*
X62021141Y-158942278D01*
X61852812Y-159348658D01*
X61767000Y-159780069D01*
X60683000Y-159780069D01*
X60683000Y-154798310D01*
X60756590Y-154837645D01*
X60875910Y-154873840D01*
X61000000Y-154886062D01*
X65000000Y-154886062D01*
X65124090Y-154873840D01*
X65243410Y-154837645D01*
X65353377Y-154778866D01*
X65449764Y-154699764D01*
X65528866Y-154603377D01*
X65587645Y-154493410D01*
X65623840Y-154374090D01*
X65636062Y-154250000D01*
X65636062Y-152250000D01*
X65623840Y-152125910D01*
X65587645Y-152006590D01*
X65528866Y-151896623D01*
X65449764Y-151800236D01*
X65353377Y-151721134D01*
X65243410Y-151662355D01*
X65124090Y-151626160D01*
X65000000Y-151613938D01*
X61000000Y-151613938D01*
X60875910Y-151626160D01*
X60756590Y-151662355D01*
X60683000Y-151701690D01*
X60683000Y-149839164D01*
X65617000Y-149839164D01*
X65617000Y-150160836D01*
X65679756Y-150476328D01*
X65802855Y-150773515D01*
X65981566Y-151040977D01*
X66209023Y-151268434D01*
X66476485Y-151447145D01*
X66773672Y-151570244D01*
X67089164Y-151633000D01*
X67410836Y-151633000D01*
X67726328Y-151570244D01*
X68023515Y-151447145D01*
X68290977Y-151268434D01*
X68518434Y-151040977D01*
X68697145Y-150773515D01*
X68820244Y-150476328D01*
X68883000Y-150160836D01*
X68883000Y-149839164D01*
X68820244Y-149523672D01*
X68697145Y-149226485D01*
X68518434Y-148959023D01*
X68290977Y-148731566D01*
X68023515Y-148552855D01*
X67726328Y-148429756D01*
X67410836Y-148367000D01*
X67089164Y-148367000D01*
X66773672Y-148429756D01*
X66476485Y-148552855D01*
X66209023Y-148731566D01*
X65981566Y-148959023D01*
X65802855Y-149226485D01*
X65679756Y-149523672D01*
X65617000Y-149839164D01*
X60683000Y-149839164D01*
X60683000Y-147220310D01*
X61918599Y-147220310D01*
X62026417Y-147463785D01*
X62325891Y-147576823D01*
X62641663Y-147629265D01*
X62961598Y-147619094D01*
X63273402Y-147546703D01*
X63473583Y-147463785D01*
X63528768Y-147339164D01*
X80967000Y-147339164D01*
X80967000Y-147660836D01*
X81029756Y-147976328D01*
X81152855Y-148273515D01*
X81331566Y-148540977D01*
X81559023Y-148768434D01*
X81826485Y-148947145D01*
X82123672Y-149070244D01*
X82439164Y-149133000D01*
X82760836Y-149133000D01*
X83076328Y-149070244D01*
X83373515Y-148947145D01*
X83640977Y-148768434D01*
X83868434Y-148540977D01*
X84047145Y-148273515D01*
X84170244Y-147976328D01*
X84233000Y-147660836D01*
X84233000Y-147339164D01*
X164567000Y-147339164D01*
X164567000Y-147660836D01*
X164629756Y-147976328D01*
X164752855Y-148273515D01*
X164931566Y-148540977D01*
X165159023Y-148768434D01*
X165426485Y-148947145D01*
X165723672Y-149070244D01*
X166039164Y-149133000D01*
X166360836Y-149133000D01*
X166676328Y-149070244D01*
X166973515Y-148947145D01*
X167240977Y-148768434D01*
X167468434Y-148540977D01*
X167647145Y-148273515D01*
X167770244Y-147976328D01*
X167833000Y-147660836D01*
X167833000Y-147339164D01*
X167770244Y-147023672D01*
X167647145Y-146726485D01*
X167468434Y-146459023D01*
X167240977Y-146231566D01*
X166973515Y-146052855D01*
X166676328Y-145929756D01*
X166360836Y-145867000D01*
X166039164Y-145867000D01*
X165723672Y-145929756D01*
X165426485Y-146052855D01*
X165159023Y-146231566D01*
X164931566Y-146459023D01*
X164752855Y-146726485D01*
X164629756Y-147023672D01*
X164567000Y-147339164D01*
X84233000Y-147339164D01*
X84170244Y-147023672D01*
X84047145Y-146726485D01*
X83868434Y-146459023D01*
X83640977Y-146231566D01*
X83373515Y-146052855D01*
X83076328Y-145929756D01*
X82760836Y-145867000D01*
X82439164Y-145867000D01*
X82123672Y-145929756D01*
X81826485Y-146052855D01*
X81559023Y-146231566D01*
X81331566Y-146459023D01*
X81152855Y-146726485D01*
X81029756Y-147023672D01*
X80967000Y-147339164D01*
X63528768Y-147339164D01*
X63581401Y-147220310D01*
X62750000Y-146388909D01*
X61918599Y-147220310D01*
X60683000Y-147220310D01*
X60683000Y-145891663D01*
X61120735Y-145891663D01*
X61130906Y-146211598D01*
X61203297Y-146523402D01*
X61286215Y-146723583D01*
X61529690Y-146831401D01*
X62361091Y-146000000D01*
X63138909Y-146000000D01*
X63970310Y-146831401D01*
X64213785Y-146723583D01*
X64326823Y-146424109D01*
X64379265Y-146108337D01*
X64369094Y-145788402D01*
X64296703Y-145476598D01*
X64213785Y-145276417D01*
X63970310Y-145168599D01*
X63138909Y-146000000D01*
X62361091Y-146000000D01*
X61529690Y-145168599D01*
X61286215Y-145276417D01*
X61173177Y-145575891D01*
X61120735Y-145891663D01*
X60683000Y-145891663D01*
X60683000Y-144779690D01*
X61918599Y-144779690D01*
X62750000Y-145611091D01*
X63581401Y-144779690D01*
X63473583Y-144536215D01*
X63174109Y-144423177D01*
X62858337Y-144370735D01*
X62538402Y-144380906D01*
X62226598Y-144453297D01*
X62026417Y-144536215D01*
X61918599Y-144779690D01*
X60683000Y-144779690D01*
X60683000Y-141839164D01*
X64367000Y-141839164D01*
X64367000Y-142160836D01*
X64429756Y-142476328D01*
X64552855Y-142773515D01*
X64731566Y-143040977D01*
X64959023Y-143268434D01*
X65226485Y-143447145D01*
X65523672Y-143570244D01*
X65839164Y-143633000D01*
X66160836Y-143633000D01*
X66476328Y-143570244D01*
X66773515Y-143447145D01*
X67040977Y-143268434D01*
X67268434Y-143040977D01*
X67447145Y-142773515D01*
X67570244Y-142476328D01*
X67633000Y-142160836D01*
X67633000Y-141839164D01*
X67570244Y-141523672D01*
X67447145Y-141226485D01*
X67268434Y-140959023D01*
X67040977Y-140731566D01*
X66773515Y-140552855D01*
X66476328Y-140429756D01*
X66160836Y-140367000D01*
X65839164Y-140367000D01*
X65523672Y-140429756D01*
X65226485Y-140552855D01*
X64959023Y-140731566D01*
X64731566Y-140959023D01*
X64552855Y-141226485D01*
X64429756Y-141523672D01*
X64367000Y-141839164D01*
X60683000Y-141839164D01*
X60683000Y-140298310D01*
X60756590Y-140337645D01*
X60875910Y-140373840D01*
X61000000Y-140386062D01*
X65000000Y-140386062D01*
X65124090Y-140373840D01*
X65243410Y-140337645D01*
X65353377Y-140278866D01*
X65449764Y-140199764D01*
X65528866Y-140103377D01*
X65587645Y-139993410D01*
X65623840Y-139874090D01*
X65627279Y-139839164D01*
X80967000Y-139839164D01*
X80967000Y-140160836D01*
X81029756Y-140476328D01*
X81152855Y-140773515D01*
X81331566Y-141040977D01*
X81559023Y-141268434D01*
X81826485Y-141447145D01*
X82123672Y-141570244D01*
X82439164Y-141633000D01*
X82760836Y-141633000D01*
X83076328Y-141570244D01*
X83373515Y-141447145D01*
X83640977Y-141268434D01*
X83868434Y-141040977D01*
X84047145Y-140773515D01*
X84170244Y-140476328D01*
X84233000Y-140160836D01*
X84233000Y-139839164D01*
X164567000Y-139839164D01*
X164567000Y-140160836D01*
X164629756Y-140476328D01*
X164752855Y-140773515D01*
X164931566Y-141040977D01*
X165159023Y-141268434D01*
X165426485Y-141447145D01*
X165723672Y-141570244D01*
X166039164Y-141633000D01*
X166360836Y-141633000D01*
X166676328Y-141570244D01*
X166973515Y-141447145D01*
X167240977Y-141268434D01*
X167468434Y-141040977D01*
X167647145Y-140773515D01*
X167770244Y-140476328D01*
X167833000Y-140160836D01*
X167833000Y-139839164D01*
X167770244Y-139523672D01*
X167647145Y-139226485D01*
X167468434Y-138959023D01*
X167240977Y-138731566D01*
X166973515Y-138552855D01*
X166676328Y-138429756D01*
X166360836Y-138367000D01*
X166039164Y-138367000D01*
X165723672Y-138429756D01*
X165426485Y-138552855D01*
X165159023Y-138731566D01*
X164931566Y-138959023D01*
X164752855Y-139226485D01*
X164629756Y-139523672D01*
X164567000Y-139839164D01*
X84233000Y-139839164D01*
X84170244Y-139523672D01*
X84047145Y-139226485D01*
X83868434Y-138959023D01*
X83640977Y-138731566D01*
X83373515Y-138552855D01*
X83076328Y-138429756D01*
X82760836Y-138367000D01*
X82439164Y-138367000D01*
X82123672Y-138429756D01*
X81826485Y-138552855D01*
X81559023Y-138731566D01*
X81331566Y-138959023D01*
X81152855Y-139226485D01*
X81029756Y-139523672D01*
X80967000Y-139839164D01*
X65627279Y-139839164D01*
X65636062Y-139750000D01*
X65636062Y-137750000D01*
X65623840Y-137625910D01*
X65587645Y-137506590D01*
X65528866Y-137396623D01*
X65449764Y-137300236D01*
X65353377Y-137221134D01*
X65243410Y-137162355D01*
X65124090Y-137126160D01*
X65000000Y-137113938D01*
X61000000Y-137113938D01*
X60875910Y-137126160D01*
X60756590Y-137162355D01*
X60683000Y-137201690D01*
X60683000Y-132608862D01*
X69267000Y-132608862D01*
X69267000Y-132891138D01*
X69322069Y-133167991D01*
X69430092Y-133428780D01*
X69586916Y-133663484D01*
X69786516Y-133863084D01*
X70021220Y-134019908D01*
X70282009Y-134127931D01*
X70558862Y-134183000D01*
X70841138Y-134183000D01*
X71117991Y-134127931D01*
X71378780Y-134019908D01*
X71613484Y-133863084D01*
X71813084Y-133663484D01*
X71969908Y-133428780D01*
X72077931Y-133167991D01*
X72133000Y-132891138D01*
X72133000Y-132608862D01*
X79567000Y-132608862D01*
X79567000Y-132891138D01*
X79622069Y-133167991D01*
X79730092Y-133428780D01*
X79886916Y-133663484D01*
X80086516Y-133863084D01*
X80321220Y-134019908D01*
X80582009Y-134127931D01*
X80858862Y-134183000D01*
X81141138Y-134183000D01*
X81417991Y-134127931D01*
X81678780Y-134019908D01*
X81913484Y-133863084D01*
X82113084Y-133663484D01*
X82269908Y-133428780D01*
X82377931Y-133167991D01*
X82433000Y-132891138D01*
X82433000Y-132608862D01*
X90317000Y-132608862D01*
X90317000Y-132891138D01*
X90372069Y-133167991D01*
X90480092Y-133428780D01*
X90636916Y-133663484D01*
X90836516Y-133863084D01*
X91071220Y-134019908D01*
X91332009Y-134127931D01*
X91608862Y-134183000D01*
X91891138Y-134183000D01*
X92167991Y-134127931D01*
X92428780Y-134019908D01*
X92663484Y-133863084D01*
X92863084Y-133663484D01*
X93019908Y-133428780D01*
X93127931Y-133167991D01*
X93183000Y-132891138D01*
X93183000Y-132608862D01*
X93127931Y-132332009D01*
X93019908Y-132071220D01*
X92863084Y-131836516D01*
X92663484Y-131636916D01*
X92428780Y-131480092D01*
X92167991Y-131372069D01*
X91891138Y-131317000D01*
X91608862Y-131317000D01*
X91332009Y-131372069D01*
X91071220Y-131480092D01*
X90836516Y-131636916D01*
X90636916Y-131836516D01*
X90480092Y-132071220D01*
X90372069Y-132332009D01*
X90317000Y-132608862D01*
X82433000Y-132608862D01*
X82377931Y-132332009D01*
X82269908Y-132071220D01*
X82113084Y-131836516D01*
X81913484Y-131636916D01*
X81678780Y-131480092D01*
X81417991Y-131372069D01*
X81141138Y-131317000D01*
X80858862Y-131317000D01*
X80582009Y-131372069D01*
X80321220Y-131480092D01*
X80086516Y-131636916D01*
X79886916Y-131836516D01*
X79730092Y-132071220D01*
X79622069Y-132332009D01*
X79567000Y-132608862D01*
X72133000Y-132608862D01*
X72077931Y-132332009D01*
X71969908Y-132071220D01*
X71813084Y-131836516D01*
X71613484Y-131636916D01*
X71378780Y-131480092D01*
X71117991Y-131372069D01*
X70841138Y-131317000D01*
X70558862Y-131317000D01*
X70282009Y-131372069D01*
X70021220Y-131480092D01*
X69786516Y-131636916D01*
X69586916Y-131836516D01*
X69430092Y-132071220D01*
X69322069Y-132332009D01*
X69267000Y-132608862D01*
X60683000Y-132608862D01*
X60683000Y-97250000D01*
X63861518Y-97250000D01*
X63867001Y-97305669D01*
X63867000Y-123694349D01*
X63861519Y-123750000D01*
X63867000Y-123805651D01*
X63867000Y-123805658D01*
X63883394Y-123972106D01*
X63948180Y-124185677D01*
X64053387Y-124382507D01*
X64194972Y-124555028D01*
X64238208Y-124590511D01*
X69409493Y-129761797D01*
X69444972Y-129805028D01*
X69617493Y-129946613D01*
X69814322Y-130051820D01*
X70027893Y-130116606D01*
X70194341Y-130133000D01*
X70194348Y-130133000D01*
X70249999Y-130138481D01*
X70305650Y-130133000D01*
X174944349Y-130133000D01*
X175000000Y-130138481D01*
X175055651Y-130133000D01*
X175055659Y-130133000D01*
X175222107Y-130116606D01*
X175435678Y-130051820D01*
X175632507Y-129946613D01*
X175805028Y-129805028D01*
X175840511Y-129761792D01*
X183061797Y-122540507D01*
X183105028Y-122505028D01*
X183246613Y-122332507D01*
X183351820Y-122135678D01*
X183416606Y-121922107D01*
X183438482Y-121700000D01*
X183416606Y-121477893D01*
X183351820Y-121264322D01*
X183246613Y-121067493D01*
X183105028Y-120894972D01*
X182932507Y-120753387D01*
X182735678Y-120648180D01*
X182522107Y-120583394D01*
X182355659Y-120567000D01*
X182355650Y-120567000D01*
X182299999Y-120561519D01*
X182244348Y-120567000D01*
X182244341Y-120567000D01*
X182077893Y-120583394D01*
X181864322Y-120648180D01*
X181680166Y-120746613D01*
X181667493Y-120753387D01*
X181547553Y-120851820D01*
X181494972Y-120894972D01*
X181459493Y-120938203D01*
X174530697Y-127867000D01*
X70719304Y-127867000D01*
X66133000Y-123280697D01*
X66133000Y-121500000D01*
X120375000Y-121500000D01*
X120375000Y-124000000D01*
X120377402Y-124024386D01*
X120384515Y-124047835D01*
X120396066Y-124069446D01*
X120411612Y-124088388D01*
X120430554Y-124103934D01*
X120452165Y-124115485D01*
X120475614Y-124122598D01*
X120500000Y-124125000D01*
X123464150Y-124125000D01*
X125433750Y-125356000D01*
X125452165Y-125365485D01*
X125475614Y-125372598D01*
X125500000Y-125375000D01*
X128500000Y-125375000D01*
X128524386Y-125372598D01*
X128547835Y-125365485D01*
X128569446Y-125353934D01*
X128588388Y-125338388D01*
X128603934Y-125319446D01*
X128615485Y-125297835D01*
X128622598Y-125274386D01*
X128625000Y-125250000D01*
X128625000Y-122750000D01*
X128622598Y-122725614D01*
X128615485Y-122702165D01*
X128603934Y-122680554D01*
X128588388Y-122661612D01*
X128569446Y-122646066D01*
X128547835Y-122634515D01*
X128524386Y-122627402D01*
X128500000Y-122625000D01*
X125535850Y-122625000D01*
X123566250Y-121394000D01*
X123547835Y-121384515D01*
X123524386Y-121377402D01*
X123500000Y-121375000D01*
X120500000Y-121375000D01*
X120475614Y-121377402D01*
X120452165Y-121384515D01*
X120430554Y-121396066D01*
X120411612Y-121411612D01*
X120396066Y-121430554D01*
X120384515Y-121452165D01*
X120377402Y-121475614D01*
X120375000Y-121500000D01*
X66133000Y-121500000D01*
X66133000Y-112608862D01*
X69267000Y-112608862D01*
X69267000Y-112891138D01*
X69322069Y-113167991D01*
X69430092Y-113428780D01*
X69586916Y-113663484D01*
X69786516Y-113863084D01*
X70021220Y-114019908D01*
X70282009Y-114127931D01*
X70558862Y-114183000D01*
X70841138Y-114183000D01*
X71117991Y-114127931D01*
X71378780Y-114019908D01*
X71613484Y-113863084D01*
X71813084Y-113663484D01*
X71969908Y-113428780D01*
X72077931Y-113167991D01*
X72133000Y-112891138D01*
X72133000Y-112608862D01*
X72077931Y-112332009D01*
X71969908Y-112071220D01*
X71813084Y-111836516D01*
X71613484Y-111636916D01*
X71378780Y-111480092D01*
X71117991Y-111372069D01*
X70841138Y-111317000D01*
X70558862Y-111317000D01*
X70282009Y-111372069D01*
X70021220Y-111480092D01*
X69786516Y-111636916D01*
X69586916Y-111836516D01*
X69430092Y-112071220D01*
X69322069Y-112332009D01*
X69267000Y-112608862D01*
X66133000Y-112608862D01*
X66133000Y-103075000D01*
X72661519Y-103075000D01*
X72667000Y-103130651D01*
X72667001Y-112644339D01*
X72661519Y-112700000D01*
X72683394Y-112922106D01*
X72748181Y-113135678D01*
X72853387Y-113332506D01*
X72932398Y-113428780D01*
X72994973Y-113505028D01*
X73038204Y-113540507D01*
X77559491Y-118061795D01*
X77594972Y-118105028D01*
X77767493Y-118246613D01*
X77964322Y-118351820D01*
X78177893Y-118416606D01*
X78344341Y-118433000D01*
X78344348Y-118433000D01*
X78399999Y-118438481D01*
X78455650Y-118433000D01*
X93230697Y-118433000D01*
X95359493Y-120561797D01*
X95394972Y-120605028D01*
X95438203Y-120640507D01*
X95438204Y-120640508D01*
X95447554Y-120648181D01*
X95567493Y-120746613D01*
X95764322Y-120851820D01*
X95977893Y-120916606D01*
X96144341Y-120933000D01*
X96144349Y-120933000D01*
X96200000Y-120938481D01*
X96255651Y-120933000D01*
X118744349Y-120933000D01*
X118800000Y-120938481D01*
X118855651Y-120933000D01*
X118855659Y-120933000D01*
X119022107Y-120916606D01*
X119235678Y-120851820D01*
X119432507Y-120746613D01*
X119605028Y-120605028D01*
X119640511Y-120561792D01*
X121869304Y-118333000D01*
X125930697Y-118333000D01*
X126113028Y-118515331D01*
X126133394Y-118722107D01*
X126198180Y-118935678D01*
X126303387Y-119132507D01*
X126444972Y-119305028D01*
X126617493Y-119446613D01*
X126814322Y-119551820D01*
X127027893Y-119616606D01*
X127194341Y-119633000D01*
X127194342Y-119633000D01*
X127250000Y-119638482D01*
X127305659Y-119633000D01*
X194244349Y-119633000D01*
X194300000Y-119638481D01*
X194355651Y-119633000D01*
X194355659Y-119633000D01*
X194522107Y-119616606D01*
X194735678Y-119551820D01*
X194932507Y-119446613D01*
X195105028Y-119305028D01*
X195140511Y-119261792D01*
X198661797Y-115740507D01*
X198705028Y-115705028D01*
X198846613Y-115532507D01*
X198911725Y-115410691D01*
X198951820Y-115335679D01*
X199016606Y-115122107D01*
X199019018Y-115097617D01*
X199033000Y-114955659D01*
X199033000Y-114955651D01*
X199038481Y-114900000D01*
X199033000Y-114844349D01*
X199033000Y-113900000D01*
X199421976Y-113900000D01*
X199434043Y-114022521D01*
X199469781Y-114140334D01*
X199527817Y-114248911D01*
X199605920Y-114344080D01*
X199701089Y-114422183D01*
X199809666Y-114480219D01*
X199927479Y-114515957D01*
X200050000Y-114528024D01*
X200468750Y-114525000D01*
X200625000Y-114368750D01*
X200625000Y-113325000D01*
X201175000Y-113325000D01*
X201175000Y-114368750D01*
X201331250Y-114525000D01*
X201750000Y-114528024D01*
X201872521Y-114515957D01*
X201990334Y-114480219D01*
X202098911Y-114422183D01*
X202194080Y-114344080D01*
X202272183Y-114248911D01*
X202330219Y-114140334D01*
X202365957Y-114022521D01*
X202378024Y-113900000D01*
X202375000Y-113481250D01*
X202218750Y-113325000D01*
X201175000Y-113325000D01*
X200625000Y-113325000D01*
X199581250Y-113325000D01*
X199425000Y-113481250D01*
X199421976Y-113900000D01*
X199033000Y-113900000D01*
X199033000Y-112777222D01*
X199423326Y-112386897D01*
X199425000Y-112618750D01*
X199581250Y-112775000D01*
X200625000Y-112775000D01*
X200625000Y-112755000D01*
X201175000Y-112755000D01*
X201175000Y-112775000D01*
X202218750Y-112775000D01*
X202375000Y-112618750D01*
X202378024Y-112200000D01*
X202365957Y-112077479D01*
X202330219Y-111959666D01*
X202272183Y-111851089D01*
X202194080Y-111755920D01*
X202098911Y-111677817D01*
X201990334Y-111619781D01*
X201911433Y-111595847D01*
X202051922Y-111455358D01*
X202214218Y-111212464D01*
X202326010Y-110942575D01*
X202383000Y-110656063D01*
X202383000Y-110363937D01*
X202326010Y-110077425D01*
X202214218Y-109807536D01*
X202051922Y-109564642D01*
X201845358Y-109358078D01*
X201668641Y-109240000D01*
X201845358Y-109121922D01*
X202051922Y-108915358D01*
X202214218Y-108672464D01*
X202326010Y-108402575D01*
X202383000Y-108116063D01*
X202383000Y-107823937D01*
X202326010Y-107537425D01*
X202214218Y-107267536D01*
X202051922Y-107024642D01*
X201845358Y-106818078D01*
X201602464Y-106655782D01*
X201332575Y-106543990D01*
X201046063Y-106487000D01*
X200753937Y-106487000D01*
X200467425Y-106543990D01*
X200197536Y-106655782D01*
X199954642Y-106818078D01*
X199935720Y-106837000D01*
X184439304Y-106837000D01*
X182633000Y-105030697D01*
X182633000Y-101805651D01*
X182638481Y-101750000D01*
X182633000Y-101694349D01*
X182633000Y-101694341D01*
X182616606Y-101527893D01*
X182551820Y-101314322D01*
X182446613Y-101117493D01*
X182305028Y-100944972D01*
X182261797Y-100909493D01*
X181340511Y-99988208D01*
X181305028Y-99944972D01*
X181132507Y-99803387D01*
X180935678Y-99698180D01*
X180722107Y-99633394D01*
X180555659Y-99617000D01*
X180555651Y-99617000D01*
X180500000Y-99611519D01*
X180444349Y-99617000D01*
X176305658Y-99617000D01*
X176250000Y-99611518D01*
X176194341Y-99617000D01*
X176027893Y-99633394D01*
X175814322Y-99698180D01*
X175617493Y-99803387D01*
X175444972Y-99944972D01*
X175303387Y-100117493D01*
X175198180Y-100314322D01*
X175133394Y-100527893D01*
X175111518Y-100750000D01*
X175117000Y-100805659D01*
X175117000Y-101480696D01*
X174530697Y-102067000D01*
X137169304Y-102067000D01*
X134333000Y-99230697D01*
X134333000Y-95500000D01*
X174875000Y-95500000D01*
X174875000Y-98000000D01*
X174877402Y-98024386D01*
X174884515Y-98047835D01*
X174896066Y-98069446D01*
X174911612Y-98088388D01*
X174930554Y-98103934D01*
X174952165Y-98115485D01*
X174975614Y-98122598D01*
X175000000Y-98125000D01*
X177500000Y-98125000D01*
X177524386Y-98122598D01*
X177547835Y-98115485D01*
X177569446Y-98103934D01*
X177588388Y-98088388D01*
X177603934Y-98069446D01*
X177615485Y-98047835D01*
X177622598Y-98024386D01*
X177625000Y-98000000D01*
X177625000Y-97051776D01*
X179911612Y-99338388D01*
X179930554Y-99353934D01*
X179952165Y-99365485D01*
X179975614Y-99372598D01*
X180000000Y-99375000D01*
X182500000Y-99375000D01*
X182524386Y-99372598D01*
X182547835Y-99365485D01*
X182569446Y-99353934D01*
X182588388Y-99338388D01*
X182603934Y-99319446D01*
X182615485Y-99297835D01*
X182622598Y-99274386D01*
X182625000Y-99250000D01*
X182625000Y-96750000D01*
X182622598Y-96725614D01*
X182615485Y-96702165D01*
X182603934Y-96680554D01*
X182588388Y-96661612D01*
X182569446Y-96646066D01*
X182547835Y-96634515D01*
X182524386Y-96627402D01*
X182500000Y-96625000D01*
X179750000Y-96625000D01*
X179725614Y-96627402D01*
X179702165Y-96634515D01*
X179680554Y-96646066D01*
X179661612Y-96661612D01*
X179646066Y-96680554D01*
X179634515Y-96702165D01*
X179627402Y-96725614D01*
X179625000Y-96750000D01*
X179625000Y-97233120D01*
X178334373Y-96157597D01*
X177588388Y-95411612D01*
X177569446Y-95396066D01*
X177547835Y-95384515D01*
X177524386Y-95377402D01*
X177500000Y-95375000D01*
X175000000Y-95375000D01*
X174975614Y-95377402D01*
X174952165Y-95384515D01*
X174930554Y-95396066D01*
X174911612Y-95411612D01*
X174896066Y-95430554D01*
X174884515Y-95452165D01*
X174877402Y-95475614D01*
X174875000Y-95500000D01*
X134333000Y-95500000D01*
X134333000Y-94955650D01*
X134338481Y-94899999D01*
X134333000Y-94844348D01*
X134333000Y-94844341D01*
X134316606Y-94677893D01*
X134251820Y-94464322D01*
X134146613Y-94267493D01*
X134005028Y-94094972D01*
X133961797Y-94059493D01*
X132540511Y-92638208D01*
X132505028Y-92594972D01*
X132332507Y-92453387D01*
X132135678Y-92348180D01*
X131922107Y-92283394D01*
X131755659Y-92267000D01*
X131755651Y-92267000D01*
X131700000Y-92261519D01*
X131644349Y-92267000D01*
X119069304Y-92267000D01*
X118733000Y-91930697D01*
X118733000Y-88855651D01*
X118738481Y-88800000D01*
X118733000Y-88744349D01*
X118733000Y-88744341D01*
X118716606Y-88577893D01*
X118651820Y-88364322D01*
X118546613Y-88167493D01*
X118405028Y-87994972D01*
X118361797Y-87959493D01*
X115740511Y-85338208D01*
X115705028Y-85294972D01*
X115532507Y-85153387D01*
X115335678Y-85048180D01*
X115122107Y-84983394D01*
X114955659Y-84967000D01*
X114955651Y-84967000D01*
X114900000Y-84961519D01*
X114844349Y-84967000D01*
X108233000Y-84967000D01*
X108233000Y-80250000D01*
X108625000Y-80250000D01*
X108625000Y-82750000D01*
X108627402Y-82774386D01*
X108634515Y-82797835D01*
X108646066Y-82819446D01*
X108661612Y-82838388D01*
X108680554Y-82853934D01*
X108702165Y-82865485D01*
X108725614Y-82872598D01*
X108750000Y-82875000D01*
X111500000Y-82875000D01*
X111524386Y-82872598D01*
X111547835Y-82865485D01*
X111569446Y-82853934D01*
X111588388Y-82838388D01*
X111603934Y-82819446D01*
X111615485Y-82797835D01*
X111622598Y-82774386D01*
X111625000Y-82750000D01*
X111625000Y-81500000D01*
X114111518Y-81500000D01*
X114133394Y-81722107D01*
X114198180Y-81935678D01*
X114303387Y-82132507D01*
X114444972Y-82305028D01*
X114617493Y-82446613D01*
X114814322Y-82551820D01*
X115027893Y-82616606D01*
X115194341Y-82633000D01*
X116530697Y-82633000D01*
X117867001Y-83969305D01*
X117867000Y-86194349D01*
X117861519Y-86250000D01*
X117867000Y-86305651D01*
X117867000Y-86305658D01*
X117883394Y-86472106D01*
X117948180Y-86685677D01*
X118053387Y-86882507D01*
X118194972Y-87055028D01*
X118238208Y-87090511D01*
X119738204Y-88590508D01*
X119738209Y-88590512D01*
X120659491Y-89511795D01*
X120694972Y-89555028D01*
X120738203Y-89590507D01*
X120738205Y-89590509D01*
X120753885Y-89603377D01*
X120867493Y-89696613D01*
X121064322Y-89801820D01*
X121277893Y-89866606D01*
X121444341Y-89883000D01*
X121444349Y-89883000D01*
X121500000Y-89888481D01*
X121555651Y-89883000D01*
X135092377Y-89883000D01*
X135086516Y-89886916D01*
X134886916Y-90086516D01*
X134730092Y-90321220D01*
X134622069Y-90582009D01*
X134567000Y-90858862D01*
X134567000Y-91141138D01*
X134622069Y-91417991D01*
X134730092Y-91678780D01*
X134886916Y-91913484D01*
X135086516Y-92113084D01*
X135321220Y-92269908D01*
X135582009Y-92377931D01*
X135858862Y-92433000D01*
X136141138Y-92433000D01*
X136417991Y-92377931D01*
X136678780Y-92269908D01*
X136913484Y-92113084D01*
X137113084Y-91913484D01*
X137269908Y-91678780D01*
X137377931Y-91417991D01*
X137433000Y-91141138D01*
X137433000Y-90858862D01*
X137377931Y-90582009D01*
X137269908Y-90321220D01*
X137113084Y-90086516D01*
X136913484Y-89886916D01*
X136907623Y-89883000D01*
X144842377Y-89883000D01*
X144836516Y-89886916D01*
X144636916Y-90086516D01*
X144480092Y-90321220D01*
X144372069Y-90582009D01*
X144317000Y-90858862D01*
X144317000Y-91141138D01*
X144372069Y-91417991D01*
X144480092Y-91678780D01*
X144636916Y-91913484D01*
X144836516Y-92113084D01*
X145071220Y-92269908D01*
X145332009Y-92377931D01*
X145608862Y-92433000D01*
X145891138Y-92433000D01*
X146167991Y-92377931D01*
X146428780Y-92269908D01*
X146663484Y-92113084D01*
X146863084Y-91913484D01*
X147019908Y-91678780D01*
X147127931Y-91417991D01*
X147183000Y-91141138D01*
X147183000Y-90858862D01*
X147127931Y-90582009D01*
X147019908Y-90321220D01*
X146863084Y-90086516D01*
X146663484Y-89886916D01*
X146657623Y-89883000D01*
X154342377Y-89883000D01*
X154336516Y-89886916D01*
X154136916Y-90086516D01*
X153980092Y-90321220D01*
X153872069Y-90582009D01*
X153817000Y-90858862D01*
X153817000Y-91141138D01*
X153872069Y-91417991D01*
X153980092Y-91678780D01*
X154136916Y-91913484D01*
X154336516Y-92113084D01*
X154571220Y-92269908D01*
X154832009Y-92377931D01*
X155108862Y-92433000D01*
X155391138Y-92433000D01*
X155667991Y-92377931D01*
X155928780Y-92269908D01*
X156163484Y-92113084D01*
X156363084Y-91913484D01*
X156519908Y-91678780D01*
X156627931Y-91417991D01*
X156683000Y-91141138D01*
X156683000Y-90858862D01*
X156627931Y-90582009D01*
X156519908Y-90321220D01*
X156363084Y-90086516D01*
X156163484Y-89886916D01*
X156157623Y-89883000D01*
X168280697Y-89883000D01*
X168909491Y-90511795D01*
X168944972Y-90555028D01*
X168988203Y-90590507D01*
X168988205Y-90590509D01*
X169032306Y-90626701D01*
X169117493Y-90696613D01*
X169314322Y-90801820D01*
X169527893Y-90866606D01*
X169694341Y-90883000D01*
X169694349Y-90883000D01*
X169750000Y-90888481D01*
X169805651Y-90883000D01*
X177780697Y-90883000D01*
X178159492Y-91261795D01*
X180409493Y-93511797D01*
X180444972Y-93555028D01*
X180488203Y-93590507D01*
X180488205Y-93590509D01*
X180526706Y-93622106D01*
X180617493Y-93696613D01*
X180814322Y-93801820D01*
X181027893Y-93866606D01*
X181194341Y-93883000D01*
X181194349Y-93883000D01*
X181250000Y-93888481D01*
X181305651Y-93883000D01*
X181305659Y-93883000D01*
X181472107Y-93866606D01*
X181685678Y-93801820D01*
X181882507Y-93696613D01*
X182055028Y-93555028D01*
X182196613Y-93382507D01*
X182301820Y-93185678D01*
X182366606Y-92972107D01*
X182388482Y-92750000D01*
X182366606Y-92527893D01*
X182301820Y-92314322D01*
X182196613Y-92117493D01*
X182055028Y-91944972D01*
X182011797Y-91909493D01*
X179761795Y-89659492D01*
X179090509Y-88988206D01*
X179055028Y-88944972D01*
X178882507Y-88803387D01*
X178685678Y-88698180D01*
X178472107Y-88633394D01*
X178305659Y-88617000D01*
X178305651Y-88617000D01*
X178250000Y-88611519D01*
X178194349Y-88617000D01*
X170219304Y-88617000D01*
X169590511Y-87988208D01*
X169555028Y-87944972D01*
X169382507Y-87803387D01*
X169185678Y-87698180D01*
X168972107Y-87633394D01*
X168805659Y-87617000D01*
X168805651Y-87617000D01*
X168750000Y-87611519D01*
X168694349Y-87617000D01*
X121969304Y-87617000D01*
X121340512Y-86988209D01*
X121340508Y-86988204D01*
X120133000Y-85780697D01*
X120133000Y-83555650D01*
X120138481Y-83499999D01*
X120133000Y-83444348D01*
X120133000Y-83444341D01*
X120116606Y-83277893D01*
X120051820Y-83064322D01*
X119946613Y-82867493D01*
X119805028Y-82694972D01*
X119761797Y-82659493D01*
X117840511Y-80738208D01*
X117805028Y-80694972D01*
X117632507Y-80553387D01*
X117435678Y-80448180D01*
X117222107Y-80383394D01*
X117055659Y-80367000D01*
X117055651Y-80367000D01*
X117000000Y-80361519D01*
X116944349Y-80367000D01*
X115194341Y-80367000D01*
X115027893Y-80383394D01*
X114814322Y-80448180D01*
X114617493Y-80553387D01*
X114444972Y-80694972D01*
X114303387Y-80867493D01*
X114198180Y-81064322D01*
X114133394Y-81277893D01*
X114111518Y-81500000D01*
X111625000Y-81500000D01*
X111625000Y-80250000D01*
X111622598Y-80225614D01*
X111615485Y-80202165D01*
X111603934Y-80180554D01*
X111588388Y-80161612D01*
X111569446Y-80146066D01*
X111547835Y-80134515D01*
X111524386Y-80127402D01*
X111500000Y-80125000D01*
X108750000Y-80125000D01*
X108725614Y-80127402D01*
X108702165Y-80134515D01*
X108680554Y-80146066D01*
X108661612Y-80161612D01*
X108646066Y-80180554D01*
X108634515Y-80202165D01*
X108627402Y-80225614D01*
X108625000Y-80250000D01*
X108233000Y-80250000D01*
X108233000Y-78586607D01*
X186352302Y-78586607D01*
X186497067Y-78860638D01*
X186848146Y-79003922D01*
X187220432Y-79075961D01*
X187599618Y-79073986D01*
X187971134Y-78998074D01*
X188302933Y-78860638D01*
X188447698Y-78586607D01*
X187400000Y-77538909D01*
X186352302Y-78586607D01*
X108233000Y-78586607D01*
X108233000Y-76555659D01*
X108238482Y-76500000D01*
X108216606Y-76277893D01*
X108151820Y-76064322D01*
X108046613Y-75867493D01*
X107905028Y-75694972D01*
X107732507Y-75553387D01*
X107535678Y-75448180D01*
X107322107Y-75383394D01*
X107155659Y-75367000D01*
X107100000Y-75361518D01*
X107044342Y-75367000D01*
X107044341Y-75367000D01*
X106877893Y-75383394D01*
X106664322Y-75448180D01*
X106467493Y-75553387D01*
X106294972Y-75694972D01*
X106153387Y-75867493D01*
X106048180Y-76064322D01*
X105983394Y-76277893D01*
X105961518Y-76500000D01*
X105967001Y-76555669D01*
X105967000Y-85444349D01*
X105961519Y-85500000D01*
X105967000Y-85555651D01*
X105967000Y-85555658D01*
X105983394Y-85722106D01*
X106048180Y-85935677D01*
X106153387Y-86132507D01*
X106294972Y-86305028D01*
X106338208Y-86340511D01*
X106859489Y-86861792D01*
X106894972Y-86905028D01*
X107067493Y-87046613D01*
X107264322Y-87151820D01*
X107477893Y-87216606D01*
X107644341Y-87233000D01*
X107644348Y-87233000D01*
X107699999Y-87238481D01*
X107755650Y-87233000D01*
X114430697Y-87233000D01*
X116467001Y-89269305D01*
X116467000Y-92344349D01*
X116461519Y-92400000D01*
X116467000Y-92455651D01*
X116467000Y-92455658D01*
X116483394Y-92622106D01*
X116548180Y-92835677D01*
X116653387Y-93032507D01*
X116794972Y-93205028D01*
X116838208Y-93240511D01*
X117759491Y-94161795D01*
X117794972Y-94205028D01*
X117838203Y-94240507D01*
X117838205Y-94240509D01*
X117849770Y-94250000D01*
X117967493Y-94346613D01*
X118164322Y-94451820D01*
X118377893Y-94516606D01*
X118544341Y-94533000D01*
X118544349Y-94533000D01*
X118600000Y-94538481D01*
X118655651Y-94533000D01*
X131230697Y-94533000D01*
X132067001Y-95369305D01*
X132067000Y-99644349D01*
X132061519Y-99700000D01*
X132067000Y-99755651D01*
X132067000Y-99755658D01*
X132083394Y-99922106D01*
X132148180Y-100135677D01*
X132253387Y-100332507D01*
X132394972Y-100505028D01*
X132438208Y-100540511D01*
X135859493Y-103961797D01*
X135894972Y-104005028D01*
X136067493Y-104146613D01*
X136264322Y-104251820D01*
X136477893Y-104316606D01*
X136644341Y-104333000D01*
X136644348Y-104333000D01*
X136699999Y-104338481D01*
X136755650Y-104333000D01*
X174944349Y-104333000D01*
X175000000Y-104338481D01*
X175055651Y-104333000D01*
X175055659Y-104333000D01*
X175222107Y-104316606D01*
X175435678Y-104251820D01*
X175632507Y-104146613D01*
X175805028Y-104005028D01*
X175840511Y-103961792D01*
X177011797Y-102790507D01*
X177055028Y-102755028D01*
X177196613Y-102582507D01*
X177301820Y-102385678D01*
X177366606Y-102172107D01*
X177383000Y-102005659D01*
X177383000Y-102005651D01*
X177388481Y-101950000D01*
X177383000Y-101894349D01*
X177383000Y-101883000D01*
X180030697Y-101883000D01*
X180367001Y-102219305D01*
X180367000Y-105444349D01*
X180361519Y-105500000D01*
X180367000Y-105555651D01*
X180367000Y-105555658D01*
X180383394Y-105722106D01*
X180448180Y-105935677D01*
X180553387Y-106132507D01*
X180694972Y-106305028D01*
X180738208Y-106340511D01*
X182367696Y-107970000D01*
X181538203Y-108799494D01*
X181494973Y-108834972D01*
X181459494Y-108878203D01*
X181459492Y-108878205D01*
X181353387Y-109007494D01*
X181248181Y-109204322D01*
X181183394Y-109417894D01*
X181161519Y-109640000D01*
X181167001Y-109695661D01*
X181167000Y-115955658D01*
X181183394Y-116122106D01*
X181248180Y-116335677D01*
X181353387Y-116532507D01*
X181494972Y-116705028D01*
X181667493Y-116846613D01*
X181864322Y-116951820D01*
X182077893Y-117016606D01*
X182300000Y-117038482D01*
X182522106Y-117016606D01*
X182735677Y-116951820D01*
X182932507Y-116846613D01*
X183105028Y-116705028D01*
X183246613Y-116532507D01*
X183351820Y-116335678D01*
X183416606Y-116122107D01*
X183433000Y-115955659D01*
X183433000Y-110109303D01*
X184439304Y-109103000D01*
X199935720Y-109103000D01*
X199954642Y-109121922D01*
X200131359Y-109240000D01*
X199954642Y-109358078D01*
X199935720Y-109377000D01*
X199753569Y-109377000D01*
X199697918Y-109371519D01*
X199642267Y-109377000D01*
X199642260Y-109377000D01*
X199475812Y-109393394D01*
X199262241Y-109458180D01*
X199065412Y-109563387D01*
X198892891Y-109704972D01*
X198857412Y-109748203D01*
X197138203Y-111467413D01*
X197094973Y-111502891D01*
X197059494Y-111546122D01*
X197059492Y-111546124D01*
X196953387Y-111675413D01*
X196848181Y-111872241D01*
X196783394Y-112085813D01*
X196761519Y-112307919D01*
X196767001Y-112363580D01*
X196767000Y-114430696D01*
X193830697Y-117367000D01*
X128155174Y-117367000D01*
X128055028Y-117244972D01*
X128011792Y-117209489D01*
X127534820Y-116732517D01*
X127446613Y-116567493D01*
X127305028Y-116394972D01*
X127132507Y-116253387D01*
X126935678Y-116148180D01*
X126722107Y-116083394D01*
X126555659Y-116067000D01*
X126555658Y-116067000D01*
X126500000Y-116061518D01*
X126444341Y-116067000D01*
X121455650Y-116067000D01*
X121399999Y-116061519D01*
X121344348Y-116067000D01*
X121344341Y-116067000D01*
X121177893Y-116083394D01*
X120964322Y-116148180D01*
X120767493Y-116253387D01*
X120594972Y-116394972D01*
X120559493Y-116438203D01*
X118330697Y-118667000D01*
X96669304Y-118667000D01*
X94540511Y-116538208D01*
X94505028Y-116494972D01*
X94332507Y-116353387D01*
X94135678Y-116248180D01*
X93922107Y-116183394D01*
X93755659Y-116167000D01*
X93755651Y-116167000D01*
X93700000Y-116161519D01*
X93644349Y-116167000D01*
X78869304Y-116167000D01*
X75311166Y-112608862D01*
X79567000Y-112608862D01*
X79567000Y-112891138D01*
X79622069Y-113167991D01*
X79730092Y-113428780D01*
X79886916Y-113663484D01*
X80086516Y-113863084D01*
X80321220Y-114019908D01*
X80582009Y-114127931D01*
X80858862Y-114183000D01*
X81141138Y-114183000D01*
X81417991Y-114127931D01*
X81678780Y-114019908D01*
X81913484Y-113863084D01*
X82113084Y-113663484D01*
X82269908Y-113428780D01*
X82377931Y-113167991D01*
X82433000Y-112891138D01*
X82433000Y-112608862D01*
X90317000Y-112608862D01*
X90317000Y-112891138D01*
X90372069Y-113167991D01*
X90480092Y-113428780D01*
X90636916Y-113663484D01*
X90836516Y-113863084D01*
X91071220Y-114019908D01*
X91332009Y-114127931D01*
X91608862Y-114183000D01*
X91891138Y-114183000D01*
X92167991Y-114127931D01*
X92428780Y-114019908D01*
X92663484Y-113863084D01*
X92863084Y-113663484D01*
X93019908Y-113428780D01*
X93127931Y-113167991D01*
X93183000Y-112891138D01*
X93183000Y-112608862D01*
X93127931Y-112332009D01*
X93019908Y-112071220D01*
X92863084Y-111836516D01*
X92663484Y-111636916D01*
X92428780Y-111480092D01*
X92167991Y-111372069D01*
X91891138Y-111317000D01*
X91608862Y-111317000D01*
X91332009Y-111372069D01*
X91071220Y-111480092D01*
X90836516Y-111636916D01*
X90636916Y-111836516D01*
X90480092Y-112071220D01*
X90372069Y-112332009D01*
X90317000Y-112608862D01*
X82433000Y-112608862D01*
X82377931Y-112332009D01*
X82269908Y-112071220D01*
X82113084Y-111836516D01*
X81913484Y-111636916D01*
X81678780Y-111480092D01*
X81417991Y-111372069D01*
X81141138Y-111317000D01*
X80858862Y-111317000D01*
X80582009Y-111372069D01*
X80321220Y-111480092D01*
X80086516Y-111636916D01*
X79886916Y-111836516D01*
X79730092Y-112071220D01*
X79622069Y-112332009D01*
X79567000Y-112608862D01*
X75311166Y-112608862D01*
X74933000Y-112230697D01*
X74933000Y-110858862D01*
X134567000Y-110858862D01*
X134567000Y-111141138D01*
X134622069Y-111417991D01*
X134730092Y-111678780D01*
X134886916Y-111913484D01*
X135086516Y-112113084D01*
X135321220Y-112269908D01*
X135582009Y-112377931D01*
X135858862Y-112433000D01*
X136141138Y-112433000D01*
X136417991Y-112377931D01*
X136678780Y-112269908D01*
X136913484Y-112113084D01*
X137113084Y-111913484D01*
X137269908Y-111678780D01*
X137377931Y-111417991D01*
X137433000Y-111141138D01*
X137433000Y-110858862D01*
X144317000Y-110858862D01*
X144317000Y-111141138D01*
X144372069Y-111417991D01*
X144480092Y-111678780D01*
X144636916Y-111913484D01*
X144836516Y-112113084D01*
X145071220Y-112269908D01*
X145332009Y-112377931D01*
X145608862Y-112433000D01*
X145891138Y-112433000D01*
X146167991Y-112377931D01*
X146428780Y-112269908D01*
X146663484Y-112113084D01*
X146863084Y-111913484D01*
X147019908Y-111678780D01*
X147127931Y-111417991D01*
X147183000Y-111141138D01*
X147183000Y-110858862D01*
X153817000Y-110858862D01*
X153817000Y-111141138D01*
X153872069Y-111417991D01*
X153980092Y-111678780D01*
X154136916Y-111913484D01*
X154336516Y-112113084D01*
X154571220Y-112269908D01*
X154832009Y-112377931D01*
X155108862Y-112433000D01*
X155391138Y-112433000D01*
X155667991Y-112377931D01*
X155928780Y-112269908D01*
X156163484Y-112113084D01*
X156363084Y-111913484D01*
X156519908Y-111678780D01*
X156627931Y-111417991D01*
X156683000Y-111141138D01*
X156683000Y-110858862D01*
X156627931Y-110582009D01*
X156519908Y-110321220D01*
X156363084Y-110086516D01*
X156163484Y-109886916D01*
X155928780Y-109730092D01*
X155667991Y-109622069D01*
X155391138Y-109567000D01*
X155108862Y-109567000D01*
X154832009Y-109622069D01*
X154571220Y-109730092D01*
X154336516Y-109886916D01*
X154136916Y-110086516D01*
X153980092Y-110321220D01*
X153872069Y-110582009D01*
X153817000Y-110858862D01*
X147183000Y-110858862D01*
X147127931Y-110582009D01*
X147019908Y-110321220D01*
X146863084Y-110086516D01*
X146663484Y-109886916D01*
X146428780Y-109730092D01*
X146167991Y-109622069D01*
X145891138Y-109567000D01*
X145608862Y-109567000D01*
X145332009Y-109622069D01*
X145071220Y-109730092D01*
X144836516Y-109886916D01*
X144636916Y-110086516D01*
X144480092Y-110321220D01*
X144372069Y-110582009D01*
X144317000Y-110858862D01*
X137433000Y-110858862D01*
X137377931Y-110582009D01*
X137269908Y-110321220D01*
X137113084Y-110086516D01*
X136913484Y-109886916D01*
X136678780Y-109730092D01*
X136417991Y-109622069D01*
X136141138Y-109567000D01*
X135858862Y-109567000D01*
X135582009Y-109622069D01*
X135321220Y-109730092D01*
X135086516Y-109886916D01*
X134886916Y-110086516D01*
X134730092Y-110321220D01*
X134622069Y-110582009D01*
X134567000Y-110858862D01*
X74933000Y-110858862D01*
X74933000Y-104939355D01*
X89569389Y-104939355D01*
X89585047Y-105219619D01*
X89625000Y-105374689D01*
X89625000Y-106250000D01*
X89627402Y-106274386D01*
X89634515Y-106297835D01*
X89646066Y-106319446D01*
X89661612Y-106338388D01*
X89680554Y-106353934D01*
X89702165Y-106365485D01*
X89725614Y-106372598D01*
X89750000Y-106375000D01*
X90614909Y-106375000D01*
X90661422Y-106391291D01*
X90939355Y-106430611D01*
X91219619Y-106414953D01*
X91374689Y-106375000D01*
X92250000Y-106375000D01*
X92274386Y-106372598D01*
X92297835Y-106365485D01*
X92319446Y-106353934D01*
X92338388Y-106338388D01*
X92346372Y-106328660D01*
X92346623Y-106328866D01*
X92456590Y-106387645D01*
X92575910Y-106423840D01*
X92700000Y-106436062D01*
X94300000Y-106436062D01*
X94424090Y-106423840D01*
X94543410Y-106387645D01*
X94653377Y-106328866D01*
X94749764Y-106249764D01*
X94828866Y-106153377D01*
X94887645Y-106043410D01*
X94923840Y-105924090D01*
X94936062Y-105800000D01*
X94936062Y-104200000D01*
X94923840Y-104075910D01*
X94887645Y-103956590D01*
X94828866Y-103846623D01*
X94749764Y-103750236D01*
X94653377Y-103671134D01*
X94543410Y-103612355D01*
X94424090Y-103576160D01*
X94300000Y-103563938D01*
X92700000Y-103563938D01*
X92575910Y-103576160D01*
X92456590Y-103612355D01*
X92346623Y-103671134D01*
X92346372Y-103671340D01*
X92338388Y-103661612D01*
X92319446Y-103646066D01*
X92297835Y-103634515D01*
X92274386Y-103627402D01*
X92250000Y-103625000D01*
X91385091Y-103625000D01*
X91338578Y-103608709D01*
X91060645Y-103569389D01*
X90780381Y-103585047D01*
X90625311Y-103625000D01*
X89750000Y-103625000D01*
X89725614Y-103627402D01*
X89702165Y-103634515D01*
X89680554Y-103646066D01*
X89661612Y-103661612D01*
X89646066Y-103680554D01*
X89634515Y-103702165D01*
X89627402Y-103725614D01*
X89625000Y-103750000D01*
X89625000Y-104614909D01*
X89608709Y-104661422D01*
X89569389Y-104939355D01*
X74933000Y-104939355D01*
X74933000Y-103544303D01*
X75787948Y-102689355D01*
X122569389Y-102689355D01*
X122585047Y-102969619D01*
X122655081Y-103241443D01*
X122675000Y-103289532D01*
X122675000Y-104000000D01*
X122677402Y-104024386D01*
X122684515Y-104047835D01*
X122696066Y-104069446D01*
X122711612Y-104088388D01*
X122730554Y-104103934D01*
X122752165Y-104115485D01*
X122775614Y-104122598D01*
X122800000Y-104125000D01*
X123614909Y-104125000D01*
X123661422Y-104141291D01*
X123939355Y-104180611D01*
X124219619Y-104164953D01*
X124374689Y-104125000D01*
X125150000Y-104125000D01*
X125174386Y-104122598D01*
X125197835Y-104115485D01*
X125219446Y-104103934D01*
X125238388Y-104088388D01*
X125253934Y-104069446D01*
X125265485Y-104047835D01*
X125272598Y-104024386D01*
X125273169Y-104018585D01*
X125346623Y-104078866D01*
X125456590Y-104137645D01*
X125575910Y-104173840D01*
X125700000Y-104186062D01*
X127300000Y-104186062D01*
X127424090Y-104173840D01*
X127543410Y-104137645D01*
X127653377Y-104078866D01*
X127749764Y-103999764D01*
X127828866Y-103903377D01*
X127887645Y-103793410D01*
X127923840Y-103674090D01*
X127936062Y-103550000D01*
X127936062Y-101950000D01*
X127923840Y-101825910D01*
X127887645Y-101706590D01*
X127828866Y-101596623D01*
X127749764Y-101500236D01*
X127653377Y-101421134D01*
X127543410Y-101362355D01*
X127424090Y-101326160D01*
X127300000Y-101313938D01*
X125700000Y-101313938D01*
X125575910Y-101326160D01*
X125456590Y-101362355D01*
X125346623Y-101421134D01*
X125273169Y-101481415D01*
X125272598Y-101475614D01*
X125265485Y-101452165D01*
X125253934Y-101430554D01*
X125238388Y-101411612D01*
X125219446Y-101396066D01*
X125197835Y-101384515D01*
X125174386Y-101377402D01*
X125150000Y-101375000D01*
X124385091Y-101375000D01*
X124338578Y-101358709D01*
X124060645Y-101319389D01*
X123780381Y-101335047D01*
X123625311Y-101375000D01*
X122800000Y-101375000D01*
X122775614Y-101377402D01*
X122752165Y-101384515D01*
X122730554Y-101396066D01*
X122711612Y-101411612D01*
X122696066Y-101430554D01*
X122684515Y-101452165D01*
X122677402Y-101475614D01*
X122675000Y-101500000D01*
X122675000Y-102222150D01*
X122608709Y-102411422D01*
X122569389Y-102689355D01*
X75787948Y-102689355D01*
X76261797Y-102215507D01*
X76305028Y-102180028D01*
X76446613Y-102007507D01*
X76551820Y-101810678D01*
X76616606Y-101597106D01*
X76633000Y-101430658D01*
X76633000Y-101430652D01*
X76638481Y-101375001D01*
X76633000Y-101319350D01*
X76633000Y-100694341D01*
X76616606Y-100527893D01*
X76551820Y-100314322D01*
X76446613Y-100117493D01*
X76305028Y-99944972D01*
X76132507Y-99803387D01*
X75935677Y-99698180D01*
X75722106Y-99633394D01*
X75500000Y-99611518D01*
X75277893Y-99633394D01*
X75064322Y-99698180D01*
X74867493Y-99803387D01*
X74694972Y-99944972D01*
X74553387Y-100117493D01*
X74448180Y-100314323D01*
X74383394Y-100527894D01*
X74367000Y-100694342D01*
X74367000Y-100905696D01*
X73038208Y-102234489D01*
X72994972Y-102269972D01*
X72853387Y-102442493D01*
X72748180Y-102639323D01*
X72683394Y-102852894D01*
X72667000Y-103019342D01*
X72667000Y-103019349D01*
X72661519Y-103075000D01*
X66133000Y-103075000D01*
X66133000Y-98500000D01*
X68875000Y-98500000D01*
X68875000Y-102250000D01*
X68877402Y-102274386D01*
X68884515Y-102297835D01*
X68896066Y-102319446D01*
X68911612Y-102338388D01*
X68930554Y-102353934D01*
X68952165Y-102365485D01*
X68975614Y-102372598D01*
X69000000Y-102375000D01*
X71500000Y-102375000D01*
X71524386Y-102372598D01*
X71547835Y-102365485D01*
X71569446Y-102353934D01*
X71588388Y-102338388D01*
X71603934Y-102319446D01*
X71615485Y-102297835D01*
X71622598Y-102274386D01*
X71625000Y-102250000D01*
X71625000Y-98500000D01*
X71622598Y-98475614D01*
X71615485Y-98452165D01*
X71603934Y-98430554D01*
X71588388Y-98411612D01*
X71569446Y-98396066D01*
X71547835Y-98384515D01*
X71524386Y-98377402D01*
X71500000Y-98375000D01*
X69000000Y-98375000D01*
X68975614Y-98377402D01*
X68952165Y-98384515D01*
X68930554Y-98396066D01*
X68911612Y-98411612D01*
X68896066Y-98430554D01*
X68884515Y-98452165D01*
X68877402Y-98475614D01*
X68875000Y-98500000D01*
X66133000Y-98500000D01*
X66133000Y-97305659D01*
X66138482Y-97250000D01*
X66116606Y-97027893D01*
X66051820Y-96814322D01*
X65946613Y-96617493D01*
X65805028Y-96444972D01*
X65632507Y-96303387D01*
X65435678Y-96198180D01*
X65222107Y-96133394D01*
X65055659Y-96117000D01*
X65000000Y-96111518D01*
X64944342Y-96117000D01*
X64944341Y-96117000D01*
X64777893Y-96133394D01*
X64564322Y-96198180D01*
X64367493Y-96303387D01*
X64194972Y-96444972D01*
X64053387Y-96617493D01*
X63948180Y-96814322D01*
X63883394Y-97027893D01*
X63861518Y-97250000D01*
X60683000Y-97250000D01*
X60683000Y-94250000D01*
X70125000Y-94250000D01*
X70125000Y-97000000D01*
X70127402Y-97024386D01*
X70134515Y-97047835D01*
X70146066Y-97069446D01*
X70161612Y-97088388D01*
X70180554Y-97103934D01*
X70202165Y-97115485D01*
X70225614Y-97122598D01*
X70250000Y-97125000D01*
X72750000Y-97125000D01*
X72774386Y-97122598D01*
X72797835Y-97115485D01*
X72819446Y-97103934D01*
X72838388Y-97088388D01*
X72853934Y-97069446D01*
X72865485Y-97047835D01*
X72872598Y-97024386D01*
X72875000Y-97000000D01*
X72875000Y-94250000D01*
X72872598Y-94225614D01*
X72865485Y-94202165D01*
X72853934Y-94180554D01*
X72838388Y-94161612D01*
X72819446Y-94146066D01*
X72797835Y-94134515D01*
X72774386Y-94127402D01*
X72750000Y-94125000D01*
X70250000Y-94125000D01*
X70225614Y-94127402D01*
X70202165Y-94134515D01*
X70180554Y-94146066D01*
X70161612Y-94161612D01*
X70146066Y-94180554D01*
X70134515Y-94202165D01*
X70127402Y-94225614D01*
X70125000Y-94250000D01*
X60683000Y-94250000D01*
X60683000Y-89798310D01*
X60756590Y-89837645D01*
X60875910Y-89873840D01*
X61000000Y-89886062D01*
X65000000Y-89886062D01*
X65124090Y-89873840D01*
X65243410Y-89837645D01*
X65353377Y-89778866D01*
X65449764Y-89699764D01*
X65528866Y-89603377D01*
X65587645Y-89493410D01*
X65623840Y-89374090D01*
X65636062Y-89250000D01*
X65636062Y-87258862D01*
X82167000Y-87258862D01*
X82167000Y-87541138D01*
X82222069Y-87817991D01*
X82330092Y-88078780D01*
X82486916Y-88313484D01*
X82686516Y-88513084D01*
X82921220Y-88669908D01*
X83182009Y-88777931D01*
X83458862Y-88833000D01*
X83741138Y-88833000D01*
X84017991Y-88777931D01*
X84278780Y-88669908D01*
X84513484Y-88513084D01*
X84713084Y-88313484D01*
X84869908Y-88078780D01*
X84977931Y-87817991D01*
X85033000Y-87541138D01*
X85033000Y-87258862D01*
X84977931Y-86982009D01*
X84869908Y-86721220D01*
X84713084Y-86486516D01*
X84513484Y-86286916D01*
X84278780Y-86130092D01*
X84017991Y-86022069D01*
X83741138Y-85967000D01*
X83458862Y-85967000D01*
X83182009Y-86022069D01*
X82921220Y-86130092D01*
X82686516Y-86286916D01*
X82486916Y-86486516D01*
X82330092Y-86721220D01*
X82222069Y-86982009D01*
X82167000Y-87258862D01*
X65636062Y-87258862D01*
X65636062Y-87250000D01*
X65623840Y-87125910D01*
X65587645Y-87006590D01*
X65528866Y-86896623D01*
X65449764Y-86800236D01*
X65353377Y-86721134D01*
X65243410Y-86662355D01*
X65124090Y-86626160D01*
X65000000Y-86613938D01*
X61000000Y-86613938D01*
X60875910Y-86626160D01*
X60756590Y-86662355D01*
X60683000Y-86701690D01*
X60683000Y-84839164D01*
X65617000Y-84839164D01*
X65617000Y-85160836D01*
X65679756Y-85476328D01*
X65802855Y-85773515D01*
X65981566Y-86040977D01*
X66209023Y-86268434D01*
X66476485Y-86447145D01*
X66773672Y-86570244D01*
X67089164Y-86633000D01*
X67410836Y-86633000D01*
X67726328Y-86570244D01*
X68023515Y-86447145D01*
X68290977Y-86268434D01*
X68518434Y-86040977D01*
X68697145Y-85773515D01*
X68820244Y-85476328D01*
X68883000Y-85160836D01*
X68883000Y-84858862D01*
X89567000Y-84858862D01*
X89567000Y-85141138D01*
X89622069Y-85417991D01*
X89730092Y-85678780D01*
X89886916Y-85913484D01*
X90086516Y-86113084D01*
X90321220Y-86269908D01*
X90582009Y-86377931D01*
X90858862Y-86433000D01*
X91141138Y-86433000D01*
X91417991Y-86377931D01*
X91678780Y-86269908D01*
X91913484Y-86113084D01*
X92113084Y-85913484D01*
X92269908Y-85678780D01*
X92377931Y-85417991D01*
X92433000Y-85141138D01*
X92433000Y-84858862D01*
X92377931Y-84582009D01*
X92269908Y-84321220D01*
X92188912Y-84200000D01*
X94563938Y-84200000D01*
X94563938Y-85800000D01*
X94576160Y-85924090D01*
X94612355Y-86043410D01*
X94671134Y-86153377D01*
X94750236Y-86249764D01*
X94846623Y-86328866D01*
X94956590Y-86387645D01*
X95075910Y-86423840D01*
X95200000Y-86436062D01*
X96800000Y-86436062D01*
X96924090Y-86423840D01*
X97043410Y-86387645D01*
X97153377Y-86328866D01*
X97249764Y-86249764D01*
X97328866Y-86153377D01*
X97387645Y-86043410D01*
X97423840Y-85924090D01*
X97436062Y-85800000D01*
X97436062Y-84200000D01*
X97423840Y-84075910D01*
X97387645Y-83956590D01*
X97328866Y-83846623D01*
X97249764Y-83750236D01*
X97153377Y-83671134D01*
X97043410Y-83612355D01*
X96924090Y-83576160D01*
X96800000Y-83563938D01*
X95200000Y-83563938D01*
X95075910Y-83576160D01*
X94956590Y-83612355D01*
X94846623Y-83671134D01*
X94750236Y-83750236D01*
X94671134Y-83846623D01*
X94612355Y-83956590D01*
X94576160Y-84075910D01*
X94563938Y-84200000D01*
X92188912Y-84200000D01*
X92113084Y-84086516D01*
X91913484Y-83886916D01*
X91678780Y-83730092D01*
X91417991Y-83622069D01*
X91141138Y-83567000D01*
X90858862Y-83567000D01*
X90582009Y-83622069D01*
X90321220Y-83730092D01*
X90086516Y-83886916D01*
X89886916Y-84086516D01*
X89730092Y-84321220D01*
X89622069Y-84582009D01*
X89567000Y-84858862D01*
X68883000Y-84858862D01*
X68883000Y-84839164D01*
X68820244Y-84523672D01*
X68697145Y-84226485D01*
X68518434Y-83959023D01*
X68290977Y-83731566D01*
X68023515Y-83552855D01*
X67836190Y-83475262D01*
X82913647Y-83475262D01*
X82996500Y-83698504D01*
X83261422Y-83791291D01*
X83539355Y-83830611D01*
X83819619Y-83814953D01*
X84091443Y-83744919D01*
X84203500Y-83698504D01*
X84286353Y-83475262D01*
X83600000Y-82788909D01*
X82913647Y-83475262D01*
X67836190Y-83475262D01*
X67726328Y-83429756D01*
X67410836Y-83367000D01*
X67089164Y-83367000D01*
X66773672Y-83429756D01*
X66476485Y-83552855D01*
X66209023Y-83731566D01*
X65981566Y-83959023D01*
X65802855Y-84226485D01*
X65679756Y-84523672D01*
X65617000Y-84839164D01*
X60683000Y-84839164D01*
X60683000Y-80891663D01*
X61120735Y-80891663D01*
X61130906Y-81211598D01*
X61203297Y-81523402D01*
X61275000Y-81696508D01*
X61275000Y-82375000D01*
X61277402Y-82399386D01*
X61284515Y-82422835D01*
X61296066Y-82444446D01*
X61311612Y-82463388D01*
X61330554Y-82478934D01*
X61352165Y-82490485D01*
X61375614Y-82497598D01*
X61400000Y-82500000D01*
X62122362Y-82500000D01*
X62325891Y-82576823D01*
X62641663Y-82629265D01*
X62961598Y-82619094D01*
X63273402Y-82546703D01*
X63386153Y-82500000D01*
X64150000Y-82500000D01*
X64174386Y-82497598D01*
X64197835Y-82490485D01*
X64219446Y-82478934D01*
X64238388Y-82463388D01*
X64253934Y-82444446D01*
X64265485Y-82422835D01*
X64272598Y-82399386D01*
X64275000Y-82375000D01*
X64275000Y-82339355D01*
X82169389Y-82339355D01*
X82185047Y-82619619D01*
X82255081Y-82891443D01*
X82301496Y-83003500D01*
X82524738Y-83086353D01*
X83211091Y-82400000D01*
X83988909Y-82400000D01*
X84675262Y-83086353D01*
X84898504Y-83003500D01*
X84991291Y-82738578D01*
X85030611Y-82460645D01*
X85014953Y-82180381D01*
X84944919Y-81908557D01*
X84898504Y-81796500D01*
X84675262Y-81713647D01*
X83988909Y-82400000D01*
X83211091Y-82400000D01*
X82524738Y-81713647D01*
X82301496Y-81796500D01*
X82208709Y-82061422D01*
X82169389Y-82339355D01*
X64275000Y-82339355D01*
X64275000Y-81561405D01*
X64326823Y-81424109D01*
X64343326Y-81324738D01*
X82913647Y-81324738D01*
X83600000Y-82011091D01*
X84286353Y-81324738D01*
X84203500Y-81101496D01*
X83938578Y-81008709D01*
X83660645Y-80969389D01*
X83380381Y-80985047D01*
X83108557Y-81055081D01*
X82996500Y-81101496D01*
X82913647Y-81324738D01*
X64343326Y-81324738D01*
X64379265Y-81108337D01*
X64369094Y-80788402D01*
X64296703Y-80476598D01*
X64275000Y-80424203D01*
X64275000Y-79625000D01*
X64272598Y-79600614D01*
X64265485Y-79577165D01*
X64253934Y-79555554D01*
X64238388Y-79536612D01*
X64219446Y-79521066D01*
X64197835Y-79509515D01*
X64174386Y-79502402D01*
X64150000Y-79500000D01*
X63377638Y-79500000D01*
X63174109Y-79423177D01*
X62858337Y-79370735D01*
X62538402Y-79380906D01*
X62226598Y-79453297D01*
X62113847Y-79500000D01*
X61400000Y-79500000D01*
X61375614Y-79502402D01*
X61352165Y-79509515D01*
X61330554Y-79521066D01*
X61311612Y-79536612D01*
X61296066Y-79555554D01*
X61284515Y-79577165D01*
X61277402Y-79600614D01*
X61275000Y-79625000D01*
X61275000Y-80306129D01*
X61173177Y-80575891D01*
X61120735Y-80891663D01*
X60683000Y-80891663D01*
X60683000Y-76839164D01*
X64367000Y-76839164D01*
X64367000Y-77160836D01*
X64429756Y-77476328D01*
X64552855Y-77773515D01*
X64731566Y-78040977D01*
X64959023Y-78268434D01*
X65226485Y-78447145D01*
X65523672Y-78570244D01*
X65839164Y-78633000D01*
X66160836Y-78633000D01*
X66476328Y-78570244D01*
X66773515Y-78447145D01*
X67040977Y-78268434D01*
X67268434Y-78040977D01*
X67447145Y-77773515D01*
X67570244Y-77476328D01*
X67633000Y-77160836D01*
X67633000Y-76839164D01*
X67570244Y-76523672D01*
X67447145Y-76226485D01*
X67268434Y-75959023D01*
X67040977Y-75731566D01*
X66773515Y-75552855D01*
X66476328Y-75429756D01*
X66160836Y-75367000D01*
X65839164Y-75367000D01*
X65523672Y-75429756D01*
X65226485Y-75552855D01*
X64959023Y-75731566D01*
X64731566Y-75959023D01*
X64552855Y-76226485D01*
X64429756Y-76523672D01*
X64367000Y-76839164D01*
X60683000Y-76839164D01*
X60683000Y-75298310D01*
X60756590Y-75337645D01*
X60875910Y-75373840D01*
X61000000Y-75386062D01*
X65000000Y-75386062D01*
X65124090Y-75373840D01*
X65243410Y-75337645D01*
X65353377Y-75278866D01*
X65449764Y-75199764D01*
X65528866Y-75103377D01*
X65587645Y-74993410D01*
X65623840Y-74874090D01*
X65636062Y-74750000D01*
X65636062Y-73758862D01*
X82167000Y-73758862D01*
X82167000Y-74041138D01*
X82222069Y-74317991D01*
X82330092Y-74578780D01*
X82486916Y-74813484D01*
X82686516Y-75013084D01*
X82921220Y-75169908D01*
X83182009Y-75277931D01*
X83458862Y-75333000D01*
X83741138Y-75333000D01*
X84017991Y-75277931D01*
X84278780Y-75169908D01*
X84513484Y-75013084D01*
X84526568Y-75000000D01*
X110125000Y-75000000D01*
X110125000Y-77750000D01*
X110127402Y-77774386D01*
X110134515Y-77797835D01*
X110146066Y-77819446D01*
X110161612Y-77838388D01*
X110180554Y-77853934D01*
X110202165Y-77865485D01*
X110225614Y-77872598D01*
X110250000Y-77875000D01*
X112750000Y-77875000D01*
X112774386Y-77872598D01*
X112797835Y-77865485D01*
X112819446Y-77853934D01*
X112838388Y-77838388D01*
X112853934Y-77819446D01*
X112865485Y-77797835D01*
X112872598Y-77774386D01*
X112875000Y-77750000D01*
X112875000Y-76970432D01*
X185474039Y-76970432D01*
X185476014Y-77349618D01*
X185551926Y-77721134D01*
X185689362Y-78052933D01*
X185963393Y-78197698D01*
X187011091Y-77150000D01*
X187788909Y-77150000D01*
X188836607Y-78197698D01*
X189110638Y-78052933D01*
X189253922Y-77701854D01*
X189325961Y-77329568D01*
X189323986Y-76950382D01*
X189248074Y-76578866D01*
X189110638Y-76247067D01*
X188836607Y-76102302D01*
X187788909Y-77150000D01*
X187011091Y-77150000D01*
X185963393Y-76102302D01*
X185689362Y-76247067D01*
X185546078Y-76598146D01*
X185474039Y-76970432D01*
X112875000Y-76970432D01*
X112875000Y-75713393D01*
X186352302Y-75713393D01*
X187400000Y-76761091D01*
X188447698Y-75713393D01*
X188302933Y-75439362D01*
X187951854Y-75296078D01*
X187579568Y-75224039D01*
X187200382Y-75226014D01*
X186828866Y-75301926D01*
X186497067Y-75439362D01*
X186352302Y-75713393D01*
X112875000Y-75713393D01*
X112875000Y-75000000D01*
X112872598Y-74975614D01*
X112865485Y-74952165D01*
X112853934Y-74930554D01*
X112838388Y-74911612D01*
X112819446Y-74896066D01*
X112797835Y-74884515D01*
X112774386Y-74877402D01*
X112750000Y-74875000D01*
X110250000Y-74875000D01*
X110225614Y-74877402D01*
X110202165Y-74884515D01*
X110180554Y-74896066D01*
X110161612Y-74911612D01*
X110146066Y-74930554D01*
X110134515Y-74952165D01*
X110127402Y-74975614D01*
X110125000Y-75000000D01*
X84526568Y-75000000D01*
X84713084Y-74813484D01*
X84869908Y-74578780D01*
X84977931Y-74317991D01*
X85033000Y-74041138D01*
X85033000Y-73758862D01*
X84977931Y-73482009D01*
X84869908Y-73221220D01*
X84713084Y-72986516D01*
X84513484Y-72786916D01*
X84278780Y-72630092D01*
X84017991Y-72522069D01*
X83741138Y-72467000D01*
X83458862Y-72467000D01*
X83182009Y-72522069D01*
X82921220Y-72630092D01*
X82686516Y-72786916D01*
X82486916Y-72986516D01*
X82330092Y-73221220D01*
X82222069Y-73482009D01*
X82167000Y-73758862D01*
X65636062Y-73758862D01*
X65636062Y-72750000D01*
X65623840Y-72625910D01*
X65587645Y-72506590D01*
X65528866Y-72396623D01*
X65449764Y-72300236D01*
X65353377Y-72221134D01*
X65243410Y-72162355D01*
X65124090Y-72126160D01*
X65000000Y-72113938D01*
X61000000Y-72113938D01*
X60875910Y-72126160D01*
X60756590Y-72162355D01*
X60683000Y-72201690D01*
X60683000Y-71558862D01*
X89567000Y-71558862D01*
X89567000Y-71841138D01*
X89622069Y-72117991D01*
X89730092Y-72378780D01*
X89886916Y-72613484D01*
X90086516Y-72813084D01*
X90321220Y-72969908D01*
X90582009Y-73077931D01*
X90858862Y-73133000D01*
X91141138Y-73133000D01*
X91417991Y-73077931D01*
X91678780Y-72969908D01*
X91913484Y-72813084D01*
X92113084Y-72613484D01*
X92269908Y-72378780D01*
X92377931Y-72117991D01*
X92433000Y-71841138D01*
X92433000Y-71558862D01*
X92377931Y-71282009D01*
X92269908Y-71021220D01*
X92188912Y-70900000D01*
X94563938Y-70900000D01*
X94563938Y-72500000D01*
X94576160Y-72624090D01*
X94612355Y-72743410D01*
X94671134Y-72853377D01*
X94750236Y-72949764D01*
X94846623Y-73028866D01*
X94956590Y-73087645D01*
X95075910Y-73123840D01*
X95200000Y-73136062D01*
X96800000Y-73136062D01*
X96924090Y-73123840D01*
X97043410Y-73087645D01*
X97153377Y-73028866D01*
X97249764Y-72949764D01*
X97328866Y-72853377D01*
X97387645Y-72743410D01*
X97423840Y-72624090D01*
X97436062Y-72500000D01*
X97436062Y-70900000D01*
X97423840Y-70775910D01*
X97387645Y-70656590D01*
X97328866Y-70546623D01*
X97249764Y-70450236D01*
X97153377Y-70371134D01*
X97043410Y-70312355D01*
X96924090Y-70276160D01*
X96800000Y-70263938D01*
X95200000Y-70263938D01*
X95075910Y-70276160D01*
X94956590Y-70312355D01*
X94846623Y-70371134D01*
X94750236Y-70450236D01*
X94671134Y-70546623D01*
X94612355Y-70656590D01*
X94576160Y-70775910D01*
X94563938Y-70900000D01*
X92188912Y-70900000D01*
X92113084Y-70786516D01*
X91913484Y-70586916D01*
X91678780Y-70430092D01*
X91417991Y-70322069D01*
X91141138Y-70267000D01*
X90858862Y-70267000D01*
X90582009Y-70322069D01*
X90321220Y-70430092D01*
X90086516Y-70586916D01*
X89886916Y-70786516D01*
X89730092Y-71021220D01*
X89622069Y-71282009D01*
X89567000Y-71558862D01*
X60683000Y-71558862D01*
X60683000Y-67780069D01*
X61767000Y-67780069D01*
X61767000Y-68219931D01*
X61852812Y-68651342D01*
X62021141Y-69057722D01*
X62265515Y-69423455D01*
X62576545Y-69734485D01*
X62942278Y-69978859D01*
X63348658Y-70147188D01*
X63780069Y-70233000D01*
X64219931Y-70233000D01*
X64651342Y-70147188D01*
X65057722Y-69978859D01*
X65063105Y-69975262D01*
X82913647Y-69975262D01*
X82996500Y-70198504D01*
X83261422Y-70291291D01*
X83539355Y-70330611D01*
X83819619Y-70314953D01*
X84091443Y-70244919D01*
X84203500Y-70198504D01*
X84286353Y-69975262D01*
X83600000Y-69288909D01*
X82913647Y-69975262D01*
X65063105Y-69975262D01*
X65423455Y-69734485D01*
X65734485Y-69423455D01*
X65978859Y-69057722D01*
X66069310Y-68839355D01*
X82169389Y-68839355D01*
X82185047Y-69119619D01*
X82255081Y-69391443D01*
X82301496Y-69503500D01*
X82524738Y-69586353D01*
X83211091Y-68900000D01*
X83988909Y-68900000D01*
X84675262Y-69586353D01*
X84898504Y-69503500D01*
X84991291Y-69238578D01*
X85030611Y-68960645D01*
X85014953Y-68680381D01*
X84944919Y-68408557D01*
X84898504Y-68296500D01*
X84675262Y-68213647D01*
X83988909Y-68900000D01*
X83211091Y-68900000D01*
X82524738Y-68213647D01*
X82301496Y-68296500D01*
X82208709Y-68561422D01*
X82169389Y-68839355D01*
X66069310Y-68839355D01*
X66147188Y-68651342D01*
X66233000Y-68219931D01*
X66233000Y-67824738D01*
X82913647Y-67824738D01*
X83600000Y-68511091D01*
X84286353Y-67824738D01*
X84269775Y-67780069D01*
X203267000Y-67780069D01*
X203267000Y-68219931D01*
X203352812Y-68651342D01*
X203521141Y-69057722D01*
X203765515Y-69423455D01*
X204076545Y-69734485D01*
X204442278Y-69978859D01*
X204848658Y-70147188D01*
X205280069Y-70233000D01*
X205719931Y-70233000D01*
X206151342Y-70147188D01*
X206557722Y-69978859D01*
X206923455Y-69734485D01*
X207234485Y-69423455D01*
X207478859Y-69057722D01*
X207647188Y-68651342D01*
X207733000Y-68219931D01*
X207733000Y-67780069D01*
X207647188Y-67348658D01*
X207478859Y-66942278D01*
X207234485Y-66576545D01*
X206923455Y-66265515D01*
X206557722Y-66021141D01*
X206151342Y-65852812D01*
X205719931Y-65767000D01*
X205280069Y-65767000D01*
X204848658Y-65852812D01*
X204442278Y-66021141D01*
X204076545Y-66265515D01*
X203765515Y-66576545D01*
X203521141Y-66942278D01*
X203352812Y-67348658D01*
X203267000Y-67780069D01*
X84269775Y-67780069D01*
X84203500Y-67601496D01*
X83938578Y-67508709D01*
X83660645Y-67469389D01*
X83380381Y-67485047D01*
X83108557Y-67555081D01*
X82996500Y-67601496D01*
X82913647Y-67824738D01*
X66233000Y-67824738D01*
X66233000Y-67780069D01*
X66147188Y-67348658D01*
X65978859Y-66942278D01*
X65734485Y-66576545D01*
X65423455Y-66265515D01*
X65057722Y-66021141D01*
X64651342Y-65852812D01*
X64219931Y-65767000D01*
X63780069Y-65767000D01*
X63348658Y-65852812D01*
X62942278Y-66021141D01*
X62576545Y-66265515D01*
X62265515Y-66576545D01*
X62021141Y-66942278D01*
X61852812Y-67348658D01*
X61767000Y-67780069D01*
X60683000Y-67780069D01*
X60683000Y-64683000D01*
X209317000Y-64683000D01*
X209317001Y-163317000D01*
G37*
X209317001Y-163317000D02*
X60683000Y-163317000D01*
X60683000Y-159780069D01*
X61767000Y-159780069D01*
X61767000Y-160219931D01*
X61852812Y-160651342D01*
X62021141Y-161057722D01*
X62265515Y-161423455D01*
X62576545Y-161734485D01*
X62942278Y-161978859D01*
X63348658Y-162147188D01*
X63780069Y-162233000D01*
X64219931Y-162233000D01*
X64651342Y-162147188D01*
X65057722Y-161978859D01*
X65423455Y-161734485D01*
X65734485Y-161423455D01*
X65978859Y-161057722D01*
X66147188Y-160651342D01*
X66233000Y-160219931D01*
X66233000Y-159780069D01*
X203267000Y-159780069D01*
X203267000Y-160219931D01*
X203352812Y-160651342D01*
X203521141Y-161057722D01*
X203765515Y-161423455D01*
X204076545Y-161734485D01*
X204442278Y-161978859D01*
X204848658Y-162147188D01*
X205280069Y-162233000D01*
X205719931Y-162233000D01*
X206151342Y-162147188D01*
X206557722Y-161978859D01*
X206923455Y-161734485D01*
X207234485Y-161423455D01*
X207478859Y-161057722D01*
X207647188Y-160651342D01*
X207733000Y-160219931D01*
X207733000Y-159780069D01*
X207647188Y-159348658D01*
X207478859Y-158942278D01*
X207234485Y-158576545D01*
X206923455Y-158265515D01*
X206557722Y-158021141D01*
X206151342Y-157852812D01*
X205719931Y-157767000D01*
X205280069Y-157767000D01*
X204848658Y-157852812D01*
X204442278Y-158021141D01*
X204076545Y-158265515D01*
X203765515Y-158576545D01*
X203521141Y-158942278D01*
X203352812Y-159348658D01*
X203267000Y-159780069D01*
X66233000Y-159780069D01*
X66147188Y-159348658D01*
X65978859Y-158942278D01*
X65734485Y-158576545D01*
X65423455Y-158265515D01*
X65057722Y-158021141D01*
X64651342Y-157852812D01*
X64219931Y-157767000D01*
X63780069Y-157767000D01*
X63348658Y-157852812D01*
X62942278Y-158021141D01*
X62576545Y-158265515D01*
X62265515Y-158576545D01*
X62021141Y-158942278D01*
X61852812Y-159348658D01*
X61767000Y-159780069D01*
X60683000Y-159780069D01*
X60683000Y-154798310D01*
X60756590Y-154837645D01*
X60875910Y-154873840D01*
X61000000Y-154886062D01*
X65000000Y-154886062D01*
X65124090Y-154873840D01*
X65243410Y-154837645D01*
X65353377Y-154778866D01*
X65449764Y-154699764D01*
X65528866Y-154603377D01*
X65587645Y-154493410D01*
X65623840Y-154374090D01*
X65636062Y-154250000D01*
X65636062Y-152250000D01*
X65623840Y-152125910D01*
X65587645Y-152006590D01*
X65528866Y-151896623D01*
X65449764Y-151800236D01*
X65353377Y-151721134D01*
X65243410Y-151662355D01*
X65124090Y-151626160D01*
X65000000Y-151613938D01*
X61000000Y-151613938D01*
X60875910Y-151626160D01*
X60756590Y-151662355D01*
X60683000Y-151701690D01*
X60683000Y-149839164D01*
X65617000Y-149839164D01*
X65617000Y-150160836D01*
X65679756Y-150476328D01*
X65802855Y-150773515D01*
X65981566Y-151040977D01*
X66209023Y-151268434D01*
X66476485Y-151447145D01*
X66773672Y-151570244D01*
X67089164Y-151633000D01*
X67410836Y-151633000D01*
X67726328Y-151570244D01*
X68023515Y-151447145D01*
X68290977Y-151268434D01*
X68518434Y-151040977D01*
X68697145Y-150773515D01*
X68820244Y-150476328D01*
X68883000Y-150160836D01*
X68883000Y-149839164D01*
X68820244Y-149523672D01*
X68697145Y-149226485D01*
X68518434Y-148959023D01*
X68290977Y-148731566D01*
X68023515Y-148552855D01*
X67726328Y-148429756D01*
X67410836Y-148367000D01*
X67089164Y-148367000D01*
X66773672Y-148429756D01*
X66476485Y-148552855D01*
X66209023Y-148731566D01*
X65981566Y-148959023D01*
X65802855Y-149226485D01*
X65679756Y-149523672D01*
X65617000Y-149839164D01*
X60683000Y-149839164D01*
X60683000Y-147220310D01*
X61918599Y-147220310D01*
X62026417Y-147463785D01*
X62325891Y-147576823D01*
X62641663Y-147629265D01*
X62961598Y-147619094D01*
X63273402Y-147546703D01*
X63473583Y-147463785D01*
X63528768Y-147339164D01*
X80967000Y-147339164D01*
X80967000Y-147660836D01*
X81029756Y-147976328D01*
X81152855Y-148273515D01*
X81331566Y-148540977D01*
X81559023Y-148768434D01*
X81826485Y-148947145D01*
X82123672Y-149070244D01*
X82439164Y-149133000D01*
X82760836Y-149133000D01*
X83076328Y-149070244D01*
X83373515Y-148947145D01*
X83640977Y-148768434D01*
X83868434Y-148540977D01*
X84047145Y-148273515D01*
X84170244Y-147976328D01*
X84233000Y-147660836D01*
X84233000Y-147339164D01*
X164567000Y-147339164D01*
X164567000Y-147660836D01*
X164629756Y-147976328D01*
X164752855Y-148273515D01*
X164931566Y-148540977D01*
X165159023Y-148768434D01*
X165426485Y-148947145D01*
X165723672Y-149070244D01*
X166039164Y-149133000D01*
X166360836Y-149133000D01*
X166676328Y-149070244D01*
X166973515Y-148947145D01*
X167240977Y-148768434D01*
X167468434Y-148540977D01*
X167647145Y-148273515D01*
X167770244Y-147976328D01*
X167833000Y-147660836D01*
X167833000Y-147339164D01*
X167770244Y-147023672D01*
X167647145Y-146726485D01*
X167468434Y-146459023D01*
X167240977Y-146231566D01*
X166973515Y-146052855D01*
X166676328Y-145929756D01*
X166360836Y-145867000D01*
X166039164Y-145867000D01*
X165723672Y-145929756D01*
X165426485Y-146052855D01*
X165159023Y-146231566D01*
X164931566Y-146459023D01*
X164752855Y-146726485D01*
X164629756Y-147023672D01*
X164567000Y-147339164D01*
X84233000Y-147339164D01*
X84170244Y-147023672D01*
X84047145Y-146726485D01*
X83868434Y-146459023D01*
X83640977Y-146231566D01*
X83373515Y-146052855D01*
X83076328Y-145929756D01*
X82760836Y-145867000D01*
X82439164Y-145867000D01*
X82123672Y-145929756D01*
X81826485Y-146052855D01*
X81559023Y-146231566D01*
X81331566Y-146459023D01*
X81152855Y-146726485D01*
X81029756Y-147023672D01*
X80967000Y-147339164D01*
X63528768Y-147339164D01*
X63581401Y-147220310D01*
X62750000Y-146388909D01*
X61918599Y-147220310D01*
X60683000Y-147220310D01*
X60683000Y-145891663D01*
X61120735Y-145891663D01*
X61130906Y-146211598D01*
X61203297Y-146523402D01*
X61286215Y-146723583D01*
X61529690Y-146831401D01*
X62361091Y-146000000D01*
X63138909Y-146000000D01*
X63970310Y-146831401D01*
X64213785Y-146723583D01*
X64326823Y-146424109D01*
X64379265Y-146108337D01*
X64369094Y-145788402D01*
X64296703Y-145476598D01*
X64213785Y-145276417D01*
X63970310Y-145168599D01*
X63138909Y-146000000D01*
X62361091Y-146000000D01*
X61529690Y-145168599D01*
X61286215Y-145276417D01*
X61173177Y-145575891D01*
X61120735Y-145891663D01*
X60683000Y-145891663D01*
X60683000Y-144779690D01*
X61918599Y-144779690D01*
X62750000Y-145611091D01*
X63581401Y-144779690D01*
X63473583Y-144536215D01*
X63174109Y-144423177D01*
X62858337Y-144370735D01*
X62538402Y-144380906D01*
X62226598Y-144453297D01*
X62026417Y-144536215D01*
X61918599Y-144779690D01*
X60683000Y-144779690D01*
X60683000Y-141839164D01*
X64367000Y-141839164D01*
X64367000Y-142160836D01*
X64429756Y-142476328D01*
X64552855Y-142773515D01*
X64731566Y-143040977D01*
X64959023Y-143268434D01*
X65226485Y-143447145D01*
X65523672Y-143570244D01*
X65839164Y-143633000D01*
X66160836Y-143633000D01*
X66476328Y-143570244D01*
X66773515Y-143447145D01*
X67040977Y-143268434D01*
X67268434Y-143040977D01*
X67447145Y-142773515D01*
X67570244Y-142476328D01*
X67633000Y-142160836D01*
X67633000Y-141839164D01*
X67570244Y-141523672D01*
X67447145Y-141226485D01*
X67268434Y-140959023D01*
X67040977Y-140731566D01*
X66773515Y-140552855D01*
X66476328Y-140429756D01*
X66160836Y-140367000D01*
X65839164Y-140367000D01*
X65523672Y-140429756D01*
X65226485Y-140552855D01*
X64959023Y-140731566D01*
X64731566Y-140959023D01*
X64552855Y-141226485D01*
X64429756Y-141523672D01*
X64367000Y-141839164D01*
X60683000Y-141839164D01*
X60683000Y-140298310D01*
X60756590Y-140337645D01*
X60875910Y-140373840D01*
X61000000Y-140386062D01*
X65000000Y-140386062D01*
X65124090Y-140373840D01*
X65243410Y-140337645D01*
X65353377Y-140278866D01*
X65449764Y-140199764D01*
X65528866Y-140103377D01*
X65587645Y-139993410D01*
X65623840Y-139874090D01*
X65627279Y-139839164D01*
X80967000Y-139839164D01*
X80967000Y-140160836D01*
X81029756Y-140476328D01*
X81152855Y-140773515D01*
X81331566Y-141040977D01*
X81559023Y-141268434D01*
X81826485Y-141447145D01*
X82123672Y-141570244D01*
X82439164Y-141633000D01*
X82760836Y-141633000D01*
X83076328Y-141570244D01*
X83373515Y-141447145D01*
X83640977Y-141268434D01*
X83868434Y-141040977D01*
X84047145Y-140773515D01*
X84170244Y-140476328D01*
X84233000Y-140160836D01*
X84233000Y-139839164D01*
X164567000Y-139839164D01*
X164567000Y-140160836D01*
X164629756Y-140476328D01*
X164752855Y-140773515D01*
X164931566Y-141040977D01*
X165159023Y-141268434D01*
X165426485Y-141447145D01*
X165723672Y-141570244D01*
X166039164Y-141633000D01*
X166360836Y-141633000D01*
X166676328Y-141570244D01*
X166973515Y-141447145D01*
X167240977Y-141268434D01*
X167468434Y-141040977D01*
X167647145Y-140773515D01*
X167770244Y-140476328D01*
X167833000Y-140160836D01*
X167833000Y-139839164D01*
X167770244Y-139523672D01*
X167647145Y-139226485D01*
X167468434Y-138959023D01*
X167240977Y-138731566D01*
X166973515Y-138552855D01*
X166676328Y-138429756D01*
X166360836Y-138367000D01*
X166039164Y-138367000D01*
X165723672Y-138429756D01*
X165426485Y-138552855D01*
X165159023Y-138731566D01*
X164931566Y-138959023D01*
X164752855Y-139226485D01*
X164629756Y-139523672D01*
X164567000Y-139839164D01*
X84233000Y-139839164D01*
X84170244Y-139523672D01*
X84047145Y-139226485D01*
X83868434Y-138959023D01*
X83640977Y-138731566D01*
X83373515Y-138552855D01*
X83076328Y-138429756D01*
X82760836Y-138367000D01*
X82439164Y-138367000D01*
X82123672Y-138429756D01*
X81826485Y-138552855D01*
X81559023Y-138731566D01*
X81331566Y-138959023D01*
X81152855Y-139226485D01*
X81029756Y-139523672D01*
X80967000Y-139839164D01*
X65627279Y-139839164D01*
X65636062Y-139750000D01*
X65636062Y-137750000D01*
X65623840Y-137625910D01*
X65587645Y-137506590D01*
X65528866Y-137396623D01*
X65449764Y-137300236D01*
X65353377Y-137221134D01*
X65243410Y-137162355D01*
X65124090Y-137126160D01*
X65000000Y-137113938D01*
X61000000Y-137113938D01*
X60875910Y-137126160D01*
X60756590Y-137162355D01*
X60683000Y-137201690D01*
X60683000Y-132608862D01*
X69267000Y-132608862D01*
X69267000Y-132891138D01*
X69322069Y-133167991D01*
X69430092Y-133428780D01*
X69586916Y-133663484D01*
X69786516Y-133863084D01*
X70021220Y-134019908D01*
X70282009Y-134127931D01*
X70558862Y-134183000D01*
X70841138Y-134183000D01*
X71117991Y-134127931D01*
X71378780Y-134019908D01*
X71613484Y-133863084D01*
X71813084Y-133663484D01*
X71969908Y-133428780D01*
X72077931Y-133167991D01*
X72133000Y-132891138D01*
X72133000Y-132608862D01*
X79567000Y-132608862D01*
X79567000Y-132891138D01*
X79622069Y-133167991D01*
X79730092Y-133428780D01*
X79886916Y-133663484D01*
X80086516Y-133863084D01*
X80321220Y-134019908D01*
X80582009Y-134127931D01*
X80858862Y-134183000D01*
X81141138Y-134183000D01*
X81417991Y-134127931D01*
X81678780Y-134019908D01*
X81913484Y-133863084D01*
X82113084Y-133663484D01*
X82269908Y-133428780D01*
X82377931Y-133167991D01*
X82433000Y-132891138D01*
X82433000Y-132608862D01*
X90317000Y-132608862D01*
X90317000Y-132891138D01*
X90372069Y-133167991D01*
X90480092Y-133428780D01*
X90636916Y-133663484D01*
X90836516Y-133863084D01*
X91071220Y-134019908D01*
X91332009Y-134127931D01*
X91608862Y-134183000D01*
X91891138Y-134183000D01*
X92167991Y-134127931D01*
X92428780Y-134019908D01*
X92663484Y-133863084D01*
X92863084Y-133663484D01*
X93019908Y-133428780D01*
X93127931Y-133167991D01*
X93183000Y-132891138D01*
X93183000Y-132608862D01*
X93127931Y-132332009D01*
X93019908Y-132071220D01*
X92863084Y-131836516D01*
X92663484Y-131636916D01*
X92428780Y-131480092D01*
X92167991Y-131372069D01*
X91891138Y-131317000D01*
X91608862Y-131317000D01*
X91332009Y-131372069D01*
X91071220Y-131480092D01*
X90836516Y-131636916D01*
X90636916Y-131836516D01*
X90480092Y-132071220D01*
X90372069Y-132332009D01*
X90317000Y-132608862D01*
X82433000Y-132608862D01*
X82377931Y-132332009D01*
X82269908Y-132071220D01*
X82113084Y-131836516D01*
X81913484Y-131636916D01*
X81678780Y-131480092D01*
X81417991Y-131372069D01*
X81141138Y-131317000D01*
X80858862Y-131317000D01*
X80582009Y-131372069D01*
X80321220Y-131480092D01*
X80086516Y-131636916D01*
X79886916Y-131836516D01*
X79730092Y-132071220D01*
X79622069Y-132332009D01*
X79567000Y-132608862D01*
X72133000Y-132608862D01*
X72077931Y-132332009D01*
X71969908Y-132071220D01*
X71813084Y-131836516D01*
X71613484Y-131636916D01*
X71378780Y-131480092D01*
X71117991Y-131372069D01*
X70841138Y-131317000D01*
X70558862Y-131317000D01*
X70282009Y-131372069D01*
X70021220Y-131480092D01*
X69786516Y-131636916D01*
X69586916Y-131836516D01*
X69430092Y-132071220D01*
X69322069Y-132332009D01*
X69267000Y-132608862D01*
X60683000Y-132608862D01*
X60683000Y-97250000D01*
X63861518Y-97250000D01*
X63867001Y-97305669D01*
X63867000Y-123694349D01*
X63861519Y-123750000D01*
X63867000Y-123805651D01*
X63867000Y-123805658D01*
X63883394Y-123972106D01*
X63948180Y-124185677D01*
X64053387Y-124382507D01*
X64194972Y-124555028D01*
X64238208Y-124590511D01*
X69409493Y-129761797D01*
X69444972Y-129805028D01*
X69617493Y-129946613D01*
X69814322Y-130051820D01*
X70027893Y-130116606D01*
X70194341Y-130133000D01*
X70194348Y-130133000D01*
X70249999Y-130138481D01*
X70305650Y-130133000D01*
X174944349Y-130133000D01*
X175000000Y-130138481D01*
X175055651Y-130133000D01*
X175055659Y-130133000D01*
X175222107Y-130116606D01*
X175435678Y-130051820D01*
X175632507Y-129946613D01*
X175805028Y-129805028D01*
X175840511Y-129761792D01*
X183061797Y-122540507D01*
X183105028Y-122505028D01*
X183246613Y-122332507D01*
X183351820Y-122135678D01*
X183416606Y-121922107D01*
X183438482Y-121700000D01*
X183416606Y-121477893D01*
X183351820Y-121264322D01*
X183246613Y-121067493D01*
X183105028Y-120894972D01*
X182932507Y-120753387D01*
X182735678Y-120648180D01*
X182522107Y-120583394D01*
X182355659Y-120567000D01*
X182355650Y-120567000D01*
X182299999Y-120561519D01*
X182244348Y-120567000D01*
X182244341Y-120567000D01*
X182077893Y-120583394D01*
X181864322Y-120648180D01*
X181680166Y-120746613D01*
X181667493Y-120753387D01*
X181547553Y-120851820D01*
X181494972Y-120894972D01*
X181459493Y-120938203D01*
X174530697Y-127867000D01*
X70719304Y-127867000D01*
X66133000Y-123280697D01*
X66133000Y-121500000D01*
X120375000Y-121500000D01*
X120375000Y-124000000D01*
X120377402Y-124024386D01*
X120384515Y-124047835D01*
X120396066Y-124069446D01*
X120411612Y-124088388D01*
X120430554Y-124103934D01*
X120452165Y-124115485D01*
X120475614Y-124122598D01*
X120500000Y-124125000D01*
X123464150Y-124125000D01*
X125433750Y-125356000D01*
X125452165Y-125365485D01*
X125475614Y-125372598D01*
X125500000Y-125375000D01*
X128500000Y-125375000D01*
X128524386Y-125372598D01*
X128547835Y-125365485D01*
X128569446Y-125353934D01*
X128588388Y-125338388D01*
X128603934Y-125319446D01*
X128615485Y-125297835D01*
X128622598Y-125274386D01*
X128625000Y-125250000D01*
X128625000Y-122750000D01*
X128622598Y-122725614D01*
X128615485Y-122702165D01*
X128603934Y-122680554D01*
X128588388Y-122661612D01*
X128569446Y-122646066D01*
X128547835Y-122634515D01*
X128524386Y-122627402D01*
X128500000Y-122625000D01*
X125535850Y-122625000D01*
X123566250Y-121394000D01*
X123547835Y-121384515D01*
X123524386Y-121377402D01*
X123500000Y-121375000D01*
X120500000Y-121375000D01*
X120475614Y-121377402D01*
X120452165Y-121384515D01*
X120430554Y-121396066D01*
X120411612Y-121411612D01*
X120396066Y-121430554D01*
X120384515Y-121452165D01*
X120377402Y-121475614D01*
X120375000Y-121500000D01*
X66133000Y-121500000D01*
X66133000Y-112608862D01*
X69267000Y-112608862D01*
X69267000Y-112891138D01*
X69322069Y-113167991D01*
X69430092Y-113428780D01*
X69586916Y-113663484D01*
X69786516Y-113863084D01*
X70021220Y-114019908D01*
X70282009Y-114127931D01*
X70558862Y-114183000D01*
X70841138Y-114183000D01*
X71117991Y-114127931D01*
X71378780Y-114019908D01*
X71613484Y-113863084D01*
X71813084Y-113663484D01*
X71969908Y-113428780D01*
X72077931Y-113167991D01*
X72133000Y-112891138D01*
X72133000Y-112608862D01*
X72077931Y-112332009D01*
X71969908Y-112071220D01*
X71813084Y-111836516D01*
X71613484Y-111636916D01*
X71378780Y-111480092D01*
X71117991Y-111372069D01*
X70841138Y-111317000D01*
X70558862Y-111317000D01*
X70282009Y-111372069D01*
X70021220Y-111480092D01*
X69786516Y-111636916D01*
X69586916Y-111836516D01*
X69430092Y-112071220D01*
X69322069Y-112332009D01*
X69267000Y-112608862D01*
X66133000Y-112608862D01*
X66133000Y-103075000D01*
X72661519Y-103075000D01*
X72667000Y-103130651D01*
X72667001Y-112644339D01*
X72661519Y-112700000D01*
X72683394Y-112922106D01*
X72748181Y-113135678D01*
X72853387Y-113332506D01*
X72932398Y-113428780D01*
X72994973Y-113505028D01*
X73038204Y-113540507D01*
X77559491Y-118061795D01*
X77594972Y-118105028D01*
X77767493Y-118246613D01*
X77964322Y-118351820D01*
X78177893Y-118416606D01*
X78344341Y-118433000D01*
X78344348Y-118433000D01*
X78399999Y-118438481D01*
X78455650Y-118433000D01*
X93230697Y-118433000D01*
X95359493Y-120561797D01*
X95394972Y-120605028D01*
X95438203Y-120640507D01*
X95438204Y-120640508D01*
X95447554Y-120648181D01*
X95567493Y-120746613D01*
X95764322Y-120851820D01*
X95977893Y-120916606D01*
X96144341Y-120933000D01*
X96144349Y-120933000D01*
X96200000Y-120938481D01*
X96255651Y-120933000D01*
X118744349Y-120933000D01*
X118800000Y-120938481D01*
X118855651Y-120933000D01*
X118855659Y-120933000D01*
X119022107Y-120916606D01*
X119235678Y-120851820D01*
X119432507Y-120746613D01*
X119605028Y-120605028D01*
X119640511Y-120561792D01*
X121869304Y-118333000D01*
X125930697Y-118333000D01*
X126113028Y-118515331D01*
X126133394Y-118722107D01*
X126198180Y-118935678D01*
X126303387Y-119132507D01*
X126444972Y-119305028D01*
X126617493Y-119446613D01*
X126814322Y-119551820D01*
X127027893Y-119616606D01*
X127194341Y-119633000D01*
X127194342Y-119633000D01*
X127250000Y-119638482D01*
X127305659Y-119633000D01*
X194244349Y-119633000D01*
X194300000Y-119638481D01*
X194355651Y-119633000D01*
X194355659Y-119633000D01*
X194522107Y-119616606D01*
X194735678Y-119551820D01*
X194932507Y-119446613D01*
X195105028Y-119305028D01*
X195140511Y-119261792D01*
X198661797Y-115740507D01*
X198705028Y-115705028D01*
X198846613Y-115532507D01*
X198911725Y-115410691D01*
X198951820Y-115335679D01*
X199016606Y-115122107D01*
X199019018Y-115097617D01*
X199033000Y-114955659D01*
X199033000Y-114955651D01*
X199038481Y-114900000D01*
X199033000Y-114844349D01*
X199033000Y-113900000D01*
X199421976Y-113900000D01*
X199434043Y-114022521D01*
X199469781Y-114140334D01*
X199527817Y-114248911D01*
X199605920Y-114344080D01*
X199701089Y-114422183D01*
X199809666Y-114480219D01*
X199927479Y-114515957D01*
X200050000Y-114528024D01*
X200468750Y-114525000D01*
X200625000Y-114368750D01*
X200625000Y-113325000D01*
X201175000Y-113325000D01*
X201175000Y-114368750D01*
X201331250Y-114525000D01*
X201750000Y-114528024D01*
X201872521Y-114515957D01*
X201990334Y-114480219D01*
X202098911Y-114422183D01*
X202194080Y-114344080D01*
X202272183Y-114248911D01*
X202330219Y-114140334D01*
X202365957Y-114022521D01*
X202378024Y-113900000D01*
X202375000Y-113481250D01*
X202218750Y-113325000D01*
X201175000Y-113325000D01*
X200625000Y-113325000D01*
X199581250Y-113325000D01*
X199425000Y-113481250D01*
X199421976Y-113900000D01*
X199033000Y-113900000D01*
X199033000Y-112777222D01*
X199423326Y-112386897D01*
X199425000Y-112618750D01*
X199581250Y-112775000D01*
X200625000Y-112775000D01*
X200625000Y-112755000D01*
X201175000Y-112755000D01*
X201175000Y-112775000D01*
X202218750Y-112775000D01*
X202375000Y-112618750D01*
X202378024Y-112200000D01*
X202365957Y-112077479D01*
X202330219Y-111959666D01*
X202272183Y-111851089D01*
X202194080Y-111755920D01*
X202098911Y-111677817D01*
X201990334Y-111619781D01*
X201911433Y-111595847D01*
X202051922Y-111455358D01*
X202214218Y-111212464D01*
X202326010Y-110942575D01*
X202383000Y-110656063D01*
X202383000Y-110363937D01*
X202326010Y-110077425D01*
X202214218Y-109807536D01*
X202051922Y-109564642D01*
X201845358Y-109358078D01*
X201668641Y-109240000D01*
X201845358Y-109121922D01*
X202051922Y-108915358D01*
X202214218Y-108672464D01*
X202326010Y-108402575D01*
X202383000Y-108116063D01*
X202383000Y-107823937D01*
X202326010Y-107537425D01*
X202214218Y-107267536D01*
X202051922Y-107024642D01*
X201845358Y-106818078D01*
X201602464Y-106655782D01*
X201332575Y-106543990D01*
X201046063Y-106487000D01*
X200753937Y-106487000D01*
X200467425Y-106543990D01*
X200197536Y-106655782D01*
X199954642Y-106818078D01*
X199935720Y-106837000D01*
X184439304Y-106837000D01*
X182633000Y-105030697D01*
X182633000Y-101805651D01*
X182638481Y-101750000D01*
X182633000Y-101694349D01*
X182633000Y-101694341D01*
X182616606Y-101527893D01*
X182551820Y-101314322D01*
X182446613Y-101117493D01*
X182305028Y-100944972D01*
X182261797Y-100909493D01*
X181340511Y-99988208D01*
X181305028Y-99944972D01*
X181132507Y-99803387D01*
X180935678Y-99698180D01*
X180722107Y-99633394D01*
X180555659Y-99617000D01*
X180555651Y-99617000D01*
X180500000Y-99611519D01*
X180444349Y-99617000D01*
X176305658Y-99617000D01*
X176250000Y-99611518D01*
X176194341Y-99617000D01*
X176027893Y-99633394D01*
X175814322Y-99698180D01*
X175617493Y-99803387D01*
X175444972Y-99944972D01*
X175303387Y-100117493D01*
X175198180Y-100314322D01*
X175133394Y-100527893D01*
X175111518Y-100750000D01*
X175117000Y-100805659D01*
X175117000Y-101480696D01*
X174530697Y-102067000D01*
X137169304Y-102067000D01*
X134333000Y-99230697D01*
X134333000Y-95500000D01*
X174875000Y-95500000D01*
X174875000Y-98000000D01*
X174877402Y-98024386D01*
X174884515Y-98047835D01*
X174896066Y-98069446D01*
X174911612Y-98088388D01*
X174930554Y-98103934D01*
X174952165Y-98115485D01*
X174975614Y-98122598D01*
X175000000Y-98125000D01*
X177500000Y-98125000D01*
X177524386Y-98122598D01*
X177547835Y-98115485D01*
X177569446Y-98103934D01*
X177588388Y-98088388D01*
X177603934Y-98069446D01*
X177615485Y-98047835D01*
X177622598Y-98024386D01*
X177625000Y-98000000D01*
X177625000Y-97051776D01*
X179911612Y-99338388D01*
X179930554Y-99353934D01*
X179952165Y-99365485D01*
X179975614Y-99372598D01*
X180000000Y-99375000D01*
X182500000Y-99375000D01*
X182524386Y-99372598D01*
X182547835Y-99365485D01*
X182569446Y-99353934D01*
X182588388Y-99338388D01*
X182603934Y-99319446D01*
X182615485Y-99297835D01*
X182622598Y-99274386D01*
X182625000Y-99250000D01*
X182625000Y-96750000D01*
X182622598Y-96725614D01*
X182615485Y-96702165D01*
X182603934Y-96680554D01*
X182588388Y-96661612D01*
X182569446Y-96646066D01*
X182547835Y-96634515D01*
X182524386Y-96627402D01*
X182500000Y-96625000D01*
X179750000Y-96625000D01*
X179725614Y-96627402D01*
X179702165Y-96634515D01*
X179680554Y-96646066D01*
X179661612Y-96661612D01*
X179646066Y-96680554D01*
X179634515Y-96702165D01*
X179627402Y-96725614D01*
X179625000Y-96750000D01*
X179625000Y-97233120D01*
X178334373Y-96157597D01*
X177588388Y-95411612D01*
X177569446Y-95396066D01*
X177547835Y-95384515D01*
X177524386Y-95377402D01*
X177500000Y-95375000D01*
X175000000Y-95375000D01*
X174975614Y-95377402D01*
X174952165Y-95384515D01*
X174930554Y-95396066D01*
X174911612Y-95411612D01*
X174896066Y-95430554D01*
X174884515Y-95452165D01*
X174877402Y-95475614D01*
X174875000Y-95500000D01*
X134333000Y-95500000D01*
X134333000Y-94955650D01*
X134338481Y-94899999D01*
X134333000Y-94844348D01*
X134333000Y-94844341D01*
X134316606Y-94677893D01*
X134251820Y-94464322D01*
X134146613Y-94267493D01*
X134005028Y-94094972D01*
X133961797Y-94059493D01*
X132540511Y-92638208D01*
X132505028Y-92594972D01*
X132332507Y-92453387D01*
X132135678Y-92348180D01*
X131922107Y-92283394D01*
X131755659Y-92267000D01*
X131755651Y-92267000D01*
X131700000Y-92261519D01*
X131644349Y-92267000D01*
X119069304Y-92267000D01*
X118733000Y-91930697D01*
X118733000Y-88855651D01*
X118738481Y-88800000D01*
X118733000Y-88744349D01*
X118733000Y-88744341D01*
X118716606Y-88577893D01*
X118651820Y-88364322D01*
X118546613Y-88167493D01*
X118405028Y-87994972D01*
X118361797Y-87959493D01*
X115740511Y-85338208D01*
X115705028Y-85294972D01*
X115532507Y-85153387D01*
X115335678Y-85048180D01*
X115122107Y-84983394D01*
X114955659Y-84967000D01*
X114955651Y-84967000D01*
X114900000Y-84961519D01*
X114844349Y-84967000D01*
X108233000Y-84967000D01*
X108233000Y-80250000D01*
X108625000Y-80250000D01*
X108625000Y-82750000D01*
X108627402Y-82774386D01*
X108634515Y-82797835D01*
X108646066Y-82819446D01*
X108661612Y-82838388D01*
X108680554Y-82853934D01*
X108702165Y-82865485D01*
X108725614Y-82872598D01*
X108750000Y-82875000D01*
X111500000Y-82875000D01*
X111524386Y-82872598D01*
X111547835Y-82865485D01*
X111569446Y-82853934D01*
X111588388Y-82838388D01*
X111603934Y-82819446D01*
X111615485Y-82797835D01*
X111622598Y-82774386D01*
X111625000Y-82750000D01*
X111625000Y-81500000D01*
X114111518Y-81500000D01*
X114133394Y-81722107D01*
X114198180Y-81935678D01*
X114303387Y-82132507D01*
X114444972Y-82305028D01*
X114617493Y-82446613D01*
X114814322Y-82551820D01*
X115027893Y-82616606D01*
X115194341Y-82633000D01*
X116530697Y-82633000D01*
X117867001Y-83969305D01*
X117867000Y-86194349D01*
X117861519Y-86250000D01*
X117867000Y-86305651D01*
X117867000Y-86305658D01*
X117883394Y-86472106D01*
X117948180Y-86685677D01*
X118053387Y-86882507D01*
X118194972Y-87055028D01*
X118238208Y-87090511D01*
X119738204Y-88590508D01*
X119738209Y-88590512D01*
X120659491Y-89511795D01*
X120694972Y-89555028D01*
X120738203Y-89590507D01*
X120738205Y-89590509D01*
X120753885Y-89603377D01*
X120867493Y-89696613D01*
X121064322Y-89801820D01*
X121277893Y-89866606D01*
X121444341Y-89883000D01*
X121444349Y-89883000D01*
X121500000Y-89888481D01*
X121555651Y-89883000D01*
X135092377Y-89883000D01*
X135086516Y-89886916D01*
X134886916Y-90086516D01*
X134730092Y-90321220D01*
X134622069Y-90582009D01*
X134567000Y-90858862D01*
X134567000Y-91141138D01*
X134622069Y-91417991D01*
X134730092Y-91678780D01*
X134886916Y-91913484D01*
X135086516Y-92113084D01*
X135321220Y-92269908D01*
X135582009Y-92377931D01*
X135858862Y-92433000D01*
X136141138Y-92433000D01*
X136417991Y-92377931D01*
X136678780Y-92269908D01*
X136913484Y-92113084D01*
X137113084Y-91913484D01*
X137269908Y-91678780D01*
X137377931Y-91417991D01*
X137433000Y-91141138D01*
X137433000Y-90858862D01*
X137377931Y-90582009D01*
X137269908Y-90321220D01*
X137113084Y-90086516D01*
X136913484Y-89886916D01*
X136907623Y-89883000D01*
X144842377Y-89883000D01*
X144836516Y-89886916D01*
X144636916Y-90086516D01*
X144480092Y-90321220D01*
X144372069Y-90582009D01*
X144317000Y-90858862D01*
X144317000Y-91141138D01*
X144372069Y-91417991D01*
X144480092Y-91678780D01*
X144636916Y-91913484D01*
X144836516Y-92113084D01*
X145071220Y-92269908D01*
X145332009Y-92377931D01*
X145608862Y-92433000D01*
X145891138Y-92433000D01*
X146167991Y-92377931D01*
X146428780Y-92269908D01*
X146663484Y-92113084D01*
X146863084Y-91913484D01*
X147019908Y-91678780D01*
X147127931Y-91417991D01*
X147183000Y-91141138D01*
X147183000Y-90858862D01*
X147127931Y-90582009D01*
X147019908Y-90321220D01*
X146863084Y-90086516D01*
X146663484Y-89886916D01*
X146657623Y-89883000D01*
X154342377Y-89883000D01*
X154336516Y-89886916D01*
X154136916Y-90086516D01*
X153980092Y-90321220D01*
X153872069Y-90582009D01*
X153817000Y-90858862D01*
X153817000Y-91141138D01*
X153872069Y-91417991D01*
X153980092Y-91678780D01*
X154136916Y-91913484D01*
X154336516Y-92113084D01*
X154571220Y-92269908D01*
X154832009Y-92377931D01*
X155108862Y-92433000D01*
X155391138Y-92433000D01*
X155667991Y-92377931D01*
X155928780Y-92269908D01*
X156163484Y-92113084D01*
X156363084Y-91913484D01*
X156519908Y-91678780D01*
X156627931Y-91417991D01*
X156683000Y-91141138D01*
X156683000Y-90858862D01*
X156627931Y-90582009D01*
X156519908Y-90321220D01*
X156363084Y-90086516D01*
X156163484Y-89886916D01*
X156157623Y-89883000D01*
X168280697Y-89883000D01*
X168909491Y-90511795D01*
X168944972Y-90555028D01*
X168988203Y-90590507D01*
X168988205Y-90590509D01*
X169032306Y-90626701D01*
X169117493Y-90696613D01*
X169314322Y-90801820D01*
X169527893Y-90866606D01*
X169694341Y-90883000D01*
X169694349Y-90883000D01*
X169750000Y-90888481D01*
X169805651Y-90883000D01*
X177780697Y-90883000D01*
X178159492Y-91261795D01*
X180409493Y-93511797D01*
X180444972Y-93555028D01*
X180488203Y-93590507D01*
X180488205Y-93590509D01*
X180526706Y-93622106D01*
X180617493Y-93696613D01*
X180814322Y-93801820D01*
X181027893Y-93866606D01*
X181194341Y-93883000D01*
X181194349Y-93883000D01*
X181250000Y-93888481D01*
X181305651Y-93883000D01*
X181305659Y-93883000D01*
X181472107Y-93866606D01*
X181685678Y-93801820D01*
X181882507Y-93696613D01*
X182055028Y-93555028D01*
X182196613Y-93382507D01*
X182301820Y-93185678D01*
X182366606Y-92972107D01*
X182388482Y-92750000D01*
X182366606Y-92527893D01*
X182301820Y-92314322D01*
X182196613Y-92117493D01*
X182055028Y-91944972D01*
X182011797Y-91909493D01*
X179761795Y-89659492D01*
X179090509Y-88988206D01*
X179055028Y-88944972D01*
X178882507Y-88803387D01*
X178685678Y-88698180D01*
X178472107Y-88633394D01*
X178305659Y-88617000D01*
X178305651Y-88617000D01*
X178250000Y-88611519D01*
X178194349Y-88617000D01*
X170219304Y-88617000D01*
X169590511Y-87988208D01*
X169555028Y-87944972D01*
X169382507Y-87803387D01*
X169185678Y-87698180D01*
X168972107Y-87633394D01*
X168805659Y-87617000D01*
X168805651Y-87617000D01*
X168750000Y-87611519D01*
X168694349Y-87617000D01*
X121969304Y-87617000D01*
X121340512Y-86988209D01*
X121340508Y-86988204D01*
X120133000Y-85780697D01*
X120133000Y-83555650D01*
X120138481Y-83499999D01*
X120133000Y-83444348D01*
X120133000Y-83444341D01*
X120116606Y-83277893D01*
X120051820Y-83064322D01*
X119946613Y-82867493D01*
X119805028Y-82694972D01*
X119761797Y-82659493D01*
X117840511Y-80738208D01*
X117805028Y-80694972D01*
X117632507Y-80553387D01*
X117435678Y-80448180D01*
X117222107Y-80383394D01*
X117055659Y-80367000D01*
X117055651Y-80367000D01*
X117000000Y-80361519D01*
X116944349Y-80367000D01*
X115194341Y-80367000D01*
X115027893Y-80383394D01*
X114814322Y-80448180D01*
X114617493Y-80553387D01*
X114444972Y-80694972D01*
X114303387Y-80867493D01*
X114198180Y-81064322D01*
X114133394Y-81277893D01*
X114111518Y-81500000D01*
X111625000Y-81500000D01*
X111625000Y-80250000D01*
X111622598Y-80225614D01*
X111615485Y-80202165D01*
X111603934Y-80180554D01*
X111588388Y-80161612D01*
X111569446Y-80146066D01*
X111547835Y-80134515D01*
X111524386Y-80127402D01*
X111500000Y-80125000D01*
X108750000Y-80125000D01*
X108725614Y-80127402D01*
X108702165Y-80134515D01*
X108680554Y-80146066D01*
X108661612Y-80161612D01*
X108646066Y-80180554D01*
X108634515Y-80202165D01*
X108627402Y-80225614D01*
X108625000Y-80250000D01*
X108233000Y-80250000D01*
X108233000Y-78586607D01*
X186352302Y-78586607D01*
X186497067Y-78860638D01*
X186848146Y-79003922D01*
X187220432Y-79075961D01*
X187599618Y-79073986D01*
X187971134Y-78998074D01*
X188302933Y-78860638D01*
X188447698Y-78586607D01*
X187400000Y-77538909D01*
X186352302Y-78586607D01*
X108233000Y-78586607D01*
X108233000Y-76555659D01*
X108238482Y-76500000D01*
X108216606Y-76277893D01*
X108151820Y-76064322D01*
X108046613Y-75867493D01*
X107905028Y-75694972D01*
X107732507Y-75553387D01*
X107535678Y-75448180D01*
X107322107Y-75383394D01*
X107155659Y-75367000D01*
X107100000Y-75361518D01*
X107044342Y-75367000D01*
X107044341Y-75367000D01*
X106877893Y-75383394D01*
X106664322Y-75448180D01*
X106467493Y-75553387D01*
X106294972Y-75694972D01*
X106153387Y-75867493D01*
X106048180Y-76064322D01*
X105983394Y-76277893D01*
X105961518Y-76500000D01*
X105967001Y-76555669D01*
X105967000Y-85444349D01*
X105961519Y-85500000D01*
X105967000Y-85555651D01*
X105967000Y-85555658D01*
X105983394Y-85722106D01*
X106048180Y-85935677D01*
X106153387Y-86132507D01*
X106294972Y-86305028D01*
X106338208Y-86340511D01*
X106859489Y-86861792D01*
X106894972Y-86905028D01*
X107067493Y-87046613D01*
X107264322Y-87151820D01*
X107477893Y-87216606D01*
X107644341Y-87233000D01*
X107644348Y-87233000D01*
X107699999Y-87238481D01*
X107755650Y-87233000D01*
X114430697Y-87233000D01*
X116467001Y-89269305D01*
X116467000Y-92344349D01*
X116461519Y-92400000D01*
X116467000Y-92455651D01*
X116467000Y-92455658D01*
X116483394Y-92622106D01*
X116548180Y-92835677D01*
X116653387Y-93032507D01*
X116794972Y-93205028D01*
X116838208Y-93240511D01*
X117759491Y-94161795D01*
X117794972Y-94205028D01*
X117838203Y-94240507D01*
X117838205Y-94240509D01*
X117849770Y-94250000D01*
X117967493Y-94346613D01*
X118164322Y-94451820D01*
X118377893Y-94516606D01*
X118544341Y-94533000D01*
X118544349Y-94533000D01*
X118600000Y-94538481D01*
X118655651Y-94533000D01*
X131230697Y-94533000D01*
X132067001Y-95369305D01*
X132067000Y-99644349D01*
X132061519Y-99700000D01*
X132067000Y-99755651D01*
X132067000Y-99755658D01*
X132083394Y-99922106D01*
X132148180Y-100135677D01*
X132253387Y-100332507D01*
X132394972Y-100505028D01*
X132438208Y-100540511D01*
X135859493Y-103961797D01*
X135894972Y-104005028D01*
X136067493Y-104146613D01*
X136264322Y-104251820D01*
X136477893Y-104316606D01*
X136644341Y-104333000D01*
X136644348Y-104333000D01*
X136699999Y-104338481D01*
X136755650Y-104333000D01*
X174944349Y-104333000D01*
X175000000Y-104338481D01*
X175055651Y-104333000D01*
X175055659Y-104333000D01*
X175222107Y-104316606D01*
X175435678Y-104251820D01*
X175632507Y-104146613D01*
X175805028Y-104005028D01*
X175840511Y-103961792D01*
X177011797Y-102790507D01*
X177055028Y-102755028D01*
X177196613Y-102582507D01*
X177301820Y-102385678D01*
X177366606Y-102172107D01*
X177383000Y-102005659D01*
X177383000Y-102005651D01*
X177388481Y-101950000D01*
X177383000Y-101894349D01*
X177383000Y-101883000D01*
X180030697Y-101883000D01*
X180367001Y-102219305D01*
X180367000Y-105444349D01*
X180361519Y-105500000D01*
X180367000Y-105555651D01*
X180367000Y-105555658D01*
X180383394Y-105722106D01*
X180448180Y-105935677D01*
X180553387Y-106132507D01*
X180694972Y-106305028D01*
X180738208Y-106340511D01*
X182367696Y-107970000D01*
X181538203Y-108799494D01*
X181494973Y-108834972D01*
X181459494Y-108878203D01*
X181459492Y-108878205D01*
X181353387Y-109007494D01*
X181248181Y-109204322D01*
X181183394Y-109417894D01*
X181161519Y-109640000D01*
X181167001Y-109695661D01*
X181167000Y-115955658D01*
X181183394Y-116122106D01*
X181248180Y-116335677D01*
X181353387Y-116532507D01*
X181494972Y-116705028D01*
X181667493Y-116846613D01*
X181864322Y-116951820D01*
X182077893Y-117016606D01*
X182300000Y-117038482D01*
X182522106Y-117016606D01*
X182735677Y-116951820D01*
X182932507Y-116846613D01*
X183105028Y-116705028D01*
X183246613Y-116532507D01*
X183351820Y-116335678D01*
X183416606Y-116122107D01*
X183433000Y-115955659D01*
X183433000Y-110109303D01*
X184439304Y-109103000D01*
X199935720Y-109103000D01*
X199954642Y-109121922D01*
X200131359Y-109240000D01*
X199954642Y-109358078D01*
X199935720Y-109377000D01*
X199753569Y-109377000D01*
X199697918Y-109371519D01*
X199642267Y-109377000D01*
X199642260Y-109377000D01*
X199475812Y-109393394D01*
X199262241Y-109458180D01*
X199065412Y-109563387D01*
X198892891Y-109704972D01*
X198857412Y-109748203D01*
X197138203Y-111467413D01*
X197094973Y-111502891D01*
X197059494Y-111546122D01*
X197059492Y-111546124D01*
X196953387Y-111675413D01*
X196848181Y-111872241D01*
X196783394Y-112085813D01*
X196761519Y-112307919D01*
X196767001Y-112363580D01*
X196767000Y-114430696D01*
X193830697Y-117367000D01*
X128155174Y-117367000D01*
X128055028Y-117244972D01*
X128011792Y-117209489D01*
X127534820Y-116732517D01*
X127446613Y-116567493D01*
X127305028Y-116394972D01*
X127132507Y-116253387D01*
X126935678Y-116148180D01*
X126722107Y-116083394D01*
X126555659Y-116067000D01*
X126555658Y-116067000D01*
X126500000Y-116061518D01*
X126444341Y-116067000D01*
X121455650Y-116067000D01*
X121399999Y-116061519D01*
X121344348Y-116067000D01*
X121344341Y-116067000D01*
X121177893Y-116083394D01*
X120964322Y-116148180D01*
X120767493Y-116253387D01*
X120594972Y-116394972D01*
X120559493Y-116438203D01*
X118330697Y-118667000D01*
X96669304Y-118667000D01*
X94540511Y-116538208D01*
X94505028Y-116494972D01*
X94332507Y-116353387D01*
X94135678Y-116248180D01*
X93922107Y-116183394D01*
X93755659Y-116167000D01*
X93755651Y-116167000D01*
X93700000Y-116161519D01*
X93644349Y-116167000D01*
X78869304Y-116167000D01*
X75311166Y-112608862D01*
X79567000Y-112608862D01*
X79567000Y-112891138D01*
X79622069Y-113167991D01*
X79730092Y-113428780D01*
X79886916Y-113663484D01*
X80086516Y-113863084D01*
X80321220Y-114019908D01*
X80582009Y-114127931D01*
X80858862Y-114183000D01*
X81141138Y-114183000D01*
X81417991Y-114127931D01*
X81678780Y-114019908D01*
X81913484Y-113863084D01*
X82113084Y-113663484D01*
X82269908Y-113428780D01*
X82377931Y-113167991D01*
X82433000Y-112891138D01*
X82433000Y-112608862D01*
X90317000Y-112608862D01*
X90317000Y-112891138D01*
X90372069Y-113167991D01*
X90480092Y-113428780D01*
X90636916Y-113663484D01*
X90836516Y-113863084D01*
X91071220Y-114019908D01*
X91332009Y-114127931D01*
X91608862Y-114183000D01*
X91891138Y-114183000D01*
X92167991Y-114127931D01*
X92428780Y-114019908D01*
X92663484Y-113863084D01*
X92863084Y-113663484D01*
X93019908Y-113428780D01*
X93127931Y-113167991D01*
X93183000Y-112891138D01*
X93183000Y-112608862D01*
X93127931Y-112332009D01*
X93019908Y-112071220D01*
X92863084Y-111836516D01*
X92663484Y-111636916D01*
X92428780Y-111480092D01*
X92167991Y-111372069D01*
X91891138Y-111317000D01*
X91608862Y-111317000D01*
X91332009Y-111372069D01*
X91071220Y-111480092D01*
X90836516Y-111636916D01*
X90636916Y-111836516D01*
X90480092Y-112071220D01*
X90372069Y-112332009D01*
X90317000Y-112608862D01*
X82433000Y-112608862D01*
X82377931Y-112332009D01*
X82269908Y-112071220D01*
X82113084Y-111836516D01*
X81913484Y-111636916D01*
X81678780Y-111480092D01*
X81417991Y-111372069D01*
X81141138Y-111317000D01*
X80858862Y-111317000D01*
X80582009Y-111372069D01*
X80321220Y-111480092D01*
X80086516Y-111636916D01*
X79886916Y-111836516D01*
X79730092Y-112071220D01*
X79622069Y-112332009D01*
X79567000Y-112608862D01*
X75311166Y-112608862D01*
X74933000Y-112230697D01*
X74933000Y-110858862D01*
X134567000Y-110858862D01*
X134567000Y-111141138D01*
X134622069Y-111417991D01*
X134730092Y-111678780D01*
X134886916Y-111913484D01*
X135086516Y-112113084D01*
X135321220Y-112269908D01*
X135582009Y-112377931D01*
X135858862Y-112433000D01*
X136141138Y-112433000D01*
X136417991Y-112377931D01*
X136678780Y-112269908D01*
X136913484Y-112113084D01*
X137113084Y-111913484D01*
X137269908Y-111678780D01*
X137377931Y-111417991D01*
X137433000Y-111141138D01*
X137433000Y-110858862D01*
X144317000Y-110858862D01*
X144317000Y-111141138D01*
X144372069Y-111417991D01*
X144480092Y-111678780D01*
X144636916Y-111913484D01*
X144836516Y-112113084D01*
X145071220Y-112269908D01*
X145332009Y-112377931D01*
X145608862Y-112433000D01*
X145891138Y-112433000D01*
X146167991Y-112377931D01*
X146428780Y-112269908D01*
X146663484Y-112113084D01*
X146863084Y-111913484D01*
X147019908Y-111678780D01*
X147127931Y-111417991D01*
X147183000Y-111141138D01*
X147183000Y-110858862D01*
X153817000Y-110858862D01*
X153817000Y-111141138D01*
X153872069Y-111417991D01*
X153980092Y-111678780D01*
X154136916Y-111913484D01*
X154336516Y-112113084D01*
X154571220Y-112269908D01*
X154832009Y-112377931D01*
X155108862Y-112433000D01*
X155391138Y-112433000D01*
X155667991Y-112377931D01*
X155928780Y-112269908D01*
X156163484Y-112113084D01*
X156363084Y-111913484D01*
X156519908Y-111678780D01*
X156627931Y-111417991D01*
X156683000Y-111141138D01*
X156683000Y-110858862D01*
X156627931Y-110582009D01*
X156519908Y-110321220D01*
X156363084Y-110086516D01*
X156163484Y-109886916D01*
X155928780Y-109730092D01*
X155667991Y-109622069D01*
X155391138Y-109567000D01*
X155108862Y-109567000D01*
X154832009Y-109622069D01*
X154571220Y-109730092D01*
X154336516Y-109886916D01*
X154136916Y-110086516D01*
X153980092Y-110321220D01*
X153872069Y-110582009D01*
X153817000Y-110858862D01*
X147183000Y-110858862D01*
X147127931Y-110582009D01*
X147019908Y-110321220D01*
X146863084Y-110086516D01*
X146663484Y-109886916D01*
X146428780Y-109730092D01*
X146167991Y-109622069D01*
X145891138Y-109567000D01*
X145608862Y-109567000D01*
X145332009Y-109622069D01*
X145071220Y-109730092D01*
X144836516Y-109886916D01*
X144636916Y-110086516D01*
X144480092Y-110321220D01*
X144372069Y-110582009D01*
X144317000Y-110858862D01*
X137433000Y-110858862D01*
X137377931Y-110582009D01*
X137269908Y-110321220D01*
X137113084Y-110086516D01*
X136913484Y-109886916D01*
X136678780Y-109730092D01*
X136417991Y-109622069D01*
X136141138Y-109567000D01*
X135858862Y-109567000D01*
X135582009Y-109622069D01*
X135321220Y-109730092D01*
X135086516Y-109886916D01*
X134886916Y-110086516D01*
X134730092Y-110321220D01*
X134622069Y-110582009D01*
X134567000Y-110858862D01*
X74933000Y-110858862D01*
X74933000Y-104939355D01*
X89569389Y-104939355D01*
X89585047Y-105219619D01*
X89625000Y-105374689D01*
X89625000Y-106250000D01*
X89627402Y-106274386D01*
X89634515Y-106297835D01*
X89646066Y-106319446D01*
X89661612Y-106338388D01*
X89680554Y-106353934D01*
X89702165Y-106365485D01*
X89725614Y-106372598D01*
X89750000Y-106375000D01*
X90614909Y-106375000D01*
X90661422Y-106391291D01*
X90939355Y-106430611D01*
X91219619Y-106414953D01*
X91374689Y-106375000D01*
X92250000Y-106375000D01*
X92274386Y-106372598D01*
X92297835Y-106365485D01*
X92319446Y-106353934D01*
X92338388Y-106338388D01*
X92346372Y-106328660D01*
X92346623Y-106328866D01*
X92456590Y-106387645D01*
X92575910Y-106423840D01*
X92700000Y-106436062D01*
X94300000Y-106436062D01*
X94424090Y-106423840D01*
X94543410Y-106387645D01*
X94653377Y-106328866D01*
X94749764Y-106249764D01*
X94828866Y-106153377D01*
X94887645Y-106043410D01*
X94923840Y-105924090D01*
X94936062Y-105800000D01*
X94936062Y-104200000D01*
X94923840Y-104075910D01*
X94887645Y-103956590D01*
X94828866Y-103846623D01*
X94749764Y-103750236D01*
X94653377Y-103671134D01*
X94543410Y-103612355D01*
X94424090Y-103576160D01*
X94300000Y-103563938D01*
X92700000Y-103563938D01*
X92575910Y-103576160D01*
X92456590Y-103612355D01*
X92346623Y-103671134D01*
X92346372Y-103671340D01*
X92338388Y-103661612D01*
X92319446Y-103646066D01*
X92297835Y-103634515D01*
X92274386Y-103627402D01*
X92250000Y-103625000D01*
X91385091Y-103625000D01*
X91338578Y-103608709D01*
X91060645Y-103569389D01*
X90780381Y-103585047D01*
X90625311Y-103625000D01*
X89750000Y-103625000D01*
X89725614Y-103627402D01*
X89702165Y-103634515D01*
X89680554Y-103646066D01*
X89661612Y-103661612D01*
X89646066Y-103680554D01*
X89634515Y-103702165D01*
X89627402Y-103725614D01*
X89625000Y-103750000D01*
X89625000Y-104614909D01*
X89608709Y-104661422D01*
X89569389Y-104939355D01*
X74933000Y-104939355D01*
X74933000Y-103544303D01*
X75787948Y-102689355D01*
X122569389Y-102689355D01*
X122585047Y-102969619D01*
X122655081Y-103241443D01*
X122675000Y-103289532D01*
X122675000Y-104000000D01*
X122677402Y-104024386D01*
X122684515Y-104047835D01*
X122696066Y-104069446D01*
X122711612Y-104088388D01*
X122730554Y-104103934D01*
X122752165Y-104115485D01*
X122775614Y-104122598D01*
X122800000Y-104125000D01*
X123614909Y-104125000D01*
X123661422Y-104141291D01*
X123939355Y-104180611D01*
X124219619Y-104164953D01*
X124374689Y-104125000D01*
X125150000Y-104125000D01*
X125174386Y-104122598D01*
X125197835Y-104115485D01*
X125219446Y-104103934D01*
X125238388Y-104088388D01*
X125253934Y-104069446D01*
X125265485Y-104047835D01*
X125272598Y-104024386D01*
X125273169Y-104018585D01*
X125346623Y-104078866D01*
X125456590Y-104137645D01*
X125575910Y-104173840D01*
X125700000Y-104186062D01*
X127300000Y-104186062D01*
X127424090Y-104173840D01*
X127543410Y-104137645D01*
X127653377Y-104078866D01*
X127749764Y-103999764D01*
X127828866Y-103903377D01*
X127887645Y-103793410D01*
X127923840Y-103674090D01*
X127936062Y-103550000D01*
X127936062Y-101950000D01*
X127923840Y-101825910D01*
X127887645Y-101706590D01*
X127828866Y-101596623D01*
X127749764Y-101500236D01*
X127653377Y-101421134D01*
X127543410Y-101362355D01*
X127424090Y-101326160D01*
X127300000Y-101313938D01*
X125700000Y-101313938D01*
X125575910Y-101326160D01*
X125456590Y-101362355D01*
X125346623Y-101421134D01*
X125273169Y-101481415D01*
X125272598Y-101475614D01*
X125265485Y-101452165D01*
X125253934Y-101430554D01*
X125238388Y-101411612D01*
X125219446Y-101396066D01*
X125197835Y-101384515D01*
X125174386Y-101377402D01*
X125150000Y-101375000D01*
X124385091Y-101375000D01*
X124338578Y-101358709D01*
X124060645Y-101319389D01*
X123780381Y-101335047D01*
X123625311Y-101375000D01*
X122800000Y-101375000D01*
X122775614Y-101377402D01*
X122752165Y-101384515D01*
X122730554Y-101396066D01*
X122711612Y-101411612D01*
X122696066Y-101430554D01*
X122684515Y-101452165D01*
X122677402Y-101475614D01*
X122675000Y-101500000D01*
X122675000Y-102222150D01*
X122608709Y-102411422D01*
X122569389Y-102689355D01*
X75787948Y-102689355D01*
X76261797Y-102215507D01*
X76305028Y-102180028D01*
X76446613Y-102007507D01*
X76551820Y-101810678D01*
X76616606Y-101597106D01*
X76633000Y-101430658D01*
X76633000Y-101430652D01*
X76638481Y-101375001D01*
X76633000Y-101319350D01*
X76633000Y-100694341D01*
X76616606Y-100527893D01*
X76551820Y-100314322D01*
X76446613Y-100117493D01*
X76305028Y-99944972D01*
X76132507Y-99803387D01*
X75935677Y-99698180D01*
X75722106Y-99633394D01*
X75500000Y-99611518D01*
X75277893Y-99633394D01*
X75064322Y-99698180D01*
X74867493Y-99803387D01*
X74694972Y-99944972D01*
X74553387Y-100117493D01*
X74448180Y-100314323D01*
X74383394Y-100527894D01*
X74367000Y-100694342D01*
X74367000Y-100905696D01*
X73038208Y-102234489D01*
X72994972Y-102269972D01*
X72853387Y-102442493D01*
X72748180Y-102639323D01*
X72683394Y-102852894D01*
X72667000Y-103019342D01*
X72667000Y-103019349D01*
X72661519Y-103075000D01*
X66133000Y-103075000D01*
X66133000Y-98500000D01*
X68875000Y-98500000D01*
X68875000Y-102250000D01*
X68877402Y-102274386D01*
X68884515Y-102297835D01*
X68896066Y-102319446D01*
X68911612Y-102338388D01*
X68930554Y-102353934D01*
X68952165Y-102365485D01*
X68975614Y-102372598D01*
X69000000Y-102375000D01*
X71500000Y-102375000D01*
X71524386Y-102372598D01*
X71547835Y-102365485D01*
X71569446Y-102353934D01*
X71588388Y-102338388D01*
X71603934Y-102319446D01*
X71615485Y-102297835D01*
X71622598Y-102274386D01*
X71625000Y-102250000D01*
X71625000Y-98500000D01*
X71622598Y-98475614D01*
X71615485Y-98452165D01*
X71603934Y-98430554D01*
X71588388Y-98411612D01*
X71569446Y-98396066D01*
X71547835Y-98384515D01*
X71524386Y-98377402D01*
X71500000Y-98375000D01*
X69000000Y-98375000D01*
X68975614Y-98377402D01*
X68952165Y-98384515D01*
X68930554Y-98396066D01*
X68911612Y-98411612D01*
X68896066Y-98430554D01*
X68884515Y-98452165D01*
X68877402Y-98475614D01*
X68875000Y-98500000D01*
X66133000Y-98500000D01*
X66133000Y-97305659D01*
X66138482Y-97250000D01*
X66116606Y-97027893D01*
X66051820Y-96814322D01*
X65946613Y-96617493D01*
X65805028Y-96444972D01*
X65632507Y-96303387D01*
X65435678Y-96198180D01*
X65222107Y-96133394D01*
X65055659Y-96117000D01*
X65000000Y-96111518D01*
X64944342Y-96117000D01*
X64944341Y-96117000D01*
X64777893Y-96133394D01*
X64564322Y-96198180D01*
X64367493Y-96303387D01*
X64194972Y-96444972D01*
X64053387Y-96617493D01*
X63948180Y-96814322D01*
X63883394Y-97027893D01*
X63861518Y-97250000D01*
X60683000Y-97250000D01*
X60683000Y-94250000D01*
X70125000Y-94250000D01*
X70125000Y-97000000D01*
X70127402Y-97024386D01*
X70134515Y-97047835D01*
X70146066Y-97069446D01*
X70161612Y-97088388D01*
X70180554Y-97103934D01*
X70202165Y-97115485D01*
X70225614Y-97122598D01*
X70250000Y-97125000D01*
X72750000Y-97125000D01*
X72774386Y-97122598D01*
X72797835Y-97115485D01*
X72819446Y-97103934D01*
X72838388Y-97088388D01*
X72853934Y-97069446D01*
X72865485Y-97047835D01*
X72872598Y-97024386D01*
X72875000Y-97000000D01*
X72875000Y-94250000D01*
X72872598Y-94225614D01*
X72865485Y-94202165D01*
X72853934Y-94180554D01*
X72838388Y-94161612D01*
X72819446Y-94146066D01*
X72797835Y-94134515D01*
X72774386Y-94127402D01*
X72750000Y-94125000D01*
X70250000Y-94125000D01*
X70225614Y-94127402D01*
X70202165Y-94134515D01*
X70180554Y-94146066D01*
X70161612Y-94161612D01*
X70146066Y-94180554D01*
X70134515Y-94202165D01*
X70127402Y-94225614D01*
X70125000Y-94250000D01*
X60683000Y-94250000D01*
X60683000Y-89798310D01*
X60756590Y-89837645D01*
X60875910Y-89873840D01*
X61000000Y-89886062D01*
X65000000Y-89886062D01*
X65124090Y-89873840D01*
X65243410Y-89837645D01*
X65353377Y-89778866D01*
X65449764Y-89699764D01*
X65528866Y-89603377D01*
X65587645Y-89493410D01*
X65623840Y-89374090D01*
X65636062Y-89250000D01*
X65636062Y-87258862D01*
X82167000Y-87258862D01*
X82167000Y-87541138D01*
X82222069Y-87817991D01*
X82330092Y-88078780D01*
X82486916Y-88313484D01*
X82686516Y-88513084D01*
X82921220Y-88669908D01*
X83182009Y-88777931D01*
X83458862Y-88833000D01*
X83741138Y-88833000D01*
X84017991Y-88777931D01*
X84278780Y-88669908D01*
X84513484Y-88513084D01*
X84713084Y-88313484D01*
X84869908Y-88078780D01*
X84977931Y-87817991D01*
X85033000Y-87541138D01*
X85033000Y-87258862D01*
X84977931Y-86982009D01*
X84869908Y-86721220D01*
X84713084Y-86486516D01*
X84513484Y-86286916D01*
X84278780Y-86130092D01*
X84017991Y-86022069D01*
X83741138Y-85967000D01*
X83458862Y-85967000D01*
X83182009Y-86022069D01*
X82921220Y-86130092D01*
X82686516Y-86286916D01*
X82486916Y-86486516D01*
X82330092Y-86721220D01*
X82222069Y-86982009D01*
X82167000Y-87258862D01*
X65636062Y-87258862D01*
X65636062Y-87250000D01*
X65623840Y-87125910D01*
X65587645Y-87006590D01*
X65528866Y-86896623D01*
X65449764Y-86800236D01*
X65353377Y-86721134D01*
X65243410Y-86662355D01*
X65124090Y-86626160D01*
X65000000Y-86613938D01*
X61000000Y-86613938D01*
X60875910Y-86626160D01*
X60756590Y-86662355D01*
X60683000Y-86701690D01*
X60683000Y-84839164D01*
X65617000Y-84839164D01*
X65617000Y-85160836D01*
X65679756Y-85476328D01*
X65802855Y-85773515D01*
X65981566Y-86040977D01*
X66209023Y-86268434D01*
X66476485Y-86447145D01*
X66773672Y-86570244D01*
X67089164Y-86633000D01*
X67410836Y-86633000D01*
X67726328Y-86570244D01*
X68023515Y-86447145D01*
X68290977Y-86268434D01*
X68518434Y-86040977D01*
X68697145Y-85773515D01*
X68820244Y-85476328D01*
X68883000Y-85160836D01*
X68883000Y-84858862D01*
X89567000Y-84858862D01*
X89567000Y-85141138D01*
X89622069Y-85417991D01*
X89730092Y-85678780D01*
X89886916Y-85913484D01*
X90086516Y-86113084D01*
X90321220Y-86269908D01*
X90582009Y-86377931D01*
X90858862Y-86433000D01*
X91141138Y-86433000D01*
X91417991Y-86377931D01*
X91678780Y-86269908D01*
X91913484Y-86113084D01*
X92113084Y-85913484D01*
X92269908Y-85678780D01*
X92377931Y-85417991D01*
X92433000Y-85141138D01*
X92433000Y-84858862D01*
X92377931Y-84582009D01*
X92269908Y-84321220D01*
X92188912Y-84200000D01*
X94563938Y-84200000D01*
X94563938Y-85800000D01*
X94576160Y-85924090D01*
X94612355Y-86043410D01*
X94671134Y-86153377D01*
X94750236Y-86249764D01*
X94846623Y-86328866D01*
X94956590Y-86387645D01*
X95075910Y-86423840D01*
X95200000Y-86436062D01*
X96800000Y-86436062D01*
X96924090Y-86423840D01*
X97043410Y-86387645D01*
X97153377Y-86328866D01*
X97249764Y-86249764D01*
X97328866Y-86153377D01*
X97387645Y-86043410D01*
X97423840Y-85924090D01*
X97436062Y-85800000D01*
X97436062Y-84200000D01*
X97423840Y-84075910D01*
X97387645Y-83956590D01*
X97328866Y-83846623D01*
X97249764Y-83750236D01*
X97153377Y-83671134D01*
X97043410Y-83612355D01*
X96924090Y-83576160D01*
X96800000Y-83563938D01*
X95200000Y-83563938D01*
X95075910Y-83576160D01*
X94956590Y-83612355D01*
X94846623Y-83671134D01*
X94750236Y-83750236D01*
X94671134Y-83846623D01*
X94612355Y-83956590D01*
X94576160Y-84075910D01*
X94563938Y-84200000D01*
X92188912Y-84200000D01*
X92113084Y-84086516D01*
X91913484Y-83886916D01*
X91678780Y-83730092D01*
X91417991Y-83622069D01*
X91141138Y-83567000D01*
X90858862Y-83567000D01*
X90582009Y-83622069D01*
X90321220Y-83730092D01*
X90086516Y-83886916D01*
X89886916Y-84086516D01*
X89730092Y-84321220D01*
X89622069Y-84582009D01*
X89567000Y-84858862D01*
X68883000Y-84858862D01*
X68883000Y-84839164D01*
X68820244Y-84523672D01*
X68697145Y-84226485D01*
X68518434Y-83959023D01*
X68290977Y-83731566D01*
X68023515Y-83552855D01*
X67836190Y-83475262D01*
X82913647Y-83475262D01*
X82996500Y-83698504D01*
X83261422Y-83791291D01*
X83539355Y-83830611D01*
X83819619Y-83814953D01*
X84091443Y-83744919D01*
X84203500Y-83698504D01*
X84286353Y-83475262D01*
X83600000Y-82788909D01*
X82913647Y-83475262D01*
X67836190Y-83475262D01*
X67726328Y-83429756D01*
X67410836Y-83367000D01*
X67089164Y-83367000D01*
X66773672Y-83429756D01*
X66476485Y-83552855D01*
X66209023Y-83731566D01*
X65981566Y-83959023D01*
X65802855Y-84226485D01*
X65679756Y-84523672D01*
X65617000Y-84839164D01*
X60683000Y-84839164D01*
X60683000Y-80891663D01*
X61120735Y-80891663D01*
X61130906Y-81211598D01*
X61203297Y-81523402D01*
X61275000Y-81696508D01*
X61275000Y-82375000D01*
X61277402Y-82399386D01*
X61284515Y-82422835D01*
X61296066Y-82444446D01*
X61311612Y-82463388D01*
X61330554Y-82478934D01*
X61352165Y-82490485D01*
X61375614Y-82497598D01*
X61400000Y-82500000D01*
X62122362Y-82500000D01*
X62325891Y-82576823D01*
X62641663Y-82629265D01*
X62961598Y-82619094D01*
X63273402Y-82546703D01*
X63386153Y-82500000D01*
X64150000Y-82500000D01*
X64174386Y-82497598D01*
X64197835Y-82490485D01*
X64219446Y-82478934D01*
X64238388Y-82463388D01*
X64253934Y-82444446D01*
X64265485Y-82422835D01*
X64272598Y-82399386D01*
X64275000Y-82375000D01*
X64275000Y-82339355D01*
X82169389Y-82339355D01*
X82185047Y-82619619D01*
X82255081Y-82891443D01*
X82301496Y-83003500D01*
X82524738Y-83086353D01*
X83211091Y-82400000D01*
X83988909Y-82400000D01*
X84675262Y-83086353D01*
X84898504Y-83003500D01*
X84991291Y-82738578D01*
X85030611Y-82460645D01*
X85014953Y-82180381D01*
X84944919Y-81908557D01*
X84898504Y-81796500D01*
X84675262Y-81713647D01*
X83988909Y-82400000D01*
X83211091Y-82400000D01*
X82524738Y-81713647D01*
X82301496Y-81796500D01*
X82208709Y-82061422D01*
X82169389Y-82339355D01*
X64275000Y-82339355D01*
X64275000Y-81561405D01*
X64326823Y-81424109D01*
X64343326Y-81324738D01*
X82913647Y-81324738D01*
X83600000Y-82011091D01*
X84286353Y-81324738D01*
X84203500Y-81101496D01*
X83938578Y-81008709D01*
X83660645Y-80969389D01*
X83380381Y-80985047D01*
X83108557Y-81055081D01*
X82996500Y-81101496D01*
X82913647Y-81324738D01*
X64343326Y-81324738D01*
X64379265Y-81108337D01*
X64369094Y-80788402D01*
X64296703Y-80476598D01*
X64275000Y-80424203D01*
X64275000Y-79625000D01*
X64272598Y-79600614D01*
X64265485Y-79577165D01*
X64253934Y-79555554D01*
X64238388Y-79536612D01*
X64219446Y-79521066D01*
X64197835Y-79509515D01*
X64174386Y-79502402D01*
X64150000Y-79500000D01*
X63377638Y-79500000D01*
X63174109Y-79423177D01*
X62858337Y-79370735D01*
X62538402Y-79380906D01*
X62226598Y-79453297D01*
X62113847Y-79500000D01*
X61400000Y-79500000D01*
X61375614Y-79502402D01*
X61352165Y-79509515D01*
X61330554Y-79521066D01*
X61311612Y-79536612D01*
X61296066Y-79555554D01*
X61284515Y-79577165D01*
X61277402Y-79600614D01*
X61275000Y-79625000D01*
X61275000Y-80306129D01*
X61173177Y-80575891D01*
X61120735Y-80891663D01*
X60683000Y-80891663D01*
X60683000Y-76839164D01*
X64367000Y-76839164D01*
X64367000Y-77160836D01*
X64429756Y-77476328D01*
X64552855Y-77773515D01*
X64731566Y-78040977D01*
X64959023Y-78268434D01*
X65226485Y-78447145D01*
X65523672Y-78570244D01*
X65839164Y-78633000D01*
X66160836Y-78633000D01*
X66476328Y-78570244D01*
X66773515Y-78447145D01*
X67040977Y-78268434D01*
X67268434Y-78040977D01*
X67447145Y-77773515D01*
X67570244Y-77476328D01*
X67633000Y-77160836D01*
X67633000Y-76839164D01*
X67570244Y-76523672D01*
X67447145Y-76226485D01*
X67268434Y-75959023D01*
X67040977Y-75731566D01*
X66773515Y-75552855D01*
X66476328Y-75429756D01*
X66160836Y-75367000D01*
X65839164Y-75367000D01*
X65523672Y-75429756D01*
X65226485Y-75552855D01*
X64959023Y-75731566D01*
X64731566Y-75959023D01*
X64552855Y-76226485D01*
X64429756Y-76523672D01*
X64367000Y-76839164D01*
X60683000Y-76839164D01*
X60683000Y-75298310D01*
X60756590Y-75337645D01*
X60875910Y-75373840D01*
X61000000Y-75386062D01*
X65000000Y-75386062D01*
X65124090Y-75373840D01*
X65243410Y-75337645D01*
X65353377Y-75278866D01*
X65449764Y-75199764D01*
X65528866Y-75103377D01*
X65587645Y-74993410D01*
X65623840Y-74874090D01*
X65636062Y-74750000D01*
X65636062Y-73758862D01*
X82167000Y-73758862D01*
X82167000Y-74041138D01*
X82222069Y-74317991D01*
X82330092Y-74578780D01*
X82486916Y-74813484D01*
X82686516Y-75013084D01*
X82921220Y-75169908D01*
X83182009Y-75277931D01*
X83458862Y-75333000D01*
X83741138Y-75333000D01*
X84017991Y-75277931D01*
X84278780Y-75169908D01*
X84513484Y-75013084D01*
X84526568Y-75000000D01*
X110125000Y-75000000D01*
X110125000Y-77750000D01*
X110127402Y-77774386D01*
X110134515Y-77797835D01*
X110146066Y-77819446D01*
X110161612Y-77838388D01*
X110180554Y-77853934D01*
X110202165Y-77865485D01*
X110225614Y-77872598D01*
X110250000Y-77875000D01*
X112750000Y-77875000D01*
X112774386Y-77872598D01*
X112797835Y-77865485D01*
X112819446Y-77853934D01*
X112838388Y-77838388D01*
X112853934Y-77819446D01*
X112865485Y-77797835D01*
X112872598Y-77774386D01*
X112875000Y-77750000D01*
X112875000Y-76970432D01*
X185474039Y-76970432D01*
X185476014Y-77349618D01*
X185551926Y-77721134D01*
X185689362Y-78052933D01*
X185963393Y-78197698D01*
X187011091Y-77150000D01*
X187788909Y-77150000D01*
X188836607Y-78197698D01*
X189110638Y-78052933D01*
X189253922Y-77701854D01*
X189325961Y-77329568D01*
X189323986Y-76950382D01*
X189248074Y-76578866D01*
X189110638Y-76247067D01*
X188836607Y-76102302D01*
X187788909Y-77150000D01*
X187011091Y-77150000D01*
X185963393Y-76102302D01*
X185689362Y-76247067D01*
X185546078Y-76598146D01*
X185474039Y-76970432D01*
X112875000Y-76970432D01*
X112875000Y-75713393D01*
X186352302Y-75713393D01*
X187400000Y-76761091D01*
X188447698Y-75713393D01*
X188302933Y-75439362D01*
X187951854Y-75296078D01*
X187579568Y-75224039D01*
X187200382Y-75226014D01*
X186828866Y-75301926D01*
X186497067Y-75439362D01*
X186352302Y-75713393D01*
X112875000Y-75713393D01*
X112875000Y-75000000D01*
X112872598Y-74975614D01*
X112865485Y-74952165D01*
X112853934Y-74930554D01*
X112838388Y-74911612D01*
X112819446Y-74896066D01*
X112797835Y-74884515D01*
X112774386Y-74877402D01*
X112750000Y-74875000D01*
X110250000Y-74875000D01*
X110225614Y-74877402D01*
X110202165Y-74884515D01*
X110180554Y-74896066D01*
X110161612Y-74911612D01*
X110146066Y-74930554D01*
X110134515Y-74952165D01*
X110127402Y-74975614D01*
X110125000Y-75000000D01*
X84526568Y-75000000D01*
X84713084Y-74813484D01*
X84869908Y-74578780D01*
X84977931Y-74317991D01*
X85033000Y-74041138D01*
X85033000Y-73758862D01*
X84977931Y-73482009D01*
X84869908Y-73221220D01*
X84713084Y-72986516D01*
X84513484Y-72786916D01*
X84278780Y-72630092D01*
X84017991Y-72522069D01*
X83741138Y-72467000D01*
X83458862Y-72467000D01*
X83182009Y-72522069D01*
X82921220Y-72630092D01*
X82686516Y-72786916D01*
X82486916Y-72986516D01*
X82330092Y-73221220D01*
X82222069Y-73482009D01*
X82167000Y-73758862D01*
X65636062Y-73758862D01*
X65636062Y-72750000D01*
X65623840Y-72625910D01*
X65587645Y-72506590D01*
X65528866Y-72396623D01*
X65449764Y-72300236D01*
X65353377Y-72221134D01*
X65243410Y-72162355D01*
X65124090Y-72126160D01*
X65000000Y-72113938D01*
X61000000Y-72113938D01*
X60875910Y-72126160D01*
X60756590Y-72162355D01*
X60683000Y-72201690D01*
X60683000Y-71558862D01*
X89567000Y-71558862D01*
X89567000Y-71841138D01*
X89622069Y-72117991D01*
X89730092Y-72378780D01*
X89886916Y-72613484D01*
X90086516Y-72813084D01*
X90321220Y-72969908D01*
X90582009Y-73077931D01*
X90858862Y-73133000D01*
X91141138Y-73133000D01*
X91417991Y-73077931D01*
X91678780Y-72969908D01*
X91913484Y-72813084D01*
X92113084Y-72613484D01*
X92269908Y-72378780D01*
X92377931Y-72117991D01*
X92433000Y-71841138D01*
X92433000Y-71558862D01*
X92377931Y-71282009D01*
X92269908Y-71021220D01*
X92188912Y-70900000D01*
X94563938Y-70900000D01*
X94563938Y-72500000D01*
X94576160Y-72624090D01*
X94612355Y-72743410D01*
X94671134Y-72853377D01*
X94750236Y-72949764D01*
X94846623Y-73028866D01*
X94956590Y-73087645D01*
X95075910Y-73123840D01*
X95200000Y-73136062D01*
X96800000Y-73136062D01*
X96924090Y-73123840D01*
X97043410Y-73087645D01*
X97153377Y-73028866D01*
X97249764Y-72949764D01*
X97328866Y-72853377D01*
X97387645Y-72743410D01*
X97423840Y-72624090D01*
X97436062Y-72500000D01*
X97436062Y-70900000D01*
X97423840Y-70775910D01*
X97387645Y-70656590D01*
X97328866Y-70546623D01*
X97249764Y-70450236D01*
X97153377Y-70371134D01*
X97043410Y-70312355D01*
X96924090Y-70276160D01*
X96800000Y-70263938D01*
X95200000Y-70263938D01*
X95075910Y-70276160D01*
X94956590Y-70312355D01*
X94846623Y-70371134D01*
X94750236Y-70450236D01*
X94671134Y-70546623D01*
X94612355Y-70656590D01*
X94576160Y-70775910D01*
X94563938Y-70900000D01*
X92188912Y-70900000D01*
X92113084Y-70786516D01*
X91913484Y-70586916D01*
X91678780Y-70430092D01*
X91417991Y-70322069D01*
X91141138Y-70267000D01*
X90858862Y-70267000D01*
X90582009Y-70322069D01*
X90321220Y-70430092D01*
X90086516Y-70586916D01*
X89886916Y-70786516D01*
X89730092Y-71021220D01*
X89622069Y-71282009D01*
X89567000Y-71558862D01*
X60683000Y-71558862D01*
X60683000Y-67780069D01*
X61767000Y-67780069D01*
X61767000Y-68219931D01*
X61852812Y-68651342D01*
X62021141Y-69057722D01*
X62265515Y-69423455D01*
X62576545Y-69734485D01*
X62942278Y-69978859D01*
X63348658Y-70147188D01*
X63780069Y-70233000D01*
X64219931Y-70233000D01*
X64651342Y-70147188D01*
X65057722Y-69978859D01*
X65063105Y-69975262D01*
X82913647Y-69975262D01*
X82996500Y-70198504D01*
X83261422Y-70291291D01*
X83539355Y-70330611D01*
X83819619Y-70314953D01*
X84091443Y-70244919D01*
X84203500Y-70198504D01*
X84286353Y-69975262D01*
X83600000Y-69288909D01*
X82913647Y-69975262D01*
X65063105Y-69975262D01*
X65423455Y-69734485D01*
X65734485Y-69423455D01*
X65978859Y-69057722D01*
X66069310Y-68839355D01*
X82169389Y-68839355D01*
X82185047Y-69119619D01*
X82255081Y-69391443D01*
X82301496Y-69503500D01*
X82524738Y-69586353D01*
X83211091Y-68900000D01*
X83988909Y-68900000D01*
X84675262Y-69586353D01*
X84898504Y-69503500D01*
X84991291Y-69238578D01*
X85030611Y-68960645D01*
X85014953Y-68680381D01*
X84944919Y-68408557D01*
X84898504Y-68296500D01*
X84675262Y-68213647D01*
X83988909Y-68900000D01*
X83211091Y-68900000D01*
X82524738Y-68213647D01*
X82301496Y-68296500D01*
X82208709Y-68561422D01*
X82169389Y-68839355D01*
X66069310Y-68839355D01*
X66147188Y-68651342D01*
X66233000Y-68219931D01*
X66233000Y-67824738D01*
X82913647Y-67824738D01*
X83600000Y-68511091D01*
X84286353Y-67824738D01*
X84269775Y-67780069D01*
X203267000Y-67780069D01*
X203267000Y-68219931D01*
X203352812Y-68651342D01*
X203521141Y-69057722D01*
X203765515Y-69423455D01*
X204076545Y-69734485D01*
X204442278Y-69978859D01*
X204848658Y-70147188D01*
X205280069Y-70233000D01*
X205719931Y-70233000D01*
X206151342Y-70147188D01*
X206557722Y-69978859D01*
X206923455Y-69734485D01*
X207234485Y-69423455D01*
X207478859Y-69057722D01*
X207647188Y-68651342D01*
X207733000Y-68219931D01*
X207733000Y-67780069D01*
X207647188Y-67348658D01*
X207478859Y-66942278D01*
X207234485Y-66576545D01*
X206923455Y-66265515D01*
X206557722Y-66021141D01*
X206151342Y-65852812D01*
X205719931Y-65767000D01*
X205280069Y-65767000D01*
X204848658Y-65852812D01*
X204442278Y-66021141D01*
X204076545Y-66265515D01*
X203765515Y-66576545D01*
X203521141Y-66942278D01*
X203352812Y-67348658D01*
X203267000Y-67780069D01*
X84269775Y-67780069D01*
X84203500Y-67601496D01*
X83938578Y-67508709D01*
X83660645Y-67469389D01*
X83380381Y-67485047D01*
X83108557Y-67555081D01*
X82996500Y-67601496D01*
X82913647Y-67824738D01*
X66233000Y-67824738D01*
X66233000Y-67780069D01*
X66147188Y-67348658D01*
X65978859Y-66942278D01*
X65734485Y-66576545D01*
X65423455Y-66265515D01*
X65057722Y-66021141D01*
X64651342Y-65852812D01*
X64219931Y-65767000D01*
X63780069Y-65767000D01*
X63348658Y-65852812D01*
X62942278Y-66021141D01*
X62576545Y-66265515D01*
X62265515Y-66576545D01*
X62021141Y-66942278D01*
X61852812Y-67348658D01*
X61767000Y-67780069D01*
X60683000Y-67780069D01*
X60683000Y-64683000D01*
X209317000Y-64683000D01*
X209317001Y-163317000D01*
M02*
