G04 #@! TF.GenerationSoftware,KiCad,Pcbnew,(5.1.5-0)*
G04 #@! TF.CreationDate,2020-11-01T19:49:13+01:00*
G04 #@! TF.ProjectId,Phono preamp,50686f6e-6f20-4707-9265-616d702e6b69,rev?*
G04 #@! TF.SameCoordinates,Original*
G04 #@! TF.FileFunction,Legend,Bot*
G04 #@! TF.FilePolarity,Positive*
%FSLAX46Y46*%
G04 Gerber Fmt 4.6, Leading zero omitted, Abs format (unit mm)*
G04 Created by KiCad (PCBNEW (5.1.5-0)) date 2020-11-01 19:49:13*
%MOMM*%
%LPD*%
G04 APERTURE LIST*
%ADD10C,0.150000*%
G04 APERTURE END LIST*
D10*
X199878690Y-160452380D02*
X199878690Y-161166666D01*
X199926309Y-161309523D01*
X200021547Y-161404761D01*
X200164404Y-161452380D01*
X200259642Y-161452380D01*
X198926309Y-161452380D02*
X199402500Y-161452380D01*
X199402500Y-160452380D01*
X198021547Y-161357142D02*
X198069166Y-161404761D01*
X198212023Y-161452380D01*
X198307261Y-161452380D01*
X198450119Y-161404761D01*
X198545357Y-161309523D01*
X198592976Y-161214285D01*
X198640595Y-161023809D01*
X198640595Y-160880952D01*
X198592976Y-160690476D01*
X198545357Y-160595238D01*
X198450119Y-160500000D01*
X198307261Y-160452380D01*
X198212023Y-160452380D01*
X198069166Y-160500000D01*
X198021547Y-160547619D01*
X197307261Y-160452380D02*
X197307261Y-161166666D01*
X197354880Y-161309523D01*
X197450119Y-161404761D01*
X197592976Y-161452380D01*
X197688214Y-161452380D01*
X196354880Y-161452380D02*
X196831071Y-161452380D01*
X196831071Y-160452380D01*
X195450119Y-161357142D02*
X195497738Y-161404761D01*
X195640595Y-161452380D01*
X195735833Y-161452380D01*
X195878690Y-161404761D01*
X195973928Y-161309523D01*
X196021547Y-161214285D01*
X196069166Y-161023809D01*
X196069166Y-160880952D01*
X196021547Y-160690476D01*
X195973928Y-160595238D01*
X195878690Y-160500000D01*
X195735833Y-160452380D01*
X195640595Y-160452380D01*
X195497738Y-160500000D01*
X195450119Y-160547619D01*
X194735833Y-160452380D02*
X194735833Y-161166666D01*
X194783452Y-161309523D01*
X194878690Y-161404761D01*
X195021547Y-161452380D01*
X195116785Y-161452380D01*
X193783452Y-161452380D02*
X194259642Y-161452380D01*
X194259642Y-160452380D01*
X192878690Y-161357142D02*
X192926309Y-161404761D01*
X193069166Y-161452380D01*
X193164404Y-161452380D01*
X193307261Y-161404761D01*
X193402500Y-161309523D01*
X193450119Y-161214285D01*
X193497738Y-161023809D01*
X193497738Y-160880952D01*
X193450119Y-160690476D01*
X193402500Y-160595238D01*
X193307261Y-160500000D01*
X193164404Y-160452380D01*
X193069166Y-160452380D01*
X192926309Y-160500000D01*
X192878690Y-160547619D01*
X192164404Y-160452380D02*
X192164404Y-161166666D01*
X192212023Y-161309523D01*
X192307261Y-161404761D01*
X192450119Y-161452380D01*
X192545357Y-161452380D01*
X191212023Y-161452380D02*
X191688214Y-161452380D01*
X191688214Y-160452380D01*
X190307261Y-161357142D02*
X190354880Y-161404761D01*
X190497738Y-161452380D01*
X190592976Y-161452380D01*
X190735833Y-161404761D01*
X190831071Y-161309523D01*
X190878690Y-161214285D01*
X190926309Y-161023809D01*
X190926309Y-160880952D01*
X190878690Y-160690476D01*
X190831071Y-160595238D01*
X190735833Y-160500000D01*
X190592976Y-160452380D01*
X190497738Y-160452380D01*
X190354880Y-160500000D01*
X190307261Y-160547619D01*
M02*
