M48
; DRILL file {KiCad (5.1.5-0)} date 2020 November 01, Sunday 18:13:42
; FORMAT={-:-/ absolute / inch / decimal}
; #@! TF.CreationDate,2020-11-01T18:13:42+01:00
; #@! TF.GenerationSoftware,Kicad,Pcbnew,(5.1.5-0)
; #@! TF.FileFunction,Plated,1,2,PTH
FMAT,2
INCH
T1C0.0157
T2C0.0315
T3C0.0394
T4C0.0512
T5C0.0551
%
G90
G05
T1
X2.5591Y-3.8287
X2.6378Y-3.878
X2.8346Y-3.4252
X2.9724Y-3.9665
X2.9921Y-4.0748
X3.0079Y-2.7559
X4.2165Y-3.0118
X4.2323Y-2.8839
X4.3701Y-2.687
X4.5374Y-3.2087
X4.5374Y-3.3268
X4.6752Y-5.0
X4.8031Y-5.0787
X4.8898Y-4.6693
X5.0098Y-4.6654
X5.2362Y-5.4882
X5.937Y-5.5394
X6.8307Y-3.9528
X6.939Y-3.9665
X7.1358Y-3.5433
X7.1358Y-3.6516
X7.1772Y-4.563
X7.1772Y-4.7913
X7.7559Y-3.9902
X7.8839Y-3.9902
T2
X5.3543Y-3.5827
X5.3543Y-4.3701
X5.7382Y-3.5827
X5.7382Y-4.3701
X2.7835Y-4.439
X2.7835Y-5.2264
X3.2913Y-2.7126
X3.2913Y-2.9094
X3.5827Y-4.1339
X3.6811Y-4.1339
X6.1122Y-3.5827
X6.1122Y-4.3701
X3.189Y-4.439
X3.189Y-5.2264
X3.5827Y-2.8228
X3.7795Y-2.8228
X3.6122Y-4.439
X3.6122Y-5.2264
X3.2913Y-3.2441
X3.2913Y-3.4409
X3.5827Y-3.3465
X3.7795Y-3.3465
X4.8819Y-4.0453
X4.9803Y-4.0453
T3
X6.5433Y-5.5118
X6.5433Y-5.8071
X3.252Y-5.5118
X3.252Y-5.8071
X7.9094Y-4.2508
X7.9094Y-4.3508
X7.9094Y-4.4508
T4
X2.4705Y-5.748
X2.5984Y-5.5906
X2.6476Y-5.9055
X2.4705Y-3.189
X2.5984Y-3.0315
X2.6476Y-3.3465
T5
X7.378Y-3.0374
T0
M30
