G04 #@! TF.GenerationSoftware,KiCad,Pcbnew,(5.1.5-0)*
G04 #@! TF.CreationDate,2020-11-01T19:49:13+01:00*
G04 #@! TF.ProjectId,Phono preamp,50686f6e-6f20-4707-9265-616d702e6b69,rev?*
G04 #@! TF.SameCoordinates,Original*
G04 #@! TF.FileFunction,Soldermask,Bot*
G04 #@! TF.FilePolarity,Negative*
%FSLAX46Y46*%
G04 Gerber Fmt 4.6, Leading zero omitted, Abs format (unit mm)*
G04 Created by KiCad (PCBNEW (5.1.5-0)) date 2020-11-01 19:49:13*
%MOMM*%
%LPD*%
G04 APERTURE LIST*
%ADD10C,0.100000*%
G04 APERTURE END LIST*
D10*
G36*
X205875256Y-158391298D02*
G01*
X205981579Y-158412447D01*
X206282042Y-158536903D01*
X206552451Y-158717585D01*
X206782415Y-158947549D01*
X206963097Y-159217958D01*
X207087553Y-159518421D01*
X207151000Y-159837391D01*
X207151000Y-160162609D01*
X207087553Y-160481579D01*
X206963097Y-160782042D01*
X206782415Y-161052451D01*
X206552451Y-161282415D01*
X206282042Y-161463097D01*
X205981579Y-161587553D01*
X205875256Y-161608702D01*
X205662611Y-161651000D01*
X205337389Y-161651000D01*
X205124744Y-161608702D01*
X205018421Y-161587553D01*
X204717958Y-161463097D01*
X204447549Y-161282415D01*
X204217585Y-161052451D01*
X204036903Y-160782042D01*
X203912447Y-160481579D01*
X203849000Y-160162609D01*
X203849000Y-159837391D01*
X203912447Y-159518421D01*
X204036903Y-159217958D01*
X204217585Y-158947549D01*
X204447549Y-158717585D01*
X204717958Y-158536903D01*
X205018421Y-158412447D01*
X205124744Y-158391298D01*
X205337389Y-158349000D01*
X205662611Y-158349000D01*
X205875256Y-158391298D01*
G37*
G36*
X64375256Y-158391298D02*
G01*
X64481579Y-158412447D01*
X64782042Y-158536903D01*
X65052451Y-158717585D01*
X65282415Y-158947549D01*
X65463097Y-159217958D01*
X65587553Y-159518421D01*
X65651000Y-159837391D01*
X65651000Y-160162609D01*
X65587553Y-160481579D01*
X65463097Y-160782042D01*
X65282415Y-161052451D01*
X65052451Y-161282415D01*
X64782042Y-161463097D01*
X64481579Y-161587553D01*
X64375256Y-161608702D01*
X64162611Y-161651000D01*
X63837389Y-161651000D01*
X63624744Y-161608702D01*
X63518421Y-161587553D01*
X63217958Y-161463097D01*
X62947549Y-161282415D01*
X62717585Y-161052451D01*
X62536903Y-160782042D01*
X62412447Y-160481579D01*
X62349000Y-160162609D01*
X62349000Y-159837391D01*
X62412447Y-159518421D01*
X62536903Y-159217958D01*
X62717585Y-158947549D01*
X62947549Y-158717585D01*
X63217958Y-158536903D01*
X63518421Y-158412447D01*
X63624744Y-158391298D01*
X63837389Y-158349000D01*
X64162611Y-158349000D01*
X64375256Y-158391298D01*
G37*
G36*
X65051000Y-154301000D02*
G01*
X60949000Y-154301000D01*
X60949000Y-152199000D01*
X65051000Y-152199000D01*
X65051000Y-154301000D01*
G37*
G36*
X67556564Y-148989389D02*
G01*
X67747833Y-149068615D01*
X67747835Y-149068616D01*
X67919973Y-149183635D01*
X68066365Y-149330027D01*
X68181385Y-149502167D01*
X68260611Y-149693436D01*
X68301000Y-149896484D01*
X68301000Y-150103516D01*
X68260611Y-150306564D01*
X68181385Y-150497833D01*
X68181384Y-150497835D01*
X68066365Y-150669973D01*
X67919973Y-150816365D01*
X67747835Y-150931384D01*
X67747834Y-150931385D01*
X67747833Y-150931385D01*
X67556564Y-151010611D01*
X67353516Y-151051000D01*
X67146484Y-151051000D01*
X66943436Y-151010611D01*
X66752167Y-150931385D01*
X66752166Y-150931385D01*
X66752165Y-150931384D01*
X66580027Y-150816365D01*
X66433635Y-150669973D01*
X66318616Y-150497835D01*
X66318615Y-150497833D01*
X66239389Y-150306564D01*
X66199000Y-150103516D01*
X66199000Y-149896484D01*
X66239389Y-149693436D01*
X66318615Y-149502167D01*
X66433635Y-149330027D01*
X66580027Y-149183635D01*
X66752165Y-149068616D01*
X66752167Y-149068615D01*
X66943436Y-148989389D01*
X67146484Y-148949000D01*
X67353516Y-148949000D01*
X67556564Y-148989389D01*
G37*
G36*
X166506564Y-146489389D02*
G01*
X166697833Y-146568615D01*
X166697835Y-146568616D01*
X166869973Y-146683635D01*
X167016365Y-146830027D01*
X167084090Y-146931384D01*
X167131385Y-147002167D01*
X167210611Y-147193436D01*
X167251000Y-147396484D01*
X167251000Y-147603516D01*
X167210611Y-147806564D01*
X167131385Y-147997833D01*
X167131384Y-147997835D01*
X167016365Y-148169973D01*
X166869973Y-148316365D01*
X166697835Y-148431384D01*
X166697834Y-148431385D01*
X166697833Y-148431385D01*
X166506564Y-148510611D01*
X166303516Y-148551000D01*
X166096484Y-148551000D01*
X165893436Y-148510611D01*
X165702167Y-148431385D01*
X165702166Y-148431385D01*
X165702165Y-148431384D01*
X165530027Y-148316365D01*
X165383635Y-148169973D01*
X165268616Y-147997835D01*
X165268615Y-147997833D01*
X165189389Y-147806564D01*
X165149000Y-147603516D01*
X165149000Y-147396484D01*
X165189389Y-147193436D01*
X165268615Y-147002167D01*
X165315911Y-146931384D01*
X165383635Y-146830027D01*
X165530027Y-146683635D01*
X165702165Y-146568616D01*
X165702167Y-146568615D01*
X165893436Y-146489389D01*
X166096484Y-146449000D01*
X166303516Y-146449000D01*
X166506564Y-146489389D01*
G37*
G36*
X82906564Y-146489389D02*
G01*
X83097833Y-146568615D01*
X83097835Y-146568616D01*
X83269973Y-146683635D01*
X83416365Y-146830027D01*
X83484090Y-146931384D01*
X83531385Y-147002167D01*
X83610611Y-147193436D01*
X83651000Y-147396484D01*
X83651000Y-147603516D01*
X83610611Y-147806564D01*
X83531385Y-147997833D01*
X83531384Y-147997835D01*
X83416365Y-148169973D01*
X83269973Y-148316365D01*
X83097835Y-148431384D01*
X83097834Y-148431385D01*
X83097833Y-148431385D01*
X82906564Y-148510611D01*
X82703516Y-148551000D01*
X82496484Y-148551000D01*
X82293436Y-148510611D01*
X82102167Y-148431385D01*
X82102166Y-148431385D01*
X82102165Y-148431384D01*
X81930027Y-148316365D01*
X81783635Y-148169973D01*
X81668616Y-147997835D01*
X81668615Y-147997833D01*
X81589389Y-147806564D01*
X81549000Y-147603516D01*
X81549000Y-147396484D01*
X81589389Y-147193436D01*
X81668615Y-147002167D01*
X81715911Y-146931384D01*
X81783635Y-146830027D01*
X81930027Y-146683635D01*
X82102165Y-146568616D01*
X82102167Y-146568615D01*
X82293436Y-146489389D01*
X82496484Y-146449000D01*
X82703516Y-146449000D01*
X82906564Y-146489389D01*
G37*
G36*
X63056564Y-144989389D02*
G01*
X63247833Y-145068615D01*
X63247835Y-145068616D01*
X63419973Y-145183635D01*
X63566365Y-145330027D01*
X63681385Y-145502167D01*
X63760611Y-145693436D01*
X63801000Y-145896484D01*
X63801000Y-146103516D01*
X63760611Y-146306564D01*
X63684882Y-146489390D01*
X63681384Y-146497835D01*
X63566365Y-146669973D01*
X63419973Y-146816365D01*
X63247835Y-146931384D01*
X63247834Y-146931385D01*
X63247833Y-146931385D01*
X63056564Y-147010611D01*
X62853516Y-147051000D01*
X62646484Y-147051000D01*
X62443436Y-147010611D01*
X62252167Y-146931385D01*
X62252166Y-146931385D01*
X62252165Y-146931384D01*
X62080027Y-146816365D01*
X61933635Y-146669973D01*
X61818616Y-146497835D01*
X61815118Y-146489390D01*
X61739389Y-146306564D01*
X61699000Y-146103516D01*
X61699000Y-145896484D01*
X61739389Y-145693436D01*
X61818615Y-145502167D01*
X61933635Y-145330027D01*
X62080027Y-145183635D01*
X62252165Y-145068616D01*
X62252167Y-145068615D01*
X62443436Y-144989389D01*
X62646484Y-144949000D01*
X62853516Y-144949000D01*
X63056564Y-144989389D01*
G37*
G36*
X66306564Y-140989389D02*
G01*
X66497833Y-141068615D01*
X66497835Y-141068616D01*
X66669973Y-141183635D01*
X66816365Y-141330027D01*
X66931385Y-141502167D01*
X67010611Y-141693436D01*
X67051000Y-141896484D01*
X67051000Y-142103516D01*
X67010611Y-142306564D01*
X66931385Y-142497833D01*
X66931384Y-142497835D01*
X66816365Y-142669973D01*
X66669973Y-142816365D01*
X66497835Y-142931384D01*
X66497834Y-142931385D01*
X66497833Y-142931385D01*
X66306564Y-143010611D01*
X66103516Y-143051000D01*
X65896484Y-143051000D01*
X65693436Y-143010611D01*
X65502167Y-142931385D01*
X65502166Y-142931385D01*
X65502165Y-142931384D01*
X65330027Y-142816365D01*
X65183635Y-142669973D01*
X65068616Y-142497835D01*
X65068615Y-142497833D01*
X64989389Y-142306564D01*
X64949000Y-142103516D01*
X64949000Y-141896484D01*
X64989389Y-141693436D01*
X65068615Y-141502167D01*
X65183635Y-141330027D01*
X65330027Y-141183635D01*
X65502165Y-141068616D01*
X65502167Y-141068615D01*
X65693436Y-140989389D01*
X65896484Y-140949000D01*
X66103516Y-140949000D01*
X66306564Y-140989389D01*
G37*
G36*
X166506564Y-138989389D02*
G01*
X166697833Y-139068615D01*
X166697835Y-139068616D01*
X166869973Y-139183635D01*
X167016365Y-139330027D01*
X167131385Y-139502167D01*
X167210611Y-139693436D01*
X167251000Y-139896484D01*
X167251000Y-140103516D01*
X167210611Y-140306564D01*
X167131385Y-140497833D01*
X167131384Y-140497835D01*
X167016365Y-140669973D01*
X166869973Y-140816365D01*
X166697835Y-140931384D01*
X166697834Y-140931385D01*
X166697833Y-140931385D01*
X166506564Y-141010611D01*
X166303516Y-141051000D01*
X166096484Y-141051000D01*
X165893436Y-141010611D01*
X165702167Y-140931385D01*
X165702166Y-140931385D01*
X165702165Y-140931384D01*
X165530027Y-140816365D01*
X165383635Y-140669973D01*
X165268616Y-140497835D01*
X165268615Y-140497833D01*
X165189389Y-140306564D01*
X165149000Y-140103516D01*
X165149000Y-139896484D01*
X165189389Y-139693436D01*
X165268615Y-139502167D01*
X165383635Y-139330027D01*
X165530027Y-139183635D01*
X165702165Y-139068616D01*
X165702167Y-139068615D01*
X165893436Y-138989389D01*
X166096484Y-138949000D01*
X166303516Y-138949000D01*
X166506564Y-138989389D01*
G37*
G36*
X82906564Y-138989389D02*
G01*
X83097833Y-139068615D01*
X83097835Y-139068616D01*
X83269973Y-139183635D01*
X83416365Y-139330027D01*
X83531385Y-139502167D01*
X83610611Y-139693436D01*
X83651000Y-139896484D01*
X83651000Y-140103516D01*
X83610611Y-140306564D01*
X83531385Y-140497833D01*
X83531384Y-140497835D01*
X83416365Y-140669973D01*
X83269973Y-140816365D01*
X83097835Y-140931384D01*
X83097834Y-140931385D01*
X83097833Y-140931385D01*
X82906564Y-141010611D01*
X82703516Y-141051000D01*
X82496484Y-141051000D01*
X82293436Y-141010611D01*
X82102167Y-140931385D01*
X82102166Y-140931385D01*
X82102165Y-140931384D01*
X81930027Y-140816365D01*
X81783635Y-140669973D01*
X81668616Y-140497835D01*
X81668615Y-140497833D01*
X81589389Y-140306564D01*
X81549000Y-140103516D01*
X81549000Y-139896484D01*
X81589389Y-139693436D01*
X81668615Y-139502167D01*
X81783635Y-139330027D01*
X81930027Y-139183635D01*
X82102165Y-139068616D01*
X82102167Y-139068615D01*
X82293436Y-138989389D01*
X82496484Y-138949000D01*
X82703516Y-138949000D01*
X82906564Y-138989389D01*
G37*
G36*
X65051000Y-139801000D02*
G01*
X60949000Y-139801000D01*
X60949000Y-137699000D01*
X65051000Y-137699000D01*
X65051000Y-139801000D01*
G37*
G36*
X70948228Y-131931703D02*
G01*
X71103100Y-131995853D01*
X71242481Y-132088985D01*
X71361015Y-132207519D01*
X71454147Y-132346900D01*
X71518297Y-132501772D01*
X71551000Y-132666184D01*
X71551000Y-132833816D01*
X71518297Y-132998228D01*
X71454147Y-133153100D01*
X71361015Y-133292481D01*
X71242481Y-133411015D01*
X71103100Y-133504147D01*
X70948228Y-133568297D01*
X70783816Y-133601000D01*
X70616184Y-133601000D01*
X70451772Y-133568297D01*
X70296900Y-133504147D01*
X70157519Y-133411015D01*
X70038985Y-133292481D01*
X69945853Y-133153100D01*
X69881703Y-132998228D01*
X69849000Y-132833816D01*
X69849000Y-132666184D01*
X69881703Y-132501772D01*
X69945853Y-132346900D01*
X70038985Y-132207519D01*
X70157519Y-132088985D01*
X70296900Y-131995853D01*
X70451772Y-131931703D01*
X70616184Y-131899000D01*
X70783816Y-131899000D01*
X70948228Y-131931703D01*
G37*
G36*
X81248228Y-131931703D02*
G01*
X81403100Y-131995853D01*
X81542481Y-132088985D01*
X81661015Y-132207519D01*
X81754147Y-132346900D01*
X81818297Y-132501772D01*
X81851000Y-132666184D01*
X81851000Y-132833816D01*
X81818297Y-132998228D01*
X81754147Y-133153100D01*
X81661015Y-133292481D01*
X81542481Y-133411015D01*
X81403100Y-133504147D01*
X81248228Y-133568297D01*
X81083816Y-133601000D01*
X80916184Y-133601000D01*
X80751772Y-133568297D01*
X80596900Y-133504147D01*
X80457519Y-133411015D01*
X80338985Y-133292481D01*
X80245853Y-133153100D01*
X80181703Y-132998228D01*
X80149000Y-132833816D01*
X80149000Y-132666184D01*
X80181703Y-132501772D01*
X80245853Y-132346900D01*
X80338985Y-132207519D01*
X80457519Y-132088985D01*
X80596900Y-131995853D01*
X80751772Y-131931703D01*
X80916184Y-131899000D01*
X81083816Y-131899000D01*
X81248228Y-131931703D01*
G37*
G36*
X91998228Y-131931703D02*
G01*
X92153100Y-131995853D01*
X92292481Y-132088985D01*
X92411015Y-132207519D01*
X92504147Y-132346900D01*
X92568297Y-132501772D01*
X92601000Y-132666184D01*
X92601000Y-132833816D01*
X92568297Y-132998228D01*
X92504147Y-133153100D01*
X92411015Y-133292481D01*
X92292481Y-133411015D01*
X92153100Y-133504147D01*
X91998228Y-133568297D01*
X91833816Y-133601000D01*
X91666184Y-133601000D01*
X91501772Y-133568297D01*
X91346900Y-133504147D01*
X91207519Y-133411015D01*
X91088985Y-133292481D01*
X90995853Y-133153100D01*
X90931703Y-132998228D01*
X90899000Y-132833816D01*
X90899000Y-132666184D01*
X90931703Y-132501772D01*
X90995853Y-132346900D01*
X91088985Y-132207519D01*
X91207519Y-132088985D01*
X91346900Y-131995853D01*
X91501772Y-131931703D01*
X91666184Y-131899000D01*
X91833816Y-131899000D01*
X91998228Y-131931703D01*
G37*
G36*
X201801000Y-113951000D02*
G01*
X199999000Y-113951000D01*
X199999000Y-112149000D01*
X201801000Y-112149000D01*
X201801000Y-113951000D01*
G37*
G36*
X70948228Y-111931703D02*
G01*
X71103100Y-111995853D01*
X71242481Y-112088985D01*
X71361015Y-112207519D01*
X71454147Y-112346900D01*
X71518297Y-112501772D01*
X71551000Y-112666184D01*
X71551000Y-112833816D01*
X71518297Y-112998228D01*
X71454147Y-113153100D01*
X71361015Y-113292481D01*
X71242481Y-113411015D01*
X71103100Y-113504147D01*
X70948228Y-113568297D01*
X70783816Y-113601000D01*
X70616184Y-113601000D01*
X70451772Y-113568297D01*
X70296900Y-113504147D01*
X70157519Y-113411015D01*
X70038985Y-113292481D01*
X69945853Y-113153100D01*
X69881703Y-112998228D01*
X69849000Y-112833816D01*
X69849000Y-112666184D01*
X69881703Y-112501772D01*
X69945853Y-112346900D01*
X70038985Y-112207519D01*
X70157519Y-112088985D01*
X70296900Y-111995853D01*
X70451772Y-111931703D01*
X70616184Y-111899000D01*
X70783816Y-111899000D01*
X70948228Y-111931703D01*
G37*
G36*
X81248228Y-111931703D02*
G01*
X81403100Y-111995853D01*
X81542481Y-112088985D01*
X81661015Y-112207519D01*
X81754147Y-112346900D01*
X81818297Y-112501772D01*
X81851000Y-112666184D01*
X81851000Y-112833816D01*
X81818297Y-112998228D01*
X81754147Y-113153100D01*
X81661015Y-113292481D01*
X81542481Y-113411015D01*
X81403100Y-113504147D01*
X81248228Y-113568297D01*
X81083816Y-113601000D01*
X80916184Y-113601000D01*
X80751772Y-113568297D01*
X80596900Y-113504147D01*
X80457519Y-113411015D01*
X80338985Y-113292481D01*
X80245853Y-113153100D01*
X80181703Y-112998228D01*
X80149000Y-112833816D01*
X80149000Y-112666184D01*
X80181703Y-112501772D01*
X80245853Y-112346900D01*
X80338985Y-112207519D01*
X80457519Y-112088985D01*
X80596900Y-111995853D01*
X80751772Y-111931703D01*
X80916184Y-111899000D01*
X81083816Y-111899000D01*
X81248228Y-111931703D01*
G37*
G36*
X91998228Y-111931703D02*
G01*
X92153100Y-111995853D01*
X92292481Y-112088985D01*
X92411015Y-112207519D01*
X92504147Y-112346900D01*
X92568297Y-112501772D01*
X92601000Y-112666184D01*
X92601000Y-112833816D01*
X92568297Y-112998228D01*
X92504147Y-113153100D01*
X92411015Y-113292481D01*
X92292481Y-113411015D01*
X92153100Y-113504147D01*
X91998228Y-113568297D01*
X91833816Y-113601000D01*
X91666184Y-113601000D01*
X91501772Y-113568297D01*
X91346900Y-113504147D01*
X91207519Y-113411015D01*
X91088985Y-113292481D01*
X90995853Y-113153100D01*
X90931703Y-112998228D01*
X90899000Y-112833816D01*
X90899000Y-112666184D01*
X90931703Y-112501772D01*
X90995853Y-112346900D01*
X91088985Y-112207519D01*
X91207519Y-112088985D01*
X91346900Y-111995853D01*
X91501772Y-111931703D01*
X91666184Y-111899000D01*
X91833816Y-111899000D01*
X91998228Y-111931703D01*
G37*
G36*
X136248228Y-110181703D02*
G01*
X136403100Y-110245853D01*
X136542481Y-110338985D01*
X136661015Y-110457519D01*
X136754147Y-110596900D01*
X136818297Y-110751772D01*
X136851000Y-110916184D01*
X136851000Y-111083816D01*
X136818297Y-111248228D01*
X136754147Y-111403100D01*
X136661015Y-111542481D01*
X136542481Y-111661015D01*
X136403100Y-111754147D01*
X136248228Y-111818297D01*
X136083816Y-111851000D01*
X135916184Y-111851000D01*
X135751772Y-111818297D01*
X135596900Y-111754147D01*
X135457519Y-111661015D01*
X135338985Y-111542481D01*
X135245853Y-111403100D01*
X135181703Y-111248228D01*
X135149000Y-111083816D01*
X135149000Y-110916184D01*
X135181703Y-110751772D01*
X135245853Y-110596900D01*
X135338985Y-110457519D01*
X135457519Y-110338985D01*
X135596900Y-110245853D01*
X135751772Y-110181703D01*
X135916184Y-110149000D01*
X136083816Y-110149000D01*
X136248228Y-110181703D01*
G37*
G36*
X145998228Y-110181703D02*
G01*
X146153100Y-110245853D01*
X146292481Y-110338985D01*
X146411015Y-110457519D01*
X146504147Y-110596900D01*
X146568297Y-110751772D01*
X146601000Y-110916184D01*
X146601000Y-111083816D01*
X146568297Y-111248228D01*
X146504147Y-111403100D01*
X146411015Y-111542481D01*
X146292481Y-111661015D01*
X146153100Y-111754147D01*
X145998228Y-111818297D01*
X145833816Y-111851000D01*
X145666184Y-111851000D01*
X145501772Y-111818297D01*
X145346900Y-111754147D01*
X145207519Y-111661015D01*
X145088985Y-111542481D01*
X144995853Y-111403100D01*
X144931703Y-111248228D01*
X144899000Y-111083816D01*
X144899000Y-110916184D01*
X144931703Y-110751772D01*
X144995853Y-110596900D01*
X145088985Y-110457519D01*
X145207519Y-110338985D01*
X145346900Y-110245853D01*
X145501772Y-110181703D01*
X145666184Y-110149000D01*
X145833816Y-110149000D01*
X145998228Y-110181703D01*
G37*
G36*
X155498228Y-110181703D02*
G01*
X155653100Y-110245853D01*
X155792481Y-110338985D01*
X155911015Y-110457519D01*
X156004147Y-110596900D01*
X156068297Y-110751772D01*
X156101000Y-110916184D01*
X156101000Y-111083816D01*
X156068297Y-111248228D01*
X156004147Y-111403100D01*
X155911015Y-111542481D01*
X155792481Y-111661015D01*
X155653100Y-111754147D01*
X155498228Y-111818297D01*
X155333816Y-111851000D01*
X155166184Y-111851000D01*
X155001772Y-111818297D01*
X154846900Y-111754147D01*
X154707519Y-111661015D01*
X154588985Y-111542481D01*
X154495853Y-111403100D01*
X154431703Y-111248228D01*
X154399000Y-111083816D01*
X154399000Y-110916184D01*
X154431703Y-110751772D01*
X154495853Y-110596900D01*
X154588985Y-110457519D01*
X154707519Y-110338985D01*
X154846900Y-110245853D01*
X155001772Y-110181703D01*
X155166184Y-110149000D01*
X155333816Y-110149000D01*
X155498228Y-110181703D01*
G37*
G36*
X201013512Y-109613927D02*
G01*
X201162812Y-109643624D01*
X201326784Y-109711544D01*
X201474354Y-109810147D01*
X201599853Y-109935646D01*
X201698456Y-110083216D01*
X201766376Y-110247188D01*
X201801000Y-110421259D01*
X201801000Y-110598741D01*
X201766376Y-110772812D01*
X201698456Y-110936784D01*
X201599853Y-111084354D01*
X201474354Y-111209853D01*
X201326784Y-111308456D01*
X201162812Y-111376376D01*
X201013512Y-111406073D01*
X200988742Y-111411000D01*
X200811258Y-111411000D01*
X200786488Y-111406073D01*
X200637188Y-111376376D01*
X200473216Y-111308456D01*
X200325646Y-111209853D01*
X200200147Y-111084354D01*
X200101544Y-110936784D01*
X200033624Y-110772812D01*
X199999000Y-110598741D01*
X199999000Y-110421259D01*
X200033624Y-110247188D01*
X200101544Y-110083216D01*
X200200147Y-109935646D01*
X200325646Y-109810147D01*
X200473216Y-109711544D01*
X200637188Y-109643624D01*
X200786488Y-109613927D01*
X200811258Y-109609000D01*
X200988742Y-109609000D01*
X201013512Y-109613927D01*
G37*
G36*
X201013512Y-107073927D02*
G01*
X201162812Y-107103624D01*
X201326784Y-107171544D01*
X201474354Y-107270147D01*
X201599853Y-107395646D01*
X201698456Y-107543216D01*
X201766376Y-107707188D01*
X201801000Y-107881259D01*
X201801000Y-108058741D01*
X201766376Y-108232812D01*
X201698456Y-108396784D01*
X201599853Y-108544354D01*
X201474354Y-108669853D01*
X201326784Y-108768456D01*
X201162812Y-108836376D01*
X201013512Y-108866073D01*
X200988742Y-108871000D01*
X200811258Y-108871000D01*
X200786488Y-108866073D01*
X200637188Y-108836376D01*
X200473216Y-108768456D01*
X200325646Y-108669853D01*
X200200147Y-108544354D01*
X200101544Y-108396784D01*
X200033624Y-108232812D01*
X199999000Y-108058741D01*
X199999000Y-107881259D01*
X200033624Y-107707188D01*
X200101544Y-107543216D01*
X200200147Y-107395646D01*
X200325646Y-107270147D01*
X200473216Y-107171544D01*
X200637188Y-107103624D01*
X200786488Y-107073927D01*
X200811258Y-107069000D01*
X200988742Y-107069000D01*
X201013512Y-107073927D01*
G37*
G36*
X94351000Y-105851000D02*
G01*
X92649000Y-105851000D01*
X92649000Y-104149000D01*
X94351000Y-104149000D01*
X94351000Y-105851000D01*
G37*
G36*
X91248228Y-104181703D02*
G01*
X91403100Y-104245853D01*
X91542481Y-104338985D01*
X91661015Y-104457519D01*
X91754147Y-104596900D01*
X91818297Y-104751772D01*
X91851000Y-104916184D01*
X91851000Y-105083816D01*
X91818297Y-105248228D01*
X91754147Y-105403100D01*
X91661015Y-105542481D01*
X91542481Y-105661015D01*
X91403100Y-105754147D01*
X91248228Y-105818297D01*
X91083816Y-105851000D01*
X90916184Y-105851000D01*
X90751772Y-105818297D01*
X90596900Y-105754147D01*
X90457519Y-105661015D01*
X90338985Y-105542481D01*
X90245853Y-105403100D01*
X90181703Y-105248228D01*
X90149000Y-105083816D01*
X90149000Y-104916184D01*
X90181703Y-104751772D01*
X90245853Y-104596900D01*
X90338985Y-104457519D01*
X90457519Y-104338985D01*
X90596900Y-104245853D01*
X90751772Y-104181703D01*
X90916184Y-104149000D01*
X91083816Y-104149000D01*
X91248228Y-104181703D01*
G37*
G36*
X127351000Y-103601000D02*
G01*
X125649000Y-103601000D01*
X125649000Y-101899000D01*
X127351000Y-101899000D01*
X127351000Y-103601000D01*
G37*
G36*
X124248228Y-101931703D02*
G01*
X124403100Y-101995853D01*
X124542481Y-102088985D01*
X124661015Y-102207519D01*
X124754147Y-102346900D01*
X124818297Y-102501772D01*
X124851000Y-102666184D01*
X124851000Y-102833816D01*
X124818297Y-102998228D01*
X124754147Y-103153100D01*
X124661015Y-103292481D01*
X124542481Y-103411015D01*
X124403100Y-103504147D01*
X124248228Y-103568297D01*
X124083816Y-103601000D01*
X123916184Y-103601000D01*
X123751772Y-103568297D01*
X123596900Y-103504147D01*
X123457519Y-103411015D01*
X123338985Y-103292481D01*
X123245853Y-103153100D01*
X123181703Y-102998228D01*
X123149000Y-102833816D01*
X123149000Y-102666184D01*
X123181703Y-102501772D01*
X123245853Y-102346900D01*
X123338985Y-102207519D01*
X123457519Y-102088985D01*
X123596900Y-101995853D01*
X123751772Y-101931703D01*
X123916184Y-101899000D01*
X124083816Y-101899000D01*
X124248228Y-101931703D01*
G37*
G36*
X155498228Y-90181703D02*
G01*
X155653100Y-90245853D01*
X155792481Y-90338985D01*
X155911015Y-90457519D01*
X156004147Y-90596900D01*
X156068297Y-90751772D01*
X156101000Y-90916184D01*
X156101000Y-91083816D01*
X156068297Y-91248228D01*
X156004147Y-91403100D01*
X155911015Y-91542481D01*
X155792481Y-91661015D01*
X155653100Y-91754147D01*
X155498228Y-91818297D01*
X155333816Y-91851000D01*
X155166184Y-91851000D01*
X155001772Y-91818297D01*
X154846900Y-91754147D01*
X154707519Y-91661015D01*
X154588985Y-91542481D01*
X154495853Y-91403100D01*
X154431703Y-91248228D01*
X154399000Y-91083816D01*
X154399000Y-90916184D01*
X154431703Y-90751772D01*
X154495853Y-90596900D01*
X154588985Y-90457519D01*
X154707519Y-90338985D01*
X154846900Y-90245853D01*
X155001772Y-90181703D01*
X155166184Y-90149000D01*
X155333816Y-90149000D01*
X155498228Y-90181703D01*
G37*
G36*
X145998228Y-90181703D02*
G01*
X146153100Y-90245853D01*
X146292481Y-90338985D01*
X146411015Y-90457519D01*
X146504147Y-90596900D01*
X146568297Y-90751772D01*
X146601000Y-90916184D01*
X146601000Y-91083816D01*
X146568297Y-91248228D01*
X146504147Y-91403100D01*
X146411015Y-91542481D01*
X146292481Y-91661015D01*
X146153100Y-91754147D01*
X145998228Y-91818297D01*
X145833816Y-91851000D01*
X145666184Y-91851000D01*
X145501772Y-91818297D01*
X145346900Y-91754147D01*
X145207519Y-91661015D01*
X145088985Y-91542481D01*
X144995853Y-91403100D01*
X144931703Y-91248228D01*
X144899000Y-91083816D01*
X144899000Y-90916184D01*
X144931703Y-90751772D01*
X144995853Y-90596900D01*
X145088985Y-90457519D01*
X145207519Y-90338985D01*
X145346900Y-90245853D01*
X145501772Y-90181703D01*
X145666184Y-90149000D01*
X145833816Y-90149000D01*
X145998228Y-90181703D01*
G37*
G36*
X136248228Y-90181703D02*
G01*
X136403100Y-90245853D01*
X136542481Y-90338985D01*
X136661015Y-90457519D01*
X136754147Y-90596900D01*
X136818297Y-90751772D01*
X136851000Y-90916184D01*
X136851000Y-91083816D01*
X136818297Y-91248228D01*
X136754147Y-91403100D01*
X136661015Y-91542481D01*
X136542481Y-91661015D01*
X136403100Y-91754147D01*
X136248228Y-91818297D01*
X136083816Y-91851000D01*
X135916184Y-91851000D01*
X135751772Y-91818297D01*
X135596900Y-91754147D01*
X135457519Y-91661015D01*
X135338985Y-91542481D01*
X135245853Y-91403100D01*
X135181703Y-91248228D01*
X135149000Y-91083816D01*
X135149000Y-90916184D01*
X135181703Y-90751772D01*
X135245853Y-90596900D01*
X135338985Y-90457519D01*
X135457519Y-90338985D01*
X135596900Y-90245853D01*
X135751772Y-90181703D01*
X135916184Y-90149000D01*
X136083816Y-90149000D01*
X136248228Y-90181703D01*
G37*
G36*
X65051000Y-89301000D02*
G01*
X60949000Y-89301000D01*
X60949000Y-87199000D01*
X65051000Y-87199000D01*
X65051000Y-89301000D01*
G37*
G36*
X83848228Y-86581703D02*
G01*
X84003100Y-86645853D01*
X84142481Y-86738985D01*
X84261015Y-86857519D01*
X84354147Y-86996900D01*
X84418297Y-87151772D01*
X84451000Y-87316184D01*
X84451000Y-87483816D01*
X84418297Y-87648228D01*
X84354147Y-87803100D01*
X84261015Y-87942481D01*
X84142481Y-88061015D01*
X84003100Y-88154147D01*
X83848228Y-88218297D01*
X83683816Y-88251000D01*
X83516184Y-88251000D01*
X83351772Y-88218297D01*
X83196900Y-88154147D01*
X83057519Y-88061015D01*
X82938985Y-87942481D01*
X82845853Y-87803100D01*
X82781703Y-87648228D01*
X82749000Y-87483816D01*
X82749000Y-87316184D01*
X82781703Y-87151772D01*
X82845853Y-86996900D01*
X82938985Y-86857519D01*
X83057519Y-86738985D01*
X83196900Y-86645853D01*
X83351772Y-86581703D01*
X83516184Y-86549000D01*
X83683816Y-86549000D01*
X83848228Y-86581703D01*
G37*
G36*
X67556564Y-83989389D02*
G01*
X67747833Y-84068615D01*
X67747835Y-84068616D01*
X67868138Y-84149000D01*
X67919973Y-84183635D01*
X68066365Y-84330027D01*
X68181385Y-84502167D01*
X68260611Y-84693436D01*
X68301000Y-84896484D01*
X68301000Y-85103516D01*
X68260611Y-85306564D01*
X68181385Y-85497833D01*
X68181384Y-85497835D01*
X68066365Y-85669973D01*
X67919973Y-85816365D01*
X67747835Y-85931384D01*
X67747834Y-85931385D01*
X67747833Y-85931385D01*
X67556564Y-86010611D01*
X67353516Y-86051000D01*
X67146484Y-86051000D01*
X66943436Y-86010611D01*
X66752167Y-85931385D01*
X66752166Y-85931385D01*
X66752165Y-85931384D01*
X66580027Y-85816365D01*
X66433635Y-85669973D01*
X66318616Y-85497835D01*
X66318615Y-85497833D01*
X66239389Y-85306564D01*
X66199000Y-85103516D01*
X66199000Y-84896484D01*
X66239389Y-84693436D01*
X66318615Y-84502167D01*
X66433635Y-84330027D01*
X66580027Y-84183635D01*
X66631862Y-84149000D01*
X66752165Y-84068616D01*
X66752167Y-84068615D01*
X66943436Y-83989389D01*
X67146484Y-83949000D01*
X67353516Y-83949000D01*
X67556564Y-83989389D01*
G37*
G36*
X91248228Y-84181703D02*
G01*
X91403100Y-84245853D01*
X91542481Y-84338985D01*
X91661015Y-84457519D01*
X91754147Y-84596900D01*
X91818297Y-84751772D01*
X91851000Y-84916184D01*
X91851000Y-85083816D01*
X91818297Y-85248228D01*
X91754147Y-85403100D01*
X91661015Y-85542481D01*
X91542481Y-85661015D01*
X91403100Y-85754147D01*
X91248228Y-85818297D01*
X91083816Y-85851000D01*
X90916184Y-85851000D01*
X90751772Y-85818297D01*
X90596900Y-85754147D01*
X90457519Y-85661015D01*
X90338985Y-85542481D01*
X90245853Y-85403100D01*
X90181703Y-85248228D01*
X90149000Y-85083816D01*
X90149000Y-84916184D01*
X90181703Y-84751772D01*
X90245853Y-84596900D01*
X90338985Y-84457519D01*
X90457519Y-84338985D01*
X90596900Y-84245853D01*
X90751772Y-84181703D01*
X90916184Y-84149000D01*
X91083816Y-84149000D01*
X91248228Y-84181703D01*
G37*
G36*
X96851000Y-85851000D02*
G01*
X95149000Y-85851000D01*
X95149000Y-84149000D01*
X96851000Y-84149000D01*
X96851000Y-85851000D01*
G37*
G36*
X83848228Y-81581703D02*
G01*
X84003100Y-81645853D01*
X84142481Y-81738985D01*
X84261015Y-81857519D01*
X84354147Y-81996900D01*
X84418297Y-82151772D01*
X84451000Y-82316184D01*
X84451000Y-82483816D01*
X84418297Y-82648228D01*
X84354147Y-82803100D01*
X84261015Y-82942481D01*
X84142481Y-83061015D01*
X84003100Y-83154147D01*
X83848228Y-83218297D01*
X83683816Y-83251000D01*
X83516184Y-83251000D01*
X83351772Y-83218297D01*
X83196900Y-83154147D01*
X83057519Y-83061015D01*
X82938985Y-82942481D01*
X82845853Y-82803100D01*
X82781703Y-82648228D01*
X82749000Y-82483816D01*
X82749000Y-82316184D01*
X82781703Y-82151772D01*
X82845853Y-81996900D01*
X82938985Y-81857519D01*
X83057519Y-81738985D01*
X83196900Y-81645853D01*
X83351772Y-81581703D01*
X83516184Y-81549000D01*
X83683816Y-81549000D01*
X83848228Y-81581703D01*
G37*
G36*
X63056564Y-79989389D02*
G01*
X63247833Y-80068615D01*
X63247835Y-80068616D01*
X63419973Y-80183635D01*
X63566365Y-80330027D01*
X63681385Y-80502167D01*
X63760611Y-80693436D01*
X63801000Y-80896484D01*
X63801000Y-81103516D01*
X63760611Y-81306564D01*
X63681385Y-81497833D01*
X63681384Y-81497835D01*
X63566365Y-81669973D01*
X63419973Y-81816365D01*
X63247835Y-81931384D01*
X63247834Y-81931385D01*
X63247833Y-81931385D01*
X63056564Y-82010611D01*
X62853516Y-82051000D01*
X62646484Y-82051000D01*
X62443436Y-82010611D01*
X62252167Y-81931385D01*
X62252166Y-81931385D01*
X62252165Y-81931384D01*
X62080027Y-81816365D01*
X61933635Y-81669973D01*
X61818616Y-81497835D01*
X61818615Y-81497833D01*
X61739389Y-81306564D01*
X61699000Y-81103516D01*
X61699000Y-80896484D01*
X61739389Y-80693436D01*
X61818615Y-80502167D01*
X61933635Y-80330027D01*
X62080027Y-80183635D01*
X62252165Y-80068616D01*
X62252167Y-80068615D01*
X62443436Y-79989389D01*
X62646484Y-79949000D01*
X62853516Y-79949000D01*
X63056564Y-79989389D01*
G37*
G36*
X187794072Y-75850918D02*
G01*
X188039939Y-75952759D01*
X188151328Y-76027187D01*
X188261211Y-76100609D01*
X188449391Y-76288789D01*
X188597242Y-76510063D01*
X188699082Y-76755928D01*
X188751000Y-77016937D01*
X188751000Y-77283063D01*
X188708279Y-77497835D01*
X188699082Y-77544072D01*
X188597241Y-77789939D01*
X188522813Y-77901328D01*
X188449793Y-78010610D01*
X188449390Y-78011212D01*
X188261212Y-78199390D01*
X188039939Y-78347241D01*
X188039938Y-78347242D01*
X188039937Y-78347242D01*
X187794072Y-78449082D01*
X187533063Y-78501000D01*
X187266937Y-78501000D01*
X187005928Y-78449082D01*
X186760063Y-78347242D01*
X186760062Y-78347242D01*
X186760061Y-78347241D01*
X186538788Y-78199390D01*
X186350610Y-78011212D01*
X186350208Y-78010610D01*
X186277187Y-77901328D01*
X186202759Y-77789939D01*
X186100918Y-77544072D01*
X186091721Y-77497835D01*
X186049000Y-77283063D01*
X186049000Y-77016937D01*
X186100918Y-76755928D01*
X186202758Y-76510063D01*
X186350609Y-76288789D01*
X186538789Y-76100609D01*
X186648672Y-76027187D01*
X186760061Y-75952759D01*
X187005928Y-75850918D01*
X187266937Y-75799000D01*
X187533063Y-75799000D01*
X187794072Y-75850918D01*
G37*
G36*
X66306564Y-75989389D02*
G01*
X66497833Y-76068615D01*
X66497835Y-76068616D01*
X66545716Y-76100609D01*
X66669973Y-76183635D01*
X66816365Y-76330027D01*
X66931385Y-76502167D01*
X67010611Y-76693436D01*
X67051000Y-76896484D01*
X67051000Y-77103516D01*
X67010611Y-77306564D01*
X66931385Y-77497833D01*
X66931384Y-77497835D01*
X66816365Y-77669973D01*
X66669973Y-77816365D01*
X66497835Y-77931384D01*
X66497834Y-77931385D01*
X66497833Y-77931385D01*
X66306564Y-78010611D01*
X66103516Y-78051000D01*
X65896484Y-78051000D01*
X65693436Y-78010611D01*
X65502167Y-77931385D01*
X65502166Y-77931385D01*
X65502165Y-77931384D01*
X65330027Y-77816365D01*
X65183635Y-77669973D01*
X65068616Y-77497835D01*
X65068615Y-77497833D01*
X64989389Y-77306564D01*
X64949000Y-77103516D01*
X64949000Y-76896484D01*
X64989389Y-76693436D01*
X65068615Y-76502167D01*
X65183635Y-76330027D01*
X65330027Y-76183635D01*
X65454284Y-76100609D01*
X65502165Y-76068616D01*
X65502167Y-76068615D01*
X65693436Y-75989389D01*
X65896484Y-75949000D01*
X66103516Y-75949000D01*
X66306564Y-75989389D01*
G37*
G36*
X65051000Y-74801000D02*
G01*
X60949000Y-74801000D01*
X60949000Y-72699000D01*
X65051000Y-72699000D01*
X65051000Y-74801000D01*
G37*
G36*
X83848228Y-73081703D02*
G01*
X84003100Y-73145853D01*
X84142481Y-73238985D01*
X84261015Y-73357519D01*
X84354147Y-73496900D01*
X84418297Y-73651772D01*
X84451000Y-73816184D01*
X84451000Y-73983816D01*
X84418297Y-74148228D01*
X84354147Y-74303100D01*
X84261015Y-74442481D01*
X84142481Y-74561015D01*
X84003100Y-74654147D01*
X83848228Y-74718297D01*
X83683816Y-74751000D01*
X83516184Y-74751000D01*
X83351772Y-74718297D01*
X83196900Y-74654147D01*
X83057519Y-74561015D01*
X82938985Y-74442481D01*
X82845853Y-74303100D01*
X82781703Y-74148228D01*
X82749000Y-73983816D01*
X82749000Y-73816184D01*
X82781703Y-73651772D01*
X82845853Y-73496900D01*
X82938985Y-73357519D01*
X83057519Y-73238985D01*
X83196900Y-73145853D01*
X83351772Y-73081703D01*
X83516184Y-73049000D01*
X83683816Y-73049000D01*
X83848228Y-73081703D01*
G37*
G36*
X91248228Y-70881703D02*
G01*
X91403100Y-70945853D01*
X91542481Y-71038985D01*
X91661015Y-71157519D01*
X91754147Y-71296900D01*
X91818297Y-71451772D01*
X91851000Y-71616184D01*
X91851000Y-71783816D01*
X91818297Y-71948228D01*
X91754147Y-72103100D01*
X91661015Y-72242481D01*
X91542481Y-72361015D01*
X91403100Y-72454147D01*
X91248228Y-72518297D01*
X91083816Y-72551000D01*
X90916184Y-72551000D01*
X90751772Y-72518297D01*
X90596900Y-72454147D01*
X90457519Y-72361015D01*
X90338985Y-72242481D01*
X90245853Y-72103100D01*
X90181703Y-71948228D01*
X90149000Y-71783816D01*
X90149000Y-71616184D01*
X90181703Y-71451772D01*
X90245853Y-71296900D01*
X90338985Y-71157519D01*
X90457519Y-71038985D01*
X90596900Y-70945853D01*
X90751772Y-70881703D01*
X90916184Y-70849000D01*
X91083816Y-70849000D01*
X91248228Y-70881703D01*
G37*
G36*
X96851000Y-72551000D02*
G01*
X95149000Y-72551000D01*
X95149000Y-70849000D01*
X96851000Y-70849000D01*
X96851000Y-72551000D01*
G37*
G36*
X83848228Y-68081703D02*
G01*
X84003100Y-68145853D01*
X84142481Y-68238985D01*
X84261015Y-68357519D01*
X84354147Y-68496900D01*
X84418297Y-68651772D01*
X84451000Y-68816184D01*
X84451000Y-68983816D01*
X84418297Y-69148228D01*
X84354147Y-69303100D01*
X84261015Y-69442481D01*
X84142481Y-69561015D01*
X84003100Y-69654147D01*
X83848228Y-69718297D01*
X83683816Y-69751000D01*
X83516184Y-69751000D01*
X83351772Y-69718297D01*
X83196900Y-69654147D01*
X83057519Y-69561015D01*
X82938985Y-69442481D01*
X82845853Y-69303100D01*
X82781703Y-69148228D01*
X82749000Y-68983816D01*
X82749000Y-68816184D01*
X82781703Y-68651772D01*
X82845853Y-68496900D01*
X82938985Y-68357519D01*
X83057519Y-68238985D01*
X83196900Y-68145853D01*
X83351772Y-68081703D01*
X83516184Y-68049000D01*
X83683816Y-68049000D01*
X83848228Y-68081703D01*
G37*
G36*
X205875256Y-66391298D02*
G01*
X205981579Y-66412447D01*
X206282042Y-66536903D01*
X206552451Y-66717585D01*
X206782415Y-66947549D01*
X206963097Y-67217958D01*
X207087553Y-67518421D01*
X207151000Y-67837391D01*
X207151000Y-68162609D01*
X207087553Y-68481579D01*
X206963097Y-68782042D01*
X206782415Y-69052451D01*
X206552451Y-69282415D01*
X206282042Y-69463097D01*
X205981579Y-69587553D01*
X205875256Y-69608702D01*
X205662611Y-69651000D01*
X205337389Y-69651000D01*
X205124744Y-69608702D01*
X205018421Y-69587553D01*
X204717958Y-69463097D01*
X204447549Y-69282415D01*
X204217585Y-69052451D01*
X204036903Y-68782042D01*
X203912447Y-68481579D01*
X203849000Y-68162609D01*
X203849000Y-67837391D01*
X203912447Y-67518421D01*
X204036903Y-67217958D01*
X204217585Y-66947549D01*
X204447549Y-66717585D01*
X204717958Y-66536903D01*
X205018421Y-66412447D01*
X205124744Y-66391298D01*
X205337389Y-66349000D01*
X205662611Y-66349000D01*
X205875256Y-66391298D01*
G37*
G36*
X64375256Y-66391298D02*
G01*
X64481579Y-66412447D01*
X64782042Y-66536903D01*
X65052451Y-66717585D01*
X65282415Y-66947549D01*
X65463097Y-67217958D01*
X65587553Y-67518421D01*
X65651000Y-67837391D01*
X65651000Y-68162609D01*
X65587553Y-68481579D01*
X65463097Y-68782042D01*
X65282415Y-69052451D01*
X65052451Y-69282415D01*
X64782042Y-69463097D01*
X64481579Y-69587553D01*
X64375256Y-69608702D01*
X64162611Y-69651000D01*
X63837389Y-69651000D01*
X63624744Y-69608702D01*
X63518421Y-69587553D01*
X63217958Y-69463097D01*
X62947549Y-69282415D01*
X62717585Y-69052451D01*
X62536903Y-68782042D01*
X62412447Y-68481579D01*
X62349000Y-68162609D01*
X62349000Y-67837391D01*
X62412447Y-67518421D01*
X62536903Y-67217958D01*
X62717585Y-66947549D01*
X62947549Y-66717585D01*
X63217958Y-66536903D01*
X63518421Y-66412447D01*
X63624744Y-66391298D01*
X63837389Y-66349000D01*
X64162611Y-66349000D01*
X64375256Y-66391298D01*
G37*
M02*
