G04 #@! TF.GenerationSoftware,KiCad,Pcbnew,(5.1.5-0)*
G04 #@! TF.CreationDate,2020-11-01T19:49:13+01:00*
G04 #@! TF.ProjectId,Phono preamp,50686f6e-6f20-4707-9265-616d702e6b69,rev?*
G04 #@! TF.SameCoordinates,Original*
G04 #@! TF.FileFunction,Legend,Top*
G04 #@! TF.FilePolarity,Positive*
%FSLAX46Y46*%
G04 Gerber Fmt 4.6, Leading zero omitted, Abs format (unit mm)*
G04 Created by KiCad (PCBNEW (5.1.5-0)) date 2020-11-01 19:49:13*
%MOMM*%
%LPD*%
G04 APERTURE LIST*
%ADD10C,0.150000*%
%ADD11C,0.120000*%
%ADD12C,0.100000*%
G04 APERTURE END LIST*
D10*
X203638095Y-112700000D02*
X203542857Y-112652380D01*
X203400000Y-112652380D01*
X203257142Y-112700000D01*
X203161904Y-112795238D01*
X203114285Y-112890476D01*
X203066666Y-113080952D01*
X203066666Y-113223809D01*
X203114285Y-113414285D01*
X203161904Y-113509523D01*
X203257142Y-113604761D01*
X203400000Y-113652380D01*
X203495238Y-113652380D01*
X203638095Y-113604761D01*
X203685714Y-113557142D01*
X203685714Y-113223809D01*
X203495238Y-113223809D01*
X204114285Y-113652380D02*
X204114285Y-112652380D01*
X204685714Y-113652380D01*
X204685714Y-112652380D01*
X205161904Y-113652380D02*
X205161904Y-112652380D01*
X205400000Y-112652380D01*
X205542857Y-112700000D01*
X205638095Y-112795238D01*
X205685714Y-112890476D01*
X205733333Y-113080952D01*
X205733333Y-113223809D01*
X205685714Y-113414285D01*
X205638095Y-113509523D01*
X205542857Y-113604761D01*
X205400000Y-113652380D01*
X205161904Y-113652380D01*
X203066666Y-110052380D02*
X203400000Y-111052380D01*
X203733333Y-110052380D01*
X204638095Y-110957142D02*
X204590476Y-111004761D01*
X204447619Y-111052380D01*
X204352380Y-111052380D01*
X204209523Y-111004761D01*
X204114285Y-110909523D01*
X204066666Y-110814285D01*
X204019047Y-110623809D01*
X204019047Y-110480952D01*
X204066666Y-110290476D01*
X204114285Y-110195238D01*
X204209523Y-110100000D01*
X204352380Y-110052380D01*
X204447619Y-110052380D01*
X204590476Y-110100000D01*
X204638095Y-110147619D01*
X205638095Y-110957142D02*
X205590476Y-111004761D01*
X205447619Y-111052380D01*
X205352380Y-111052380D01*
X205209523Y-111004761D01*
X205114285Y-110909523D01*
X205066666Y-110814285D01*
X205019047Y-110623809D01*
X205019047Y-110480952D01*
X205066666Y-110290476D01*
X205114285Y-110195238D01*
X205209523Y-110100000D01*
X205352380Y-110052380D01*
X205447619Y-110052380D01*
X205590476Y-110100000D01*
X205638095Y-110147619D01*
X203114285Y-107452380D02*
X203447619Y-108452380D01*
X203780952Y-107452380D01*
X204066666Y-108404761D02*
X204209523Y-108452380D01*
X204447619Y-108452380D01*
X204542857Y-108404761D01*
X204590476Y-108357142D01*
X204638095Y-108261904D01*
X204638095Y-108166666D01*
X204590476Y-108071428D01*
X204542857Y-108023809D01*
X204447619Y-107976190D01*
X204257142Y-107928571D01*
X204161904Y-107880952D01*
X204114285Y-107833333D01*
X204066666Y-107738095D01*
X204066666Y-107642857D01*
X204114285Y-107547619D01*
X204161904Y-107500000D01*
X204257142Y-107452380D01*
X204495238Y-107452380D01*
X204638095Y-107500000D01*
X205019047Y-108404761D02*
X205161904Y-108452380D01*
X205400000Y-108452380D01*
X205495238Y-108404761D01*
X205542857Y-108357142D01*
X205590476Y-108261904D01*
X205590476Y-108166666D01*
X205542857Y-108071428D01*
X205495238Y-108023809D01*
X205400000Y-107976190D01*
X205209523Y-107928571D01*
X205114285Y-107880952D01*
X205066666Y-107833333D01*
X205019047Y-107738095D01*
X205019047Y-107642857D01*
X205066666Y-107547619D01*
X205114285Y-107500000D01*
X205209523Y-107452380D01*
X205447619Y-107452380D01*
X205590476Y-107500000D01*
D11*
X208800000Y-152000000D02*
X165400000Y-152000000D01*
X208800000Y-135630000D02*
X208800000Y-152000000D01*
X165400000Y-135630000D02*
X208800000Y-135630000D01*
X126000000Y-152000000D02*
X82600000Y-152000000D01*
X126000000Y-135630000D02*
X126000000Y-152000000D01*
X82600000Y-135630000D02*
X126000000Y-135630000D01*
D10*
X183400000Y-71877380D02*
X183971428Y-71877380D01*
X183685714Y-72877380D02*
X183685714Y-71877380D01*
X184304761Y-71877380D02*
X184304761Y-72686904D01*
X184352380Y-72782142D01*
X184400000Y-72829761D01*
X184495238Y-72877380D01*
X184685714Y-72877380D01*
X184780952Y-72829761D01*
X184828571Y-72782142D01*
X184876190Y-72686904D01*
X184876190Y-71877380D01*
X185923809Y-72877380D02*
X185590476Y-72401190D01*
X185352380Y-72877380D02*
X185352380Y-71877380D01*
X185733333Y-71877380D01*
X185828571Y-71925000D01*
X185876190Y-71972619D01*
X185923809Y-72067857D01*
X185923809Y-72210714D01*
X185876190Y-72305952D01*
X185828571Y-72353571D01*
X185733333Y-72401190D01*
X185352380Y-72401190D01*
X186352380Y-72877380D02*
X186352380Y-71877380D01*
X186923809Y-72877380D01*
X186923809Y-71877380D01*
X187257142Y-71877380D02*
X187828571Y-71877380D01*
X187542857Y-72877380D02*
X187542857Y-71877380D01*
X188114285Y-72591666D02*
X188590476Y-72591666D01*
X188019047Y-72877380D02*
X188352380Y-71877380D01*
X188685714Y-72877380D01*
X189352380Y-72353571D02*
X189495238Y-72401190D01*
X189542857Y-72448809D01*
X189590476Y-72544047D01*
X189590476Y-72686904D01*
X189542857Y-72782142D01*
X189495238Y-72829761D01*
X189400000Y-72877380D01*
X189019047Y-72877380D01*
X189019047Y-71877380D01*
X189352380Y-71877380D01*
X189447619Y-71925000D01*
X189495238Y-71972619D01*
X189542857Y-72067857D01*
X189542857Y-72163095D01*
X189495238Y-72258333D01*
X189447619Y-72305952D01*
X189352380Y-72353571D01*
X189019047Y-72353571D01*
X190495238Y-72877380D02*
X190019047Y-72877380D01*
X190019047Y-71877380D01*
X190828571Y-72353571D02*
X191161904Y-72353571D01*
X191304761Y-72877380D02*
X190828571Y-72877380D01*
X190828571Y-71877380D01*
X191304761Y-71877380D01*
X185090476Y-73575000D02*
X184995238Y-73527380D01*
X184852380Y-73527380D01*
X184709523Y-73575000D01*
X184614285Y-73670238D01*
X184566666Y-73765476D01*
X184519047Y-73955952D01*
X184519047Y-74098809D01*
X184566666Y-74289285D01*
X184614285Y-74384523D01*
X184709523Y-74479761D01*
X184852380Y-74527380D01*
X184947619Y-74527380D01*
X185090476Y-74479761D01*
X185138095Y-74432142D01*
X185138095Y-74098809D01*
X184947619Y-74098809D01*
X186138095Y-74527380D02*
X185804761Y-74051190D01*
X185566666Y-74527380D02*
X185566666Y-73527380D01*
X185947619Y-73527380D01*
X186042857Y-73575000D01*
X186090476Y-73622619D01*
X186138095Y-73717857D01*
X186138095Y-73860714D01*
X186090476Y-73955952D01*
X186042857Y-74003571D01*
X185947619Y-74051190D01*
X185566666Y-74051190D01*
X186757142Y-73527380D02*
X186947619Y-73527380D01*
X187042857Y-73575000D01*
X187138095Y-73670238D01*
X187185714Y-73860714D01*
X187185714Y-74194047D01*
X187138095Y-74384523D01*
X187042857Y-74479761D01*
X186947619Y-74527380D01*
X186757142Y-74527380D01*
X186661904Y-74479761D01*
X186566666Y-74384523D01*
X186519047Y-74194047D01*
X186519047Y-73860714D01*
X186566666Y-73670238D01*
X186661904Y-73575000D01*
X186757142Y-73527380D01*
X187614285Y-73527380D02*
X187614285Y-74336904D01*
X187661904Y-74432142D01*
X187709523Y-74479761D01*
X187804761Y-74527380D01*
X187995238Y-74527380D01*
X188090476Y-74479761D01*
X188138095Y-74432142D01*
X188185714Y-74336904D01*
X188185714Y-73527380D01*
X188661904Y-74527380D02*
X188661904Y-73527380D01*
X189233333Y-74527380D01*
X189233333Y-73527380D01*
X189709523Y-74527380D02*
X189709523Y-73527380D01*
X189947619Y-73527380D01*
X190090476Y-73575000D01*
X190185714Y-73670238D01*
X190233333Y-73765476D01*
X190280952Y-73955952D01*
X190280952Y-74098809D01*
X190233333Y-74289285D01*
X190185714Y-74384523D01*
X190090476Y-74479761D01*
X189947619Y-74527380D01*
X189709523Y-74527380D01*
X179569166Y-159627380D02*
X179569166Y-158627380D01*
X179950119Y-158627380D01*
X180045357Y-158675000D01*
X180092976Y-158722619D01*
X180140595Y-158817857D01*
X180140595Y-158960714D01*
X180092976Y-159055952D01*
X180045357Y-159103571D01*
X179950119Y-159151190D01*
X179569166Y-159151190D01*
X180569166Y-159627380D02*
X180569166Y-158627380D01*
X180997738Y-159627380D02*
X180997738Y-159103571D01*
X180950119Y-159008333D01*
X180854880Y-158960714D01*
X180712023Y-158960714D01*
X180616785Y-159008333D01*
X180569166Y-159055952D01*
X181616785Y-159627380D02*
X181521547Y-159579761D01*
X181473928Y-159532142D01*
X181426309Y-159436904D01*
X181426309Y-159151190D01*
X181473928Y-159055952D01*
X181521547Y-159008333D01*
X181616785Y-158960714D01*
X181759642Y-158960714D01*
X181854880Y-159008333D01*
X181902500Y-159055952D01*
X181950119Y-159151190D01*
X181950119Y-159436904D01*
X181902500Y-159532142D01*
X181854880Y-159579761D01*
X181759642Y-159627380D01*
X181616785Y-159627380D01*
X182378690Y-158960714D02*
X182378690Y-159627380D01*
X182378690Y-159055952D02*
X182426309Y-159008333D01*
X182521547Y-158960714D01*
X182664404Y-158960714D01*
X182759642Y-159008333D01*
X182807261Y-159103571D01*
X182807261Y-159627380D01*
X183426309Y-159627380D02*
X183331071Y-159579761D01*
X183283452Y-159532142D01*
X183235833Y-159436904D01*
X183235833Y-159151190D01*
X183283452Y-159055952D01*
X183331071Y-159008333D01*
X183426309Y-158960714D01*
X183569166Y-158960714D01*
X183664404Y-159008333D01*
X183712023Y-159055952D01*
X183759642Y-159151190D01*
X183759642Y-159436904D01*
X183712023Y-159532142D01*
X183664404Y-159579761D01*
X183569166Y-159627380D01*
X183426309Y-159627380D01*
X184950119Y-158960714D02*
X184950119Y-159960714D01*
X184950119Y-159008333D02*
X185045357Y-158960714D01*
X185235833Y-158960714D01*
X185331071Y-159008333D01*
X185378690Y-159055952D01*
X185426309Y-159151190D01*
X185426309Y-159436904D01*
X185378690Y-159532142D01*
X185331071Y-159579761D01*
X185235833Y-159627380D01*
X185045357Y-159627380D01*
X184950119Y-159579761D01*
X185854880Y-159627380D02*
X185854880Y-158960714D01*
X185854880Y-159151190D02*
X185902500Y-159055952D01*
X185950119Y-159008333D01*
X186045357Y-158960714D01*
X186140595Y-158960714D01*
X186854880Y-159579761D02*
X186759642Y-159627380D01*
X186569166Y-159627380D01*
X186473928Y-159579761D01*
X186426309Y-159484523D01*
X186426309Y-159103571D01*
X186473928Y-159008333D01*
X186569166Y-158960714D01*
X186759642Y-158960714D01*
X186854880Y-159008333D01*
X186902500Y-159103571D01*
X186902500Y-159198809D01*
X186426309Y-159294047D01*
X187759642Y-159627380D02*
X187759642Y-159103571D01*
X187712023Y-159008333D01*
X187616785Y-158960714D01*
X187426309Y-158960714D01*
X187331071Y-159008333D01*
X187759642Y-159579761D02*
X187664404Y-159627380D01*
X187426309Y-159627380D01*
X187331071Y-159579761D01*
X187283452Y-159484523D01*
X187283452Y-159389285D01*
X187331071Y-159294047D01*
X187426309Y-159246428D01*
X187664404Y-159246428D01*
X187759642Y-159198809D01*
X188235833Y-159627380D02*
X188235833Y-158960714D01*
X188235833Y-159055952D02*
X188283452Y-159008333D01*
X188378690Y-158960714D01*
X188521547Y-158960714D01*
X188616785Y-159008333D01*
X188664404Y-159103571D01*
X188664404Y-159627380D01*
X188664404Y-159103571D02*
X188712023Y-159008333D01*
X188807261Y-158960714D01*
X188950119Y-158960714D01*
X189045357Y-159008333D01*
X189092976Y-159103571D01*
X189092976Y-159627380D01*
X189569166Y-158960714D02*
X189569166Y-159960714D01*
X189569166Y-159008333D02*
X189664404Y-158960714D01*
X189854880Y-158960714D01*
X189950119Y-159008333D01*
X189997738Y-159055952D01*
X190045357Y-159151190D01*
X190045357Y-159436904D01*
X189997738Y-159532142D01*
X189950119Y-159579761D01*
X189854880Y-159627380D01*
X189664404Y-159627380D01*
X189569166Y-159579761D01*
X191473928Y-158960714D02*
X191188214Y-159246428D01*
X191473928Y-159532142D01*
X191759642Y-159436904D02*
X191569166Y-159246428D01*
X191759642Y-159055952D01*
X192188214Y-159627380D02*
X192188214Y-158627380D01*
X192521547Y-159341666D01*
X192854880Y-158627380D01*
X192854880Y-159627380D01*
X193283452Y-159341666D02*
X193759642Y-159341666D01*
X193188214Y-159627380D02*
X193521547Y-158627380D01*
X193854880Y-159627380D01*
X194188214Y-159627380D02*
X194188214Y-158627380D01*
X194569166Y-158627380D01*
X194664404Y-158675000D01*
X194712023Y-158722619D01*
X194759642Y-158817857D01*
X194759642Y-158960714D01*
X194712023Y-159055952D01*
X194664404Y-159103571D01*
X194569166Y-159151190D01*
X194188214Y-159151190D01*
X195188214Y-158627380D02*
X195188214Y-159627380D01*
X195759642Y-158627380D01*
X195759642Y-159627380D01*
X196521547Y-159151190D02*
X196188214Y-159627380D01*
X196759642Y-159627380D02*
X196759642Y-158627380D01*
X196378690Y-158627380D01*
X196283452Y-158675000D01*
X196235833Y-158722619D01*
X196188214Y-158817857D01*
X196188214Y-158960714D01*
X196235833Y-159055952D01*
X196283452Y-159103571D01*
X196378690Y-159151190D01*
X196759642Y-159151190D01*
X197473928Y-158960714D02*
X197759642Y-159246428D01*
X197473928Y-159532142D01*
X197188214Y-159436904D02*
X197378690Y-159246428D01*
X197188214Y-159055952D01*
X198854880Y-158960714D02*
X199092976Y-159627380D01*
X199331071Y-158960714D01*
X199712023Y-159532142D02*
X199759642Y-159579761D01*
X199712023Y-159627380D01*
X199664404Y-159579761D01*
X199712023Y-159532142D01*
X199712023Y-159627380D01*
X200712023Y-159627380D02*
X200140595Y-159627380D01*
X200426309Y-159627380D02*
X200426309Y-158627380D01*
X200331071Y-158770238D01*
X200235833Y-158865476D01*
X200140595Y-158913095D01*
X177712023Y-161277380D02*
X177712023Y-160753571D01*
X177664404Y-160658333D01*
X177569166Y-160610714D01*
X177378690Y-160610714D01*
X177283452Y-160658333D01*
X177712023Y-161229761D02*
X177616785Y-161277380D01*
X177378690Y-161277380D01*
X177283452Y-161229761D01*
X177235833Y-161134523D01*
X177235833Y-161039285D01*
X177283452Y-160944047D01*
X177378690Y-160896428D01*
X177616785Y-160896428D01*
X177712023Y-160848809D01*
X178331071Y-161277380D02*
X178235833Y-161229761D01*
X178188214Y-161134523D01*
X178188214Y-160277380D01*
X179092976Y-161229761D02*
X178997738Y-161277380D01*
X178807261Y-161277380D01*
X178712023Y-161229761D01*
X178664404Y-161134523D01*
X178664404Y-160753571D01*
X178712023Y-160658333D01*
X178807261Y-160610714D01*
X178997738Y-160610714D01*
X179092976Y-160658333D01*
X179140595Y-160753571D01*
X179140595Y-160848809D01*
X178664404Y-160944047D01*
X179473928Y-161277380D02*
X179997738Y-160610714D01*
X179473928Y-160610714D02*
X179997738Y-161277380D01*
X180997738Y-160801190D02*
X180950119Y-160753571D01*
X180854880Y-160705952D01*
X180759642Y-160705952D01*
X180664404Y-160753571D01*
X180616785Y-160801190D01*
X180569166Y-160896428D01*
X180569166Y-160991666D01*
X180616785Y-161086904D01*
X180664404Y-161134523D01*
X180759642Y-161182142D01*
X180854880Y-161182142D01*
X180950119Y-161134523D01*
X180997738Y-161086904D01*
X180997738Y-160705952D02*
X180997738Y-161086904D01*
X181045357Y-161134523D01*
X181092976Y-161134523D01*
X181188214Y-161086904D01*
X181235833Y-160991666D01*
X181235833Y-160753571D01*
X181140595Y-160610714D01*
X180997738Y-160515476D01*
X180807261Y-160467857D01*
X180616785Y-160515476D01*
X180473928Y-160610714D01*
X180378690Y-160753571D01*
X180331071Y-160944047D01*
X180378690Y-161134523D01*
X180473928Y-161277380D01*
X180616785Y-161372619D01*
X180807261Y-161420238D01*
X180997738Y-161372619D01*
X181140595Y-161277380D01*
X181616785Y-161229761D02*
X181712023Y-161277380D01*
X181902500Y-161277380D01*
X181997738Y-161229761D01*
X182045357Y-161134523D01*
X182045357Y-161086904D01*
X181997738Y-160991666D01*
X181902500Y-160944047D01*
X181759642Y-160944047D01*
X181664404Y-160896428D01*
X181616785Y-160801190D01*
X181616785Y-160753571D01*
X181664404Y-160658333D01*
X181759642Y-160610714D01*
X181902500Y-160610714D01*
X181997738Y-160658333D01*
X182473928Y-161277380D02*
X182473928Y-160610714D01*
X182473928Y-160277380D02*
X182426309Y-160325000D01*
X182473928Y-160372619D01*
X182521547Y-160325000D01*
X182473928Y-160277380D01*
X182473928Y-160372619D01*
X182950119Y-161277380D02*
X182950119Y-160277380D01*
X182950119Y-160658333D02*
X183045357Y-160610714D01*
X183235833Y-160610714D01*
X183331071Y-160658333D01*
X183378690Y-160705952D01*
X183426309Y-160801190D01*
X183426309Y-161086904D01*
X183378690Y-161182142D01*
X183331071Y-161229761D01*
X183235833Y-161277380D01*
X183045357Y-161277380D01*
X182950119Y-161229761D01*
X183854880Y-161277380D02*
X183854880Y-160610714D01*
X183854880Y-160277380D02*
X183807261Y-160325000D01*
X183854880Y-160372619D01*
X183902500Y-160325000D01*
X183854880Y-160277380D01*
X183854880Y-160372619D01*
X184331071Y-161277380D02*
X184331071Y-160610714D01*
X184331071Y-160801190D02*
X184378690Y-160705952D01*
X184426309Y-160658333D01*
X184521547Y-160610714D01*
X184616785Y-160610714D01*
X184854880Y-160610714D02*
X185092976Y-161277380D01*
X185331071Y-160610714D02*
X185092976Y-161277380D01*
X184997738Y-161515476D01*
X184950119Y-161563095D01*
X184854880Y-161610714D01*
X186140595Y-161277380D02*
X186140595Y-160753571D01*
X186092976Y-160658333D01*
X185997738Y-160610714D01*
X185807261Y-160610714D01*
X185712023Y-160658333D01*
X186140595Y-161229761D02*
X186045357Y-161277380D01*
X185807261Y-161277380D01*
X185712023Y-161229761D01*
X185664404Y-161134523D01*
X185664404Y-161039285D01*
X185712023Y-160944047D01*
X185807261Y-160896428D01*
X186045357Y-160896428D01*
X186140595Y-160848809D01*
X186616785Y-161277380D02*
X186616785Y-160277380D01*
X186712023Y-160896428D02*
X186997738Y-161277380D01*
X186997738Y-160610714D02*
X186616785Y-160991666D01*
X187569166Y-161277380D02*
X187473928Y-161229761D01*
X187426309Y-161182142D01*
X187378690Y-161086904D01*
X187378690Y-160801190D01*
X187426309Y-160705952D01*
X187473928Y-160658333D01*
X187569166Y-160610714D01*
X187712023Y-160610714D01*
X187807261Y-160658333D01*
X187854880Y-160705952D01*
X187902500Y-160801190D01*
X187902500Y-161086904D01*
X187854880Y-161182142D01*
X187807261Y-161229761D01*
X187712023Y-161277380D01*
X187569166Y-161277380D01*
X188235833Y-160610714D02*
X188473928Y-161277380D01*
X188712023Y-160610714D01*
X189092976Y-161182142D02*
X189140595Y-161229761D01*
X189092976Y-161277380D01*
X189045357Y-161229761D01*
X189092976Y-161182142D01*
X189092976Y-161277380D01*
X189950119Y-161229761D02*
X189854880Y-161277380D01*
X189664404Y-161277380D01*
X189569166Y-161229761D01*
X189521547Y-161134523D01*
X189521547Y-160753571D01*
X189569166Y-160658333D01*
X189664404Y-160610714D01*
X189854880Y-160610714D01*
X189950119Y-160658333D01*
X189997738Y-160753571D01*
X189997738Y-160848809D01*
X189521547Y-160944047D01*
X190854880Y-160610714D02*
X190854880Y-161277380D01*
X190426309Y-160610714D02*
X190426309Y-161134523D01*
X190473928Y-161229761D01*
X190569166Y-161277380D01*
X190712023Y-161277380D01*
X190807261Y-161229761D01*
X190854880Y-161182142D01*
X191378690Y-161229761D02*
X191378690Y-161277380D01*
X191331071Y-161372619D01*
X191283452Y-161420238D01*
X192521547Y-160372619D02*
X192569166Y-160325000D01*
X192664404Y-160277380D01*
X192902500Y-160277380D01*
X192997738Y-160325000D01*
X193045357Y-160372619D01*
X193092976Y-160467857D01*
X193092976Y-160563095D01*
X193045357Y-160705952D01*
X192473928Y-161277380D01*
X193092976Y-161277380D01*
X193950119Y-160277380D02*
X193759642Y-160277380D01*
X193664404Y-160325000D01*
X193616785Y-160372619D01*
X193521547Y-160515476D01*
X193473928Y-160705952D01*
X193473928Y-161086904D01*
X193521547Y-161182142D01*
X193569166Y-161229761D01*
X193664404Y-161277380D01*
X193854880Y-161277380D01*
X193950119Y-161229761D01*
X193997738Y-161182142D01*
X194045357Y-161086904D01*
X194045357Y-160848809D01*
X193997738Y-160753571D01*
X193950119Y-160705952D01*
X193854880Y-160658333D01*
X193664404Y-160658333D01*
X193569166Y-160705952D01*
X193521547Y-160753571D01*
X193473928Y-160848809D01*
X194473928Y-161182142D02*
X194521547Y-161229761D01*
X194473928Y-161277380D01*
X194426309Y-161229761D01*
X194473928Y-161182142D01*
X194473928Y-161277380D01*
X195473928Y-161277380D02*
X194902500Y-161277380D01*
X195188214Y-161277380D02*
X195188214Y-160277380D01*
X195092976Y-160420238D01*
X194997738Y-160515476D01*
X194902500Y-160563095D01*
X196092976Y-160277380D02*
X196188214Y-160277380D01*
X196283452Y-160325000D01*
X196331071Y-160372619D01*
X196378690Y-160467857D01*
X196426309Y-160658333D01*
X196426309Y-160896428D01*
X196378690Y-161086904D01*
X196331071Y-161182142D01*
X196283452Y-161229761D01*
X196188214Y-161277380D01*
X196092976Y-161277380D01*
X195997738Y-161229761D01*
X195950119Y-161182142D01*
X195902500Y-161086904D01*
X195854880Y-160896428D01*
X195854880Y-160658333D01*
X195902500Y-160467857D01*
X195950119Y-160372619D01*
X195997738Y-160325000D01*
X196092976Y-160277380D01*
X196854880Y-161182142D02*
X196902500Y-161229761D01*
X196854880Y-161277380D01*
X196807261Y-161229761D01*
X196854880Y-161182142D01*
X196854880Y-161277380D01*
X197283452Y-160372619D02*
X197331071Y-160325000D01*
X197426309Y-160277380D01*
X197664404Y-160277380D01*
X197759642Y-160325000D01*
X197807261Y-160372619D01*
X197854880Y-160467857D01*
X197854880Y-160563095D01*
X197807261Y-160705952D01*
X197235833Y-161277380D01*
X197854880Y-161277380D01*
X198473928Y-160277380D02*
X198569166Y-160277380D01*
X198664404Y-160325000D01*
X198712023Y-160372619D01*
X198759642Y-160467857D01*
X198807261Y-160658333D01*
X198807261Y-160896428D01*
X198759642Y-161086904D01*
X198712023Y-161182142D01*
X198664404Y-161229761D01*
X198569166Y-161277380D01*
X198473928Y-161277380D01*
X198378690Y-161229761D01*
X198331071Y-161182142D01*
X198283452Y-161086904D01*
X198235833Y-160896428D01*
X198235833Y-160658333D01*
X198283452Y-160467857D01*
X198331071Y-160372619D01*
X198378690Y-160325000D01*
X198473928Y-160277380D01*
X199188214Y-160372619D02*
X199235833Y-160325000D01*
X199331071Y-160277380D01*
X199569166Y-160277380D01*
X199664404Y-160325000D01*
X199712023Y-160372619D01*
X199759642Y-160467857D01*
X199759642Y-160563095D01*
X199712023Y-160705952D01*
X199140595Y-161277380D01*
X199759642Y-161277380D01*
X200378690Y-160277380D02*
X200473928Y-160277380D01*
X200569166Y-160325000D01*
X200616785Y-160372619D01*
X200664404Y-160467857D01*
X200712023Y-160658333D01*
X200712023Y-160896428D01*
X200664404Y-161086904D01*
X200616785Y-161182142D01*
X200569166Y-161229761D01*
X200473928Y-161277380D01*
X200378690Y-161277380D01*
X200283452Y-161229761D01*
X200235833Y-161182142D01*
X200188214Y-161086904D01*
X200140595Y-160896428D01*
X200140595Y-160658333D01*
X200188214Y-160467857D01*
X200235833Y-160372619D01*
X200283452Y-160325000D01*
X200378690Y-160277380D01*
D12*
G36*
X174800000Y-95100000D02*
G01*
X174200000Y-95100000D01*
X174200000Y-94500000D01*
X174800000Y-94500000D01*
X174800000Y-95100000D01*
G37*
X174800000Y-95100000D02*
X174200000Y-95100000D01*
X174200000Y-94500000D01*
X174800000Y-94500000D01*
X174800000Y-95100000D01*
G36*
X115100000Y-76000000D02*
G01*
X114500000Y-76000000D01*
X114500000Y-75400000D01*
X115100000Y-75400000D01*
X115100000Y-76000000D01*
G37*
X115100000Y-76000000D02*
X114500000Y-76000000D01*
X114500000Y-75400000D01*
X115100000Y-75400000D01*
X115100000Y-76000000D01*
G36*
X75200000Y-95300000D02*
G01*
X74600000Y-95300000D01*
X74600000Y-94700000D01*
X75200000Y-94700000D01*
X75200000Y-95300000D01*
G37*
X75200000Y-95300000D02*
X74600000Y-95300000D01*
X74600000Y-94700000D01*
X75200000Y-94700000D01*
X75200000Y-95300000D01*
G36*
X120400000Y-121100000D02*
G01*
X119800000Y-121100000D01*
X119800000Y-120500000D01*
X120400000Y-120500000D01*
X120400000Y-121100000D01*
G37*
X120400000Y-121100000D02*
X119800000Y-121100000D01*
X119800000Y-120500000D01*
X120400000Y-120500000D01*
X120400000Y-121100000D01*
D10*
X71178571Y-145007142D02*
X71178571Y-144721428D01*
X71250000Y-144578571D01*
X71392857Y-144435714D01*
X71678571Y-144364285D01*
X72178571Y-144364285D01*
X72464285Y-144435714D01*
X72607142Y-144578571D01*
X72678571Y-144721428D01*
X72678571Y-145007142D01*
X72607142Y-145150000D01*
X72464285Y-145292857D01*
X72178571Y-145364285D01*
X71678571Y-145364285D01*
X71392857Y-145292857D01*
X71250000Y-145150000D01*
X71178571Y-145007142D01*
X71178571Y-143721428D02*
X72392857Y-143721428D01*
X72535714Y-143650000D01*
X72607142Y-143578571D01*
X72678571Y-143435714D01*
X72678571Y-143150000D01*
X72607142Y-143007142D01*
X72535714Y-142935714D01*
X72392857Y-142864285D01*
X71178571Y-142864285D01*
X71178571Y-142364285D02*
X71178571Y-141507142D01*
X72678571Y-141935714D02*
X71178571Y-141935714D01*
X72678571Y-141007142D02*
X71178571Y-141007142D01*
X71178571Y-140435714D01*
X71250000Y-140292857D01*
X71321428Y-140221428D01*
X71464285Y-140150000D01*
X71678571Y-140150000D01*
X71821428Y-140221428D01*
X71892857Y-140292857D01*
X71964285Y-140435714D01*
X71964285Y-141007142D01*
X71178571Y-139507142D02*
X72392857Y-139507142D01*
X72535714Y-139435714D01*
X72607142Y-139364285D01*
X72678571Y-139221428D01*
X72678571Y-138935714D01*
X72607142Y-138792857D01*
X72535714Y-138721428D01*
X72392857Y-138650000D01*
X71178571Y-138650000D01*
X71178571Y-138150000D02*
X71178571Y-137292857D01*
X72678571Y-137721428D02*
X71178571Y-137721428D01*
X72978571Y-82892857D02*
X71478571Y-82892857D01*
X72978571Y-82178571D02*
X71478571Y-82178571D01*
X72978571Y-81321428D01*
X71478571Y-81321428D01*
X72978571Y-80607142D02*
X71478571Y-80607142D01*
X71478571Y-80035714D01*
X71550000Y-79892857D01*
X71621428Y-79821428D01*
X71764285Y-79750000D01*
X71978571Y-79750000D01*
X72121428Y-79821428D01*
X72192857Y-79892857D01*
X72264285Y-80035714D01*
X72264285Y-80607142D01*
X71478571Y-79107142D02*
X72692857Y-79107142D01*
X72835714Y-79035714D01*
X72907142Y-78964285D01*
X72978571Y-78821428D01*
X72978571Y-78535714D01*
X72907142Y-78392857D01*
X72835714Y-78321428D01*
X72692857Y-78250000D01*
X71478571Y-78250000D01*
X71478571Y-77750000D02*
X71478571Y-76892857D01*
X72978571Y-77321428D02*
X71478571Y-77321428D01*
D11*
X202230000Y-114380000D02*
X200900000Y-114380000D01*
X202230000Y-113050000D02*
X202230000Y-114380000D01*
X202230000Y-111780000D02*
X199570000Y-111780000D01*
X199570000Y-111780000D02*
X199570000Y-106640000D01*
X202230000Y-111780000D02*
X202230000Y-106640000D01*
X202230000Y-106640000D02*
X199570000Y-106640000D01*
X185900000Y-78600000D02*
X188900000Y-78600000D01*
X185900000Y-75750000D02*
X185900000Y-78600000D01*
X188900000Y-75750000D02*
X188900000Y-78600000D01*
X185900000Y-75750000D02*
X188900000Y-75750000D01*
X178700000Y-94190000D02*
X175250000Y-94190000D01*
X178700000Y-94190000D02*
X180650000Y-94190000D01*
X178700000Y-99310000D02*
X176750000Y-99310000D01*
X178700000Y-99310000D02*
X180650000Y-99310000D01*
X114060000Y-79000000D02*
X114060000Y-75550000D01*
X114060000Y-79000000D02*
X114060000Y-80950000D01*
X108940000Y-79000000D02*
X108940000Y-77050000D01*
X108940000Y-79000000D02*
X108940000Y-80950000D01*
X124500000Y-120190000D02*
X121050000Y-120190000D01*
X124500000Y-120190000D02*
X126450000Y-120190000D01*
X124500000Y-125310000D02*
X122550000Y-125310000D01*
X124500000Y-125310000D02*
X126450000Y-125310000D01*
X129947936Y-87810000D02*
X131152064Y-87810000D01*
X129947936Y-85990000D02*
X131152064Y-85990000D01*
X81910000Y-98002064D02*
X81910000Y-96797936D01*
X80090000Y-98002064D02*
X80090000Y-96797936D01*
X129947936Y-85310000D02*
X131152064Y-85310000D01*
X129947936Y-83490000D02*
X131152064Y-83490000D01*
X79410000Y-98002064D02*
X79410000Y-96797936D01*
X77590000Y-98002064D02*
X77590000Y-96797936D01*
X129947936Y-82810000D02*
X131152064Y-82810000D01*
X129947936Y-80990000D02*
X131152064Y-80990000D01*
X84410000Y-98002064D02*
X84410000Y-96797936D01*
X82590000Y-98002064D02*
X82590000Y-96797936D01*
X143797936Y-78410000D02*
X145002064Y-78410000D01*
X143797936Y-76590000D02*
X145002064Y-76590000D01*
X114347936Y-112510000D02*
X115552064Y-112510000D01*
X114347936Y-110690000D02*
X115552064Y-110690000D01*
X143797936Y-75910000D02*
X145002064Y-75910000D01*
X143797936Y-74090000D02*
X145002064Y-74090000D01*
X114347936Y-110110000D02*
X115552064Y-110110000D01*
X114347936Y-108290000D02*
X115552064Y-108290000D01*
X143797936Y-73410000D02*
X145002064Y-73410000D01*
X143797936Y-71590000D02*
X145002064Y-71590000D01*
X114347936Y-107710000D02*
X115552064Y-107710000D01*
X114347936Y-105890000D02*
X115552064Y-105890000D01*
X137510000Y-78202064D02*
X137510000Y-76997936D01*
X135690000Y-78202064D02*
X135690000Y-76997936D01*
X107710000Y-98252064D02*
X107710000Y-97047936D01*
X105890000Y-98252064D02*
X105890000Y-97047936D01*
X135160000Y-78202064D02*
X135160000Y-76997936D01*
X133340000Y-78202064D02*
X133340000Y-76997936D01*
X105310000Y-98252064D02*
X105310000Y-97047936D01*
X103490000Y-98252064D02*
X103490000Y-97047936D01*
X130990000Y-76997936D02*
X130990000Y-78202064D01*
X132810000Y-76997936D02*
X132810000Y-78202064D01*
X101090000Y-96997936D02*
X101090000Y-98202064D01*
X102910000Y-96997936D02*
X102910000Y-98202064D01*
X145002064Y-85740000D02*
X143797936Y-85740000D01*
X145002064Y-87560000D02*
X143797936Y-87560000D01*
X94390000Y-96997936D02*
X94390000Y-98202064D01*
X96210000Y-96997936D02*
X96210000Y-98202064D01*
X145002064Y-83340000D02*
X143797936Y-83340000D01*
X145002064Y-85160000D02*
X143797936Y-85160000D01*
X91990000Y-96997936D02*
X91990000Y-98202064D01*
X93810000Y-96997936D02*
X93810000Y-98202064D01*
X145002064Y-80940000D02*
X143797936Y-80940000D01*
X145002064Y-82760000D02*
X143797936Y-82760000D01*
X89590000Y-96997936D02*
X89590000Y-98202064D01*
X91410000Y-96997936D02*
X91410000Y-98202064D01*
X151210000Y-142952064D02*
X151210000Y-141747936D01*
X149390000Y-142952064D02*
X149390000Y-141747936D01*
X151210000Y-138152064D02*
X151210000Y-136947936D01*
X149390000Y-138152064D02*
X149390000Y-136947936D01*
X146890000Y-136947936D02*
X146890000Y-138152064D01*
X148710000Y-136947936D02*
X148710000Y-138152064D01*
X148710000Y-142952064D02*
X148710000Y-141747936D01*
X146890000Y-142952064D02*
X146890000Y-141747936D01*
X142902064Y-140490000D02*
X141697936Y-140490000D01*
X142902064Y-142310000D02*
X141697936Y-142310000D01*
X167840000Y-102547936D02*
X167840000Y-103752064D01*
X169660000Y-102547936D02*
X169660000Y-103752064D01*
X167160000Y-103752064D02*
X167160000Y-102547936D01*
X165340000Y-103752064D02*
X165340000Y-102547936D01*
X164660000Y-103752064D02*
X164660000Y-102547936D01*
X162840000Y-103752064D02*
X162840000Y-102547936D01*
X169660000Y-108502064D02*
X169660000Y-107297936D01*
X167840000Y-108502064D02*
X167840000Y-107297936D01*
X165340000Y-107297936D02*
X165340000Y-108502064D01*
X167160000Y-107297936D02*
X167160000Y-108502064D01*
X162840000Y-107297936D02*
X162840000Y-108502064D01*
X164660000Y-107297936D02*
X164660000Y-108502064D01*
X172840000Y-110297936D02*
X172840000Y-111502064D01*
X174660000Y-110297936D02*
X174660000Y-111502064D01*
X164227936Y-91910000D02*
X165432064Y-91910000D01*
X164227936Y-90090000D02*
X165432064Y-90090000D01*
X124952064Y-110340000D02*
X123747936Y-110340000D01*
X124952064Y-112160000D02*
X123747936Y-112160000D01*
X111660000Y-70352064D02*
X111660000Y-69147936D01*
X109840000Y-70352064D02*
X109840000Y-69147936D01*
X74810000Y-72002064D02*
X74810000Y-70797936D01*
X72990000Y-72002064D02*
X72990000Y-70797936D01*
X77310000Y-72002064D02*
X77310000Y-70797936D01*
X75490000Y-72002064D02*
X75490000Y-70797936D01*
X130797936Y-140810000D02*
X132002064Y-140810000D01*
X130797936Y-138990000D02*
X132002064Y-138990000D01*
X130797936Y-148310000D02*
X132002064Y-148310000D01*
X130797936Y-146490000D02*
X132002064Y-146490000D01*
X130797936Y-143310000D02*
X132002064Y-143310000D01*
X130797936Y-141490000D02*
X132002064Y-141490000D01*
X130797936Y-145810000D02*
X132002064Y-145810000D01*
X130797936Y-143990000D02*
X132002064Y-143990000D01*
X138697936Y-150510000D02*
X139902064Y-150510000D01*
X138697936Y-148690000D02*
X139902064Y-148690000D01*
X110160000Y-123952064D02*
X110160000Y-122747936D01*
X108340000Y-123952064D02*
X108340000Y-122747936D01*
X113340000Y-122747936D02*
X113340000Y-123952064D01*
X115160000Y-122747936D02*
X115160000Y-123952064D01*
X110840000Y-122747936D02*
X110840000Y-123952064D01*
X112660000Y-122747936D02*
X112660000Y-123952064D01*
X104340000Y-122747936D02*
X104340000Y-123952064D01*
X106160000Y-122747936D02*
X106160000Y-123952064D01*
X103660000Y-123952064D02*
X103660000Y-122747936D01*
X101840000Y-123952064D02*
X101840000Y-122747936D01*
X101160000Y-123952064D02*
X101160000Y-122747936D01*
X99340000Y-123952064D02*
X99340000Y-122747936D01*
X110660000Y-117102064D02*
X110660000Y-115897936D01*
X108840000Y-117102064D02*
X108840000Y-115897936D01*
X112497936Y-133660000D02*
X113702064Y-133660000D01*
X112497936Y-131840000D02*
X113702064Y-131840000D01*
X78497936Y-107910000D02*
X79702064Y-107910000D01*
X78497936Y-106090000D02*
X79702064Y-106090000D01*
X78410000Y-89202064D02*
X78410000Y-87997936D01*
X76590000Y-89202064D02*
X76590000Y-87997936D01*
X73410000Y-89202064D02*
X73410000Y-87997936D01*
X71590000Y-89202064D02*
X71590000Y-87997936D01*
X75910000Y-89202064D02*
X75910000Y-87997936D01*
X74090000Y-89202064D02*
X74090000Y-87997936D01*
X124710000Y-74058578D02*
X124710000Y-73541422D01*
X123290000Y-74058578D02*
X123290000Y-73541422D01*
X102690000Y-107003922D02*
X102690000Y-107521078D01*
X104110000Y-107003922D02*
X104110000Y-107521078D01*
X122710000Y-74071078D02*
X122710000Y-73553922D01*
X121290000Y-74071078D02*
X121290000Y-73553922D01*
X100690000Y-107003922D02*
X100690000Y-107521078D01*
X102110000Y-107003922D02*
X102110000Y-107521078D01*
X119290000Y-73541422D02*
X119290000Y-74058578D01*
X120710000Y-73541422D02*
X120710000Y-74058578D01*
X100110000Y-107508578D02*
X100110000Y-106991422D01*
X98690000Y-107508578D02*
X98690000Y-106991422D01*
X126710000Y-78696078D02*
X126710000Y-78178922D01*
X125290000Y-78696078D02*
X125290000Y-78178922D01*
X110228922Y-105810000D02*
X110746078Y-105810000D01*
X110228922Y-104390000D02*
X110746078Y-104390000D01*
X124710000Y-78696078D02*
X124710000Y-78178922D01*
X123290000Y-78696078D02*
X123290000Y-78178922D01*
X110228922Y-103810000D02*
X110746078Y-103810000D01*
X110228922Y-102390000D02*
X110746078Y-102390000D01*
X122710000Y-78696078D02*
X122710000Y-78178922D01*
X121290000Y-78696078D02*
X121290000Y-78178922D01*
X110228922Y-101810000D02*
X110746078Y-101810000D01*
X110228922Y-100390000D02*
X110746078Y-100390000D01*
X120710000Y-78696078D02*
X120710000Y-78178922D01*
X119290000Y-78696078D02*
X119290000Y-78178922D01*
X110228922Y-99810000D02*
X110746078Y-99810000D01*
X110228922Y-98390000D02*
X110746078Y-98390000D01*
X118540000Y-131678922D02*
X118540000Y-132196078D01*
X119960000Y-131678922D02*
X119960000Y-132196078D01*
X163971422Y-96460000D02*
X164488578Y-96460000D01*
X163971422Y-95040000D02*
X164488578Y-95040000D01*
X120790000Y-131678922D02*
X120790000Y-132196078D01*
X122210000Y-131678922D02*
X122210000Y-132196078D01*
X163971422Y-98710000D02*
X164488578Y-98710000D01*
X163971422Y-97290000D02*
X164488578Y-97290000D01*
X174320000Y-143750000D02*
G75*
G03X174320000Y-143750000I-8120000J0D01*
G01*
X185090000Y-96497936D02*
X185090000Y-97702064D01*
X186910000Y-96497936D02*
X186910000Y-97702064D01*
X178040000Y-109928922D02*
X178040000Y-110446078D01*
X179460000Y-109928922D02*
X179460000Y-110446078D01*
X163971422Y-94210000D02*
X164488578Y-94210000D01*
X163971422Y-92790000D02*
X164488578Y-92790000D01*
X155250000Y-92040000D02*
X155250000Y-94880000D01*
X155250000Y-109960000D02*
X155250000Y-107120000D01*
X150880000Y-94880000D02*
X150880000Y-107120000D01*
X159620000Y-94880000D02*
X150880000Y-94880000D01*
X159620000Y-107120000D02*
X159620000Y-94880000D01*
X150880000Y-107120000D02*
X159620000Y-107120000D01*
X145750000Y-109960000D02*
X145750000Y-107120000D01*
X145750000Y-92040000D02*
X145750000Y-94880000D01*
X150120000Y-107120000D02*
X150120000Y-94880000D01*
X141380000Y-107120000D02*
X150120000Y-107120000D01*
X141380000Y-94880000D02*
X141380000Y-107120000D01*
X150120000Y-94880000D02*
X141380000Y-94880000D01*
X136000000Y-92040000D02*
X136000000Y-94880000D01*
X136000000Y-109960000D02*
X136000000Y-107120000D01*
X131630000Y-94880000D02*
X131630000Y-107120000D01*
X140370000Y-94880000D02*
X131630000Y-94880000D01*
X140370000Y-107120000D02*
X140370000Y-94880000D01*
X131630000Y-107120000D02*
X140370000Y-107120000D01*
X108790000Y-86053922D02*
X108790000Y-86571078D01*
X110210000Y-86053922D02*
X110210000Y-86571078D01*
X128435241Y-104904000D02*
X128435241Y-104274000D01*
X128750241Y-104589000D02*
X128120241Y-104589000D01*
X122009000Y-103152000D02*
X122009000Y-102348000D01*
X122049000Y-103383000D02*
X122049000Y-102117000D01*
X122089000Y-103552000D02*
X122089000Y-101948000D01*
X122129000Y-103690000D02*
X122129000Y-101810000D01*
X122169000Y-103809000D02*
X122169000Y-101691000D01*
X122209000Y-103915000D02*
X122209000Y-101585000D01*
X122249000Y-104012000D02*
X122249000Y-101488000D01*
X122289000Y-104100000D02*
X122289000Y-101400000D01*
X122329000Y-104182000D02*
X122329000Y-101318000D01*
X122369000Y-104259000D02*
X122369000Y-101241000D01*
X122409000Y-104331000D02*
X122409000Y-101169000D01*
X122449000Y-104400000D02*
X122449000Y-101100000D01*
X122489000Y-104464000D02*
X122489000Y-101036000D01*
X122529000Y-104526000D02*
X122529000Y-100974000D01*
X122569000Y-104584000D02*
X122569000Y-100916000D01*
X122609000Y-104640000D02*
X122609000Y-100860000D01*
X122649000Y-104694000D02*
X122649000Y-100806000D01*
X122689000Y-104745000D02*
X122689000Y-100755000D01*
X122729000Y-104794000D02*
X122729000Y-100706000D01*
X122769000Y-104842000D02*
X122769000Y-100658000D01*
X122809000Y-104887000D02*
X122809000Y-100613000D01*
X122849000Y-104932000D02*
X122849000Y-100568000D01*
X122889000Y-104974000D02*
X122889000Y-100526000D01*
X122929000Y-105015000D02*
X122929000Y-100485000D01*
X122969000Y-101710000D02*
X122969000Y-100445000D01*
X122969000Y-105055000D02*
X122969000Y-103790000D01*
X123009000Y-101710000D02*
X123009000Y-100407000D01*
X123009000Y-105093000D02*
X123009000Y-103790000D01*
X123049000Y-101710000D02*
X123049000Y-100370000D01*
X123049000Y-105130000D02*
X123049000Y-103790000D01*
X123089000Y-101710000D02*
X123089000Y-100334000D01*
X123089000Y-105166000D02*
X123089000Y-103790000D01*
X123129000Y-101710000D02*
X123129000Y-100300000D01*
X123129000Y-105200000D02*
X123129000Y-103790000D01*
X123169000Y-101710000D02*
X123169000Y-100266000D01*
X123169000Y-105234000D02*
X123169000Y-103790000D01*
X123209000Y-101710000D02*
X123209000Y-100234000D01*
X123209000Y-105266000D02*
X123209000Y-103790000D01*
X123249000Y-101710000D02*
X123249000Y-100202000D01*
X123249000Y-105298000D02*
X123249000Y-103790000D01*
X123289000Y-101710000D02*
X123289000Y-100172000D01*
X123289000Y-105328000D02*
X123289000Y-103790000D01*
X123329000Y-101710000D02*
X123329000Y-100143000D01*
X123329000Y-105357000D02*
X123329000Y-103790000D01*
X123369000Y-101710000D02*
X123369000Y-100114000D01*
X123369000Y-105386000D02*
X123369000Y-103790000D01*
X123409000Y-101710000D02*
X123409000Y-100086000D01*
X123409000Y-105414000D02*
X123409000Y-103790000D01*
X123449000Y-101710000D02*
X123449000Y-100060000D01*
X123449000Y-105440000D02*
X123449000Y-103790000D01*
X123489000Y-101710000D02*
X123489000Y-100034000D01*
X123489000Y-105466000D02*
X123489000Y-103790000D01*
X123529000Y-101710000D02*
X123529000Y-100008000D01*
X123529000Y-105492000D02*
X123529000Y-103790000D01*
X123569000Y-101710000D02*
X123569000Y-99984000D01*
X123569000Y-105516000D02*
X123569000Y-103790000D01*
X123609000Y-101710000D02*
X123609000Y-99960000D01*
X123609000Y-105540000D02*
X123609000Y-103790000D01*
X123649000Y-101710000D02*
X123649000Y-99938000D01*
X123649000Y-105562000D02*
X123649000Y-103790000D01*
X123689000Y-101710000D02*
X123689000Y-99916000D01*
X123689000Y-105584000D02*
X123689000Y-103790000D01*
X123729000Y-101710000D02*
X123729000Y-99894000D01*
X123729000Y-105606000D02*
X123729000Y-103790000D01*
X123769000Y-101710000D02*
X123769000Y-99874000D01*
X123769000Y-105626000D02*
X123769000Y-103790000D01*
X123809000Y-101710000D02*
X123809000Y-99854000D01*
X123809000Y-105646000D02*
X123809000Y-103790000D01*
X123849000Y-101710000D02*
X123849000Y-99834000D01*
X123849000Y-105666000D02*
X123849000Y-103790000D01*
X123889000Y-101710000D02*
X123889000Y-99816000D01*
X123889000Y-105684000D02*
X123889000Y-103790000D01*
X123929000Y-101710000D02*
X123929000Y-99798000D01*
X123929000Y-105702000D02*
X123929000Y-103790000D01*
X123969000Y-101710000D02*
X123969000Y-99780000D01*
X123969000Y-105720000D02*
X123969000Y-103790000D01*
X124009000Y-101710000D02*
X124009000Y-99764000D01*
X124009000Y-105736000D02*
X124009000Y-103790000D01*
X124049000Y-101710000D02*
X124049000Y-99748000D01*
X124049000Y-105752000D02*
X124049000Y-103790000D01*
X124089000Y-101710000D02*
X124089000Y-99732000D01*
X124089000Y-105768000D02*
X124089000Y-103790000D01*
X124129000Y-101710000D02*
X124129000Y-99717000D01*
X124129000Y-105783000D02*
X124129000Y-103790000D01*
X124169000Y-101710000D02*
X124169000Y-99703000D01*
X124169000Y-105797000D02*
X124169000Y-103790000D01*
X124209000Y-101710000D02*
X124209000Y-99689000D01*
X124209000Y-105811000D02*
X124209000Y-103790000D01*
X124249000Y-101710000D02*
X124249000Y-99676000D01*
X124249000Y-105824000D02*
X124249000Y-103790000D01*
X124289000Y-101710000D02*
X124289000Y-99664000D01*
X124289000Y-105836000D02*
X124289000Y-103790000D01*
X124329000Y-101710000D02*
X124329000Y-99652000D01*
X124329000Y-105848000D02*
X124329000Y-103790000D01*
X124369000Y-101710000D02*
X124369000Y-99640000D01*
X124369000Y-105860000D02*
X124369000Y-103790000D01*
X124409000Y-101710000D02*
X124409000Y-99629000D01*
X124409000Y-105871000D02*
X124409000Y-103790000D01*
X124449000Y-101710000D02*
X124449000Y-99619000D01*
X124449000Y-105881000D02*
X124449000Y-103790000D01*
X124489000Y-101710000D02*
X124489000Y-99609000D01*
X124489000Y-105891000D02*
X124489000Y-103790000D01*
X124529000Y-101710000D02*
X124529000Y-99600000D01*
X124529000Y-105900000D02*
X124529000Y-103790000D01*
X124570000Y-101710000D02*
X124570000Y-99591000D01*
X124570000Y-105909000D02*
X124570000Y-103790000D01*
X124610000Y-101710000D02*
X124610000Y-99583000D01*
X124610000Y-105917000D02*
X124610000Y-103790000D01*
X124650000Y-101710000D02*
X124650000Y-99575000D01*
X124650000Y-105925000D02*
X124650000Y-103790000D01*
X124690000Y-101710000D02*
X124690000Y-99568000D01*
X124690000Y-105932000D02*
X124690000Y-103790000D01*
X124730000Y-101710000D02*
X124730000Y-99561000D01*
X124730000Y-105939000D02*
X124730000Y-103790000D01*
X124770000Y-101710000D02*
X124770000Y-99555000D01*
X124770000Y-105945000D02*
X124770000Y-103790000D01*
X124810000Y-101710000D02*
X124810000Y-99549000D01*
X124810000Y-105951000D02*
X124810000Y-103790000D01*
X124850000Y-101710000D02*
X124850000Y-99544000D01*
X124850000Y-105956000D02*
X124850000Y-103790000D01*
X124890000Y-101710000D02*
X124890000Y-99539000D01*
X124890000Y-105961000D02*
X124890000Y-103790000D01*
X124930000Y-101710000D02*
X124930000Y-99535000D01*
X124930000Y-105965000D02*
X124930000Y-103790000D01*
X124970000Y-101710000D02*
X124970000Y-99532000D01*
X124970000Y-105968000D02*
X124970000Y-103790000D01*
X125010000Y-101710000D02*
X125010000Y-99528000D01*
X125010000Y-105972000D02*
X125010000Y-103790000D01*
X125050000Y-105974000D02*
X125050000Y-99526000D01*
X125090000Y-105977000D02*
X125090000Y-99523000D01*
X125130000Y-105978000D02*
X125130000Y-99522000D01*
X125170000Y-105980000D02*
X125170000Y-99520000D01*
X125210000Y-105980000D02*
X125210000Y-99520000D01*
X125250000Y-105980000D02*
X125250000Y-99520000D01*
X128520000Y-102750000D02*
G75*
G03X128520000Y-102750000I-3270000J0D01*
G01*
X97509698Y-74415000D02*
X97509698Y-73615000D01*
X97909698Y-74015000D02*
X97109698Y-74015000D01*
X89419000Y-72233000D02*
X89419000Y-71167000D01*
X89459000Y-72468000D02*
X89459000Y-70932000D01*
X89499000Y-72648000D02*
X89499000Y-70752000D01*
X89539000Y-72798000D02*
X89539000Y-70602000D01*
X89579000Y-72929000D02*
X89579000Y-70471000D01*
X89619000Y-73046000D02*
X89619000Y-70354000D01*
X89659000Y-73153000D02*
X89659000Y-70247000D01*
X89699000Y-73252000D02*
X89699000Y-70148000D01*
X89739000Y-73345000D02*
X89739000Y-70055000D01*
X89779000Y-73431000D02*
X89779000Y-69969000D01*
X89819000Y-73513000D02*
X89819000Y-69887000D01*
X89859000Y-73590000D02*
X89859000Y-69810000D01*
X89899000Y-73664000D02*
X89899000Y-69736000D01*
X89939000Y-73734000D02*
X89939000Y-69666000D01*
X89979000Y-70660000D02*
X89979000Y-69598000D01*
X89979000Y-73802000D02*
X89979000Y-72740000D01*
X90019000Y-70660000D02*
X90019000Y-69534000D01*
X90019000Y-73866000D02*
X90019000Y-72740000D01*
X90059000Y-70660000D02*
X90059000Y-69472000D01*
X90059000Y-73928000D02*
X90059000Y-72740000D01*
X90099000Y-70660000D02*
X90099000Y-69413000D01*
X90099000Y-73987000D02*
X90099000Y-72740000D01*
X90139000Y-70660000D02*
X90139000Y-69355000D01*
X90139000Y-74045000D02*
X90139000Y-72740000D01*
X90179000Y-70660000D02*
X90179000Y-69300000D01*
X90179000Y-74100000D02*
X90179000Y-72740000D01*
X90219000Y-70660000D02*
X90219000Y-69246000D01*
X90219000Y-74154000D02*
X90219000Y-72740000D01*
X90259000Y-70660000D02*
X90259000Y-69195000D01*
X90259000Y-74205000D02*
X90259000Y-72740000D01*
X90299000Y-70660000D02*
X90299000Y-69144000D01*
X90299000Y-74256000D02*
X90299000Y-72740000D01*
X90339000Y-70660000D02*
X90339000Y-69096000D01*
X90339000Y-74304000D02*
X90339000Y-72740000D01*
X90379000Y-70660000D02*
X90379000Y-69049000D01*
X90379000Y-74351000D02*
X90379000Y-72740000D01*
X90419000Y-70660000D02*
X90419000Y-69003000D01*
X90419000Y-74397000D02*
X90419000Y-72740000D01*
X90459000Y-70660000D02*
X90459000Y-68959000D01*
X90459000Y-74441000D02*
X90459000Y-72740000D01*
X90499000Y-70660000D02*
X90499000Y-68916000D01*
X90499000Y-74484000D02*
X90499000Y-72740000D01*
X90539000Y-70660000D02*
X90539000Y-68874000D01*
X90539000Y-74526000D02*
X90539000Y-72740000D01*
X90579000Y-70660000D02*
X90579000Y-68833000D01*
X90579000Y-74567000D02*
X90579000Y-72740000D01*
X90619000Y-70660000D02*
X90619000Y-68793000D01*
X90619000Y-74607000D02*
X90619000Y-72740000D01*
X90659000Y-70660000D02*
X90659000Y-68755000D01*
X90659000Y-74645000D02*
X90659000Y-72740000D01*
X90699000Y-70660000D02*
X90699000Y-68717000D01*
X90699000Y-74683000D02*
X90699000Y-72740000D01*
X90739000Y-70660000D02*
X90739000Y-68681000D01*
X90739000Y-74719000D02*
X90739000Y-72740000D01*
X90779000Y-70660000D02*
X90779000Y-68645000D01*
X90779000Y-74755000D02*
X90779000Y-72740000D01*
X90819000Y-70660000D02*
X90819000Y-68610000D01*
X90819000Y-74790000D02*
X90819000Y-72740000D01*
X90859000Y-70660000D02*
X90859000Y-68576000D01*
X90859000Y-74824000D02*
X90859000Y-72740000D01*
X90899000Y-70660000D02*
X90899000Y-68544000D01*
X90899000Y-74856000D02*
X90899000Y-72740000D01*
X90939000Y-70660000D02*
X90939000Y-68511000D01*
X90939000Y-74889000D02*
X90939000Y-72740000D01*
X90979000Y-70660000D02*
X90979000Y-68480000D01*
X90979000Y-74920000D02*
X90979000Y-72740000D01*
X91019000Y-70660000D02*
X91019000Y-68450000D01*
X91019000Y-74950000D02*
X91019000Y-72740000D01*
X91059000Y-70660000D02*
X91059000Y-68420000D01*
X91059000Y-74980000D02*
X91059000Y-72740000D01*
X91099000Y-70660000D02*
X91099000Y-68391000D01*
X91099000Y-75009000D02*
X91099000Y-72740000D01*
X91139000Y-70660000D02*
X91139000Y-68362000D01*
X91139000Y-75038000D02*
X91139000Y-72740000D01*
X91179000Y-70660000D02*
X91179000Y-68335000D01*
X91179000Y-75065000D02*
X91179000Y-72740000D01*
X91219000Y-70660000D02*
X91219000Y-68308000D01*
X91219000Y-75092000D02*
X91219000Y-72740000D01*
X91259000Y-70660000D02*
X91259000Y-68282000D01*
X91259000Y-75118000D02*
X91259000Y-72740000D01*
X91299000Y-70660000D02*
X91299000Y-68256000D01*
X91299000Y-75144000D02*
X91299000Y-72740000D01*
X91339000Y-70660000D02*
X91339000Y-68231000D01*
X91339000Y-75169000D02*
X91339000Y-72740000D01*
X91379000Y-70660000D02*
X91379000Y-68207000D01*
X91379000Y-75193000D02*
X91379000Y-72740000D01*
X91419000Y-70660000D02*
X91419000Y-68183000D01*
X91419000Y-75217000D02*
X91419000Y-72740000D01*
X91459000Y-70660000D02*
X91459000Y-68160000D01*
X91459000Y-75240000D02*
X91459000Y-72740000D01*
X91499000Y-70660000D02*
X91499000Y-68138000D01*
X91499000Y-75262000D02*
X91499000Y-72740000D01*
X91539000Y-70660000D02*
X91539000Y-68116000D01*
X91539000Y-75284000D02*
X91539000Y-72740000D01*
X91579000Y-70660000D02*
X91579000Y-68094000D01*
X91579000Y-75306000D02*
X91579000Y-72740000D01*
X91619000Y-70660000D02*
X91619000Y-68073000D01*
X91619000Y-75327000D02*
X91619000Y-72740000D01*
X91659000Y-70660000D02*
X91659000Y-68053000D01*
X91659000Y-75347000D02*
X91659000Y-72740000D01*
X91699000Y-70660000D02*
X91699000Y-68034000D01*
X91699000Y-75366000D02*
X91699000Y-72740000D01*
X91739000Y-70660000D02*
X91739000Y-68014000D01*
X91739000Y-75386000D02*
X91739000Y-72740000D01*
X91779000Y-70660000D02*
X91779000Y-67996000D01*
X91779000Y-75404000D02*
X91779000Y-72740000D01*
X91819000Y-70660000D02*
X91819000Y-67978000D01*
X91819000Y-75422000D02*
X91819000Y-72740000D01*
X91859000Y-70660000D02*
X91859000Y-67960000D01*
X91859000Y-75440000D02*
X91859000Y-72740000D01*
X91899000Y-70660000D02*
X91899000Y-67943000D01*
X91899000Y-75457000D02*
X91899000Y-72740000D01*
X91939000Y-70660000D02*
X91939000Y-67926000D01*
X91939000Y-75474000D02*
X91939000Y-72740000D01*
X91979000Y-70660000D02*
X91979000Y-67910000D01*
X91979000Y-75490000D02*
X91979000Y-72740000D01*
X92019000Y-70660000D02*
X92019000Y-67895000D01*
X92019000Y-75505000D02*
X92019000Y-72740000D01*
X92059000Y-75521000D02*
X92059000Y-67879000D01*
X92099000Y-75535000D02*
X92099000Y-67865000D01*
X92139000Y-75550000D02*
X92139000Y-67850000D01*
X92179000Y-75563000D02*
X92179000Y-67837000D01*
X92219000Y-75577000D02*
X92219000Y-67823000D01*
X92259000Y-75589000D02*
X92259000Y-67811000D01*
X92299000Y-75602000D02*
X92299000Y-67798000D01*
X92339000Y-75614000D02*
X92339000Y-67786000D01*
X92379000Y-75625000D02*
X92379000Y-67775000D01*
X92419000Y-75636000D02*
X92419000Y-67764000D01*
X92459000Y-75647000D02*
X92459000Y-67753000D01*
X92499000Y-75657000D02*
X92499000Y-67743000D01*
X92539000Y-75667000D02*
X92539000Y-67733000D01*
X92579000Y-75676000D02*
X92579000Y-67724000D01*
X92619000Y-75685000D02*
X92619000Y-67715000D01*
X92659000Y-75694000D02*
X92659000Y-67706000D01*
X92699000Y-75702000D02*
X92699000Y-67698000D01*
X92739000Y-75710000D02*
X92739000Y-67690000D01*
X92779000Y-75717000D02*
X92779000Y-67683000D01*
X92820000Y-75724000D02*
X92820000Y-67676000D01*
X92860000Y-75730000D02*
X92860000Y-67670000D01*
X92900000Y-75737000D02*
X92900000Y-67663000D01*
X92940000Y-75742000D02*
X92940000Y-67658000D01*
X92980000Y-75748000D02*
X92980000Y-67652000D01*
X93020000Y-75752000D02*
X93020000Y-67648000D01*
X93060000Y-75757000D02*
X93060000Y-67643000D01*
X93100000Y-75761000D02*
X93100000Y-67639000D01*
X93140000Y-75765000D02*
X93140000Y-67635000D01*
X93180000Y-75768000D02*
X93180000Y-67632000D01*
X93220000Y-75771000D02*
X93220000Y-67629000D01*
X93260000Y-75774000D02*
X93260000Y-67626000D01*
X93300000Y-75776000D02*
X93300000Y-67624000D01*
X93340000Y-75777000D02*
X93340000Y-67623000D01*
X93380000Y-75779000D02*
X93380000Y-67621000D01*
X93420000Y-75780000D02*
X93420000Y-67620000D01*
X93460000Y-75780000D02*
X93460000Y-67620000D01*
X93500000Y-75780000D02*
X93500000Y-67620000D01*
X97620000Y-71700000D02*
G75*
G03X97620000Y-71700000I-4120000J0D01*
G01*
X81230000Y-67780000D02*
X85970000Y-67780000D01*
X81230000Y-75020000D02*
X85970000Y-75020000D01*
X85970000Y-75020000D02*
X85970000Y-67780000D01*
X81230000Y-75020000D02*
X81230000Y-67780000D01*
X90720000Y-143750000D02*
G75*
G03X90720000Y-143750000I-8120000J0D01*
G01*
X131340000Y-122247936D02*
X131340000Y-123452064D01*
X133160000Y-122247936D02*
X133160000Y-123452064D01*
X84758578Y-106290000D02*
X84241422Y-106290000D01*
X84758578Y-107710000D02*
X84241422Y-107710000D01*
X123040000Y-131678922D02*
X123040000Y-132196078D01*
X124460000Y-131678922D02*
X124460000Y-132196078D01*
X91750000Y-131710000D02*
X91750000Y-128870000D01*
X91750000Y-113790000D02*
X91750000Y-116630000D01*
X96120000Y-128870000D02*
X96120000Y-116630000D01*
X87380000Y-128870000D02*
X96120000Y-128870000D01*
X87380000Y-116630000D02*
X87380000Y-128870000D01*
X96120000Y-116630000D02*
X87380000Y-116630000D01*
X81000000Y-113790000D02*
X81000000Y-116630000D01*
X81000000Y-131710000D02*
X81000000Y-128870000D01*
X76630000Y-116630000D02*
X76630000Y-128870000D01*
X85370000Y-116630000D02*
X76630000Y-116630000D01*
X85370000Y-128870000D02*
X85370000Y-116630000D01*
X76630000Y-128870000D02*
X85370000Y-128870000D01*
X70700000Y-113790000D02*
X70700000Y-116630000D01*
X70700000Y-131710000D02*
X70700000Y-128870000D01*
X66330000Y-116630000D02*
X66330000Y-128870000D01*
X75070000Y-116630000D02*
X66330000Y-116630000D01*
X75070000Y-128870000D02*
X75070000Y-116630000D01*
X66330000Y-128870000D02*
X75070000Y-128870000D01*
X86290000Y-99678922D02*
X86290000Y-100196078D01*
X87710000Y-99678922D02*
X87710000Y-100196078D01*
X95435241Y-107154000D02*
X95435241Y-106524000D01*
X95750241Y-106839000D02*
X95120241Y-106839000D01*
X89009000Y-105402000D02*
X89009000Y-104598000D01*
X89049000Y-105633000D02*
X89049000Y-104367000D01*
X89089000Y-105802000D02*
X89089000Y-104198000D01*
X89129000Y-105940000D02*
X89129000Y-104060000D01*
X89169000Y-106059000D02*
X89169000Y-103941000D01*
X89209000Y-106165000D02*
X89209000Y-103835000D01*
X89249000Y-106262000D02*
X89249000Y-103738000D01*
X89289000Y-106350000D02*
X89289000Y-103650000D01*
X89329000Y-106432000D02*
X89329000Y-103568000D01*
X89369000Y-106509000D02*
X89369000Y-103491000D01*
X89409000Y-106581000D02*
X89409000Y-103419000D01*
X89449000Y-106650000D02*
X89449000Y-103350000D01*
X89489000Y-106714000D02*
X89489000Y-103286000D01*
X89529000Y-106776000D02*
X89529000Y-103224000D01*
X89569000Y-106834000D02*
X89569000Y-103166000D01*
X89609000Y-106890000D02*
X89609000Y-103110000D01*
X89649000Y-106944000D02*
X89649000Y-103056000D01*
X89689000Y-106995000D02*
X89689000Y-103005000D01*
X89729000Y-107044000D02*
X89729000Y-102956000D01*
X89769000Y-107092000D02*
X89769000Y-102908000D01*
X89809000Y-107137000D02*
X89809000Y-102863000D01*
X89849000Y-107182000D02*
X89849000Y-102818000D01*
X89889000Y-107224000D02*
X89889000Y-102776000D01*
X89929000Y-107265000D02*
X89929000Y-102735000D01*
X89969000Y-103960000D02*
X89969000Y-102695000D01*
X89969000Y-107305000D02*
X89969000Y-106040000D01*
X90009000Y-103960000D02*
X90009000Y-102657000D01*
X90009000Y-107343000D02*
X90009000Y-106040000D01*
X90049000Y-103960000D02*
X90049000Y-102620000D01*
X90049000Y-107380000D02*
X90049000Y-106040000D01*
X90089000Y-103960000D02*
X90089000Y-102584000D01*
X90089000Y-107416000D02*
X90089000Y-106040000D01*
X90129000Y-103960000D02*
X90129000Y-102550000D01*
X90129000Y-107450000D02*
X90129000Y-106040000D01*
X90169000Y-103960000D02*
X90169000Y-102516000D01*
X90169000Y-107484000D02*
X90169000Y-106040000D01*
X90209000Y-103960000D02*
X90209000Y-102484000D01*
X90209000Y-107516000D02*
X90209000Y-106040000D01*
X90249000Y-103960000D02*
X90249000Y-102452000D01*
X90249000Y-107548000D02*
X90249000Y-106040000D01*
X90289000Y-103960000D02*
X90289000Y-102422000D01*
X90289000Y-107578000D02*
X90289000Y-106040000D01*
X90329000Y-103960000D02*
X90329000Y-102393000D01*
X90329000Y-107607000D02*
X90329000Y-106040000D01*
X90369000Y-103960000D02*
X90369000Y-102364000D01*
X90369000Y-107636000D02*
X90369000Y-106040000D01*
X90409000Y-103960000D02*
X90409000Y-102336000D01*
X90409000Y-107664000D02*
X90409000Y-106040000D01*
X90449000Y-103960000D02*
X90449000Y-102310000D01*
X90449000Y-107690000D02*
X90449000Y-106040000D01*
X90489000Y-103960000D02*
X90489000Y-102284000D01*
X90489000Y-107716000D02*
X90489000Y-106040000D01*
X90529000Y-103960000D02*
X90529000Y-102258000D01*
X90529000Y-107742000D02*
X90529000Y-106040000D01*
X90569000Y-103960000D02*
X90569000Y-102234000D01*
X90569000Y-107766000D02*
X90569000Y-106040000D01*
X90609000Y-103960000D02*
X90609000Y-102210000D01*
X90609000Y-107790000D02*
X90609000Y-106040000D01*
X90649000Y-103960000D02*
X90649000Y-102188000D01*
X90649000Y-107812000D02*
X90649000Y-106040000D01*
X90689000Y-103960000D02*
X90689000Y-102166000D01*
X90689000Y-107834000D02*
X90689000Y-106040000D01*
X90729000Y-103960000D02*
X90729000Y-102144000D01*
X90729000Y-107856000D02*
X90729000Y-106040000D01*
X90769000Y-103960000D02*
X90769000Y-102124000D01*
X90769000Y-107876000D02*
X90769000Y-106040000D01*
X90809000Y-103960000D02*
X90809000Y-102104000D01*
X90809000Y-107896000D02*
X90809000Y-106040000D01*
X90849000Y-103960000D02*
X90849000Y-102084000D01*
X90849000Y-107916000D02*
X90849000Y-106040000D01*
X90889000Y-103960000D02*
X90889000Y-102066000D01*
X90889000Y-107934000D02*
X90889000Y-106040000D01*
X90929000Y-103960000D02*
X90929000Y-102048000D01*
X90929000Y-107952000D02*
X90929000Y-106040000D01*
X90969000Y-103960000D02*
X90969000Y-102030000D01*
X90969000Y-107970000D02*
X90969000Y-106040000D01*
X91009000Y-103960000D02*
X91009000Y-102014000D01*
X91009000Y-107986000D02*
X91009000Y-106040000D01*
X91049000Y-103960000D02*
X91049000Y-101998000D01*
X91049000Y-108002000D02*
X91049000Y-106040000D01*
X91089000Y-103960000D02*
X91089000Y-101982000D01*
X91089000Y-108018000D02*
X91089000Y-106040000D01*
X91129000Y-103960000D02*
X91129000Y-101967000D01*
X91129000Y-108033000D02*
X91129000Y-106040000D01*
X91169000Y-103960000D02*
X91169000Y-101953000D01*
X91169000Y-108047000D02*
X91169000Y-106040000D01*
X91209000Y-103960000D02*
X91209000Y-101939000D01*
X91209000Y-108061000D02*
X91209000Y-106040000D01*
X91249000Y-103960000D02*
X91249000Y-101926000D01*
X91249000Y-108074000D02*
X91249000Y-106040000D01*
X91289000Y-103960000D02*
X91289000Y-101914000D01*
X91289000Y-108086000D02*
X91289000Y-106040000D01*
X91329000Y-103960000D02*
X91329000Y-101902000D01*
X91329000Y-108098000D02*
X91329000Y-106040000D01*
X91369000Y-103960000D02*
X91369000Y-101890000D01*
X91369000Y-108110000D02*
X91369000Y-106040000D01*
X91409000Y-103960000D02*
X91409000Y-101879000D01*
X91409000Y-108121000D02*
X91409000Y-106040000D01*
X91449000Y-103960000D02*
X91449000Y-101869000D01*
X91449000Y-108131000D02*
X91449000Y-106040000D01*
X91489000Y-103960000D02*
X91489000Y-101859000D01*
X91489000Y-108141000D02*
X91489000Y-106040000D01*
X91529000Y-103960000D02*
X91529000Y-101850000D01*
X91529000Y-108150000D02*
X91529000Y-106040000D01*
X91570000Y-103960000D02*
X91570000Y-101841000D01*
X91570000Y-108159000D02*
X91570000Y-106040000D01*
X91610000Y-103960000D02*
X91610000Y-101833000D01*
X91610000Y-108167000D02*
X91610000Y-106040000D01*
X91650000Y-103960000D02*
X91650000Y-101825000D01*
X91650000Y-108175000D02*
X91650000Y-106040000D01*
X91690000Y-103960000D02*
X91690000Y-101818000D01*
X91690000Y-108182000D02*
X91690000Y-106040000D01*
X91730000Y-103960000D02*
X91730000Y-101811000D01*
X91730000Y-108189000D02*
X91730000Y-106040000D01*
X91770000Y-103960000D02*
X91770000Y-101805000D01*
X91770000Y-108195000D02*
X91770000Y-106040000D01*
X91810000Y-103960000D02*
X91810000Y-101799000D01*
X91810000Y-108201000D02*
X91810000Y-106040000D01*
X91850000Y-103960000D02*
X91850000Y-101794000D01*
X91850000Y-108206000D02*
X91850000Y-106040000D01*
X91890000Y-103960000D02*
X91890000Y-101789000D01*
X91890000Y-108211000D02*
X91890000Y-106040000D01*
X91930000Y-103960000D02*
X91930000Y-101785000D01*
X91930000Y-108215000D02*
X91930000Y-106040000D01*
X91970000Y-103960000D02*
X91970000Y-101782000D01*
X91970000Y-108218000D02*
X91970000Y-106040000D01*
X92010000Y-103960000D02*
X92010000Y-101778000D01*
X92010000Y-108222000D02*
X92010000Y-106040000D01*
X92050000Y-108224000D02*
X92050000Y-101776000D01*
X92090000Y-108227000D02*
X92090000Y-101773000D01*
X92130000Y-108228000D02*
X92130000Y-101772000D01*
X92170000Y-108230000D02*
X92170000Y-101770000D01*
X92210000Y-108230000D02*
X92210000Y-101770000D01*
X92250000Y-108230000D02*
X92250000Y-101770000D01*
X95520000Y-105000000D02*
G75*
G03X95520000Y-105000000I-3270000J0D01*
G01*
X97509698Y-87715000D02*
X97509698Y-86915000D01*
X97909698Y-87315000D02*
X97109698Y-87315000D01*
X89419000Y-85533000D02*
X89419000Y-84467000D01*
X89459000Y-85768000D02*
X89459000Y-84232000D01*
X89499000Y-85948000D02*
X89499000Y-84052000D01*
X89539000Y-86098000D02*
X89539000Y-83902000D01*
X89579000Y-86229000D02*
X89579000Y-83771000D01*
X89619000Y-86346000D02*
X89619000Y-83654000D01*
X89659000Y-86453000D02*
X89659000Y-83547000D01*
X89699000Y-86552000D02*
X89699000Y-83448000D01*
X89739000Y-86645000D02*
X89739000Y-83355000D01*
X89779000Y-86731000D02*
X89779000Y-83269000D01*
X89819000Y-86813000D02*
X89819000Y-83187000D01*
X89859000Y-86890000D02*
X89859000Y-83110000D01*
X89899000Y-86964000D02*
X89899000Y-83036000D01*
X89939000Y-87034000D02*
X89939000Y-82966000D01*
X89979000Y-83960000D02*
X89979000Y-82898000D01*
X89979000Y-87102000D02*
X89979000Y-86040000D01*
X90019000Y-83960000D02*
X90019000Y-82834000D01*
X90019000Y-87166000D02*
X90019000Y-86040000D01*
X90059000Y-83960000D02*
X90059000Y-82772000D01*
X90059000Y-87228000D02*
X90059000Y-86040000D01*
X90099000Y-83960000D02*
X90099000Y-82713000D01*
X90099000Y-87287000D02*
X90099000Y-86040000D01*
X90139000Y-83960000D02*
X90139000Y-82655000D01*
X90139000Y-87345000D02*
X90139000Y-86040000D01*
X90179000Y-83960000D02*
X90179000Y-82600000D01*
X90179000Y-87400000D02*
X90179000Y-86040000D01*
X90219000Y-83960000D02*
X90219000Y-82546000D01*
X90219000Y-87454000D02*
X90219000Y-86040000D01*
X90259000Y-83960000D02*
X90259000Y-82495000D01*
X90259000Y-87505000D02*
X90259000Y-86040000D01*
X90299000Y-83960000D02*
X90299000Y-82444000D01*
X90299000Y-87556000D02*
X90299000Y-86040000D01*
X90339000Y-83960000D02*
X90339000Y-82396000D01*
X90339000Y-87604000D02*
X90339000Y-86040000D01*
X90379000Y-83960000D02*
X90379000Y-82349000D01*
X90379000Y-87651000D02*
X90379000Y-86040000D01*
X90419000Y-83960000D02*
X90419000Y-82303000D01*
X90419000Y-87697000D02*
X90419000Y-86040000D01*
X90459000Y-83960000D02*
X90459000Y-82259000D01*
X90459000Y-87741000D02*
X90459000Y-86040000D01*
X90499000Y-83960000D02*
X90499000Y-82216000D01*
X90499000Y-87784000D02*
X90499000Y-86040000D01*
X90539000Y-83960000D02*
X90539000Y-82174000D01*
X90539000Y-87826000D02*
X90539000Y-86040000D01*
X90579000Y-83960000D02*
X90579000Y-82133000D01*
X90579000Y-87867000D02*
X90579000Y-86040000D01*
X90619000Y-83960000D02*
X90619000Y-82093000D01*
X90619000Y-87907000D02*
X90619000Y-86040000D01*
X90659000Y-83960000D02*
X90659000Y-82055000D01*
X90659000Y-87945000D02*
X90659000Y-86040000D01*
X90699000Y-83960000D02*
X90699000Y-82017000D01*
X90699000Y-87983000D02*
X90699000Y-86040000D01*
X90739000Y-83960000D02*
X90739000Y-81981000D01*
X90739000Y-88019000D02*
X90739000Y-86040000D01*
X90779000Y-83960000D02*
X90779000Y-81945000D01*
X90779000Y-88055000D02*
X90779000Y-86040000D01*
X90819000Y-83960000D02*
X90819000Y-81910000D01*
X90819000Y-88090000D02*
X90819000Y-86040000D01*
X90859000Y-83960000D02*
X90859000Y-81876000D01*
X90859000Y-88124000D02*
X90859000Y-86040000D01*
X90899000Y-83960000D02*
X90899000Y-81844000D01*
X90899000Y-88156000D02*
X90899000Y-86040000D01*
X90939000Y-83960000D02*
X90939000Y-81811000D01*
X90939000Y-88189000D02*
X90939000Y-86040000D01*
X90979000Y-83960000D02*
X90979000Y-81780000D01*
X90979000Y-88220000D02*
X90979000Y-86040000D01*
X91019000Y-83960000D02*
X91019000Y-81750000D01*
X91019000Y-88250000D02*
X91019000Y-86040000D01*
X91059000Y-83960000D02*
X91059000Y-81720000D01*
X91059000Y-88280000D02*
X91059000Y-86040000D01*
X91099000Y-83960000D02*
X91099000Y-81691000D01*
X91099000Y-88309000D02*
X91099000Y-86040000D01*
X91139000Y-83960000D02*
X91139000Y-81662000D01*
X91139000Y-88338000D02*
X91139000Y-86040000D01*
X91179000Y-83960000D02*
X91179000Y-81635000D01*
X91179000Y-88365000D02*
X91179000Y-86040000D01*
X91219000Y-83960000D02*
X91219000Y-81608000D01*
X91219000Y-88392000D02*
X91219000Y-86040000D01*
X91259000Y-83960000D02*
X91259000Y-81582000D01*
X91259000Y-88418000D02*
X91259000Y-86040000D01*
X91299000Y-83960000D02*
X91299000Y-81556000D01*
X91299000Y-88444000D02*
X91299000Y-86040000D01*
X91339000Y-83960000D02*
X91339000Y-81531000D01*
X91339000Y-88469000D02*
X91339000Y-86040000D01*
X91379000Y-83960000D02*
X91379000Y-81507000D01*
X91379000Y-88493000D02*
X91379000Y-86040000D01*
X91419000Y-83960000D02*
X91419000Y-81483000D01*
X91419000Y-88517000D02*
X91419000Y-86040000D01*
X91459000Y-83960000D02*
X91459000Y-81460000D01*
X91459000Y-88540000D02*
X91459000Y-86040000D01*
X91499000Y-83960000D02*
X91499000Y-81438000D01*
X91499000Y-88562000D02*
X91499000Y-86040000D01*
X91539000Y-83960000D02*
X91539000Y-81416000D01*
X91539000Y-88584000D02*
X91539000Y-86040000D01*
X91579000Y-83960000D02*
X91579000Y-81394000D01*
X91579000Y-88606000D02*
X91579000Y-86040000D01*
X91619000Y-83960000D02*
X91619000Y-81373000D01*
X91619000Y-88627000D02*
X91619000Y-86040000D01*
X91659000Y-83960000D02*
X91659000Y-81353000D01*
X91659000Y-88647000D02*
X91659000Y-86040000D01*
X91699000Y-83960000D02*
X91699000Y-81334000D01*
X91699000Y-88666000D02*
X91699000Y-86040000D01*
X91739000Y-83960000D02*
X91739000Y-81314000D01*
X91739000Y-88686000D02*
X91739000Y-86040000D01*
X91779000Y-83960000D02*
X91779000Y-81296000D01*
X91779000Y-88704000D02*
X91779000Y-86040000D01*
X91819000Y-83960000D02*
X91819000Y-81278000D01*
X91819000Y-88722000D02*
X91819000Y-86040000D01*
X91859000Y-83960000D02*
X91859000Y-81260000D01*
X91859000Y-88740000D02*
X91859000Y-86040000D01*
X91899000Y-83960000D02*
X91899000Y-81243000D01*
X91899000Y-88757000D02*
X91899000Y-86040000D01*
X91939000Y-83960000D02*
X91939000Y-81226000D01*
X91939000Y-88774000D02*
X91939000Y-86040000D01*
X91979000Y-83960000D02*
X91979000Y-81210000D01*
X91979000Y-88790000D02*
X91979000Y-86040000D01*
X92019000Y-83960000D02*
X92019000Y-81195000D01*
X92019000Y-88805000D02*
X92019000Y-86040000D01*
X92059000Y-88821000D02*
X92059000Y-81179000D01*
X92099000Y-88835000D02*
X92099000Y-81165000D01*
X92139000Y-88850000D02*
X92139000Y-81150000D01*
X92179000Y-88863000D02*
X92179000Y-81137000D01*
X92219000Y-88877000D02*
X92219000Y-81123000D01*
X92259000Y-88889000D02*
X92259000Y-81111000D01*
X92299000Y-88902000D02*
X92299000Y-81098000D01*
X92339000Y-88914000D02*
X92339000Y-81086000D01*
X92379000Y-88925000D02*
X92379000Y-81075000D01*
X92419000Y-88936000D02*
X92419000Y-81064000D01*
X92459000Y-88947000D02*
X92459000Y-81053000D01*
X92499000Y-88957000D02*
X92499000Y-81043000D01*
X92539000Y-88967000D02*
X92539000Y-81033000D01*
X92579000Y-88976000D02*
X92579000Y-81024000D01*
X92619000Y-88985000D02*
X92619000Y-81015000D01*
X92659000Y-88994000D02*
X92659000Y-81006000D01*
X92699000Y-89002000D02*
X92699000Y-80998000D01*
X92739000Y-89010000D02*
X92739000Y-80990000D01*
X92779000Y-89017000D02*
X92779000Y-80983000D01*
X92820000Y-89024000D02*
X92820000Y-80976000D01*
X92860000Y-89030000D02*
X92860000Y-80970000D01*
X92900000Y-89037000D02*
X92900000Y-80963000D01*
X92940000Y-89042000D02*
X92940000Y-80958000D01*
X92980000Y-89048000D02*
X92980000Y-80952000D01*
X93020000Y-89052000D02*
X93020000Y-80948000D01*
X93060000Y-89057000D02*
X93060000Y-80943000D01*
X93100000Y-89061000D02*
X93100000Y-80939000D01*
X93140000Y-89065000D02*
X93140000Y-80935000D01*
X93180000Y-89068000D02*
X93180000Y-80932000D01*
X93220000Y-89071000D02*
X93220000Y-80929000D01*
X93260000Y-89074000D02*
X93260000Y-80926000D01*
X93300000Y-89076000D02*
X93300000Y-80924000D01*
X93340000Y-89077000D02*
X93340000Y-80923000D01*
X93380000Y-89079000D02*
X93380000Y-80921000D01*
X93420000Y-89080000D02*
X93420000Y-80920000D01*
X93460000Y-89080000D02*
X93460000Y-80920000D01*
X93500000Y-89080000D02*
X93500000Y-80920000D01*
X97620000Y-85000000D02*
G75*
G03X97620000Y-85000000I-4120000J0D01*
G01*
X81230000Y-81280000D02*
X85970000Y-81280000D01*
X81230000Y-88520000D02*
X85970000Y-88520000D01*
X85970000Y-88520000D02*
X85970000Y-81280000D01*
X81230000Y-88520000D02*
X81230000Y-81280000D01*
X76410000Y-102752064D02*
X76410000Y-101547936D01*
X74590000Y-102752064D02*
X74590000Y-101547936D01*
X66590000Y-97452064D02*
X66590000Y-96247936D01*
X68410000Y-97452064D02*
X68410000Y-96247936D01*
X114590000Y-83502064D02*
X114590000Y-82297936D01*
X116410000Y-83502064D02*
X116410000Y-82297936D01*
X106590000Y-74397936D02*
X106590000Y-75602064D01*
X108410000Y-74397936D02*
X108410000Y-75602064D01*
X125247936Y-117590000D02*
X126452064Y-117590000D01*
X125247936Y-119410000D02*
X126452064Y-119410000D01*
X119997936Y-127660000D02*
X121202064Y-127660000D01*
X119997936Y-125840000D02*
X121202064Y-125840000D01*
X182160000Y-90847936D02*
X182160000Y-92052064D01*
X180340000Y-90847936D02*
X180340000Y-92052064D01*
X174247936Y-101660000D02*
X175452064Y-101660000D01*
X174247936Y-99840000D02*
X175452064Y-99840000D01*
X196590000Y-102397936D02*
X196590000Y-103602064D01*
X198410000Y-102397936D02*
X198410000Y-103602064D01*
X201660000Y-102397936D02*
X201660000Y-103602064D01*
X199840000Y-102397936D02*
X199840000Y-103602064D01*
X68940000Y-98250000D02*
X68940000Y-100200000D01*
X68940000Y-98250000D02*
X68940000Y-96300000D01*
X74060000Y-98250000D02*
X74060000Y-100200000D01*
X74060000Y-98250000D02*
X74060000Y-94800000D01*
D10*
X198214285Y-117052380D02*
X198214285Y-116052380D01*
X198595238Y-116052380D01*
X198690476Y-116100000D01*
X198738095Y-116147619D01*
X198785714Y-116242857D01*
X198785714Y-116385714D01*
X198738095Y-116480952D01*
X198690476Y-116528571D01*
X198595238Y-116576190D01*
X198214285Y-116576190D01*
X199404761Y-116052380D02*
X199595238Y-116052380D01*
X199690476Y-116100000D01*
X199785714Y-116195238D01*
X199833333Y-116385714D01*
X199833333Y-116719047D01*
X199785714Y-116909523D01*
X199690476Y-117004761D01*
X199595238Y-117052380D01*
X199404761Y-117052380D01*
X199309523Y-117004761D01*
X199214285Y-116909523D01*
X199166666Y-116719047D01*
X199166666Y-116385714D01*
X199214285Y-116195238D01*
X199309523Y-116100000D01*
X199404761Y-116052380D01*
X200166666Y-116052380D02*
X200404761Y-117052380D01*
X200595238Y-116338095D01*
X200785714Y-117052380D01*
X201023809Y-116052380D01*
X201404761Y-116528571D02*
X201738095Y-116528571D01*
X201880952Y-117052380D02*
X201404761Y-117052380D01*
X201404761Y-116052380D01*
X201880952Y-116052380D01*
X202880952Y-117052380D02*
X202547619Y-116576190D01*
X202309523Y-117052380D02*
X202309523Y-116052380D01*
X202690476Y-116052380D01*
X202785714Y-116100000D01*
X202833333Y-116147619D01*
X202880952Y-116242857D01*
X202880952Y-116385714D01*
X202833333Y-116480952D01*
X202785714Y-116528571D01*
X202690476Y-116576190D01*
X202309523Y-116576190D01*
X203833333Y-117052380D02*
X203261904Y-117052380D01*
X203547619Y-117052380D02*
X203547619Y-116052380D01*
X203452380Y-116195238D01*
X203357142Y-116290476D01*
X203261904Y-116338095D01*
X175788095Y-92602380D02*
X175788095Y-93411904D01*
X175835714Y-93507142D01*
X175883333Y-93554761D01*
X175978571Y-93602380D01*
X176169047Y-93602380D01*
X176264285Y-93554761D01*
X176311904Y-93507142D01*
X176359523Y-93411904D01*
X176359523Y-92602380D01*
X177264285Y-92935714D02*
X177264285Y-93602380D01*
X177026190Y-92554761D02*
X176788095Y-93269047D01*
X177407142Y-93269047D01*
X114638095Y-77352380D02*
X114638095Y-78161904D01*
X114685714Y-78257142D01*
X114733333Y-78304761D01*
X114828571Y-78352380D01*
X115019047Y-78352380D01*
X115114285Y-78304761D01*
X115161904Y-78257142D01*
X115209523Y-78161904D01*
X115209523Y-77352380D01*
X115590476Y-77352380D02*
X116209523Y-77352380D01*
X115876190Y-77733333D01*
X116019047Y-77733333D01*
X116114285Y-77780952D01*
X116161904Y-77828571D01*
X116209523Y-77923809D01*
X116209523Y-78161904D01*
X116161904Y-78257142D01*
X116114285Y-78304761D01*
X116019047Y-78352380D01*
X115733333Y-78352380D01*
X115638095Y-78304761D01*
X115590476Y-78257142D01*
X126738095Y-125952380D02*
X126738095Y-126761904D01*
X126785714Y-126857142D01*
X126833333Y-126904761D01*
X126928571Y-126952380D01*
X127119047Y-126952380D01*
X127214285Y-126904761D01*
X127261904Y-126857142D01*
X127309523Y-126761904D01*
X127309523Y-125952380D01*
X127738095Y-126047619D02*
X127785714Y-126000000D01*
X127880952Y-125952380D01*
X128119047Y-125952380D01*
X128214285Y-126000000D01*
X128261904Y-126047619D01*
X128309523Y-126142857D01*
X128309523Y-126238095D01*
X128261904Y-126380952D01*
X127690476Y-126952380D01*
X128309523Y-126952380D01*
X133857142Y-87352380D02*
X133523809Y-86876190D01*
X133285714Y-87352380D02*
X133285714Y-86352380D01*
X133666666Y-86352380D01*
X133761904Y-86400000D01*
X133809523Y-86447619D01*
X133857142Y-86542857D01*
X133857142Y-86685714D01*
X133809523Y-86780952D01*
X133761904Y-86828571D01*
X133666666Y-86876190D01*
X133285714Y-86876190D01*
X134190476Y-86352380D02*
X134809523Y-86352380D01*
X134476190Y-86733333D01*
X134619047Y-86733333D01*
X134714285Y-86780952D01*
X134761904Y-86828571D01*
X134809523Y-86923809D01*
X134809523Y-87161904D01*
X134761904Y-87257142D01*
X134714285Y-87304761D01*
X134619047Y-87352380D01*
X134333333Y-87352380D01*
X134238095Y-87304761D01*
X134190476Y-87257142D01*
X135809523Y-87257142D02*
X135761904Y-87304761D01*
X135619047Y-87352380D01*
X135523809Y-87352380D01*
X135380952Y-87304761D01*
X135285714Y-87209523D01*
X135238095Y-87114285D01*
X135190476Y-86923809D01*
X135190476Y-86780952D01*
X135238095Y-86590476D01*
X135285714Y-86495238D01*
X135380952Y-86400000D01*
X135523809Y-86352380D01*
X135619047Y-86352380D01*
X135761904Y-86400000D01*
X135809523Y-86447619D01*
X136190476Y-86447619D02*
X136238095Y-86400000D01*
X136333333Y-86352380D01*
X136571428Y-86352380D01*
X136666666Y-86400000D01*
X136714285Y-86447619D01*
X136761904Y-86542857D01*
X136761904Y-86638095D01*
X136714285Y-86780952D01*
X136142857Y-87352380D01*
X136761904Y-87352380D01*
X81452380Y-103142857D02*
X80976190Y-103476190D01*
X81452380Y-103714285D02*
X80452380Y-103714285D01*
X80452380Y-103333333D01*
X80500000Y-103238095D01*
X80547619Y-103190476D01*
X80642857Y-103142857D01*
X80785714Y-103142857D01*
X80880952Y-103190476D01*
X80928571Y-103238095D01*
X80976190Y-103333333D01*
X80976190Y-103714285D01*
X80452380Y-102809523D02*
X80452380Y-102190476D01*
X80833333Y-102523809D01*
X80833333Y-102380952D01*
X80880952Y-102285714D01*
X80928571Y-102238095D01*
X81023809Y-102190476D01*
X81261904Y-102190476D01*
X81357142Y-102238095D01*
X81404761Y-102285714D01*
X81452380Y-102380952D01*
X81452380Y-102666666D01*
X81404761Y-102761904D01*
X81357142Y-102809523D01*
X81357142Y-101190476D02*
X81404761Y-101238095D01*
X81452380Y-101380952D01*
X81452380Y-101476190D01*
X81404761Y-101619047D01*
X81309523Y-101714285D01*
X81214285Y-101761904D01*
X81023809Y-101809523D01*
X80880952Y-101809523D01*
X80690476Y-101761904D01*
X80595238Y-101714285D01*
X80500000Y-101619047D01*
X80452380Y-101476190D01*
X80452380Y-101380952D01*
X80500000Y-101238095D01*
X80547619Y-101190476D01*
X81452380Y-100238095D02*
X81452380Y-100809523D01*
X81452380Y-100523809D02*
X80452380Y-100523809D01*
X80595238Y-100619047D01*
X80690476Y-100714285D01*
X80738095Y-100809523D01*
X133857142Y-84852380D02*
X133523809Y-84376190D01*
X133285714Y-84852380D02*
X133285714Y-83852380D01*
X133666666Y-83852380D01*
X133761904Y-83900000D01*
X133809523Y-83947619D01*
X133857142Y-84042857D01*
X133857142Y-84185714D01*
X133809523Y-84280952D01*
X133761904Y-84328571D01*
X133666666Y-84376190D01*
X133285714Y-84376190D01*
X134190476Y-83852380D02*
X134809523Y-83852380D01*
X134476190Y-84233333D01*
X134619047Y-84233333D01*
X134714285Y-84280952D01*
X134761904Y-84328571D01*
X134809523Y-84423809D01*
X134809523Y-84661904D01*
X134761904Y-84757142D01*
X134714285Y-84804761D01*
X134619047Y-84852380D01*
X134333333Y-84852380D01*
X134238095Y-84804761D01*
X134190476Y-84757142D01*
X135571428Y-84328571D02*
X135714285Y-84376190D01*
X135761904Y-84423809D01*
X135809523Y-84519047D01*
X135809523Y-84661904D01*
X135761904Y-84757142D01*
X135714285Y-84804761D01*
X135619047Y-84852380D01*
X135238095Y-84852380D01*
X135238095Y-83852380D01*
X135571428Y-83852380D01*
X135666666Y-83900000D01*
X135714285Y-83947619D01*
X135761904Y-84042857D01*
X135761904Y-84138095D01*
X135714285Y-84233333D01*
X135666666Y-84280952D01*
X135571428Y-84328571D01*
X135238095Y-84328571D01*
X136190476Y-83947619D02*
X136238095Y-83900000D01*
X136333333Y-83852380D01*
X136571428Y-83852380D01*
X136666666Y-83900000D01*
X136714285Y-83947619D01*
X136761904Y-84042857D01*
X136761904Y-84138095D01*
X136714285Y-84280952D01*
X136142857Y-84852380D01*
X136761904Y-84852380D01*
X78952380Y-103142857D02*
X78476190Y-103476190D01*
X78952380Y-103714285D02*
X77952380Y-103714285D01*
X77952380Y-103333333D01*
X78000000Y-103238095D01*
X78047619Y-103190476D01*
X78142857Y-103142857D01*
X78285714Y-103142857D01*
X78380952Y-103190476D01*
X78428571Y-103238095D01*
X78476190Y-103333333D01*
X78476190Y-103714285D01*
X77952380Y-102809523D02*
X77952380Y-102190476D01*
X78333333Y-102523809D01*
X78333333Y-102380952D01*
X78380952Y-102285714D01*
X78428571Y-102238095D01*
X78523809Y-102190476D01*
X78761904Y-102190476D01*
X78857142Y-102238095D01*
X78904761Y-102285714D01*
X78952380Y-102380952D01*
X78952380Y-102666666D01*
X78904761Y-102761904D01*
X78857142Y-102809523D01*
X78428571Y-101428571D02*
X78476190Y-101285714D01*
X78523809Y-101238095D01*
X78619047Y-101190476D01*
X78761904Y-101190476D01*
X78857142Y-101238095D01*
X78904761Y-101285714D01*
X78952380Y-101380952D01*
X78952380Y-101761904D01*
X77952380Y-101761904D01*
X77952380Y-101428571D01*
X78000000Y-101333333D01*
X78047619Y-101285714D01*
X78142857Y-101238095D01*
X78238095Y-101238095D01*
X78333333Y-101285714D01*
X78380952Y-101333333D01*
X78428571Y-101428571D01*
X78428571Y-101761904D01*
X78952380Y-100238095D02*
X78952380Y-100809523D01*
X78952380Y-100523809D02*
X77952380Y-100523809D01*
X78095238Y-100619047D01*
X78190476Y-100714285D01*
X78238095Y-100809523D01*
X133828571Y-82352380D02*
X133495238Y-81876190D01*
X133257142Y-82352380D02*
X133257142Y-81352380D01*
X133638095Y-81352380D01*
X133733333Y-81400000D01*
X133780952Y-81447619D01*
X133828571Y-81542857D01*
X133828571Y-81685714D01*
X133780952Y-81780952D01*
X133733333Y-81828571D01*
X133638095Y-81876190D01*
X133257142Y-81876190D01*
X134161904Y-81352380D02*
X134780952Y-81352380D01*
X134447619Y-81733333D01*
X134590476Y-81733333D01*
X134685714Y-81780952D01*
X134733333Y-81828571D01*
X134780952Y-81923809D01*
X134780952Y-82161904D01*
X134733333Y-82257142D01*
X134685714Y-82304761D01*
X134590476Y-82352380D01*
X134304761Y-82352380D01*
X134209523Y-82304761D01*
X134161904Y-82257142D01*
X135161904Y-82066666D02*
X135638095Y-82066666D01*
X135066666Y-82352380D02*
X135400000Y-81352380D01*
X135733333Y-82352380D01*
X136019047Y-81447619D02*
X136066666Y-81400000D01*
X136161904Y-81352380D01*
X136400000Y-81352380D01*
X136495238Y-81400000D01*
X136542857Y-81447619D01*
X136590476Y-81542857D01*
X136590476Y-81638095D01*
X136542857Y-81780952D01*
X135971428Y-82352380D01*
X136590476Y-82352380D01*
X83952380Y-102821428D02*
X83476190Y-103154761D01*
X83952380Y-103392857D02*
X82952380Y-103392857D01*
X82952380Y-103011904D01*
X83000000Y-102916666D01*
X83047619Y-102869047D01*
X83142857Y-102821428D01*
X83285714Y-102821428D01*
X83380952Y-102869047D01*
X83428571Y-102916666D01*
X83476190Y-103011904D01*
X83476190Y-103392857D01*
X82952380Y-102488095D02*
X82952380Y-101869047D01*
X83333333Y-102202380D01*
X83333333Y-102059523D01*
X83380952Y-101964285D01*
X83428571Y-101916666D01*
X83523809Y-101869047D01*
X83761904Y-101869047D01*
X83857142Y-101916666D01*
X83904761Y-101964285D01*
X83952380Y-102059523D01*
X83952380Y-102345238D01*
X83904761Y-102440476D01*
X83857142Y-102488095D01*
X83666666Y-101488095D02*
X83666666Y-101011904D01*
X83952380Y-101583333D02*
X82952380Y-101250000D01*
X83952380Y-100916666D01*
X83952380Y-100059523D02*
X83952380Y-100630952D01*
X83952380Y-100345238D02*
X82952380Y-100345238D01*
X83095238Y-100440476D01*
X83190476Y-100535714D01*
X83238095Y-100630952D01*
X147857142Y-77952380D02*
X147523809Y-77476190D01*
X147285714Y-77952380D02*
X147285714Y-76952380D01*
X147666666Y-76952380D01*
X147761904Y-77000000D01*
X147809523Y-77047619D01*
X147857142Y-77142857D01*
X147857142Y-77285714D01*
X147809523Y-77380952D01*
X147761904Y-77428571D01*
X147666666Y-77476190D01*
X147285714Y-77476190D01*
X148238095Y-77047619D02*
X148285714Y-77000000D01*
X148380952Y-76952380D01*
X148619047Y-76952380D01*
X148714285Y-77000000D01*
X148761904Y-77047619D01*
X148809523Y-77142857D01*
X148809523Y-77238095D01*
X148761904Y-77380952D01*
X148190476Y-77952380D01*
X148809523Y-77952380D01*
X149809523Y-77857142D02*
X149761904Y-77904761D01*
X149619047Y-77952380D01*
X149523809Y-77952380D01*
X149380952Y-77904761D01*
X149285714Y-77809523D01*
X149238095Y-77714285D01*
X149190476Y-77523809D01*
X149190476Y-77380952D01*
X149238095Y-77190476D01*
X149285714Y-77095238D01*
X149380952Y-77000000D01*
X149523809Y-76952380D01*
X149619047Y-76952380D01*
X149761904Y-77000000D01*
X149809523Y-77047619D01*
X150190476Y-77047619D02*
X150238095Y-77000000D01*
X150333333Y-76952380D01*
X150571428Y-76952380D01*
X150666666Y-77000000D01*
X150714285Y-77047619D01*
X150761904Y-77142857D01*
X150761904Y-77238095D01*
X150714285Y-77380952D01*
X150142857Y-77952380D01*
X150761904Y-77952380D01*
X109357142Y-111952380D02*
X109023809Y-111476190D01*
X108785714Y-111952380D02*
X108785714Y-110952380D01*
X109166666Y-110952380D01*
X109261904Y-111000000D01*
X109309523Y-111047619D01*
X109357142Y-111142857D01*
X109357142Y-111285714D01*
X109309523Y-111380952D01*
X109261904Y-111428571D01*
X109166666Y-111476190D01*
X108785714Y-111476190D01*
X109738095Y-111047619D02*
X109785714Y-111000000D01*
X109880952Y-110952380D01*
X110119047Y-110952380D01*
X110214285Y-111000000D01*
X110261904Y-111047619D01*
X110309523Y-111142857D01*
X110309523Y-111238095D01*
X110261904Y-111380952D01*
X109690476Y-111952380D01*
X110309523Y-111952380D01*
X111309523Y-111857142D02*
X111261904Y-111904761D01*
X111119047Y-111952380D01*
X111023809Y-111952380D01*
X110880952Y-111904761D01*
X110785714Y-111809523D01*
X110738095Y-111714285D01*
X110690476Y-111523809D01*
X110690476Y-111380952D01*
X110738095Y-111190476D01*
X110785714Y-111095238D01*
X110880952Y-111000000D01*
X111023809Y-110952380D01*
X111119047Y-110952380D01*
X111261904Y-111000000D01*
X111309523Y-111047619D01*
X112261904Y-111952380D02*
X111690476Y-111952380D01*
X111976190Y-111952380D02*
X111976190Y-110952380D01*
X111880952Y-111095238D01*
X111785714Y-111190476D01*
X111690476Y-111238095D01*
X147857142Y-75452380D02*
X147523809Y-74976190D01*
X147285714Y-75452380D02*
X147285714Y-74452380D01*
X147666666Y-74452380D01*
X147761904Y-74500000D01*
X147809523Y-74547619D01*
X147857142Y-74642857D01*
X147857142Y-74785714D01*
X147809523Y-74880952D01*
X147761904Y-74928571D01*
X147666666Y-74976190D01*
X147285714Y-74976190D01*
X148238095Y-74547619D02*
X148285714Y-74500000D01*
X148380952Y-74452380D01*
X148619047Y-74452380D01*
X148714285Y-74500000D01*
X148761904Y-74547619D01*
X148809523Y-74642857D01*
X148809523Y-74738095D01*
X148761904Y-74880952D01*
X148190476Y-75452380D01*
X148809523Y-75452380D01*
X149571428Y-74928571D02*
X149714285Y-74976190D01*
X149761904Y-75023809D01*
X149809523Y-75119047D01*
X149809523Y-75261904D01*
X149761904Y-75357142D01*
X149714285Y-75404761D01*
X149619047Y-75452380D01*
X149238095Y-75452380D01*
X149238095Y-74452380D01*
X149571428Y-74452380D01*
X149666666Y-74500000D01*
X149714285Y-74547619D01*
X149761904Y-74642857D01*
X149761904Y-74738095D01*
X149714285Y-74833333D01*
X149666666Y-74880952D01*
X149571428Y-74928571D01*
X149238095Y-74928571D01*
X150190476Y-74547619D02*
X150238095Y-74500000D01*
X150333333Y-74452380D01*
X150571428Y-74452380D01*
X150666666Y-74500000D01*
X150714285Y-74547619D01*
X150761904Y-74642857D01*
X150761904Y-74738095D01*
X150714285Y-74880952D01*
X150142857Y-75452380D01*
X150761904Y-75452380D01*
X109457142Y-109552380D02*
X109123809Y-109076190D01*
X108885714Y-109552380D02*
X108885714Y-108552380D01*
X109266666Y-108552380D01*
X109361904Y-108600000D01*
X109409523Y-108647619D01*
X109457142Y-108742857D01*
X109457142Y-108885714D01*
X109409523Y-108980952D01*
X109361904Y-109028571D01*
X109266666Y-109076190D01*
X108885714Y-109076190D01*
X109838095Y-108647619D02*
X109885714Y-108600000D01*
X109980952Y-108552380D01*
X110219047Y-108552380D01*
X110314285Y-108600000D01*
X110361904Y-108647619D01*
X110409523Y-108742857D01*
X110409523Y-108838095D01*
X110361904Y-108980952D01*
X109790476Y-109552380D01*
X110409523Y-109552380D01*
X111171428Y-109028571D02*
X111314285Y-109076190D01*
X111361904Y-109123809D01*
X111409523Y-109219047D01*
X111409523Y-109361904D01*
X111361904Y-109457142D01*
X111314285Y-109504761D01*
X111219047Y-109552380D01*
X110838095Y-109552380D01*
X110838095Y-108552380D01*
X111171428Y-108552380D01*
X111266666Y-108600000D01*
X111314285Y-108647619D01*
X111361904Y-108742857D01*
X111361904Y-108838095D01*
X111314285Y-108933333D01*
X111266666Y-108980952D01*
X111171428Y-109028571D01*
X110838095Y-109028571D01*
X112361904Y-109552380D02*
X111790476Y-109552380D01*
X112076190Y-109552380D02*
X112076190Y-108552380D01*
X111980952Y-108695238D01*
X111885714Y-108790476D01*
X111790476Y-108838095D01*
X147928571Y-72952380D02*
X147595238Y-72476190D01*
X147357142Y-72952380D02*
X147357142Y-71952380D01*
X147738095Y-71952380D01*
X147833333Y-72000000D01*
X147880952Y-72047619D01*
X147928571Y-72142857D01*
X147928571Y-72285714D01*
X147880952Y-72380952D01*
X147833333Y-72428571D01*
X147738095Y-72476190D01*
X147357142Y-72476190D01*
X148309523Y-72047619D02*
X148357142Y-72000000D01*
X148452380Y-71952380D01*
X148690476Y-71952380D01*
X148785714Y-72000000D01*
X148833333Y-72047619D01*
X148880952Y-72142857D01*
X148880952Y-72238095D01*
X148833333Y-72380952D01*
X148261904Y-72952380D01*
X148880952Y-72952380D01*
X149261904Y-72666666D02*
X149738095Y-72666666D01*
X149166666Y-72952380D02*
X149500000Y-71952380D01*
X149833333Y-72952380D01*
X150119047Y-72047619D02*
X150166666Y-72000000D01*
X150261904Y-71952380D01*
X150500000Y-71952380D01*
X150595238Y-72000000D01*
X150642857Y-72047619D01*
X150690476Y-72142857D01*
X150690476Y-72238095D01*
X150642857Y-72380952D01*
X150071428Y-72952380D01*
X150690476Y-72952380D01*
X109428571Y-107352380D02*
X109095238Y-106876190D01*
X108857142Y-107352380D02*
X108857142Y-106352380D01*
X109238095Y-106352380D01*
X109333333Y-106400000D01*
X109380952Y-106447619D01*
X109428571Y-106542857D01*
X109428571Y-106685714D01*
X109380952Y-106780952D01*
X109333333Y-106828571D01*
X109238095Y-106876190D01*
X108857142Y-106876190D01*
X109809523Y-106447619D02*
X109857142Y-106400000D01*
X109952380Y-106352380D01*
X110190476Y-106352380D01*
X110285714Y-106400000D01*
X110333333Y-106447619D01*
X110380952Y-106542857D01*
X110380952Y-106638095D01*
X110333333Y-106780952D01*
X109761904Y-107352380D01*
X110380952Y-107352380D01*
X110761904Y-107066666D02*
X111238095Y-107066666D01*
X110666666Y-107352380D02*
X111000000Y-106352380D01*
X111333333Y-107352380D01*
X112190476Y-107352380D02*
X111619047Y-107352380D01*
X111904761Y-107352380D02*
X111904761Y-106352380D01*
X111809523Y-106495238D01*
X111714285Y-106590476D01*
X111619047Y-106638095D01*
X137052380Y-74142857D02*
X136576190Y-74476190D01*
X137052380Y-74714285D02*
X136052380Y-74714285D01*
X136052380Y-74333333D01*
X136100000Y-74238095D01*
X136147619Y-74190476D01*
X136242857Y-74142857D01*
X136385714Y-74142857D01*
X136480952Y-74190476D01*
X136528571Y-74238095D01*
X136576190Y-74333333D01*
X136576190Y-74714285D01*
X137052380Y-73190476D02*
X137052380Y-73761904D01*
X137052380Y-73476190D02*
X136052380Y-73476190D01*
X136195238Y-73571428D01*
X136290476Y-73666666D01*
X136338095Y-73761904D01*
X136957142Y-72190476D02*
X137004761Y-72238095D01*
X137052380Y-72380952D01*
X137052380Y-72476190D01*
X137004761Y-72619047D01*
X136909523Y-72714285D01*
X136814285Y-72761904D01*
X136623809Y-72809523D01*
X136480952Y-72809523D01*
X136290476Y-72761904D01*
X136195238Y-72714285D01*
X136100000Y-72619047D01*
X136052380Y-72476190D01*
X136052380Y-72380952D01*
X136100000Y-72238095D01*
X136147619Y-72190476D01*
X136147619Y-71809523D02*
X136100000Y-71761904D01*
X136052380Y-71666666D01*
X136052380Y-71428571D01*
X136100000Y-71333333D01*
X136147619Y-71285714D01*
X136242857Y-71238095D01*
X136338095Y-71238095D01*
X136480952Y-71285714D01*
X137052380Y-71857142D01*
X137052380Y-71238095D01*
X107352380Y-94542857D02*
X106876190Y-94876190D01*
X107352380Y-95114285D02*
X106352380Y-95114285D01*
X106352380Y-94733333D01*
X106400000Y-94638095D01*
X106447619Y-94590476D01*
X106542857Y-94542857D01*
X106685714Y-94542857D01*
X106780952Y-94590476D01*
X106828571Y-94638095D01*
X106876190Y-94733333D01*
X106876190Y-95114285D01*
X107352380Y-93590476D02*
X107352380Y-94161904D01*
X107352380Y-93876190D02*
X106352380Y-93876190D01*
X106495238Y-93971428D01*
X106590476Y-94066666D01*
X106638095Y-94161904D01*
X107257142Y-92590476D02*
X107304761Y-92638095D01*
X107352380Y-92780952D01*
X107352380Y-92876190D01*
X107304761Y-93019047D01*
X107209523Y-93114285D01*
X107114285Y-93161904D01*
X106923809Y-93209523D01*
X106780952Y-93209523D01*
X106590476Y-93161904D01*
X106495238Y-93114285D01*
X106400000Y-93019047D01*
X106352380Y-92876190D01*
X106352380Y-92780952D01*
X106400000Y-92638095D01*
X106447619Y-92590476D01*
X107352380Y-91638095D02*
X107352380Y-92209523D01*
X107352380Y-91923809D02*
X106352380Y-91923809D01*
X106495238Y-92019047D01*
X106590476Y-92114285D01*
X106638095Y-92209523D01*
X134702380Y-74142857D02*
X134226190Y-74476190D01*
X134702380Y-74714285D02*
X133702380Y-74714285D01*
X133702380Y-74333333D01*
X133750000Y-74238095D01*
X133797619Y-74190476D01*
X133892857Y-74142857D01*
X134035714Y-74142857D01*
X134130952Y-74190476D01*
X134178571Y-74238095D01*
X134226190Y-74333333D01*
X134226190Y-74714285D01*
X134702380Y-73190476D02*
X134702380Y-73761904D01*
X134702380Y-73476190D02*
X133702380Y-73476190D01*
X133845238Y-73571428D01*
X133940476Y-73666666D01*
X133988095Y-73761904D01*
X134178571Y-72428571D02*
X134226190Y-72285714D01*
X134273809Y-72238095D01*
X134369047Y-72190476D01*
X134511904Y-72190476D01*
X134607142Y-72238095D01*
X134654761Y-72285714D01*
X134702380Y-72380952D01*
X134702380Y-72761904D01*
X133702380Y-72761904D01*
X133702380Y-72428571D01*
X133750000Y-72333333D01*
X133797619Y-72285714D01*
X133892857Y-72238095D01*
X133988095Y-72238095D01*
X134083333Y-72285714D01*
X134130952Y-72333333D01*
X134178571Y-72428571D01*
X134178571Y-72761904D01*
X133797619Y-71809523D02*
X133750000Y-71761904D01*
X133702380Y-71666666D01*
X133702380Y-71428571D01*
X133750000Y-71333333D01*
X133797619Y-71285714D01*
X133892857Y-71238095D01*
X133988095Y-71238095D01*
X134130952Y-71285714D01*
X134702380Y-71857142D01*
X134702380Y-71238095D01*
X104952380Y-94642857D02*
X104476190Y-94976190D01*
X104952380Y-95214285D02*
X103952380Y-95214285D01*
X103952380Y-94833333D01*
X104000000Y-94738095D01*
X104047619Y-94690476D01*
X104142857Y-94642857D01*
X104285714Y-94642857D01*
X104380952Y-94690476D01*
X104428571Y-94738095D01*
X104476190Y-94833333D01*
X104476190Y-95214285D01*
X104952380Y-93690476D02*
X104952380Y-94261904D01*
X104952380Y-93976190D02*
X103952380Y-93976190D01*
X104095238Y-94071428D01*
X104190476Y-94166666D01*
X104238095Y-94261904D01*
X104428571Y-92928571D02*
X104476190Y-92785714D01*
X104523809Y-92738095D01*
X104619047Y-92690476D01*
X104761904Y-92690476D01*
X104857142Y-92738095D01*
X104904761Y-92785714D01*
X104952380Y-92880952D01*
X104952380Y-93261904D01*
X103952380Y-93261904D01*
X103952380Y-92928571D01*
X104000000Y-92833333D01*
X104047619Y-92785714D01*
X104142857Y-92738095D01*
X104238095Y-92738095D01*
X104333333Y-92785714D01*
X104380952Y-92833333D01*
X104428571Y-92928571D01*
X104428571Y-93261904D01*
X104952380Y-91738095D02*
X104952380Y-92309523D01*
X104952380Y-92023809D02*
X103952380Y-92023809D01*
X104095238Y-92119047D01*
X104190476Y-92214285D01*
X104238095Y-92309523D01*
X132352380Y-74071428D02*
X131876190Y-74404761D01*
X132352380Y-74642857D02*
X131352380Y-74642857D01*
X131352380Y-74261904D01*
X131400000Y-74166666D01*
X131447619Y-74119047D01*
X131542857Y-74071428D01*
X131685714Y-74071428D01*
X131780952Y-74119047D01*
X131828571Y-74166666D01*
X131876190Y-74261904D01*
X131876190Y-74642857D01*
X132352380Y-73119047D02*
X132352380Y-73690476D01*
X132352380Y-73404761D02*
X131352380Y-73404761D01*
X131495238Y-73500000D01*
X131590476Y-73595238D01*
X131638095Y-73690476D01*
X132066666Y-72738095D02*
X132066666Y-72261904D01*
X132352380Y-72833333D02*
X131352380Y-72500000D01*
X132352380Y-72166666D01*
X131447619Y-71880952D02*
X131400000Y-71833333D01*
X131352380Y-71738095D01*
X131352380Y-71500000D01*
X131400000Y-71404761D01*
X131447619Y-71357142D01*
X131542857Y-71309523D01*
X131638095Y-71309523D01*
X131780952Y-71357142D01*
X132352380Y-71928571D01*
X132352380Y-71309523D01*
X102452380Y-94521428D02*
X101976190Y-94854761D01*
X102452380Y-95092857D02*
X101452380Y-95092857D01*
X101452380Y-94711904D01*
X101500000Y-94616666D01*
X101547619Y-94569047D01*
X101642857Y-94521428D01*
X101785714Y-94521428D01*
X101880952Y-94569047D01*
X101928571Y-94616666D01*
X101976190Y-94711904D01*
X101976190Y-95092857D01*
X102452380Y-93569047D02*
X102452380Y-94140476D01*
X102452380Y-93854761D02*
X101452380Y-93854761D01*
X101595238Y-93950000D01*
X101690476Y-94045238D01*
X101738095Y-94140476D01*
X102166666Y-93188095D02*
X102166666Y-92711904D01*
X102452380Y-93283333D02*
X101452380Y-92950000D01*
X102452380Y-92616666D01*
X102452380Y-91759523D02*
X102452380Y-92330952D01*
X102452380Y-92045238D02*
X101452380Y-92045238D01*
X101595238Y-92140476D01*
X101690476Y-92235714D01*
X101738095Y-92330952D01*
X138657142Y-87102380D02*
X138323809Y-86626190D01*
X138085714Y-87102380D02*
X138085714Y-86102380D01*
X138466666Y-86102380D01*
X138561904Y-86150000D01*
X138609523Y-86197619D01*
X138657142Y-86292857D01*
X138657142Y-86435714D01*
X138609523Y-86530952D01*
X138561904Y-86578571D01*
X138466666Y-86626190D01*
X138085714Y-86626190D01*
X139276190Y-86102380D02*
X139371428Y-86102380D01*
X139466666Y-86150000D01*
X139514285Y-86197619D01*
X139561904Y-86292857D01*
X139609523Y-86483333D01*
X139609523Y-86721428D01*
X139561904Y-86911904D01*
X139514285Y-87007142D01*
X139466666Y-87054761D01*
X139371428Y-87102380D01*
X139276190Y-87102380D01*
X139180952Y-87054761D01*
X139133333Y-87007142D01*
X139085714Y-86911904D01*
X139038095Y-86721428D01*
X139038095Y-86483333D01*
X139085714Y-86292857D01*
X139133333Y-86197619D01*
X139180952Y-86150000D01*
X139276190Y-86102380D01*
X140609523Y-87007142D02*
X140561904Y-87054761D01*
X140419047Y-87102380D01*
X140323809Y-87102380D01*
X140180952Y-87054761D01*
X140085714Y-86959523D01*
X140038095Y-86864285D01*
X139990476Y-86673809D01*
X139990476Y-86530952D01*
X140038095Y-86340476D01*
X140085714Y-86245238D01*
X140180952Y-86150000D01*
X140323809Y-86102380D01*
X140419047Y-86102380D01*
X140561904Y-86150000D01*
X140609523Y-86197619D01*
X140990476Y-86197619D02*
X141038095Y-86150000D01*
X141133333Y-86102380D01*
X141371428Y-86102380D01*
X141466666Y-86150000D01*
X141514285Y-86197619D01*
X141561904Y-86292857D01*
X141561904Y-86388095D01*
X141514285Y-86530952D01*
X140942857Y-87102380D01*
X141561904Y-87102380D01*
X95652380Y-94342857D02*
X95176190Y-94676190D01*
X95652380Y-94914285D02*
X94652380Y-94914285D01*
X94652380Y-94533333D01*
X94700000Y-94438095D01*
X94747619Y-94390476D01*
X94842857Y-94342857D01*
X94985714Y-94342857D01*
X95080952Y-94390476D01*
X95128571Y-94438095D01*
X95176190Y-94533333D01*
X95176190Y-94914285D01*
X94652380Y-93723809D02*
X94652380Y-93628571D01*
X94700000Y-93533333D01*
X94747619Y-93485714D01*
X94842857Y-93438095D01*
X95033333Y-93390476D01*
X95271428Y-93390476D01*
X95461904Y-93438095D01*
X95557142Y-93485714D01*
X95604761Y-93533333D01*
X95652380Y-93628571D01*
X95652380Y-93723809D01*
X95604761Y-93819047D01*
X95557142Y-93866666D01*
X95461904Y-93914285D01*
X95271428Y-93961904D01*
X95033333Y-93961904D01*
X94842857Y-93914285D01*
X94747619Y-93866666D01*
X94700000Y-93819047D01*
X94652380Y-93723809D01*
X95557142Y-92390476D02*
X95604761Y-92438095D01*
X95652380Y-92580952D01*
X95652380Y-92676190D01*
X95604761Y-92819047D01*
X95509523Y-92914285D01*
X95414285Y-92961904D01*
X95223809Y-93009523D01*
X95080952Y-93009523D01*
X94890476Y-92961904D01*
X94795238Y-92914285D01*
X94700000Y-92819047D01*
X94652380Y-92676190D01*
X94652380Y-92580952D01*
X94700000Y-92438095D01*
X94747619Y-92390476D01*
X95652380Y-91438095D02*
X95652380Y-92009523D01*
X95652380Y-91723809D02*
X94652380Y-91723809D01*
X94795238Y-91819047D01*
X94890476Y-91914285D01*
X94938095Y-92009523D01*
X138657142Y-84702380D02*
X138323809Y-84226190D01*
X138085714Y-84702380D02*
X138085714Y-83702380D01*
X138466666Y-83702380D01*
X138561904Y-83750000D01*
X138609523Y-83797619D01*
X138657142Y-83892857D01*
X138657142Y-84035714D01*
X138609523Y-84130952D01*
X138561904Y-84178571D01*
X138466666Y-84226190D01*
X138085714Y-84226190D01*
X139276190Y-83702380D02*
X139371428Y-83702380D01*
X139466666Y-83750000D01*
X139514285Y-83797619D01*
X139561904Y-83892857D01*
X139609523Y-84083333D01*
X139609523Y-84321428D01*
X139561904Y-84511904D01*
X139514285Y-84607142D01*
X139466666Y-84654761D01*
X139371428Y-84702380D01*
X139276190Y-84702380D01*
X139180952Y-84654761D01*
X139133333Y-84607142D01*
X139085714Y-84511904D01*
X139038095Y-84321428D01*
X139038095Y-84083333D01*
X139085714Y-83892857D01*
X139133333Y-83797619D01*
X139180952Y-83750000D01*
X139276190Y-83702380D01*
X140371428Y-84178571D02*
X140514285Y-84226190D01*
X140561904Y-84273809D01*
X140609523Y-84369047D01*
X140609523Y-84511904D01*
X140561904Y-84607142D01*
X140514285Y-84654761D01*
X140419047Y-84702380D01*
X140038095Y-84702380D01*
X140038095Y-83702380D01*
X140371428Y-83702380D01*
X140466666Y-83750000D01*
X140514285Y-83797619D01*
X140561904Y-83892857D01*
X140561904Y-83988095D01*
X140514285Y-84083333D01*
X140466666Y-84130952D01*
X140371428Y-84178571D01*
X140038095Y-84178571D01*
X140990476Y-83797619D02*
X141038095Y-83750000D01*
X141133333Y-83702380D01*
X141371428Y-83702380D01*
X141466666Y-83750000D01*
X141514285Y-83797619D01*
X141561904Y-83892857D01*
X141561904Y-83988095D01*
X141514285Y-84130952D01*
X140942857Y-84702380D01*
X141561904Y-84702380D01*
X93352380Y-94342857D02*
X92876190Y-94676190D01*
X93352380Y-94914285D02*
X92352380Y-94914285D01*
X92352380Y-94533333D01*
X92400000Y-94438095D01*
X92447619Y-94390476D01*
X92542857Y-94342857D01*
X92685714Y-94342857D01*
X92780952Y-94390476D01*
X92828571Y-94438095D01*
X92876190Y-94533333D01*
X92876190Y-94914285D01*
X92352380Y-93723809D02*
X92352380Y-93628571D01*
X92400000Y-93533333D01*
X92447619Y-93485714D01*
X92542857Y-93438095D01*
X92733333Y-93390476D01*
X92971428Y-93390476D01*
X93161904Y-93438095D01*
X93257142Y-93485714D01*
X93304761Y-93533333D01*
X93352380Y-93628571D01*
X93352380Y-93723809D01*
X93304761Y-93819047D01*
X93257142Y-93866666D01*
X93161904Y-93914285D01*
X92971428Y-93961904D01*
X92733333Y-93961904D01*
X92542857Y-93914285D01*
X92447619Y-93866666D01*
X92400000Y-93819047D01*
X92352380Y-93723809D01*
X92828571Y-92628571D02*
X92876190Y-92485714D01*
X92923809Y-92438095D01*
X93019047Y-92390476D01*
X93161904Y-92390476D01*
X93257142Y-92438095D01*
X93304761Y-92485714D01*
X93352380Y-92580952D01*
X93352380Y-92961904D01*
X92352380Y-92961904D01*
X92352380Y-92628571D01*
X92400000Y-92533333D01*
X92447619Y-92485714D01*
X92542857Y-92438095D01*
X92638095Y-92438095D01*
X92733333Y-92485714D01*
X92780952Y-92533333D01*
X92828571Y-92628571D01*
X92828571Y-92961904D01*
X93352380Y-91438095D02*
X93352380Y-92009523D01*
X93352380Y-91723809D02*
X92352380Y-91723809D01*
X92495238Y-91819047D01*
X92590476Y-91914285D01*
X92638095Y-92009523D01*
X138728571Y-82302380D02*
X138395238Y-81826190D01*
X138157142Y-82302380D02*
X138157142Y-81302380D01*
X138538095Y-81302380D01*
X138633333Y-81350000D01*
X138680952Y-81397619D01*
X138728571Y-81492857D01*
X138728571Y-81635714D01*
X138680952Y-81730952D01*
X138633333Y-81778571D01*
X138538095Y-81826190D01*
X138157142Y-81826190D01*
X139347619Y-81302380D02*
X139442857Y-81302380D01*
X139538095Y-81350000D01*
X139585714Y-81397619D01*
X139633333Y-81492857D01*
X139680952Y-81683333D01*
X139680952Y-81921428D01*
X139633333Y-82111904D01*
X139585714Y-82207142D01*
X139538095Y-82254761D01*
X139442857Y-82302380D01*
X139347619Y-82302380D01*
X139252380Y-82254761D01*
X139204761Y-82207142D01*
X139157142Y-82111904D01*
X139109523Y-81921428D01*
X139109523Y-81683333D01*
X139157142Y-81492857D01*
X139204761Y-81397619D01*
X139252380Y-81350000D01*
X139347619Y-81302380D01*
X140061904Y-82016666D02*
X140538095Y-82016666D01*
X139966666Y-82302380D02*
X140300000Y-81302380D01*
X140633333Y-82302380D01*
X140919047Y-81397619D02*
X140966666Y-81350000D01*
X141061904Y-81302380D01*
X141300000Y-81302380D01*
X141395238Y-81350000D01*
X141442857Y-81397619D01*
X141490476Y-81492857D01*
X141490476Y-81588095D01*
X141442857Y-81730952D01*
X140871428Y-82302380D01*
X141490476Y-82302380D01*
X90952380Y-94371428D02*
X90476190Y-94704761D01*
X90952380Y-94942857D02*
X89952380Y-94942857D01*
X89952380Y-94561904D01*
X90000000Y-94466666D01*
X90047619Y-94419047D01*
X90142857Y-94371428D01*
X90285714Y-94371428D01*
X90380952Y-94419047D01*
X90428571Y-94466666D01*
X90476190Y-94561904D01*
X90476190Y-94942857D01*
X89952380Y-93752380D02*
X89952380Y-93657142D01*
X90000000Y-93561904D01*
X90047619Y-93514285D01*
X90142857Y-93466666D01*
X90333333Y-93419047D01*
X90571428Y-93419047D01*
X90761904Y-93466666D01*
X90857142Y-93514285D01*
X90904761Y-93561904D01*
X90952380Y-93657142D01*
X90952380Y-93752380D01*
X90904761Y-93847619D01*
X90857142Y-93895238D01*
X90761904Y-93942857D01*
X90571428Y-93990476D01*
X90333333Y-93990476D01*
X90142857Y-93942857D01*
X90047619Y-93895238D01*
X90000000Y-93847619D01*
X89952380Y-93752380D01*
X90666666Y-93038095D02*
X90666666Y-92561904D01*
X90952380Y-93133333D02*
X89952380Y-92800000D01*
X90952380Y-92466666D01*
X90952380Y-91609523D02*
X90952380Y-92180952D01*
X90952380Y-91895238D02*
X89952380Y-91895238D01*
X90095238Y-91990476D01*
X90190476Y-92085714D01*
X90238095Y-92180952D01*
X150702380Y-146992857D02*
X150226190Y-147326190D01*
X150702380Y-147564285D02*
X149702380Y-147564285D01*
X149702380Y-147183333D01*
X149750000Y-147088095D01*
X149797619Y-147040476D01*
X149892857Y-146992857D01*
X150035714Y-146992857D01*
X150130952Y-147040476D01*
X150178571Y-147088095D01*
X150226190Y-147183333D01*
X150226190Y-147564285D01*
X149702380Y-146659523D02*
X149702380Y-146040476D01*
X150083333Y-146373809D01*
X150083333Y-146230952D01*
X150130952Y-146135714D01*
X150178571Y-146088095D01*
X150273809Y-146040476D01*
X150511904Y-146040476D01*
X150607142Y-146088095D01*
X150654761Y-146135714D01*
X150702380Y-146230952D01*
X150702380Y-146516666D01*
X150654761Y-146611904D01*
X150607142Y-146659523D01*
X150035714Y-145183333D02*
X150702380Y-145183333D01*
X149654761Y-145421428D02*
X150369047Y-145659523D01*
X150369047Y-145040476D01*
X146352380Y-138192857D02*
X145876190Y-138526190D01*
X146352380Y-138764285D02*
X145352380Y-138764285D01*
X145352380Y-138383333D01*
X145400000Y-138288095D01*
X145447619Y-138240476D01*
X145542857Y-138192857D01*
X145685714Y-138192857D01*
X145780952Y-138240476D01*
X145828571Y-138288095D01*
X145876190Y-138383333D01*
X145876190Y-138764285D01*
X145352380Y-137859523D02*
X145352380Y-137240476D01*
X145733333Y-137573809D01*
X145733333Y-137430952D01*
X145780952Y-137335714D01*
X145828571Y-137288095D01*
X145923809Y-137240476D01*
X146161904Y-137240476D01*
X146257142Y-137288095D01*
X146304761Y-137335714D01*
X146352380Y-137430952D01*
X146352380Y-137716666D01*
X146304761Y-137811904D01*
X146257142Y-137859523D01*
X145352380Y-136907142D02*
X145352380Y-136288095D01*
X145733333Y-136621428D01*
X145733333Y-136478571D01*
X145780952Y-136383333D01*
X145828571Y-136335714D01*
X145923809Y-136288095D01*
X146161904Y-136288095D01*
X146257142Y-136335714D01*
X146304761Y-136383333D01*
X146352380Y-136478571D01*
X146352380Y-136764285D01*
X146304761Y-136859523D01*
X146257142Y-136907142D01*
X152602380Y-137892857D02*
X152126190Y-138226190D01*
X152602380Y-138464285D02*
X151602380Y-138464285D01*
X151602380Y-138083333D01*
X151650000Y-137988095D01*
X151697619Y-137940476D01*
X151792857Y-137892857D01*
X151935714Y-137892857D01*
X152030952Y-137940476D01*
X152078571Y-137988095D01*
X152126190Y-138083333D01*
X152126190Y-138464285D01*
X151602380Y-137559523D02*
X151602380Y-136940476D01*
X151983333Y-137273809D01*
X151983333Y-137130952D01*
X152030952Y-137035714D01*
X152078571Y-136988095D01*
X152173809Y-136940476D01*
X152411904Y-136940476D01*
X152507142Y-136988095D01*
X152554761Y-137035714D01*
X152602380Y-137130952D01*
X152602380Y-137416666D01*
X152554761Y-137511904D01*
X152507142Y-137559523D01*
X151697619Y-136559523D02*
X151650000Y-136511904D01*
X151602380Y-136416666D01*
X151602380Y-136178571D01*
X151650000Y-136083333D01*
X151697619Y-136035714D01*
X151792857Y-135988095D01*
X151888095Y-135988095D01*
X152030952Y-136035714D01*
X152602380Y-136607142D01*
X152602380Y-135988095D01*
X148102380Y-146942857D02*
X147626190Y-147276190D01*
X148102380Y-147514285D02*
X147102380Y-147514285D01*
X147102380Y-147133333D01*
X147150000Y-147038095D01*
X147197619Y-146990476D01*
X147292857Y-146942857D01*
X147435714Y-146942857D01*
X147530952Y-146990476D01*
X147578571Y-147038095D01*
X147626190Y-147133333D01*
X147626190Y-147514285D01*
X147102380Y-146609523D02*
X147102380Y-145990476D01*
X147483333Y-146323809D01*
X147483333Y-146180952D01*
X147530952Y-146085714D01*
X147578571Y-146038095D01*
X147673809Y-145990476D01*
X147911904Y-145990476D01*
X148007142Y-146038095D01*
X148054761Y-146085714D01*
X148102380Y-146180952D01*
X148102380Y-146466666D01*
X148054761Y-146561904D01*
X148007142Y-146609523D01*
X148102380Y-145038095D02*
X148102380Y-145609523D01*
X148102380Y-145323809D02*
X147102380Y-145323809D01*
X147245238Y-145419047D01*
X147340476Y-145514285D01*
X147388095Y-145609523D01*
X142557142Y-143952380D02*
X142223809Y-143476190D01*
X141985714Y-143952380D02*
X141985714Y-142952380D01*
X142366666Y-142952380D01*
X142461904Y-143000000D01*
X142509523Y-143047619D01*
X142557142Y-143142857D01*
X142557142Y-143285714D01*
X142509523Y-143380952D01*
X142461904Y-143428571D01*
X142366666Y-143476190D01*
X141985714Y-143476190D01*
X142890476Y-142952380D02*
X143509523Y-142952380D01*
X143176190Y-143333333D01*
X143319047Y-143333333D01*
X143414285Y-143380952D01*
X143461904Y-143428571D01*
X143509523Y-143523809D01*
X143509523Y-143761904D01*
X143461904Y-143857142D01*
X143414285Y-143904761D01*
X143319047Y-143952380D01*
X143033333Y-143952380D01*
X142938095Y-143904761D01*
X142890476Y-143857142D01*
X144128571Y-142952380D02*
X144223809Y-142952380D01*
X144319047Y-143000000D01*
X144366666Y-143047619D01*
X144414285Y-143142857D01*
X144461904Y-143333333D01*
X144461904Y-143571428D01*
X144414285Y-143761904D01*
X144366666Y-143857142D01*
X144319047Y-143904761D01*
X144223809Y-143952380D01*
X144128571Y-143952380D01*
X144033333Y-143904761D01*
X143985714Y-143857142D01*
X143938095Y-143761904D01*
X143890476Y-143571428D01*
X143890476Y-143333333D01*
X143938095Y-143142857D01*
X143985714Y-143047619D01*
X144033333Y-143000000D01*
X144128571Y-142952380D01*
X172552380Y-103592857D02*
X172076190Y-103926190D01*
X172552380Y-104164285D02*
X171552380Y-104164285D01*
X171552380Y-103783333D01*
X171600000Y-103688095D01*
X171647619Y-103640476D01*
X171742857Y-103592857D01*
X171885714Y-103592857D01*
X171980952Y-103640476D01*
X172028571Y-103688095D01*
X172076190Y-103783333D01*
X172076190Y-104164285D01*
X171647619Y-103211904D02*
X171600000Y-103164285D01*
X171552380Y-103069047D01*
X171552380Y-102830952D01*
X171600000Y-102735714D01*
X171647619Y-102688095D01*
X171742857Y-102640476D01*
X171838095Y-102640476D01*
X171980952Y-102688095D01*
X172552380Y-103259523D01*
X172552380Y-102640476D01*
X172552380Y-102164285D02*
X172552380Y-101973809D01*
X172504761Y-101878571D01*
X172457142Y-101830952D01*
X172314285Y-101735714D01*
X172123809Y-101688095D01*
X171742857Y-101688095D01*
X171647619Y-101735714D01*
X171600000Y-101783333D01*
X171552380Y-101878571D01*
X171552380Y-102069047D01*
X171600000Y-102164285D01*
X171647619Y-102211904D01*
X171742857Y-102259523D01*
X171980952Y-102259523D01*
X172076190Y-102211904D01*
X172123809Y-102164285D01*
X172171428Y-102069047D01*
X172171428Y-101878571D01*
X172123809Y-101783333D01*
X172076190Y-101735714D01*
X171980952Y-101688095D01*
X171202380Y-103592857D02*
X170726190Y-103926190D01*
X171202380Y-104164285D02*
X170202380Y-104164285D01*
X170202380Y-103783333D01*
X170250000Y-103688095D01*
X170297619Y-103640476D01*
X170392857Y-103592857D01*
X170535714Y-103592857D01*
X170630952Y-103640476D01*
X170678571Y-103688095D01*
X170726190Y-103783333D01*
X170726190Y-104164285D01*
X170297619Y-103211904D02*
X170250000Y-103164285D01*
X170202380Y-103069047D01*
X170202380Y-102830952D01*
X170250000Y-102735714D01*
X170297619Y-102688095D01*
X170392857Y-102640476D01*
X170488095Y-102640476D01*
X170630952Y-102688095D01*
X171202380Y-103259523D01*
X171202380Y-102640476D01*
X170630952Y-102069047D02*
X170583333Y-102164285D01*
X170535714Y-102211904D01*
X170440476Y-102259523D01*
X170392857Y-102259523D01*
X170297619Y-102211904D01*
X170250000Y-102164285D01*
X170202380Y-102069047D01*
X170202380Y-101878571D01*
X170250000Y-101783333D01*
X170297619Y-101735714D01*
X170392857Y-101688095D01*
X170440476Y-101688095D01*
X170535714Y-101735714D01*
X170583333Y-101783333D01*
X170630952Y-101878571D01*
X170630952Y-102069047D01*
X170678571Y-102164285D01*
X170726190Y-102211904D01*
X170821428Y-102259523D01*
X171011904Y-102259523D01*
X171107142Y-102211904D01*
X171154761Y-102164285D01*
X171202380Y-102069047D01*
X171202380Y-101878571D01*
X171154761Y-101783333D01*
X171107142Y-101735714D01*
X171011904Y-101688095D01*
X170821428Y-101688095D01*
X170726190Y-101735714D01*
X170678571Y-101783333D01*
X170630952Y-101878571D01*
X162382380Y-103792857D02*
X161906190Y-104126190D01*
X162382380Y-104364285D02*
X161382380Y-104364285D01*
X161382380Y-103983333D01*
X161430000Y-103888095D01*
X161477619Y-103840476D01*
X161572857Y-103792857D01*
X161715714Y-103792857D01*
X161810952Y-103840476D01*
X161858571Y-103888095D01*
X161906190Y-103983333D01*
X161906190Y-104364285D01*
X161477619Y-103411904D02*
X161430000Y-103364285D01*
X161382380Y-103269047D01*
X161382380Y-103030952D01*
X161430000Y-102935714D01*
X161477619Y-102888095D01*
X161572857Y-102840476D01*
X161668095Y-102840476D01*
X161810952Y-102888095D01*
X162382380Y-103459523D01*
X162382380Y-102840476D01*
X161382380Y-102507142D02*
X161382380Y-101840476D01*
X162382380Y-102269047D01*
X169202380Y-112642857D02*
X168726190Y-112976190D01*
X169202380Y-113214285D02*
X168202380Y-113214285D01*
X168202380Y-112833333D01*
X168250000Y-112738095D01*
X168297619Y-112690476D01*
X168392857Y-112642857D01*
X168535714Y-112642857D01*
X168630952Y-112690476D01*
X168678571Y-112738095D01*
X168726190Y-112833333D01*
X168726190Y-113214285D01*
X168297619Y-112261904D02*
X168250000Y-112214285D01*
X168202380Y-112119047D01*
X168202380Y-111880952D01*
X168250000Y-111785714D01*
X168297619Y-111738095D01*
X168392857Y-111690476D01*
X168488095Y-111690476D01*
X168630952Y-111738095D01*
X169202380Y-112309523D01*
X169202380Y-111690476D01*
X168202380Y-110833333D02*
X168202380Y-111023809D01*
X168250000Y-111119047D01*
X168297619Y-111166666D01*
X168440476Y-111261904D01*
X168630952Y-111309523D01*
X169011904Y-111309523D01*
X169107142Y-111261904D01*
X169154761Y-111214285D01*
X169202380Y-111119047D01*
X169202380Y-110928571D01*
X169154761Y-110833333D01*
X169107142Y-110785714D01*
X169011904Y-110738095D01*
X168773809Y-110738095D01*
X168678571Y-110785714D01*
X168630952Y-110833333D01*
X168583333Y-110928571D01*
X168583333Y-111119047D01*
X168630952Y-111214285D01*
X168678571Y-111261904D01*
X168773809Y-111309523D01*
X166702380Y-112592857D02*
X166226190Y-112926190D01*
X166702380Y-113164285D02*
X165702380Y-113164285D01*
X165702380Y-112783333D01*
X165750000Y-112688095D01*
X165797619Y-112640476D01*
X165892857Y-112592857D01*
X166035714Y-112592857D01*
X166130952Y-112640476D01*
X166178571Y-112688095D01*
X166226190Y-112783333D01*
X166226190Y-113164285D01*
X165797619Y-112211904D02*
X165750000Y-112164285D01*
X165702380Y-112069047D01*
X165702380Y-111830952D01*
X165750000Y-111735714D01*
X165797619Y-111688095D01*
X165892857Y-111640476D01*
X165988095Y-111640476D01*
X166130952Y-111688095D01*
X166702380Y-112259523D01*
X166702380Y-111640476D01*
X165702380Y-110735714D02*
X165702380Y-111211904D01*
X166178571Y-111259523D01*
X166130952Y-111211904D01*
X166083333Y-111116666D01*
X166083333Y-110878571D01*
X166130952Y-110783333D01*
X166178571Y-110735714D01*
X166273809Y-110688095D01*
X166511904Y-110688095D01*
X166607142Y-110735714D01*
X166654761Y-110783333D01*
X166702380Y-110878571D01*
X166702380Y-111116666D01*
X166654761Y-111211904D01*
X166607142Y-111259523D01*
X164202380Y-112642857D02*
X163726190Y-112976190D01*
X164202380Y-113214285D02*
X163202380Y-113214285D01*
X163202380Y-112833333D01*
X163250000Y-112738095D01*
X163297619Y-112690476D01*
X163392857Y-112642857D01*
X163535714Y-112642857D01*
X163630952Y-112690476D01*
X163678571Y-112738095D01*
X163726190Y-112833333D01*
X163726190Y-113214285D01*
X163297619Y-112261904D02*
X163250000Y-112214285D01*
X163202380Y-112119047D01*
X163202380Y-111880952D01*
X163250000Y-111785714D01*
X163297619Y-111738095D01*
X163392857Y-111690476D01*
X163488095Y-111690476D01*
X163630952Y-111738095D01*
X164202380Y-112309523D01*
X164202380Y-111690476D01*
X163535714Y-110833333D02*
X164202380Y-110833333D01*
X163154761Y-111071428D02*
X163869047Y-111309523D01*
X163869047Y-110690476D01*
X176102380Y-111542857D02*
X175626190Y-111876190D01*
X176102380Y-112114285D02*
X175102380Y-112114285D01*
X175102380Y-111733333D01*
X175150000Y-111638095D01*
X175197619Y-111590476D01*
X175292857Y-111542857D01*
X175435714Y-111542857D01*
X175530952Y-111590476D01*
X175578571Y-111638095D01*
X175626190Y-111733333D01*
X175626190Y-112114285D01*
X175197619Y-111161904D02*
X175150000Y-111114285D01*
X175102380Y-111019047D01*
X175102380Y-110780952D01*
X175150000Y-110685714D01*
X175197619Y-110638095D01*
X175292857Y-110590476D01*
X175388095Y-110590476D01*
X175530952Y-110638095D01*
X176102380Y-111209523D01*
X176102380Y-110590476D01*
X175102380Y-110257142D02*
X175102380Y-109638095D01*
X175483333Y-109971428D01*
X175483333Y-109828571D01*
X175530952Y-109733333D01*
X175578571Y-109685714D01*
X175673809Y-109638095D01*
X175911904Y-109638095D01*
X176007142Y-109685714D01*
X176054761Y-109733333D01*
X176102380Y-109828571D01*
X176102380Y-110114285D01*
X176054761Y-110209523D01*
X176007142Y-110257142D01*
X168337142Y-91452380D02*
X168003809Y-90976190D01*
X167765714Y-91452380D02*
X167765714Y-90452380D01*
X168146666Y-90452380D01*
X168241904Y-90500000D01*
X168289523Y-90547619D01*
X168337142Y-90642857D01*
X168337142Y-90785714D01*
X168289523Y-90880952D01*
X168241904Y-90928571D01*
X168146666Y-90976190D01*
X167765714Y-90976190D01*
X168718095Y-90547619D02*
X168765714Y-90500000D01*
X168860952Y-90452380D01*
X169099047Y-90452380D01*
X169194285Y-90500000D01*
X169241904Y-90547619D01*
X169289523Y-90642857D01*
X169289523Y-90738095D01*
X169241904Y-90880952D01*
X168670476Y-91452380D01*
X169289523Y-91452380D01*
X169670476Y-90547619D02*
X169718095Y-90500000D01*
X169813333Y-90452380D01*
X170051428Y-90452380D01*
X170146666Y-90500000D01*
X170194285Y-90547619D01*
X170241904Y-90642857D01*
X170241904Y-90738095D01*
X170194285Y-90880952D01*
X169622857Y-91452380D01*
X170241904Y-91452380D01*
X123707142Y-113522380D02*
X123373809Y-113046190D01*
X123135714Y-113522380D02*
X123135714Y-112522380D01*
X123516666Y-112522380D01*
X123611904Y-112570000D01*
X123659523Y-112617619D01*
X123707142Y-112712857D01*
X123707142Y-112855714D01*
X123659523Y-112950952D01*
X123611904Y-112998571D01*
X123516666Y-113046190D01*
X123135714Y-113046190D01*
X124088095Y-112617619D02*
X124135714Y-112570000D01*
X124230952Y-112522380D01*
X124469047Y-112522380D01*
X124564285Y-112570000D01*
X124611904Y-112617619D01*
X124659523Y-112712857D01*
X124659523Y-112808095D01*
X124611904Y-112950952D01*
X124040476Y-113522380D01*
X124659523Y-113522380D01*
X125611904Y-113522380D02*
X125040476Y-113522380D01*
X125326190Y-113522380D02*
X125326190Y-112522380D01*
X125230952Y-112665238D01*
X125135714Y-112760476D01*
X125040476Y-112808095D01*
X109382380Y-70392857D02*
X108906190Y-70726190D01*
X109382380Y-70964285D02*
X108382380Y-70964285D01*
X108382380Y-70583333D01*
X108430000Y-70488095D01*
X108477619Y-70440476D01*
X108572857Y-70392857D01*
X108715714Y-70392857D01*
X108810952Y-70440476D01*
X108858571Y-70488095D01*
X108906190Y-70583333D01*
X108906190Y-70964285D01*
X108477619Y-70011904D02*
X108430000Y-69964285D01*
X108382380Y-69869047D01*
X108382380Y-69630952D01*
X108430000Y-69535714D01*
X108477619Y-69488095D01*
X108572857Y-69440476D01*
X108668095Y-69440476D01*
X108810952Y-69488095D01*
X109382380Y-70059523D01*
X109382380Y-69440476D01*
X108382380Y-68821428D02*
X108382380Y-68726190D01*
X108430000Y-68630952D01*
X108477619Y-68583333D01*
X108572857Y-68535714D01*
X108763333Y-68488095D01*
X109001428Y-68488095D01*
X109191904Y-68535714D01*
X109287142Y-68583333D01*
X109334761Y-68630952D01*
X109382380Y-68726190D01*
X109382380Y-68821428D01*
X109334761Y-68916666D01*
X109287142Y-68964285D01*
X109191904Y-69011904D01*
X109001428Y-69059523D01*
X108763333Y-69059523D01*
X108572857Y-69011904D01*
X108477619Y-68964285D01*
X108430000Y-68916666D01*
X108382380Y-68821428D01*
X72532380Y-72042857D02*
X72056190Y-72376190D01*
X72532380Y-72614285D02*
X71532380Y-72614285D01*
X71532380Y-72233333D01*
X71580000Y-72138095D01*
X71627619Y-72090476D01*
X71722857Y-72042857D01*
X71865714Y-72042857D01*
X71960952Y-72090476D01*
X72008571Y-72138095D01*
X72056190Y-72233333D01*
X72056190Y-72614285D01*
X72532380Y-71090476D02*
X72532380Y-71661904D01*
X72532380Y-71376190D02*
X71532380Y-71376190D01*
X71675238Y-71471428D01*
X71770476Y-71566666D01*
X71818095Y-71661904D01*
X72532380Y-70614285D02*
X72532380Y-70423809D01*
X72484761Y-70328571D01*
X72437142Y-70280952D01*
X72294285Y-70185714D01*
X72103809Y-70138095D01*
X71722857Y-70138095D01*
X71627619Y-70185714D01*
X71580000Y-70233333D01*
X71532380Y-70328571D01*
X71532380Y-70519047D01*
X71580000Y-70614285D01*
X71627619Y-70661904D01*
X71722857Y-70709523D01*
X71960952Y-70709523D01*
X72056190Y-70661904D01*
X72103809Y-70614285D01*
X72151428Y-70519047D01*
X72151428Y-70328571D01*
X72103809Y-70233333D01*
X72056190Y-70185714D01*
X71960952Y-70138095D01*
X78852380Y-72192857D02*
X78376190Y-72526190D01*
X78852380Y-72764285D02*
X77852380Y-72764285D01*
X77852380Y-72383333D01*
X77900000Y-72288095D01*
X77947619Y-72240476D01*
X78042857Y-72192857D01*
X78185714Y-72192857D01*
X78280952Y-72240476D01*
X78328571Y-72288095D01*
X78376190Y-72383333D01*
X78376190Y-72764285D01*
X78852380Y-71240476D02*
X78852380Y-71811904D01*
X78852380Y-71526190D02*
X77852380Y-71526190D01*
X77995238Y-71621428D01*
X78090476Y-71716666D01*
X78138095Y-71811904D01*
X78280952Y-70669047D02*
X78233333Y-70764285D01*
X78185714Y-70811904D01*
X78090476Y-70859523D01*
X78042857Y-70859523D01*
X77947619Y-70811904D01*
X77900000Y-70764285D01*
X77852380Y-70669047D01*
X77852380Y-70478571D01*
X77900000Y-70383333D01*
X77947619Y-70335714D01*
X78042857Y-70288095D01*
X78090476Y-70288095D01*
X78185714Y-70335714D01*
X78233333Y-70383333D01*
X78280952Y-70478571D01*
X78280952Y-70669047D01*
X78328571Y-70764285D01*
X78376190Y-70811904D01*
X78471428Y-70859523D01*
X78661904Y-70859523D01*
X78757142Y-70811904D01*
X78804761Y-70764285D01*
X78852380Y-70669047D01*
X78852380Y-70478571D01*
X78804761Y-70383333D01*
X78757142Y-70335714D01*
X78661904Y-70288095D01*
X78471428Y-70288095D01*
X78376190Y-70335714D01*
X78328571Y-70383333D01*
X78280952Y-70478571D01*
X137357142Y-140452380D02*
X137023809Y-139976190D01*
X136785714Y-140452380D02*
X136785714Y-139452380D01*
X137166666Y-139452380D01*
X137261904Y-139500000D01*
X137309523Y-139547619D01*
X137357142Y-139642857D01*
X137357142Y-139785714D01*
X137309523Y-139880952D01*
X137261904Y-139928571D01*
X137166666Y-139976190D01*
X136785714Y-139976190D01*
X138309523Y-140452380D02*
X137738095Y-140452380D01*
X138023809Y-140452380D02*
X138023809Y-139452380D01*
X137928571Y-139595238D01*
X137833333Y-139690476D01*
X137738095Y-139738095D01*
X138642857Y-139452380D02*
X139309523Y-139452380D01*
X138880952Y-140452380D01*
X134657142Y-148002380D02*
X134323809Y-147526190D01*
X134085714Y-148002380D02*
X134085714Y-147002380D01*
X134466666Y-147002380D01*
X134561904Y-147050000D01*
X134609523Y-147097619D01*
X134657142Y-147192857D01*
X134657142Y-147335714D01*
X134609523Y-147430952D01*
X134561904Y-147478571D01*
X134466666Y-147526190D01*
X134085714Y-147526190D01*
X135609523Y-148002380D02*
X135038095Y-148002380D01*
X135323809Y-148002380D02*
X135323809Y-147002380D01*
X135228571Y-147145238D01*
X135133333Y-147240476D01*
X135038095Y-147288095D01*
X136466666Y-147002380D02*
X136276190Y-147002380D01*
X136180952Y-147050000D01*
X136133333Y-147097619D01*
X136038095Y-147240476D01*
X135990476Y-147430952D01*
X135990476Y-147811904D01*
X136038095Y-147907142D01*
X136085714Y-147954761D01*
X136180952Y-148002380D01*
X136371428Y-148002380D01*
X136466666Y-147954761D01*
X136514285Y-147907142D01*
X136561904Y-147811904D01*
X136561904Y-147573809D01*
X136514285Y-147478571D01*
X136466666Y-147430952D01*
X136371428Y-147383333D01*
X136180952Y-147383333D01*
X136085714Y-147430952D01*
X136038095Y-147478571D01*
X135990476Y-147573809D01*
X137357142Y-142952380D02*
X137023809Y-142476190D01*
X136785714Y-142952380D02*
X136785714Y-141952380D01*
X137166666Y-141952380D01*
X137261904Y-142000000D01*
X137309523Y-142047619D01*
X137357142Y-142142857D01*
X137357142Y-142285714D01*
X137309523Y-142380952D01*
X137261904Y-142428571D01*
X137166666Y-142476190D01*
X136785714Y-142476190D01*
X138309523Y-142952380D02*
X137738095Y-142952380D01*
X138023809Y-142952380D02*
X138023809Y-141952380D01*
X137928571Y-142095238D01*
X137833333Y-142190476D01*
X137738095Y-142238095D01*
X139214285Y-141952380D02*
X138738095Y-141952380D01*
X138690476Y-142428571D01*
X138738095Y-142380952D01*
X138833333Y-142333333D01*
X139071428Y-142333333D01*
X139166666Y-142380952D01*
X139214285Y-142428571D01*
X139261904Y-142523809D01*
X139261904Y-142761904D01*
X139214285Y-142857142D01*
X139166666Y-142904761D01*
X139071428Y-142952380D01*
X138833333Y-142952380D01*
X138738095Y-142904761D01*
X138690476Y-142857142D01*
X137357142Y-145302380D02*
X137023809Y-144826190D01*
X136785714Y-145302380D02*
X136785714Y-144302380D01*
X137166666Y-144302380D01*
X137261904Y-144350000D01*
X137309523Y-144397619D01*
X137357142Y-144492857D01*
X137357142Y-144635714D01*
X137309523Y-144730952D01*
X137261904Y-144778571D01*
X137166666Y-144826190D01*
X136785714Y-144826190D01*
X138309523Y-145302380D02*
X137738095Y-145302380D01*
X138023809Y-145302380D02*
X138023809Y-144302380D01*
X137928571Y-144445238D01*
X137833333Y-144540476D01*
X137738095Y-144588095D01*
X139166666Y-144635714D02*
X139166666Y-145302380D01*
X138928571Y-144254761D02*
X138690476Y-144969047D01*
X139309523Y-144969047D01*
X138057142Y-148052380D02*
X137723809Y-147576190D01*
X137485714Y-148052380D02*
X137485714Y-147052380D01*
X137866666Y-147052380D01*
X137961904Y-147100000D01*
X138009523Y-147147619D01*
X138057142Y-147242857D01*
X138057142Y-147385714D01*
X138009523Y-147480952D01*
X137961904Y-147528571D01*
X137866666Y-147576190D01*
X137485714Y-147576190D01*
X139009523Y-148052380D02*
X138438095Y-148052380D01*
X138723809Y-148052380D02*
X138723809Y-147052380D01*
X138628571Y-147195238D01*
X138533333Y-147290476D01*
X138438095Y-147338095D01*
X139342857Y-147052380D02*
X139961904Y-147052380D01*
X139628571Y-147433333D01*
X139771428Y-147433333D01*
X139866666Y-147480952D01*
X139914285Y-147528571D01*
X139961904Y-147623809D01*
X139961904Y-147861904D01*
X139914285Y-147957142D01*
X139866666Y-148004761D01*
X139771428Y-148052380D01*
X139485714Y-148052380D01*
X139390476Y-148004761D01*
X139342857Y-147957142D01*
X109952380Y-128142857D02*
X109476190Y-128476190D01*
X109952380Y-128714285D02*
X108952380Y-128714285D01*
X108952380Y-128333333D01*
X109000000Y-128238095D01*
X109047619Y-128190476D01*
X109142857Y-128142857D01*
X109285714Y-128142857D01*
X109380952Y-128190476D01*
X109428571Y-128238095D01*
X109476190Y-128333333D01*
X109476190Y-128714285D01*
X109952380Y-127190476D02*
X109952380Y-127761904D01*
X109952380Y-127476190D02*
X108952380Y-127476190D01*
X109095238Y-127571428D01*
X109190476Y-127666666D01*
X109238095Y-127761904D01*
X109047619Y-126809523D02*
X109000000Y-126761904D01*
X108952380Y-126666666D01*
X108952380Y-126428571D01*
X109000000Y-126333333D01*
X109047619Y-126285714D01*
X109142857Y-126238095D01*
X109238095Y-126238095D01*
X109380952Y-126285714D01*
X109952380Y-126857142D01*
X109952380Y-126238095D01*
X114702380Y-128142857D02*
X114226190Y-128476190D01*
X114702380Y-128714285D02*
X113702380Y-128714285D01*
X113702380Y-128333333D01*
X113750000Y-128238095D01*
X113797619Y-128190476D01*
X113892857Y-128142857D01*
X114035714Y-128142857D01*
X114130952Y-128190476D01*
X114178571Y-128238095D01*
X114226190Y-128333333D01*
X114226190Y-128714285D01*
X114702380Y-127190476D02*
X114702380Y-127761904D01*
X114702380Y-127476190D02*
X113702380Y-127476190D01*
X113845238Y-127571428D01*
X113940476Y-127666666D01*
X113988095Y-127761904D01*
X114702380Y-126238095D02*
X114702380Y-126809523D01*
X114702380Y-126523809D02*
X113702380Y-126523809D01*
X113845238Y-126619047D01*
X113940476Y-126714285D01*
X113988095Y-126809523D01*
X112202380Y-128142857D02*
X111726190Y-128476190D01*
X112202380Y-128714285D02*
X111202380Y-128714285D01*
X111202380Y-128333333D01*
X111250000Y-128238095D01*
X111297619Y-128190476D01*
X111392857Y-128142857D01*
X111535714Y-128142857D01*
X111630952Y-128190476D01*
X111678571Y-128238095D01*
X111726190Y-128333333D01*
X111726190Y-128714285D01*
X112202380Y-127190476D02*
X112202380Y-127761904D01*
X112202380Y-127476190D02*
X111202380Y-127476190D01*
X111345238Y-127571428D01*
X111440476Y-127666666D01*
X111488095Y-127761904D01*
X111202380Y-126571428D02*
X111202380Y-126476190D01*
X111250000Y-126380952D01*
X111297619Y-126333333D01*
X111392857Y-126285714D01*
X111583333Y-126238095D01*
X111821428Y-126238095D01*
X112011904Y-126285714D01*
X112107142Y-126333333D01*
X112154761Y-126380952D01*
X112202380Y-126476190D01*
X112202380Y-126571428D01*
X112154761Y-126666666D01*
X112107142Y-126714285D01*
X112011904Y-126761904D01*
X111821428Y-126809523D01*
X111583333Y-126809523D01*
X111392857Y-126761904D01*
X111297619Y-126714285D01*
X111250000Y-126666666D01*
X111202380Y-126571428D01*
X105952380Y-127416666D02*
X105476190Y-127750000D01*
X105952380Y-127988095D02*
X104952380Y-127988095D01*
X104952380Y-127607142D01*
X105000000Y-127511904D01*
X105047619Y-127464285D01*
X105142857Y-127416666D01*
X105285714Y-127416666D01*
X105380952Y-127464285D01*
X105428571Y-127511904D01*
X105476190Y-127607142D01*
X105476190Y-127988095D01*
X105952380Y-126940476D02*
X105952380Y-126750000D01*
X105904761Y-126654761D01*
X105857142Y-126607142D01*
X105714285Y-126511904D01*
X105523809Y-126464285D01*
X105142857Y-126464285D01*
X105047619Y-126511904D01*
X105000000Y-126559523D01*
X104952380Y-126654761D01*
X104952380Y-126845238D01*
X105000000Y-126940476D01*
X105047619Y-126988095D01*
X105142857Y-127035714D01*
X105380952Y-127035714D01*
X105476190Y-126988095D01*
X105523809Y-126940476D01*
X105571428Y-126845238D01*
X105571428Y-126654761D01*
X105523809Y-126559523D01*
X105476190Y-126511904D01*
X105380952Y-126464285D01*
X103202380Y-127166666D02*
X102726190Y-127500000D01*
X103202380Y-127738095D02*
X102202380Y-127738095D01*
X102202380Y-127357142D01*
X102250000Y-127261904D01*
X102297619Y-127214285D01*
X102392857Y-127166666D01*
X102535714Y-127166666D01*
X102630952Y-127214285D01*
X102678571Y-127261904D01*
X102726190Y-127357142D01*
X102726190Y-127738095D01*
X102630952Y-126595238D02*
X102583333Y-126690476D01*
X102535714Y-126738095D01*
X102440476Y-126785714D01*
X102392857Y-126785714D01*
X102297619Y-126738095D01*
X102250000Y-126690476D01*
X102202380Y-126595238D01*
X102202380Y-126404761D01*
X102250000Y-126309523D01*
X102297619Y-126261904D01*
X102392857Y-126214285D01*
X102440476Y-126214285D01*
X102535714Y-126261904D01*
X102583333Y-126309523D01*
X102630952Y-126404761D01*
X102630952Y-126595238D01*
X102678571Y-126690476D01*
X102726190Y-126738095D01*
X102821428Y-126785714D01*
X103011904Y-126785714D01*
X103107142Y-126738095D01*
X103154761Y-126690476D01*
X103202380Y-126595238D01*
X103202380Y-126404761D01*
X103154761Y-126309523D01*
X103107142Y-126261904D01*
X103011904Y-126214285D01*
X102821428Y-126214285D01*
X102726190Y-126261904D01*
X102678571Y-126309523D01*
X102630952Y-126404761D01*
X100702380Y-127166666D02*
X100226190Y-127500000D01*
X100702380Y-127738095D02*
X99702380Y-127738095D01*
X99702380Y-127357142D01*
X99750000Y-127261904D01*
X99797619Y-127214285D01*
X99892857Y-127166666D01*
X100035714Y-127166666D01*
X100130952Y-127214285D01*
X100178571Y-127261904D01*
X100226190Y-127357142D01*
X100226190Y-127738095D01*
X99702380Y-126833333D02*
X99702380Y-126166666D01*
X100702380Y-126595238D01*
X107952380Y-116916666D02*
X107476190Y-117250000D01*
X107952380Y-117488095D02*
X106952380Y-117488095D01*
X106952380Y-117107142D01*
X107000000Y-117011904D01*
X107047619Y-116964285D01*
X107142857Y-116916666D01*
X107285714Y-116916666D01*
X107380952Y-116964285D01*
X107428571Y-117011904D01*
X107476190Y-117107142D01*
X107476190Y-117488095D01*
X106952380Y-116059523D02*
X106952380Y-116250000D01*
X107000000Y-116345238D01*
X107047619Y-116392857D01*
X107190476Y-116488095D01*
X107380952Y-116535714D01*
X107761904Y-116535714D01*
X107857142Y-116488095D01*
X107904761Y-116440476D01*
X107952380Y-116345238D01*
X107952380Y-116154761D01*
X107904761Y-116059523D01*
X107857142Y-116011904D01*
X107761904Y-115964285D01*
X107523809Y-115964285D01*
X107428571Y-116011904D01*
X107380952Y-116059523D01*
X107333333Y-116154761D01*
X107333333Y-116345238D01*
X107380952Y-116440476D01*
X107428571Y-116488095D01*
X107523809Y-116535714D01*
X113083333Y-131202380D02*
X112750000Y-130726190D01*
X112511904Y-131202380D02*
X112511904Y-130202380D01*
X112892857Y-130202380D01*
X112988095Y-130250000D01*
X113035714Y-130297619D01*
X113083333Y-130392857D01*
X113083333Y-130535714D01*
X113035714Y-130630952D01*
X112988095Y-130678571D01*
X112892857Y-130726190D01*
X112511904Y-130726190D01*
X113988095Y-130202380D02*
X113511904Y-130202380D01*
X113464285Y-130678571D01*
X113511904Y-130630952D01*
X113607142Y-130583333D01*
X113845238Y-130583333D01*
X113940476Y-130630952D01*
X113988095Y-130678571D01*
X114035714Y-130773809D01*
X114035714Y-131011904D01*
X113988095Y-131107142D01*
X113940476Y-131154761D01*
X113845238Y-131202380D01*
X113607142Y-131202380D01*
X113511904Y-131154761D01*
X113464285Y-131107142D01*
X78933333Y-105632380D02*
X78600000Y-105156190D01*
X78361904Y-105632380D02*
X78361904Y-104632380D01*
X78742857Y-104632380D01*
X78838095Y-104680000D01*
X78885714Y-104727619D01*
X78933333Y-104822857D01*
X78933333Y-104965714D01*
X78885714Y-105060952D01*
X78838095Y-105108571D01*
X78742857Y-105156190D01*
X78361904Y-105156190D01*
X79790476Y-104965714D02*
X79790476Y-105632380D01*
X79552380Y-104584761D02*
X79314285Y-105299047D01*
X79933333Y-105299047D01*
X77952380Y-85366666D02*
X77476190Y-85700000D01*
X77952380Y-85938095D02*
X76952380Y-85938095D01*
X76952380Y-85557142D01*
X77000000Y-85461904D01*
X77047619Y-85414285D01*
X77142857Y-85366666D01*
X77285714Y-85366666D01*
X77380952Y-85414285D01*
X77428571Y-85461904D01*
X77476190Y-85557142D01*
X77476190Y-85938095D01*
X76952380Y-85033333D02*
X76952380Y-84414285D01*
X77333333Y-84747619D01*
X77333333Y-84604761D01*
X77380952Y-84509523D01*
X77428571Y-84461904D01*
X77523809Y-84414285D01*
X77761904Y-84414285D01*
X77857142Y-84461904D01*
X77904761Y-84509523D01*
X77952380Y-84604761D01*
X77952380Y-84890476D01*
X77904761Y-84985714D01*
X77857142Y-85033333D01*
X72952380Y-85166666D02*
X72476190Y-85500000D01*
X72952380Y-85738095D02*
X71952380Y-85738095D01*
X71952380Y-85357142D01*
X72000000Y-85261904D01*
X72047619Y-85214285D01*
X72142857Y-85166666D01*
X72285714Y-85166666D01*
X72380952Y-85214285D01*
X72428571Y-85261904D01*
X72476190Y-85357142D01*
X72476190Y-85738095D01*
X72047619Y-84785714D02*
X72000000Y-84738095D01*
X71952380Y-84642857D01*
X71952380Y-84404761D01*
X72000000Y-84309523D01*
X72047619Y-84261904D01*
X72142857Y-84214285D01*
X72238095Y-84214285D01*
X72380952Y-84261904D01*
X72952380Y-84833333D01*
X72952380Y-84214285D01*
X75452380Y-85166666D02*
X74976190Y-85500000D01*
X75452380Y-85738095D02*
X74452380Y-85738095D01*
X74452380Y-85357142D01*
X74500000Y-85261904D01*
X74547619Y-85214285D01*
X74642857Y-85166666D01*
X74785714Y-85166666D01*
X74880952Y-85214285D01*
X74928571Y-85261904D01*
X74976190Y-85357142D01*
X74976190Y-85738095D01*
X75452380Y-84214285D02*
X75452380Y-84785714D01*
X75452380Y-84500000D02*
X74452380Y-84500000D01*
X74595238Y-84595238D01*
X74690476Y-84690476D01*
X74738095Y-84785714D01*
X124357142Y-70630357D02*
X124404761Y-70677976D01*
X124452380Y-70820833D01*
X124452380Y-70916071D01*
X124404761Y-71058928D01*
X124309523Y-71154166D01*
X124214285Y-71201785D01*
X124023809Y-71249404D01*
X123880952Y-71249404D01*
X123690476Y-71201785D01*
X123595238Y-71154166D01*
X123500000Y-71058928D01*
X123452380Y-70916071D01*
X123452380Y-70820833D01*
X123500000Y-70677976D01*
X123547619Y-70630357D01*
X123547619Y-70249404D02*
X123500000Y-70201785D01*
X123452380Y-70106547D01*
X123452380Y-69868452D01*
X123500000Y-69773214D01*
X123547619Y-69725595D01*
X123642857Y-69677976D01*
X123738095Y-69677976D01*
X123880952Y-69725595D01*
X124452380Y-70297023D01*
X124452380Y-69677976D01*
X124357142Y-68677976D02*
X124404761Y-68725595D01*
X124452380Y-68868452D01*
X124452380Y-68963690D01*
X124404761Y-69106547D01*
X124309523Y-69201785D01*
X124214285Y-69249404D01*
X124023809Y-69297023D01*
X123880952Y-69297023D01*
X123690476Y-69249404D01*
X123595238Y-69201785D01*
X123500000Y-69106547D01*
X123452380Y-68963690D01*
X123452380Y-68868452D01*
X123500000Y-68725595D01*
X123547619Y-68677976D01*
X123547619Y-68297023D02*
X123500000Y-68249404D01*
X123452380Y-68154166D01*
X123452380Y-67916071D01*
X123500000Y-67820833D01*
X123547619Y-67773214D01*
X123642857Y-67725595D01*
X123738095Y-67725595D01*
X123880952Y-67773214D01*
X124452380Y-68344642D01*
X124452380Y-67725595D01*
X103907142Y-104392857D02*
X103954761Y-104440476D01*
X104002380Y-104583333D01*
X104002380Y-104678571D01*
X103954761Y-104821428D01*
X103859523Y-104916666D01*
X103764285Y-104964285D01*
X103573809Y-105011904D01*
X103430952Y-105011904D01*
X103240476Y-104964285D01*
X103145238Y-104916666D01*
X103050000Y-104821428D01*
X103002380Y-104678571D01*
X103002380Y-104583333D01*
X103050000Y-104440476D01*
X103097619Y-104392857D01*
X103097619Y-104011904D02*
X103050000Y-103964285D01*
X103002380Y-103869047D01*
X103002380Y-103630952D01*
X103050000Y-103535714D01*
X103097619Y-103488095D01*
X103192857Y-103440476D01*
X103288095Y-103440476D01*
X103430952Y-103488095D01*
X104002380Y-104059523D01*
X104002380Y-103440476D01*
X103907142Y-102440476D02*
X103954761Y-102488095D01*
X104002380Y-102630952D01*
X104002380Y-102726190D01*
X103954761Y-102869047D01*
X103859523Y-102964285D01*
X103764285Y-103011904D01*
X103573809Y-103059523D01*
X103430952Y-103059523D01*
X103240476Y-103011904D01*
X103145238Y-102964285D01*
X103050000Y-102869047D01*
X103002380Y-102726190D01*
X103002380Y-102630952D01*
X103050000Y-102488095D01*
X103097619Y-102440476D01*
X104002380Y-101488095D02*
X104002380Y-102059523D01*
X104002380Y-101773809D02*
X103002380Y-101773809D01*
X103145238Y-101869047D01*
X103240476Y-101964285D01*
X103288095Y-102059523D01*
X122357142Y-70642857D02*
X122404761Y-70690476D01*
X122452380Y-70833333D01*
X122452380Y-70928571D01*
X122404761Y-71071428D01*
X122309523Y-71166666D01*
X122214285Y-71214285D01*
X122023809Y-71261904D01*
X121880952Y-71261904D01*
X121690476Y-71214285D01*
X121595238Y-71166666D01*
X121500000Y-71071428D01*
X121452380Y-70928571D01*
X121452380Y-70833333D01*
X121500000Y-70690476D01*
X121547619Y-70642857D01*
X121547619Y-70261904D02*
X121500000Y-70214285D01*
X121452380Y-70119047D01*
X121452380Y-69880952D01*
X121500000Y-69785714D01*
X121547619Y-69738095D01*
X121642857Y-69690476D01*
X121738095Y-69690476D01*
X121880952Y-69738095D01*
X122452380Y-70309523D01*
X122452380Y-69690476D01*
X121928571Y-68928571D02*
X121976190Y-68785714D01*
X122023809Y-68738095D01*
X122119047Y-68690476D01*
X122261904Y-68690476D01*
X122357142Y-68738095D01*
X122404761Y-68785714D01*
X122452380Y-68880952D01*
X122452380Y-69261904D01*
X121452380Y-69261904D01*
X121452380Y-68928571D01*
X121500000Y-68833333D01*
X121547619Y-68785714D01*
X121642857Y-68738095D01*
X121738095Y-68738095D01*
X121833333Y-68785714D01*
X121880952Y-68833333D01*
X121928571Y-68928571D01*
X121928571Y-69261904D01*
X121547619Y-68309523D02*
X121500000Y-68261904D01*
X121452380Y-68166666D01*
X121452380Y-67928571D01*
X121500000Y-67833333D01*
X121547619Y-67785714D01*
X121642857Y-67738095D01*
X121738095Y-67738095D01*
X121880952Y-67785714D01*
X122452380Y-68357142D01*
X122452380Y-67738095D01*
X101857142Y-104392857D02*
X101904761Y-104440476D01*
X101952380Y-104583333D01*
X101952380Y-104678571D01*
X101904761Y-104821428D01*
X101809523Y-104916666D01*
X101714285Y-104964285D01*
X101523809Y-105011904D01*
X101380952Y-105011904D01*
X101190476Y-104964285D01*
X101095238Y-104916666D01*
X101000000Y-104821428D01*
X100952380Y-104678571D01*
X100952380Y-104583333D01*
X101000000Y-104440476D01*
X101047619Y-104392857D01*
X101047619Y-104011904D02*
X101000000Y-103964285D01*
X100952380Y-103869047D01*
X100952380Y-103630952D01*
X101000000Y-103535714D01*
X101047619Y-103488095D01*
X101142857Y-103440476D01*
X101238095Y-103440476D01*
X101380952Y-103488095D01*
X101952380Y-104059523D01*
X101952380Y-103440476D01*
X101428571Y-102678571D02*
X101476190Y-102535714D01*
X101523809Y-102488095D01*
X101619047Y-102440476D01*
X101761904Y-102440476D01*
X101857142Y-102488095D01*
X101904761Y-102535714D01*
X101952380Y-102630952D01*
X101952380Y-103011904D01*
X100952380Y-103011904D01*
X100952380Y-102678571D01*
X101000000Y-102583333D01*
X101047619Y-102535714D01*
X101142857Y-102488095D01*
X101238095Y-102488095D01*
X101333333Y-102535714D01*
X101380952Y-102583333D01*
X101428571Y-102678571D01*
X101428571Y-103011904D01*
X101952380Y-101488095D02*
X101952380Y-102059523D01*
X101952380Y-101773809D02*
X100952380Y-101773809D01*
X101095238Y-101869047D01*
X101190476Y-101964285D01*
X101238095Y-102059523D01*
X120357142Y-70558928D02*
X120404761Y-70606547D01*
X120452380Y-70749404D01*
X120452380Y-70844642D01*
X120404761Y-70987500D01*
X120309523Y-71082738D01*
X120214285Y-71130357D01*
X120023809Y-71177976D01*
X119880952Y-71177976D01*
X119690476Y-71130357D01*
X119595238Y-71082738D01*
X119500000Y-70987500D01*
X119452380Y-70844642D01*
X119452380Y-70749404D01*
X119500000Y-70606547D01*
X119547619Y-70558928D01*
X119547619Y-70177976D02*
X119500000Y-70130357D01*
X119452380Y-70035119D01*
X119452380Y-69797023D01*
X119500000Y-69701785D01*
X119547619Y-69654166D01*
X119642857Y-69606547D01*
X119738095Y-69606547D01*
X119880952Y-69654166D01*
X120452380Y-70225595D01*
X120452380Y-69606547D01*
X120166666Y-69225595D02*
X120166666Y-68749404D01*
X120452380Y-69320833D02*
X119452380Y-68987500D01*
X120452380Y-68654166D01*
X119547619Y-68368452D02*
X119500000Y-68320833D01*
X119452380Y-68225595D01*
X119452380Y-67987500D01*
X119500000Y-67892261D01*
X119547619Y-67844642D01*
X119642857Y-67797023D01*
X119738095Y-67797023D01*
X119880952Y-67844642D01*
X120452380Y-68416071D01*
X120452380Y-67797023D01*
X99857142Y-104308928D02*
X99904761Y-104356547D01*
X99952380Y-104499404D01*
X99952380Y-104594642D01*
X99904761Y-104737500D01*
X99809523Y-104832738D01*
X99714285Y-104880357D01*
X99523809Y-104927976D01*
X99380952Y-104927976D01*
X99190476Y-104880357D01*
X99095238Y-104832738D01*
X99000000Y-104737500D01*
X98952380Y-104594642D01*
X98952380Y-104499404D01*
X99000000Y-104356547D01*
X99047619Y-104308928D01*
X99047619Y-103927976D02*
X99000000Y-103880357D01*
X98952380Y-103785119D01*
X98952380Y-103547023D01*
X99000000Y-103451785D01*
X99047619Y-103404166D01*
X99142857Y-103356547D01*
X99238095Y-103356547D01*
X99380952Y-103404166D01*
X99952380Y-103975595D01*
X99952380Y-103356547D01*
X99666666Y-102975595D02*
X99666666Y-102499404D01*
X99952380Y-103070833D02*
X98952380Y-102737500D01*
X99952380Y-102404166D01*
X99952380Y-101547023D02*
X99952380Y-102118452D01*
X99952380Y-101832738D02*
X98952380Y-101832738D01*
X99095238Y-101927976D01*
X99190476Y-102023214D01*
X99238095Y-102118452D01*
X126357142Y-83642857D02*
X126404761Y-83690476D01*
X126452380Y-83833333D01*
X126452380Y-83928571D01*
X126404761Y-84071428D01*
X126309523Y-84166666D01*
X126214285Y-84214285D01*
X126023809Y-84261904D01*
X125880952Y-84261904D01*
X125690476Y-84214285D01*
X125595238Y-84166666D01*
X125500000Y-84071428D01*
X125452380Y-83928571D01*
X125452380Y-83833333D01*
X125500000Y-83690476D01*
X125547619Y-83642857D01*
X126452380Y-82690476D02*
X126452380Y-83261904D01*
X126452380Y-82976190D02*
X125452380Y-82976190D01*
X125595238Y-83071428D01*
X125690476Y-83166666D01*
X125738095Y-83261904D01*
X126452380Y-82261904D02*
X125452380Y-82261904D01*
X125452380Y-82023809D01*
X125500000Y-81880952D01*
X125595238Y-81785714D01*
X125690476Y-81738095D01*
X125880952Y-81690476D01*
X126023809Y-81690476D01*
X126214285Y-81738095D01*
X126309523Y-81785714D01*
X126404761Y-81880952D01*
X126452380Y-82023809D01*
X126452380Y-82261904D01*
X125547619Y-81309523D02*
X125500000Y-81261904D01*
X125452380Y-81166666D01*
X125452380Y-80928571D01*
X125500000Y-80833333D01*
X125547619Y-80785714D01*
X125642857Y-80738095D01*
X125738095Y-80738095D01*
X125880952Y-80785714D01*
X126452380Y-81357142D01*
X126452380Y-80738095D01*
X113407142Y-105457142D02*
X113359523Y-105504761D01*
X113216666Y-105552380D01*
X113121428Y-105552380D01*
X112978571Y-105504761D01*
X112883333Y-105409523D01*
X112835714Y-105314285D01*
X112788095Y-105123809D01*
X112788095Y-104980952D01*
X112835714Y-104790476D01*
X112883333Y-104695238D01*
X112978571Y-104600000D01*
X113121428Y-104552380D01*
X113216666Y-104552380D01*
X113359523Y-104600000D01*
X113407142Y-104647619D01*
X114359523Y-105552380D02*
X113788095Y-105552380D01*
X114073809Y-105552380D02*
X114073809Y-104552380D01*
X113978571Y-104695238D01*
X113883333Y-104790476D01*
X113788095Y-104838095D01*
X114788095Y-105552380D02*
X114788095Y-104552380D01*
X115026190Y-104552380D01*
X115169047Y-104600000D01*
X115264285Y-104695238D01*
X115311904Y-104790476D01*
X115359523Y-104980952D01*
X115359523Y-105123809D01*
X115311904Y-105314285D01*
X115264285Y-105409523D01*
X115169047Y-105504761D01*
X115026190Y-105552380D01*
X114788095Y-105552380D01*
X116311904Y-105552380D02*
X115740476Y-105552380D01*
X116026190Y-105552380D02*
X116026190Y-104552380D01*
X115930952Y-104695238D01*
X115835714Y-104790476D01*
X115740476Y-104838095D01*
X124357142Y-83642857D02*
X124404761Y-83690476D01*
X124452380Y-83833333D01*
X124452380Y-83928571D01*
X124404761Y-84071428D01*
X124309523Y-84166666D01*
X124214285Y-84214285D01*
X124023809Y-84261904D01*
X123880952Y-84261904D01*
X123690476Y-84214285D01*
X123595238Y-84166666D01*
X123500000Y-84071428D01*
X123452380Y-83928571D01*
X123452380Y-83833333D01*
X123500000Y-83690476D01*
X123547619Y-83642857D01*
X124452380Y-82690476D02*
X124452380Y-83261904D01*
X124452380Y-82976190D02*
X123452380Y-82976190D01*
X123595238Y-83071428D01*
X123690476Y-83166666D01*
X123738095Y-83261904D01*
X124357142Y-81690476D02*
X124404761Y-81738095D01*
X124452380Y-81880952D01*
X124452380Y-81976190D01*
X124404761Y-82119047D01*
X124309523Y-82214285D01*
X124214285Y-82261904D01*
X124023809Y-82309523D01*
X123880952Y-82309523D01*
X123690476Y-82261904D01*
X123595238Y-82214285D01*
X123500000Y-82119047D01*
X123452380Y-81976190D01*
X123452380Y-81880952D01*
X123500000Y-81738095D01*
X123547619Y-81690476D01*
X123547619Y-81309523D02*
X123500000Y-81261904D01*
X123452380Y-81166666D01*
X123452380Y-80928571D01*
X123500000Y-80833333D01*
X123547619Y-80785714D01*
X123642857Y-80738095D01*
X123738095Y-80738095D01*
X123880952Y-80785714D01*
X124452380Y-81357142D01*
X124452380Y-80738095D01*
X113407142Y-103457142D02*
X113359523Y-103504761D01*
X113216666Y-103552380D01*
X113121428Y-103552380D01*
X112978571Y-103504761D01*
X112883333Y-103409523D01*
X112835714Y-103314285D01*
X112788095Y-103123809D01*
X112788095Y-102980952D01*
X112835714Y-102790476D01*
X112883333Y-102695238D01*
X112978571Y-102600000D01*
X113121428Y-102552380D01*
X113216666Y-102552380D01*
X113359523Y-102600000D01*
X113407142Y-102647619D01*
X114359523Y-103552380D02*
X113788095Y-103552380D01*
X114073809Y-103552380D02*
X114073809Y-102552380D01*
X113978571Y-102695238D01*
X113883333Y-102790476D01*
X113788095Y-102838095D01*
X115359523Y-103457142D02*
X115311904Y-103504761D01*
X115169047Y-103552380D01*
X115073809Y-103552380D01*
X114930952Y-103504761D01*
X114835714Y-103409523D01*
X114788095Y-103314285D01*
X114740476Y-103123809D01*
X114740476Y-102980952D01*
X114788095Y-102790476D01*
X114835714Y-102695238D01*
X114930952Y-102600000D01*
X115073809Y-102552380D01*
X115169047Y-102552380D01*
X115311904Y-102600000D01*
X115359523Y-102647619D01*
X116311904Y-103552380D02*
X115740476Y-103552380D01*
X116026190Y-103552380D02*
X116026190Y-102552380D01*
X115930952Y-102695238D01*
X115835714Y-102790476D01*
X115740476Y-102838095D01*
X122357142Y-83642857D02*
X122404761Y-83690476D01*
X122452380Y-83833333D01*
X122452380Y-83928571D01*
X122404761Y-84071428D01*
X122309523Y-84166666D01*
X122214285Y-84214285D01*
X122023809Y-84261904D01*
X121880952Y-84261904D01*
X121690476Y-84214285D01*
X121595238Y-84166666D01*
X121500000Y-84071428D01*
X121452380Y-83928571D01*
X121452380Y-83833333D01*
X121500000Y-83690476D01*
X121547619Y-83642857D01*
X122452380Y-82690476D02*
X122452380Y-83261904D01*
X122452380Y-82976190D02*
X121452380Y-82976190D01*
X121595238Y-83071428D01*
X121690476Y-83166666D01*
X121738095Y-83261904D01*
X121928571Y-81928571D02*
X121976190Y-81785714D01*
X122023809Y-81738095D01*
X122119047Y-81690476D01*
X122261904Y-81690476D01*
X122357142Y-81738095D01*
X122404761Y-81785714D01*
X122452380Y-81880952D01*
X122452380Y-82261904D01*
X121452380Y-82261904D01*
X121452380Y-81928571D01*
X121500000Y-81833333D01*
X121547619Y-81785714D01*
X121642857Y-81738095D01*
X121738095Y-81738095D01*
X121833333Y-81785714D01*
X121880952Y-81833333D01*
X121928571Y-81928571D01*
X121928571Y-82261904D01*
X121547619Y-81309523D02*
X121500000Y-81261904D01*
X121452380Y-81166666D01*
X121452380Y-80928571D01*
X121500000Y-80833333D01*
X121547619Y-80785714D01*
X121642857Y-80738095D01*
X121738095Y-80738095D01*
X121880952Y-80785714D01*
X122452380Y-81357142D01*
X122452380Y-80738095D01*
X113407142Y-101457142D02*
X113359523Y-101504761D01*
X113216666Y-101552380D01*
X113121428Y-101552380D01*
X112978571Y-101504761D01*
X112883333Y-101409523D01*
X112835714Y-101314285D01*
X112788095Y-101123809D01*
X112788095Y-100980952D01*
X112835714Y-100790476D01*
X112883333Y-100695238D01*
X112978571Y-100600000D01*
X113121428Y-100552380D01*
X113216666Y-100552380D01*
X113359523Y-100600000D01*
X113407142Y-100647619D01*
X114359523Y-101552380D02*
X113788095Y-101552380D01*
X114073809Y-101552380D02*
X114073809Y-100552380D01*
X113978571Y-100695238D01*
X113883333Y-100790476D01*
X113788095Y-100838095D01*
X115121428Y-101028571D02*
X115264285Y-101076190D01*
X115311904Y-101123809D01*
X115359523Y-101219047D01*
X115359523Y-101361904D01*
X115311904Y-101457142D01*
X115264285Y-101504761D01*
X115169047Y-101552380D01*
X114788095Y-101552380D01*
X114788095Y-100552380D01*
X115121428Y-100552380D01*
X115216666Y-100600000D01*
X115264285Y-100647619D01*
X115311904Y-100742857D01*
X115311904Y-100838095D01*
X115264285Y-100933333D01*
X115216666Y-100980952D01*
X115121428Y-101028571D01*
X114788095Y-101028571D01*
X116311904Y-101552380D02*
X115740476Y-101552380D01*
X116026190Y-101552380D02*
X116026190Y-100552380D01*
X115930952Y-100695238D01*
X115835714Y-100790476D01*
X115740476Y-100838095D01*
X120357142Y-83571428D02*
X120404761Y-83619047D01*
X120452380Y-83761904D01*
X120452380Y-83857142D01*
X120404761Y-84000000D01*
X120309523Y-84095238D01*
X120214285Y-84142857D01*
X120023809Y-84190476D01*
X119880952Y-84190476D01*
X119690476Y-84142857D01*
X119595238Y-84095238D01*
X119500000Y-84000000D01*
X119452380Y-83857142D01*
X119452380Y-83761904D01*
X119500000Y-83619047D01*
X119547619Y-83571428D01*
X120452380Y-82619047D02*
X120452380Y-83190476D01*
X120452380Y-82904761D02*
X119452380Y-82904761D01*
X119595238Y-83000000D01*
X119690476Y-83095238D01*
X119738095Y-83190476D01*
X120166666Y-82238095D02*
X120166666Y-81761904D01*
X120452380Y-82333333D02*
X119452380Y-82000000D01*
X120452380Y-81666666D01*
X119547619Y-81380952D02*
X119500000Y-81333333D01*
X119452380Y-81238095D01*
X119452380Y-81000000D01*
X119500000Y-80904761D01*
X119547619Y-80857142D01*
X119642857Y-80809523D01*
X119738095Y-80809523D01*
X119880952Y-80857142D01*
X120452380Y-81428571D01*
X120452380Y-80809523D01*
X113478571Y-99457142D02*
X113430952Y-99504761D01*
X113288095Y-99552380D01*
X113192857Y-99552380D01*
X113050000Y-99504761D01*
X112954761Y-99409523D01*
X112907142Y-99314285D01*
X112859523Y-99123809D01*
X112859523Y-98980952D01*
X112907142Y-98790476D01*
X112954761Y-98695238D01*
X113050000Y-98600000D01*
X113192857Y-98552380D01*
X113288095Y-98552380D01*
X113430952Y-98600000D01*
X113478571Y-98647619D01*
X114430952Y-99552380D02*
X113859523Y-99552380D01*
X114145238Y-99552380D02*
X114145238Y-98552380D01*
X114050000Y-98695238D01*
X113954761Y-98790476D01*
X113859523Y-98838095D01*
X114811904Y-99266666D02*
X115288095Y-99266666D01*
X114716666Y-99552380D02*
X115050000Y-98552380D01*
X115383333Y-99552380D01*
X116240476Y-99552380D02*
X115669047Y-99552380D01*
X115954761Y-99552380D02*
X115954761Y-98552380D01*
X115859523Y-98695238D01*
X115764285Y-98790476D01*
X115669047Y-98838095D01*
X127107142Y-132642857D02*
X127154761Y-132690476D01*
X127202380Y-132833333D01*
X127202380Y-132928571D01*
X127154761Y-133071428D01*
X127059523Y-133166666D01*
X126964285Y-133214285D01*
X126773809Y-133261904D01*
X126630952Y-133261904D01*
X126440476Y-133214285D01*
X126345238Y-133166666D01*
X126250000Y-133071428D01*
X126202380Y-132928571D01*
X126202380Y-132833333D01*
X126250000Y-132690476D01*
X126297619Y-132642857D01*
X126297619Y-132261904D02*
X126250000Y-132214285D01*
X126202380Y-132119047D01*
X126202380Y-131880952D01*
X126250000Y-131785714D01*
X126297619Y-131738095D01*
X126392857Y-131690476D01*
X126488095Y-131690476D01*
X126630952Y-131738095D01*
X127202380Y-132309523D01*
X127202380Y-131690476D01*
X126202380Y-130833333D02*
X126202380Y-131023809D01*
X126250000Y-131119047D01*
X126297619Y-131166666D01*
X126440476Y-131261904D01*
X126630952Y-131309523D01*
X127011904Y-131309523D01*
X127107142Y-131261904D01*
X127154761Y-131214285D01*
X127202380Y-131119047D01*
X127202380Y-130928571D01*
X127154761Y-130833333D01*
X127107142Y-130785714D01*
X127011904Y-130738095D01*
X126773809Y-130738095D01*
X126678571Y-130785714D01*
X126630952Y-130833333D01*
X126583333Y-130928571D01*
X126583333Y-131119047D01*
X126630952Y-131214285D01*
X126678571Y-131261904D01*
X126773809Y-131309523D01*
X167274642Y-96107142D02*
X167227023Y-96154761D01*
X167084166Y-96202380D01*
X166988928Y-96202380D01*
X166846071Y-96154761D01*
X166750833Y-96059523D01*
X166703214Y-95964285D01*
X166655595Y-95773809D01*
X166655595Y-95630952D01*
X166703214Y-95440476D01*
X166750833Y-95345238D01*
X166846071Y-95250000D01*
X166988928Y-95202380D01*
X167084166Y-95202380D01*
X167227023Y-95250000D01*
X167274642Y-95297619D01*
X167655595Y-95297619D02*
X167703214Y-95250000D01*
X167798452Y-95202380D01*
X168036547Y-95202380D01*
X168131785Y-95250000D01*
X168179404Y-95297619D01*
X168227023Y-95392857D01*
X168227023Y-95488095D01*
X168179404Y-95630952D01*
X167607976Y-96202380D01*
X168227023Y-96202380D01*
X169131785Y-95202380D02*
X168655595Y-95202380D01*
X168607976Y-95678571D01*
X168655595Y-95630952D01*
X168750833Y-95583333D01*
X168988928Y-95583333D01*
X169084166Y-95630952D01*
X169131785Y-95678571D01*
X169179404Y-95773809D01*
X169179404Y-96011904D01*
X169131785Y-96107142D01*
X169084166Y-96154761D01*
X168988928Y-96202380D01*
X168750833Y-96202380D01*
X168655595Y-96154761D01*
X168607976Y-96107142D01*
X128857142Y-132642857D02*
X128904761Y-132690476D01*
X128952380Y-132833333D01*
X128952380Y-132928571D01*
X128904761Y-133071428D01*
X128809523Y-133166666D01*
X128714285Y-133214285D01*
X128523809Y-133261904D01*
X128380952Y-133261904D01*
X128190476Y-133214285D01*
X128095238Y-133166666D01*
X128000000Y-133071428D01*
X127952380Y-132928571D01*
X127952380Y-132833333D01*
X128000000Y-132690476D01*
X128047619Y-132642857D01*
X128047619Y-132261904D02*
X128000000Y-132214285D01*
X127952380Y-132119047D01*
X127952380Y-131880952D01*
X128000000Y-131785714D01*
X128047619Y-131738095D01*
X128142857Y-131690476D01*
X128238095Y-131690476D01*
X128380952Y-131738095D01*
X128952380Y-132309523D01*
X128952380Y-131690476D01*
X128285714Y-130833333D02*
X128952380Y-130833333D01*
X127904761Y-131071428D02*
X128619047Y-131309523D01*
X128619047Y-130690476D01*
X167274642Y-98357142D02*
X167227023Y-98404761D01*
X167084166Y-98452380D01*
X166988928Y-98452380D01*
X166846071Y-98404761D01*
X166750833Y-98309523D01*
X166703214Y-98214285D01*
X166655595Y-98023809D01*
X166655595Y-97880952D01*
X166703214Y-97690476D01*
X166750833Y-97595238D01*
X166846071Y-97500000D01*
X166988928Y-97452380D01*
X167084166Y-97452380D01*
X167227023Y-97500000D01*
X167274642Y-97547619D01*
X167655595Y-97547619D02*
X167703214Y-97500000D01*
X167798452Y-97452380D01*
X168036547Y-97452380D01*
X168131785Y-97500000D01*
X168179404Y-97547619D01*
X168227023Y-97642857D01*
X168227023Y-97738095D01*
X168179404Y-97880952D01*
X167607976Y-98452380D01*
X168227023Y-98452380D01*
X168560357Y-97452380D02*
X169179404Y-97452380D01*
X168846071Y-97833333D01*
X168988928Y-97833333D01*
X169084166Y-97880952D01*
X169131785Y-97928571D01*
X169179404Y-98023809D01*
X169179404Y-98261904D01*
X169131785Y-98357142D01*
X169084166Y-98404761D01*
X168988928Y-98452380D01*
X168703214Y-98452380D01*
X168607976Y-98404761D01*
X168560357Y-98357142D01*
X165507142Y-134607142D02*
X165459523Y-134654761D01*
X165316666Y-134702380D01*
X165221428Y-134702380D01*
X165078571Y-134654761D01*
X164983333Y-134559523D01*
X164935714Y-134464285D01*
X164888095Y-134273809D01*
X164888095Y-134130952D01*
X164935714Y-133940476D01*
X164983333Y-133845238D01*
X165078571Y-133750000D01*
X165221428Y-133702380D01*
X165316666Y-133702380D01*
X165459523Y-133750000D01*
X165507142Y-133797619D01*
X165888095Y-133797619D02*
X165935714Y-133750000D01*
X166030952Y-133702380D01*
X166269047Y-133702380D01*
X166364285Y-133750000D01*
X166411904Y-133797619D01*
X166459523Y-133892857D01*
X166459523Y-133988095D01*
X166411904Y-134130952D01*
X165840476Y-134702380D01*
X166459523Y-134702380D01*
X166840476Y-133797619D02*
X166888095Y-133750000D01*
X166983333Y-133702380D01*
X167221428Y-133702380D01*
X167316666Y-133750000D01*
X167364285Y-133797619D01*
X167411904Y-133892857D01*
X167411904Y-133988095D01*
X167364285Y-134130952D01*
X166792857Y-134702380D01*
X167411904Y-134702380D01*
X188857142Y-95392857D02*
X188904761Y-95440476D01*
X188952380Y-95583333D01*
X188952380Y-95678571D01*
X188904761Y-95821428D01*
X188809523Y-95916666D01*
X188714285Y-95964285D01*
X188523809Y-96011904D01*
X188380952Y-96011904D01*
X188190476Y-95964285D01*
X188095238Y-95916666D01*
X188000000Y-95821428D01*
X187952380Y-95678571D01*
X187952380Y-95583333D01*
X188000000Y-95440476D01*
X188047619Y-95392857D01*
X188047619Y-95011904D02*
X188000000Y-94964285D01*
X187952380Y-94869047D01*
X187952380Y-94630952D01*
X188000000Y-94535714D01*
X188047619Y-94488095D01*
X188142857Y-94440476D01*
X188238095Y-94440476D01*
X188380952Y-94488095D01*
X188952380Y-95059523D01*
X188952380Y-94440476D01*
X188952380Y-93488095D02*
X188952380Y-94059523D01*
X188952380Y-93773809D02*
X187952380Y-93773809D01*
X188095238Y-93869047D01*
X188190476Y-93964285D01*
X188238095Y-94059523D01*
X177507142Y-110880357D02*
X177554761Y-110927976D01*
X177602380Y-111070833D01*
X177602380Y-111166071D01*
X177554761Y-111308928D01*
X177459523Y-111404166D01*
X177364285Y-111451785D01*
X177173809Y-111499404D01*
X177030952Y-111499404D01*
X176840476Y-111451785D01*
X176745238Y-111404166D01*
X176650000Y-111308928D01*
X176602380Y-111166071D01*
X176602380Y-111070833D01*
X176650000Y-110927976D01*
X176697619Y-110880357D01*
X176697619Y-110499404D02*
X176650000Y-110451785D01*
X176602380Y-110356547D01*
X176602380Y-110118452D01*
X176650000Y-110023214D01*
X176697619Y-109975595D01*
X176792857Y-109927976D01*
X176888095Y-109927976D01*
X177030952Y-109975595D01*
X177602380Y-110547023D01*
X177602380Y-109927976D01*
X176602380Y-109308928D02*
X176602380Y-109213690D01*
X176650000Y-109118452D01*
X176697619Y-109070833D01*
X176792857Y-109023214D01*
X176983333Y-108975595D01*
X177221428Y-108975595D01*
X177411904Y-109023214D01*
X177507142Y-109070833D01*
X177554761Y-109118452D01*
X177602380Y-109213690D01*
X177602380Y-109308928D01*
X177554761Y-109404166D01*
X177507142Y-109451785D01*
X177411904Y-109499404D01*
X177221428Y-109547023D01*
X176983333Y-109547023D01*
X176792857Y-109499404D01*
X176697619Y-109451785D01*
X176650000Y-109404166D01*
X176602380Y-109308928D01*
X167274642Y-93857142D02*
X167227023Y-93904761D01*
X167084166Y-93952380D01*
X166988928Y-93952380D01*
X166846071Y-93904761D01*
X166750833Y-93809523D01*
X166703214Y-93714285D01*
X166655595Y-93523809D01*
X166655595Y-93380952D01*
X166703214Y-93190476D01*
X166750833Y-93095238D01*
X166846071Y-93000000D01*
X166988928Y-92952380D01*
X167084166Y-92952380D01*
X167227023Y-93000000D01*
X167274642Y-93047619D01*
X168227023Y-93952380D02*
X167655595Y-93952380D01*
X167941309Y-93952380D02*
X167941309Y-92952380D01*
X167846071Y-93095238D01*
X167750833Y-93190476D01*
X167655595Y-93238095D01*
X168703214Y-93952380D02*
X168893690Y-93952380D01*
X168988928Y-93904761D01*
X169036547Y-93857142D01*
X169131785Y-93714285D01*
X169179404Y-93523809D01*
X169179404Y-93142857D01*
X169131785Y-93047619D01*
X169084166Y-93000000D01*
X168988928Y-92952380D01*
X168798452Y-92952380D01*
X168703214Y-93000000D01*
X168655595Y-93047619D01*
X168607976Y-93142857D01*
X168607976Y-93380952D01*
X168655595Y-93476190D01*
X168703214Y-93523809D01*
X168798452Y-93571428D01*
X168988928Y-93571428D01*
X169084166Y-93523809D01*
X169131785Y-93476190D01*
X169179404Y-93380952D01*
X158757142Y-109642857D02*
X158804761Y-109690476D01*
X158852380Y-109833333D01*
X158852380Y-109928571D01*
X158804761Y-110071428D01*
X158709523Y-110166666D01*
X158614285Y-110214285D01*
X158423809Y-110261904D01*
X158280952Y-110261904D01*
X158090476Y-110214285D01*
X157995238Y-110166666D01*
X157900000Y-110071428D01*
X157852380Y-109928571D01*
X157852380Y-109833333D01*
X157900000Y-109690476D01*
X157947619Y-109642857D01*
X158852380Y-108690476D02*
X158852380Y-109261904D01*
X158852380Y-108976190D02*
X157852380Y-108976190D01*
X157995238Y-109071428D01*
X158090476Y-109166666D01*
X158138095Y-109261904D01*
X158280952Y-108119047D02*
X158233333Y-108214285D01*
X158185714Y-108261904D01*
X158090476Y-108309523D01*
X158042857Y-108309523D01*
X157947619Y-108261904D01*
X157900000Y-108214285D01*
X157852380Y-108119047D01*
X157852380Y-107928571D01*
X157900000Y-107833333D01*
X157947619Y-107785714D01*
X158042857Y-107738095D01*
X158090476Y-107738095D01*
X158185714Y-107785714D01*
X158233333Y-107833333D01*
X158280952Y-107928571D01*
X158280952Y-108119047D01*
X158328571Y-108214285D01*
X158376190Y-108261904D01*
X158471428Y-108309523D01*
X158661904Y-108309523D01*
X158757142Y-108261904D01*
X158804761Y-108214285D01*
X158852380Y-108119047D01*
X158852380Y-107928571D01*
X158804761Y-107833333D01*
X158757142Y-107785714D01*
X158661904Y-107738095D01*
X158471428Y-107738095D01*
X158376190Y-107785714D01*
X158328571Y-107833333D01*
X158280952Y-107928571D01*
X148957142Y-110342857D02*
X149004761Y-110390476D01*
X149052380Y-110533333D01*
X149052380Y-110628571D01*
X149004761Y-110771428D01*
X148909523Y-110866666D01*
X148814285Y-110914285D01*
X148623809Y-110961904D01*
X148480952Y-110961904D01*
X148290476Y-110914285D01*
X148195238Y-110866666D01*
X148100000Y-110771428D01*
X148052380Y-110628571D01*
X148052380Y-110533333D01*
X148100000Y-110390476D01*
X148147619Y-110342857D01*
X149052380Y-109390476D02*
X149052380Y-109961904D01*
X149052380Y-109676190D02*
X148052380Y-109676190D01*
X148195238Y-109771428D01*
X148290476Y-109866666D01*
X148338095Y-109961904D01*
X148052380Y-109057142D02*
X148052380Y-108390476D01*
X149052380Y-108819047D01*
X139757142Y-109742857D02*
X139804761Y-109790476D01*
X139852380Y-109933333D01*
X139852380Y-110028571D01*
X139804761Y-110171428D01*
X139709523Y-110266666D01*
X139614285Y-110314285D01*
X139423809Y-110361904D01*
X139280952Y-110361904D01*
X139090476Y-110314285D01*
X138995238Y-110266666D01*
X138900000Y-110171428D01*
X138852380Y-110028571D01*
X138852380Y-109933333D01*
X138900000Y-109790476D01*
X138947619Y-109742857D01*
X139852380Y-108790476D02*
X139852380Y-109361904D01*
X139852380Y-109076190D02*
X138852380Y-109076190D01*
X138995238Y-109171428D01*
X139090476Y-109266666D01*
X139138095Y-109361904D01*
X138852380Y-107933333D02*
X138852380Y-108123809D01*
X138900000Y-108219047D01*
X138947619Y-108266666D01*
X139090476Y-108361904D01*
X139280952Y-108409523D01*
X139661904Y-108409523D01*
X139757142Y-108361904D01*
X139804761Y-108314285D01*
X139852380Y-108219047D01*
X139852380Y-108028571D01*
X139804761Y-107933333D01*
X139757142Y-107885714D01*
X139661904Y-107838095D01*
X139423809Y-107838095D01*
X139328571Y-107885714D01*
X139280952Y-107933333D01*
X139233333Y-108028571D01*
X139233333Y-108219047D01*
X139280952Y-108314285D01*
X139328571Y-108361904D01*
X139423809Y-108409523D01*
X111507142Y-86955357D02*
X111554761Y-87002976D01*
X111602380Y-87145833D01*
X111602380Y-87241071D01*
X111554761Y-87383928D01*
X111459523Y-87479166D01*
X111364285Y-87526785D01*
X111173809Y-87574404D01*
X111030952Y-87574404D01*
X110840476Y-87526785D01*
X110745238Y-87479166D01*
X110650000Y-87383928D01*
X110602380Y-87241071D01*
X110602380Y-87145833D01*
X110650000Y-87002976D01*
X110697619Y-86955357D01*
X111602380Y-86002976D02*
X111602380Y-86574404D01*
X111602380Y-86288690D02*
X110602380Y-86288690D01*
X110745238Y-86383928D01*
X110840476Y-86479166D01*
X110888095Y-86574404D01*
X110602380Y-85098214D02*
X110602380Y-85574404D01*
X111078571Y-85622023D01*
X111030952Y-85574404D01*
X110983333Y-85479166D01*
X110983333Y-85241071D01*
X111030952Y-85145833D01*
X111078571Y-85098214D01*
X111173809Y-85050595D01*
X111411904Y-85050595D01*
X111507142Y-85098214D01*
X111554761Y-85145833D01*
X111602380Y-85241071D01*
X111602380Y-85479166D01*
X111554761Y-85574404D01*
X111507142Y-85622023D01*
X128557142Y-100207142D02*
X128509523Y-100254761D01*
X128366666Y-100302380D01*
X128271428Y-100302380D01*
X128128571Y-100254761D01*
X128033333Y-100159523D01*
X127985714Y-100064285D01*
X127938095Y-99873809D01*
X127938095Y-99730952D01*
X127985714Y-99540476D01*
X128033333Y-99445238D01*
X128128571Y-99350000D01*
X128271428Y-99302380D01*
X128366666Y-99302380D01*
X128509523Y-99350000D01*
X128557142Y-99397619D01*
X129509523Y-100302380D02*
X128938095Y-100302380D01*
X129223809Y-100302380D02*
X129223809Y-99302380D01*
X129128571Y-99445238D01*
X129033333Y-99540476D01*
X128938095Y-99588095D01*
X130366666Y-99635714D02*
X130366666Y-100302380D01*
X130128571Y-99254761D02*
X129890476Y-99969047D01*
X130509523Y-99969047D01*
X92857142Y-77307142D02*
X92809523Y-77354761D01*
X92666666Y-77402380D01*
X92571428Y-77402380D01*
X92428571Y-77354761D01*
X92333333Y-77259523D01*
X92285714Y-77164285D01*
X92238095Y-76973809D01*
X92238095Y-76830952D01*
X92285714Y-76640476D01*
X92333333Y-76545238D01*
X92428571Y-76450000D01*
X92571428Y-76402380D01*
X92666666Y-76402380D01*
X92809523Y-76450000D01*
X92857142Y-76497619D01*
X93809523Y-77402380D02*
X93238095Y-77402380D01*
X93523809Y-77402380D02*
X93523809Y-76402380D01*
X93428571Y-76545238D01*
X93333333Y-76640476D01*
X93238095Y-76688095D01*
X94142857Y-76402380D02*
X94761904Y-76402380D01*
X94428571Y-76783333D01*
X94571428Y-76783333D01*
X94666666Y-76830952D01*
X94714285Y-76878571D01*
X94761904Y-76973809D01*
X94761904Y-77211904D01*
X94714285Y-77307142D01*
X94666666Y-77354761D01*
X94571428Y-77402380D01*
X94285714Y-77402380D01*
X94190476Y-77354761D01*
X94142857Y-77307142D01*
X80457142Y-72042857D02*
X80504761Y-72090476D01*
X80552380Y-72233333D01*
X80552380Y-72328571D01*
X80504761Y-72471428D01*
X80409523Y-72566666D01*
X80314285Y-72614285D01*
X80123809Y-72661904D01*
X79980952Y-72661904D01*
X79790476Y-72614285D01*
X79695238Y-72566666D01*
X79600000Y-72471428D01*
X79552380Y-72328571D01*
X79552380Y-72233333D01*
X79600000Y-72090476D01*
X79647619Y-72042857D01*
X80552380Y-71090476D02*
X80552380Y-71661904D01*
X80552380Y-71376190D02*
X79552380Y-71376190D01*
X79695238Y-71471428D01*
X79790476Y-71566666D01*
X79838095Y-71661904D01*
X79647619Y-70709523D02*
X79600000Y-70661904D01*
X79552380Y-70566666D01*
X79552380Y-70328571D01*
X79600000Y-70233333D01*
X79647619Y-70185714D01*
X79742857Y-70138095D01*
X79838095Y-70138095D01*
X79980952Y-70185714D01*
X80552380Y-70757142D01*
X80552380Y-70138095D01*
X82107142Y-153357142D02*
X82059523Y-153404761D01*
X81916666Y-153452380D01*
X81821428Y-153452380D01*
X81678571Y-153404761D01*
X81583333Y-153309523D01*
X81535714Y-153214285D01*
X81488095Y-153023809D01*
X81488095Y-152880952D01*
X81535714Y-152690476D01*
X81583333Y-152595238D01*
X81678571Y-152500000D01*
X81821428Y-152452380D01*
X81916666Y-152452380D01*
X82059523Y-152500000D01*
X82107142Y-152547619D01*
X83059523Y-153452380D02*
X82488095Y-153452380D01*
X82773809Y-153452380D02*
X82773809Y-152452380D01*
X82678571Y-152595238D01*
X82583333Y-152690476D01*
X82488095Y-152738095D01*
X84011904Y-153452380D02*
X83440476Y-153452380D01*
X83726190Y-153452380D02*
X83726190Y-152452380D01*
X83630952Y-152595238D01*
X83535714Y-152690476D01*
X83440476Y-152738095D01*
X134607142Y-123357142D02*
X134559523Y-123404761D01*
X134416666Y-123452380D01*
X134321428Y-123452380D01*
X134178571Y-123404761D01*
X134083333Y-123309523D01*
X134035714Y-123214285D01*
X133988095Y-123023809D01*
X133988095Y-122880952D01*
X134035714Y-122690476D01*
X134083333Y-122595238D01*
X134178571Y-122500000D01*
X134321428Y-122452380D01*
X134416666Y-122452380D01*
X134559523Y-122500000D01*
X134607142Y-122547619D01*
X135559523Y-123452380D02*
X134988095Y-123452380D01*
X135273809Y-123452380D02*
X135273809Y-122452380D01*
X135178571Y-122595238D01*
X135083333Y-122690476D01*
X134988095Y-122738095D01*
X136178571Y-122452380D02*
X136273809Y-122452380D01*
X136369047Y-122500000D01*
X136416666Y-122547619D01*
X136464285Y-122642857D01*
X136511904Y-122833333D01*
X136511904Y-123071428D01*
X136464285Y-123261904D01*
X136416666Y-123357142D01*
X136369047Y-123404761D01*
X136273809Y-123452380D01*
X136178571Y-123452380D01*
X136083333Y-123404761D01*
X136035714Y-123357142D01*
X135988095Y-123261904D01*
X135940476Y-123071428D01*
X135940476Y-122833333D01*
X135988095Y-122642857D01*
X136035714Y-122547619D01*
X136083333Y-122500000D01*
X136178571Y-122452380D01*
X84333333Y-109007142D02*
X84285714Y-109054761D01*
X84142857Y-109102380D01*
X84047619Y-109102380D01*
X83904761Y-109054761D01*
X83809523Y-108959523D01*
X83761904Y-108864285D01*
X83714285Y-108673809D01*
X83714285Y-108530952D01*
X83761904Y-108340476D01*
X83809523Y-108245238D01*
X83904761Y-108150000D01*
X84047619Y-108102380D01*
X84142857Y-108102380D01*
X84285714Y-108150000D01*
X84333333Y-108197619D01*
X84809523Y-109102380D02*
X85000000Y-109102380D01*
X85095238Y-109054761D01*
X85142857Y-109007142D01*
X85238095Y-108864285D01*
X85285714Y-108673809D01*
X85285714Y-108292857D01*
X85238095Y-108197619D01*
X85190476Y-108150000D01*
X85095238Y-108102380D01*
X84904761Y-108102380D01*
X84809523Y-108150000D01*
X84761904Y-108197619D01*
X84714285Y-108292857D01*
X84714285Y-108530952D01*
X84761904Y-108626190D01*
X84809523Y-108673809D01*
X84904761Y-108721428D01*
X85095238Y-108721428D01*
X85190476Y-108673809D01*
X85238095Y-108626190D01*
X85285714Y-108530952D01*
X130607142Y-132416666D02*
X130654761Y-132464285D01*
X130702380Y-132607142D01*
X130702380Y-132702380D01*
X130654761Y-132845238D01*
X130559523Y-132940476D01*
X130464285Y-132988095D01*
X130273809Y-133035714D01*
X130130952Y-133035714D01*
X129940476Y-132988095D01*
X129845238Y-132940476D01*
X129750000Y-132845238D01*
X129702380Y-132702380D01*
X129702380Y-132607142D01*
X129750000Y-132464285D01*
X129797619Y-132416666D01*
X130130952Y-131845238D02*
X130083333Y-131940476D01*
X130035714Y-131988095D01*
X129940476Y-132035714D01*
X129892857Y-132035714D01*
X129797619Y-131988095D01*
X129750000Y-131940476D01*
X129702380Y-131845238D01*
X129702380Y-131654761D01*
X129750000Y-131559523D01*
X129797619Y-131511904D01*
X129892857Y-131464285D01*
X129940476Y-131464285D01*
X130035714Y-131511904D01*
X130083333Y-131559523D01*
X130130952Y-131654761D01*
X130130952Y-131845238D01*
X130178571Y-131940476D01*
X130226190Y-131988095D01*
X130321428Y-132035714D01*
X130511904Y-132035714D01*
X130607142Y-131988095D01*
X130654761Y-131940476D01*
X130702380Y-131845238D01*
X130702380Y-131654761D01*
X130654761Y-131559523D01*
X130607142Y-131511904D01*
X130511904Y-131464285D01*
X130321428Y-131464285D01*
X130226190Y-131511904D01*
X130178571Y-131559523D01*
X130130952Y-131654761D01*
X95557142Y-113666666D02*
X95604761Y-113714285D01*
X95652380Y-113857142D01*
X95652380Y-113952380D01*
X95604761Y-114095238D01*
X95509523Y-114190476D01*
X95414285Y-114238095D01*
X95223809Y-114285714D01*
X95080952Y-114285714D01*
X94890476Y-114238095D01*
X94795238Y-114190476D01*
X94700000Y-114095238D01*
X94652380Y-113952380D01*
X94652380Y-113857142D01*
X94700000Y-113714285D01*
X94747619Y-113666666D01*
X94652380Y-113333333D02*
X94652380Y-112666666D01*
X95652380Y-113095238D01*
X84757142Y-113866666D02*
X84804761Y-113914285D01*
X84852380Y-114057142D01*
X84852380Y-114152380D01*
X84804761Y-114295238D01*
X84709523Y-114390476D01*
X84614285Y-114438095D01*
X84423809Y-114485714D01*
X84280952Y-114485714D01*
X84090476Y-114438095D01*
X83995238Y-114390476D01*
X83900000Y-114295238D01*
X83852380Y-114152380D01*
X83852380Y-114057142D01*
X83900000Y-113914285D01*
X83947619Y-113866666D01*
X83852380Y-113009523D02*
X83852380Y-113200000D01*
X83900000Y-113295238D01*
X83947619Y-113342857D01*
X84090476Y-113438095D01*
X84280952Y-113485714D01*
X84661904Y-113485714D01*
X84757142Y-113438095D01*
X84804761Y-113390476D01*
X84852380Y-113295238D01*
X84852380Y-113104761D01*
X84804761Y-113009523D01*
X84757142Y-112961904D01*
X84661904Y-112914285D01*
X84423809Y-112914285D01*
X84328571Y-112961904D01*
X84280952Y-113009523D01*
X84233333Y-113104761D01*
X84233333Y-113295238D01*
X84280952Y-113390476D01*
X84328571Y-113438095D01*
X84423809Y-113485714D01*
X74407142Y-114066666D02*
X74454761Y-114114285D01*
X74502380Y-114257142D01*
X74502380Y-114352380D01*
X74454761Y-114495238D01*
X74359523Y-114590476D01*
X74264285Y-114638095D01*
X74073809Y-114685714D01*
X73930952Y-114685714D01*
X73740476Y-114638095D01*
X73645238Y-114590476D01*
X73550000Y-114495238D01*
X73502380Y-114352380D01*
X73502380Y-114257142D01*
X73550000Y-114114285D01*
X73597619Y-114066666D01*
X73502380Y-113161904D02*
X73502380Y-113638095D01*
X73978571Y-113685714D01*
X73930952Y-113638095D01*
X73883333Y-113542857D01*
X73883333Y-113304761D01*
X73930952Y-113209523D01*
X73978571Y-113161904D01*
X74073809Y-113114285D01*
X74311904Y-113114285D01*
X74407142Y-113161904D01*
X74454761Y-113209523D01*
X74502380Y-113304761D01*
X74502380Y-113542857D01*
X74454761Y-113638095D01*
X74407142Y-113685714D01*
X87357142Y-96604166D02*
X87404761Y-96651785D01*
X87452380Y-96794642D01*
X87452380Y-96889880D01*
X87404761Y-97032738D01*
X87309523Y-97127976D01*
X87214285Y-97175595D01*
X87023809Y-97223214D01*
X86880952Y-97223214D01*
X86690476Y-97175595D01*
X86595238Y-97127976D01*
X86500000Y-97032738D01*
X86452380Y-96889880D01*
X86452380Y-96794642D01*
X86500000Y-96651785D01*
X86547619Y-96604166D01*
X86785714Y-95747023D02*
X87452380Y-95747023D01*
X86404761Y-95985119D02*
X87119047Y-96223214D01*
X87119047Y-95604166D01*
X92083333Y-109757142D02*
X92035714Y-109804761D01*
X91892857Y-109852380D01*
X91797619Y-109852380D01*
X91654761Y-109804761D01*
X91559523Y-109709523D01*
X91511904Y-109614285D01*
X91464285Y-109423809D01*
X91464285Y-109280952D01*
X91511904Y-109090476D01*
X91559523Y-108995238D01*
X91654761Y-108900000D01*
X91797619Y-108852380D01*
X91892857Y-108852380D01*
X92035714Y-108900000D01*
X92083333Y-108947619D01*
X92416666Y-108852380D02*
X93035714Y-108852380D01*
X92702380Y-109233333D01*
X92845238Y-109233333D01*
X92940476Y-109280952D01*
X92988095Y-109328571D01*
X93035714Y-109423809D01*
X93035714Y-109661904D01*
X92988095Y-109757142D01*
X92940476Y-109804761D01*
X92845238Y-109852380D01*
X92559523Y-109852380D01*
X92464285Y-109804761D01*
X92416666Y-109757142D01*
X93333333Y-90607142D02*
X93285714Y-90654761D01*
X93142857Y-90702380D01*
X93047619Y-90702380D01*
X92904761Y-90654761D01*
X92809523Y-90559523D01*
X92761904Y-90464285D01*
X92714285Y-90273809D01*
X92714285Y-90130952D01*
X92761904Y-89940476D01*
X92809523Y-89845238D01*
X92904761Y-89750000D01*
X93047619Y-89702380D01*
X93142857Y-89702380D01*
X93285714Y-89750000D01*
X93333333Y-89797619D01*
X93714285Y-89797619D02*
X93761904Y-89750000D01*
X93857142Y-89702380D01*
X94095238Y-89702380D01*
X94190476Y-89750000D01*
X94238095Y-89797619D01*
X94285714Y-89892857D01*
X94285714Y-89988095D01*
X94238095Y-90130952D01*
X93666666Y-90702380D01*
X94285714Y-90702380D01*
X80457142Y-85066666D02*
X80504761Y-85114285D01*
X80552380Y-85257142D01*
X80552380Y-85352380D01*
X80504761Y-85495238D01*
X80409523Y-85590476D01*
X80314285Y-85638095D01*
X80123809Y-85685714D01*
X79980952Y-85685714D01*
X79790476Y-85638095D01*
X79695238Y-85590476D01*
X79600000Y-85495238D01*
X79552380Y-85352380D01*
X79552380Y-85257142D01*
X79600000Y-85114285D01*
X79647619Y-85066666D01*
X80552380Y-84114285D02*
X80552380Y-84685714D01*
X80552380Y-84400000D02*
X79552380Y-84400000D01*
X79695238Y-84495238D01*
X79790476Y-84590476D01*
X79838095Y-84685714D01*
X75957142Y-106842857D02*
X76004761Y-106890476D01*
X76052380Y-107033333D01*
X76052380Y-107128571D01*
X76004761Y-107271428D01*
X75909523Y-107366666D01*
X75814285Y-107414285D01*
X75623809Y-107461904D01*
X75480952Y-107461904D01*
X75290476Y-107414285D01*
X75195238Y-107366666D01*
X75100000Y-107271428D01*
X75052380Y-107128571D01*
X75052380Y-107033333D01*
X75100000Y-106890476D01*
X75147619Y-106842857D01*
X75147619Y-106461904D02*
X75100000Y-106414285D01*
X75052380Y-106319047D01*
X75052380Y-106080952D01*
X75100000Y-105985714D01*
X75147619Y-105938095D01*
X75242857Y-105890476D01*
X75338095Y-105890476D01*
X75480952Y-105938095D01*
X76052380Y-106509523D01*
X76052380Y-105890476D01*
X75052380Y-105557142D02*
X75052380Y-104890476D01*
X76052380Y-105319047D01*
X67957142Y-101442857D02*
X68004761Y-101490476D01*
X68052380Y-101633333D01*
X68052380Y-101728571D01*
X68004761Y-101871428D01*
X67909523Y-101966666D01*
X67814285Y-102014285D01*
X67623809Y-102061904D01*
X67480952Y-102061904D01*
X67290476Y-102014285D01*
X67195238Y-101966666D01*
X67100000Y-101871428D01*
X67052380Y-101728571D01*
X67052380Y-101633333D01*
X67100000Y-101490476D01*
X67147619Y-101442857D01*
X67147619Y-101061904D02*
X67100000Y-101014285D01*
X67052380Y-100919047D01*
X67052380Y-100680952D01*
X67100000Y-100585714D01*
X67147619Y-100538095D01*
X67242857Y-100490476D01*
X67338095Y-100490476D01*
X67480952Y-100538095D01*
X68052380Y-101109523D01*
X68052380Y-100490476D01*
X67480952Y-99919047D02*
X67433333Y-100014285D01*
X67385714Y-100061904D01*
X67290476Y-100109523D01*
X67242857Y-100109523D01*
X67147619Y-100061904D01*
X67100000Y-100014285D01*
X67052380Y-99919047D01*
X67052380Y-99728571D01*
X67100000Y-99633333D01*
X67147619Y-99585714D01*
X67242857Y-99538095D01*
X67290476Y-99538095D01*
X67385714Y-99585714D01*
X67433333Y-99633333D01*
X67480952Y-99728571D01*
X67480952Y-99919047D01*
X67528571Y-100014285D01*
X67576190Y-100061904D01*
X67671428Y-100109523D01*
X67861904Y-100109523D01*
X67957142Y-100061904D01*
X68004761Y-100014285D01*
X68052380Y-99919047D01*
X68052380Y-99728571D01*
X68004761Y-99633333D01*
X67957142Y-99585714D01*
X67861904Y-99538095D01*
X67671428Y-99538095D01*
X67576190Y-99585714D01*
X67528571Y-99633333D01*
X67480952Y-99728571D01*
X117857142Y-83542857D02*
X117904761Y-83590476D01*
X117952380Y-83733333D01*
X117952380Y-83828571D01*
X117904761Y-83971428D01*
X117809523Y-84066666D01*
X117714285Y-84114285D01*
X117523809Y-84161904D01*
X117380952Y-84161904D01*
X117190476Y-84114285D01*
X117095238Y-84066666D01*
X117000000Y-83971428D01*
X116952380Y-83828571D01*
X116952380Y-83733333D01*
X117000000Y-83590476D01*
X117047619Y-83542857D01*
X117047619Y-83161904D02*
X117000000Y-83114285D01*
X116952380Y-83019047D01*
X116952380Y-82780952D01*
X117000000Y-82685714D01*
X117047619Y-82638095D01*
X117142857Y-82590476D01*
X117238095Y-82590476D01*
X117380952Y-82638095D01*
X117952380Y-83209523D01*
X117952380Y-82590476D01*
X117952380Y-82114285D02*
X117952380Y-81923809D01*
X117904761Y-81828571D01*
X117857142Y-81780952D01*
X117714285Y-81685714D01*
X117523809Y-81638095D01*
X117142857Y-81638095D01*
X117047619Y-81685714D01*
X117000000Y-81733333D01*
X116952380Y-81828571D01*
X116952380Y-82019047D01*
X117000000Y-82114285D01*
X117047619Y-82161904D01*
X117142857Y-82209523D01*
X117380952Y-82209523D01*
X117476190Y-82161904D01*
X117523809Y-82114285D01*
X117571428Y-82019047D01*
X117571428Y-81828571D01*
X117523809Y-81733333D01*
X117476190Y-81685714D01*
X117380952Y-81638095D01*
X107857142Y-79542857D02*
X107904761Y-79590476D01*
X107952380Y-79733333D01*
X107952380Y-79828571D01*
X107904761Y-79971428D01*
X107809523Y-80066666D01*
X107714285Y-80114285D01*
X107523809Y-80161904D01*
X107380952Y-80161904D01*
X107190476Y-80114285D01*
X107095238Y-80066666D01*
X107000000Y-79971428D01*
X106952380Y-79828571D01*
X106952380Y-79733333D01*
X107000000Y-79590476D01*
X107047619Y-79542857D01*
X106952380Y-79209523D02*
X106952380Y-78590476D01*
X107333333Y-78923809D01*
X107333333Y-78780952D01*
X107380952Y-78685714D01*
X107428571Y-78638095D01*
X107523809Y-78590476D01*
X107761904Y-78590476D01*
X107857142Y-78638095D01*
X107904761Y-78685714D01*
X107952380Y-78780952D01*
X107952380Y-79066666D01*
X107904761Y-79161904D01*
X107857142Y-79209523D01*
X106952380Y-77971428D02*
X106952380Y-77876190D01*
X107000000Y-77780952D01*
X107047619Y-77733333D01*
X107142857Y-77685714D01*
X107333333Y-77638095D01*
X107571428Y-77638095D01*
X107761904Y-77685714D01*
X107857142Y-77733333D01*
X107904761Y-77780952D01*
X107952380Y-77876190D01*
X107952380Y-77971428D01*
X107904761Y-78066666D01*
X107857142Y-78114285D01*
X107761904Y-78161904D01*
X107571428Y-78209523D01*
X107333333Y-78209523D01*
X107142857Y-78161904D01*
X107047619Y-78114285D01*
X107000000Y-78066666D01*
X106952380Y-77971428D01*
X120957142Y-118607142D02*
X120909523Y-118654761D01*
X120766666Y-118702380D01*
X120671428Y-118702380D01*
X120528571Y-118654761D01*
X120433333Y-118559523D01*
X120385714Y-118464285D01*
X120338095Y-118273809D01*
X120338095Y-118130952D01*
X120385714Y-117940476D01*
X120433333Y-117845238D01*
X120528571Y-117750000D01*
X120671428Y-117702380D01*
X120766666Y-117702380D01*
X120909523Y-117750000D01*
X120957142Y-117797619D01*
X121290476Y-117702380D02*
X121909523Y-117702380D01*
X121576190Y-118083333D01*
X121719047Y-118083333D01*
X121814285Y-118130952D01*
X121861904Y-118178571D01*
X121909523Y-118273809D01*
X121909523Y-118511904D01*
X121861904Y-118607142D01*
X121814285Y-118654761D01*
X121719047Y-118702380D01*
X121433333Y-118702380D01*
X121338095Y-118654761D01*
X121290476Y-118607142D01*
X122861904Y-118702380D02*
X122290476Y-118702380D01*
X122576190Y-118702380D02*
X122576190Y-117702380D01*
X122480952Y-117845238D01*
X122385714Y-117940476D01*
X122290476Y-117988095D01*
X118107142Y-125107142D02*
X118059523Y-125154761D01*
X117916666Y-125202380D01*
X117821428Y-125202380D01*
X117678571Y-125154761D01*
X117583333Y-125059523D01*
X117535714Y-124964285D01*
X117488095Y-124773809D01*
X117488095Y-124630952D01*
X117535714Y-124440476D01*
X117583333Y-124345238D01*
X117678571Y-124250000D01*
X117821428Y-124202380D01*
X117916666Y-124202380D01*
X118059523Y-124250000D01*
X118107142Y-124297619D01*
X118440476Y-124202380D02*
X119059523Y-124202380D01*
X118726190Y-124583333D01*
X118869047Y-124583333D01*
X118964285Y-124630952D01*
X119011904Y-124678571D01*
X119059523Y-124773809D01*
X119059523Y-125011904D01*
X119011904Y-125107142D01*
X118964285Y-125154761D01*
X118869047Y-125202380D01*
X118583333Y-125202380D01*
X118488095Y-125154761D01*
X118440476Y-125107142D01*
X119440476Y-124297619D02*
X119488095Y-124250000D01*
X119583333Y-124202380D01*
X119821428Y-124202380D01*
X119916666Y-124250000D01*
X119964285Y-124297619D01*
X120011904Y-124392857D01*
X120011904Y-124488095D01*
X119964285Y-124630952D01*
X119392857Y-125202380D01*
X120011904Y-125202380D01*
X183857142Y-90892857D02*
X183904761Y-90940476D01*
X183952380Y-91083333D01*
X183952380Y-91178571D01*
X183904761Y-91321428D01*
X183809523Y-91416666D01*
X183714285Y-91464285D01*
X183523809Y-91511904D01*
X183380952Y-91511904D01*
X183190476Y-91464285D01*
X183095238Y-91416666D01*
X183000000Y-91321428D01*
X182952380Y-91178571D01*
X182952380Y-91083333D01*
X183000000Y-90940476D01*
X183047619Y-90892857D01*
X182952380Y-90559523D02*
X182952380Y-89940476D01*
X183333333Y-90273809D01*
X183333333Y-90130952D01*
X183380952Y-90035714D01*
X183428571Y-89988095D01*
X183523809Y-89940476D01*
X183761904Y-89940476D01*
X183857142Y-89988095D01*
X183904761Y-90035714D01*
X183952380Y-90130952D01*
X183952380Y-90416666D01*
X183904761Y-90511904D01*
X183857142Y-90559523D01*
X182952380Y-89607142D02*
X182952380Y-88988095D01*
X183333333Y-89321428D01*
X183333333Y-89178571D01*
X183380952Y-89083333D01*
X183428571Y-89035714D01*
X183523809Y-88988095D01*
X183761904Y-88988095D01*
X183857142Y-89035714D01*
X183904761Y-89083333D01*
X183952380Y-89178571D01*
X183952380Y-89464285D01*
X183904761Y-89559523D01*
X183857142Y-89607142D01*
X172507142Y-99207142D02*
X172459523Y-99254761D01*
X172316666Y-99302380D01*
X172221428Y-99302380D01*
X172078571Y-99254761D01*
X171983333Y-99159523D01*
X171935714Y-99064285D01*
X171888095Y-98873809D01*
X171888095Y-98730952D01*
X171935714Y-98540476D01*
X171983333Y-98445238D01*
X172078571Y-98350000D01*
X172221428Y-98302380D01*
X172316666Y-98302380D01*
X172459523Y-98350000D01*
X172507142Y-98397619D01*
X172840476Y-98302380D02*
X173459523Y-98302380D01*
X173126190Y-98683333D01*
X173269047Y-98683333D01*
X173364285Y-98730952D01*
X173411904Y-98778571D01*
X173459523Y-98873809D01*
X173459523Y-99111904D01*
X173411904Y-99207142D01*
X173364285Y-99254761D01*
X173269047Y-99302380D01*
X172983333Y-99302380D01*
X172888095Y-99254761D01*
X172840476Y-99207142D01*
X174316666Y-98635714D02*
X174316666Y-99302380D01*
X174078571Y-98254761D02*
X173840476Y-98969047D01*
X174459523Y-98969047D01*
X195857142Y-103742857D02*
X195904761Y-103790476D01*
X195952380Y-103933333D01*
X195952380Y-104028571D01*
X195904761Y-104171428D01*
X195809523Y-104266666D01*
X195714285Y-104314285D01*
X195523809Y-104361904D01*
X195380952Y-104361904D01*
X195190476Y-104314285D01*
X195095238Y-104266666D01*
X195000000Y-104171428D01*
X194952380Y-104028571D01*
X194952380Y-103933333D01*
X195000000Y-103790476D01*
X195047619Y-103742857D01*
X194952380Y-103409523D02*
X194952380Y-102790476D01*
X195333333Y-103123809D01*
X195333333Y-102980952D01*
X195380952Y-102885714D01*
X195428571Y-102838095D01*
X195523809Y-102790476D01*
X195761904Y-102790476D01*
X195857142Y-102838095D01*
X195904761Y-102885714D01*
X195952380Y-102980952D01*
X195952380Y-103266666D01*
X195904761Y-103361904D01*
X195857142Y-103409523D01*
X194952380Y-101885714D02*
X194952380Y-102361904D01*
X195428571Y-102409523D01*
X195380952Y-102361904D01*
X195333333Y-102266666D01*
X195333333Y-102028571D01*
X195380952Y-101933333D01*
X195428571Y-101885714D01*
X195523809Y-101838095D01*
X195761904Y-101838095D01*
X195857142Y-101885714D01*
X195904761Y-101933333D01*
X195952380Y-102028571D01*
X195952380Y-102266666D01*
X195904761Y-102361904D01*
X195857142Y-102409523D01*
X202927142Y-103642857D02*
X202974761Y-103690476D01*
X203022380Y-103833333D01*
X203022380Y-103928571D01*
X202974761Y-104071428D01*
X202879523Y-104166666D01*
X202784285Y-104214285D01*
X202593809Y-104261904D01*
X202450952Y-104261904D01*
X202260476Y-104214285D01*
X202165238Y-104166666D01*
X202070000Y-104071428D01*
X202022380Y-103928571D01*
X202022380Y-103833333D01*
X202070000Y-103690476D01*
X202117619Y-103642857D01*
X202022380Y-103309523D02*
X202022380Y-102690476D01*
X202403333Y-103023809D01*
X202403333Y-102880952D01*
X202450952Y-102785714D01*
X202498571Y-102738095D01*
X202593809Y-102690476D01*
X202831904Y-102690476D01*
X202927142Y-102738095D01*
X202974761Y-102785714D01*
X203022380Y-102880952D01*
X203022380Y-103166666D01*
X202974761Y-103261904D01*
X202927142Y-103309523D01*
X202022380Y-101833333D02*
X202022380Y-102023809D01*
X202070000Y-102119047D01*
X202117619Y-102166666D01*
X202260476Y-102261904D01*
X202450952Y-102309523D01*
X202831904Y-102309523D01*
X202927142Y-102261904D01*
X202974761Y-102214285D01*
X203022380Y-102119047D01*
X203022380Y-101928571D01*
X202974761Y-101833333D01*
X202927142Y-101785714D01*
X202831904Y-101738095D01*
X202593809Y-101738095D01*
X202498571Y-101785714D01*
X202450952Y-101833333D01*
X202403333Y-101928571D01*
X202403333Y-102119047D01*
X202450952Y-102214285D01*
X202498571Y-102261904D01*
X202593809Y-102309523D01*
X74352380Y-99011904D02*
X75161904Y-99011904D01*
X75257142Y-98964285D01*
X75304761Y-98916666D01*
X75352380Y-98821428D01*
X75352380Y-98630952D01*
X75304761Y-98535714D01*
X75257142Y-98488095D01*
X75161904Y-98440476D01*
X74352380Y-98440476D01*
X75352380Y-97440476D02*
X75352380Y-98011904D01*
X75352380Y-97726190D02*
X74352380Y-97726190D01*
X74495238Y-97821428D01*
X74590476Y-97916666D01*
X74638095Y-98011904D01*
M02*
